<?xml version="1.0" encoding="UTF-8"?>
<svg id="Layer_1" xmlns="http://www.w3.org/2000/svg" version="1.1" viewBox="0 0 24 24">
  <!-- Generator: Adobe Illustrator 29.0.0, SVG Export Plug-In . SVG Version: 2.1.0 Build 186)  -->
  <path d="M12,3C7.1,3,3,7,3,12s4.1,9,9,9,9-4,9-9S17,3,12,3ZM15.7,14.3c.4.4.4,1,0,1.4-.4.4-.5.3-.7.3s-.5,0-.7-.3l-2.3-2.3-2.3,2.3c-.2.2-.5.3-.7.3s-.5,0-.7-.3c-.4-.4-.4-1,0-1.4l2.3-2.3-2.3-2.3c-.4-.4-.4-1,0-1.4.4-.4,1-.4,1.4,0l2.3,2.3,2.3-2.3c.4-.4,1-.4,1.4,0,.4.4.4,1,0,1.4l-2.3,2.3,2.3,2.3Z"/>
</svg>