<?xml version="1.0" encoding="UTF-8"?>
<svg xmlns="http://www.w3.org/2000/svg" viewBox="0 0 48 48" fill="none">
  <path d="M47.5 24.5c0-1.6-.1-3.2-.4-4.7H24v8.9h13.2c-.6 3-2.3 5.6-4.9 7.3v6h7.9c4.6-4.3 7.3-10.6 7.3-17.5z" fill="#4285F4"/>
  <path d="M24 48c6.6 0 12.2-2.2 16.2-6l-7.9-6c-2.2 1.5-5 2.3-8.3 2.3-6.4 0-11.8-4.3-13.7-10.1H2.1v6.2C6.1 42.9 14.5 48 24 48z" fill="#34A853"/>
  <path d="M10.3 28.2A14.6 14.6 0 019.5 24c0-1.5.3-2.9.8-4.2V13.6H2.1A24 24 0 000 24c0 3.9.9 7.5 2.1 10.4l8.2-6.2z" fill="#FBBC05"/>
  <path d="M24 9.6c3.6 0 6.8 1.2 9.3 3.6l7-7C36.2 2.2 30.6 0 24 0 14.5 0 6.1 5.1 2.1 13.6l8.2 6.2C12.2 13.9 17.6 9.6 24 9.6z" fill="#EA4335"/>
</svg>
