<?xml version="1.0" encoding="UTF-8"?>
<svg id="Layer_1" xmlns="http://www.w3.org/2000/svg" version="1.1" viewBox="0 0 128 128">
  <!-- Generator: Adobe Illustrator 29.0.0, SVG Export Plug-In . SVG Version: 2.1.0 Build 186)  -->
  <defs>
    <style>
      .st0 {
        fill: #3a3835;
      }

      .st1 {
        fill: #dededc;
      }

      .st2 {
        fill: #5f4028;
      }

      .st3 {
        fill: #262524;
      }

      .st4 {
        fill: #201f1e;
      }

      .st5 {
        fill: #403e3c;
      }

      .st6 {
        fill: #b09170;
      }

      .st7 {
        fill: #9e7646;
      }

      .st8 {
        fill: #eae9e5;
      }

      .st9 {
        fill: #2c2a29;
      }

      .st10 {
        fill: #f3f4ef;
      }

      .st11 {
        fill: #cbcecb;
      }

      .st12 {
        fill: #33312f;
      }

      .st13 {
        fill: #f0efeb;
      }
    </style>
  </defs>
  <path class="st10" d="M90.3918683,5.6110225l-3.4771963,3.8063005s-3.7265455,3.5432727-3.9098182,3.5432727-7.1476364,1.7716364-7.1476364,1.7716364h-7.8856679l-4.4401082.9774545-12.5907543,4.5818182s-5.3845605,2.8026902-5.8121968,3.0202542-4.4596364,2.8364751-4.4596364,2.8364751c0,0,.1221818,1.2298162.4276364,1.4741798s2.688,1.0535078,2.688,1.0535078h2.5658182l5.4907368-1.5422351,6.2387177-1.6494545h1.9549091l.7941818,1.3709237s.8552727,1.1130151,1.0996364,1.1234093,4.6797105.3769397,4.6797105.3769397l6.1566781-.9163636,4.7417932.5394239,5.1316364.6973566,4.8261818-2.1531442,9.2247273-8.5527273,2.6553233-2.9948615-8.9526725-9.3641663Z"/>
  <path class="st3" d="M43.1058224,27.8343056c-.4037486-.52766-.3148472-2.1883141.2016313-2.51848l9.0367263-4.3251095,11.0458589-3.5113479c.6521563-.1868943.556191.9156721.2468351,1.1563337-.429137.3338447-3.5971665,1.4737012-4.3623658,1.7310806-4.8644392,1.636183-9.1150998,2.6341878-13.6545435,5.3679163-.5769899.3474729-2.3307838,1.1314162-1.130729,1.979274,1.7088311,1.2073164,7.9471601-1.853414,10.0718109-2.2706122,1.4821362-.2910335,3.4627362-.1480983,4.8557392-.4602104.8853752-.1983745,1.3451097-1.1239201,2.0611601-1.5753238,2.7581644-1.738768,6.8258505-1.6445991,9.8973683-2.4124587.7021026-.1755211,5.6921662-2.530705,4.338619-.4177606-.9917228,1.5481213-8.7363904,2.3304592-10.7864795,2.9220591-1.1621089.335353-4.9604811,1.6239871-3.6553752,3.3804826,1.6262469,2.1887077,8.6171244-.0682448,11.1194921-.0539704,3.9085296.0222956,6.7395166,1.9218453,11.0680916.933303,5.0026617-1.1424875,9.6718266-8.2247638,13.6440965-11.5311731.3350669-.2789006,1.9010885-1.6089021,2.240782-1.2531194.3365923,1.5438055-.5303501,1.4633439-1.2665074,2.2268197-3.2502097,3.3708236-10.1635356,11.3165314-14.6137868,11.9602547-2.0156841.2915662-4.3791066-.2994381-6.0485025-.1256566-.860194.0895448-2.2903303,1.4459611-3.5304357,1.0389936l-.0190609,9.0559722c.080167.2956299,2.0415143.2034312,2.2705193,1.973891l.0298552,37.4413613c.0437833.1325432,2.0162583,1.6006329,2.2134513,1.7027584,1.2173859.6304795,5.3005631.9179399,4.9715636,3.0324187-.2773516,1.7825378-3.2908591,1.7898635-3.5527217,2.1990739-.2633325.4115074.1079303,2.62166-.0404634,3.3180103,5.8573727-.7714315,9.9207695,2.6871087,10.3660811,8.5154395.5495623,7.1927864-2.5480217,13.223009-10.3339436,13.6039583.0630931,2.7474081.2048328,4.3695467-2.1797617,6.0718381-5.7735989,4.1216013-21.3595104,3.8607521-27.4164725.3766818-1.8623329-1.0712464-2.7043862-2.1545889-2.9026767-4.3695707l.0238307-27.3707961c-.1070624-.450104-3.6333694-.7603818-3.628982-2.5623495.0048337-1.9852659,3.5287557-2.122643,4.810128-2.7211127.5033823-.2351066,2.3588555-1.5743335,2.445546-2.0300725l-.0160501-37.2076141c.2187691-1.6712792,1.9688283-1.5424259,2.2085574-2.2669212.6073206-1.8354094-.3600744-6.5893354.0428678-8.7629688-1.4061818.4573031-3.1288415-1.2341271-4.0983902-1.3288808-.5019007-.0490506-1.2223491.4509544-1.9149872.4906202-2.2827585.1307284-7.5687437.6183672-7.1308058-2.9121949.1379332-1.1119881.9235479-1.403601,1.6983603-1.9587893,5.7037682-4.0870098,12.1466686-5.7557147,18.5869608-7.989428,2.2016042-.7635915,3.7561717-1.9472583,6.1553316-2.2373804,7.3413357-.8877621,13.5598881,1.3028799,19.1690768-4.6112948.7030798-.741308,3.2053901-4.2896042,3.7705359-4.3562183.3462671-.0408147.9116503.1237983.9782097.4389904.0947642.4487557-4.4545427,5.6467986-5.1840676,6.278522-5.5105793,4.7718203-13.0659401,2.45195-19.5129839,3.708319-1.4763037.287695-3.1010543,1.3945304-4.5353422,1.8989618-2.9707454,1.0447951-6.3464391,1.6780314-9.1732067,2.8565541-3.4047966,1.4195118-6.8249488,3.8489438-10.1520781,5.5114015-1.0216972,1.0758911-.0556934,2.1867976,1.2716326,1.9695247ZM75.0019389,28.3990719c-4.0717476-1.3390549-10.9458351,2.7157473-14.3706707-.3201314-.7639335-.677174-.6301558-1.8719994-1.4333156-1.9307064-2.87219.1787447-5.5271009.8602625-8.2572655,1.6917861.0288239.3346665.383732.4742176.6437573.6117642,3.5732784,1.8901721,17.5427918,1.5245455,21.6943037.5982147.4354147-.0971545,1.5807281-.2165223,1.723191-.6509271ZM72.4850777,30.3537371c-5.8896637.8707203-12.3007998.8703633-18.1870739,0v11.4650715c4.1646365.8634902,8.7595158,1.0970135,13.02243.8505779.700564-.040499,5.1646439-.5042757,5.1646439-.9903958v-11.3252536ZM53.1759921,41.5391348v-1.1184677c-1.1987764.3801938-1.1987764.738274,0,1.1184677ZM74.7230292,40.7034405c-.0279796-.0341134-.6252524-.0952339-.8361386-.2827734v1.1184677c.397287-.1613808,1.2181145-.3699797.8361386-.8356943ZM52.0595947,66.1471311c.015007,3.7968686-.4896636,9.495084-.0137229,13.0167837.1505149,1.1137279.9209427,1.3879361,1.9097099,1.7266845,4.5984817,1.5754248,13.5889829,1.504126,18.3064126.2737363.5458222-.1423602,2.3739415-.6447753,2.606343-1.0304628.3754422-.6230741.1294946-12.6596039.1349505-14.5460135.0223526-7.7284952.097812-15.487847-.1380793-23.2079401l-.8432352.5554761-.1628645,21.0999534c.0003491,1.1273368-1.0448544,1.1261571-1.6538323,1.8321465-.4486124.0779544-2.6351471.4729062-2.751005.6073123-.357947.4152522.1796224,2.2062764-1.8664984,2.2034036-1.7944272-.0025194-1.98344-1.9240428-2.2815521-1.9921671-.4770069-.1090052-2.3593043.3252123-3.3110589.2969766-1.9173159-.0568811-4.4744209-.5077342-6.2981526-1.1155254-1.0774204-.3590696-2.0703438-.4445805-2.5118582-1.8239929l.0043611-21.1949325-1.1284351-.4691029c.02061,7.9178648-.0327776,15.8498361-.0014827,23.7676642ZM61.2930322,61.3933209c-.3305725-1.7858788,1.3012311-1.5284067,2.3505828-.8008452.3340805.2316327,1.0997034.5233701,1.4166977.5191183,2.7047576-.0362787,5.2431807.2521712,7.7045661,1.4002704v-19.2948765c-6.1063154.9949613-12.357172,1.1116506-18.466875,0v19.2948765c2.0778431-.8329163,4.1723729-1.3268562,6.4354261-1.1185436.0164547.851949-.3983738.7035805-.974609.844614-.6436478.1575328-6.2394444.6581207-5.179826,2.2268762.3293982.4876711,5.650406,1.1602296,6.5497454,1.4109287l.7211888-.8469718c.0326399.2366581-.1396459.772445.1561956.8595648.1076815.0317102.2637764-.0322162.4061121-.0208376.1844972.014749.3744391-.0111422.5596023,0,2.417485.1454721,2.9588146-.767581,4.3411734-.8584708,1.0273839-.0675503,1.4215212.5303843,2.0954204.4732125,2.2374065-.1898155,4.8530399-1.4862984,1.2718749-2.7046676-1.1878445-.4041236-4.0818571-.8449262-5.3311906-.8493204-1.03521-.0036411-2.6721221.6007392-3.6034875.3212658-.2940876-.0882464-.4851323-.6147371-.4525975-.8561937ZM68.2491396,65.9062814c-.7203165-.4606762-2.5647189.4265017-1.6648897,1.5206328,1.1737878,1.4272463,2.6787914-.8721951,1.6648897-1.5206328ZM50.8005609,80.1337687c-.3793006-.0049525-1.7559175,1.659676-.0558469,2.5681279,4.4285061,2.3664223,20.9304347,2.1371808,25.5312799-.0428208.9294274-.4403872,1.2924224-.841771.7002321-1.8451481-.7766138-1.3158547-.9682267-.0732761-1.7711031.4954285-3.6324347,2.5729766-19.125672,2.455995-22.9650641.1771725-.3924954-.2329607-1.3407102-1.3514701-1.439498-1.3527599ZM49.0524504,83.1362068c-.3604775-.3796444-.2723729-1.6549263-.485697-1.604715-.3961695.2533953-4.2046223,1.0133934-3.5015173,1.9496646.2847936.3792379,8.1279146,2.281437,9.1681523,2.4448823,5.5825442.8771463,13.542847.9242497,19.1052529-.0504255,1.1586678-.2030281,7.8863184-1.924658,8.493613-2.365851.2450748-.1780442.2441633-.4955029.170633-.7244888-.0588592-.1832974-3.5104607-1.4019984-3.6403065-1.2598076-.049872.0546136.0876314.8034189-.3977147,1.4243526-2.0437818,2.6147385-15.4290927,2.6993548-18.7820196,2.5038595-1.8395909-.1072589-8.9988919-1.1258039-10.1303961-2.3174711ZM48.7019811,85.7216434v28.3830429c0,1.2392741,3.0552513,2.7594365,4.1202794,3.1526871,5.7339153,2.1171893,17.9879182,2.194221,23.3905897-.8252956.5352109-.2991258,2.1480513-1.4749485,2.1480513-2.0477557v-28.6626788c-.3390152.3336648-1.8413141.4908476-1.9249593.5931365-.4967232.6074373.691719,1.6451803-1.8903038,2.7245702-1.034996.4326702-4.5085151,1.1564676-5.558075,1.1564676h-4.0571165c.0714198,3.1776475-.3126646,6.3935978.5884541,9.4781424,2.354857.22139,10.2756125.6767515,11.2971634,3.1114.7937368,1.8917022-.1979388,8.5205622.0237633,10.9176944-.7378101,2.2332653-8.2539565,3.4672874-10.3733809,3.6145397-3.087252.2144945-15.229174-.2028766-16.3081787-3.8294272.3237487-2.9433865-.685426-8.0608609.0630985-10.7344009.5953657-2.1264955,9.0193119-2.9065696,11.0325754-3.0891487.8611216-3.0853549.5534297-6.2989536.6001487-9.4702508-2.0189506.1230686-9.6234749-.3332459-10.6532392-2.0764898-.3419759-.5789163-.1478369-1.3668841-.5336419-1.7037748-.3419438-.2985904-1.4891567-.3232296-1.9652287-.6924586ZM52.4159747,87.6028952c.9185161.7952591,6.4519986,1.40681,7.886172,1.4859536,2.6930339.1486127,12.2457141-.0290593,14.2534788-1.437686.3694724-.259218.4148098-.6597311.7217005-.9537001-7.6056649,1.4582108-15.5649508,1.2800999-23.2177094.1455502-.0334234.0253939.2790671.6929631.3563581.7598822ZM79.7586543,109.4919547c10.5528188,1.3766017,12.7993533-18.5588886,2.9082885-19.5443439-.5238299-.0521896-2.6351661-.0057023-2.876492.2777233-.1890658.2220486.0644696,1.7369004-.0286364,2.2065792,9.4412117-2.9596074,9.4614092,13.4859721,1.7514295,15.0352365-.451282.0906818-1.6919466.0035518-1.7549834.0646445-.0876271.0849248.0610954,1.5813664.0003938,1.9601604ZM62.4823846,102.4294801c.2882618.2902512.9310688.418287,1.3249096.2247319,1.3532812-.6650771.0797488-4.1791823.0085605-5.3322859-.1183869-1.9176213.1637529-4.0019121.0100782-5.8824298-.0400944-.4906358.0567477-.9158813-.4386076-1.2409129-.6781846-.1333127-.3971634.5431189-.4154065.9736903-.0815916,1.925725.1421432,3.9719098-.003634,5.8710723-.0930944,1.212819-1.2044081,4.6626676-.4859002,5.3861342ZM79.7599072,93.9709022v12.4437971c.7895843-.2460224,1.6649048-.2103062,2.4438302-.4937657,5.1199731-1.8632143,4.9735491-14.5604367-1.5598517-12.4634633-.2586374.0830128-.808908.2796938-.8839785.5134318ZM61.0013839,101.1141057c-.5658697-.5628081-8.3649205.9480725-9.1538315,1.7314351-1.2703891,1.2614545.8952894,1.9110164,1.9521755,2.2493963,4.659386,1.4917808,14.8361502,1.5855488,19.4640049.0006883.4740444-.1623418,2.4956023-.9876163,2.5788616-1.3412349.4097668-1.740361-8.5780703-2.9676617-9.9148618-2.661625.0748639,2.1364602-2.7809892,4.0212993-4.3154907,2.067129-.5220254-.6647934-.5351495-1.97049-.6108579-2.0457888ZM75.8426913,105.8554276c-8.1447746,2.1072031-16.5853621,2.5031479-24.6225-.2796359v6.8510793c0,1.4187226,2.0096006,2.2921649,3.2031797,2.6710657,3.9397597,1.2506738,10.9945989,1.4466321,15.052233.7528635.9127059-.1560532,6.3670872-1.6788528,6.3670872-2.5850215v-7.4103511Z"/>
  <path class="st13" d="M48.7019811,85.7216434c.476072.369229,1.6232849.3938682,1.9652287.6924586.385805.3368906.191666,1.1248585.5336419,1.7037748,1.0297643,1.743244,8.6342887,2.1995585,10.6532392,2.0764898-.0467189,3.1712972.2609729,6.3848959-.6001487,9.4702508-2.0132635.182579-10.4372097.9626532-11.0325754,3.0891487-.7485245,2.67354.2606502,7.7910144-.0630985,10.7344009,1.0790048,3.6265506,13.2209267,4.0439218,16.3081787,3.8294272,2.1194244-.1472523,9.6355707-1.3812744,10.3733809-3.6145397-.2217021-2.3971323.7699735-9.0259922-.0237633-10.9176944-1.0215509-2.4346484-8.9423063-2.8900099-11.2971634-3.1114-.9011187-3.0845447-.5170343-6.3004949-.5884541-9.4781424h4.0571165c1.0495599,0,4.523079-.7237974,5.558075-1.1564676,2.5820227-1.0793899,1.3935806-2.1171329,1.8903038-2.7245702.0836453-.1022889,1.5859441-.2594716,1.9249593-.5931365v28.6626788c0,.5728071-1.6128404,1.7486299-2.1480513,2.0477557-5.4026715,3.0195165-17.6566744,2.9424849-23.3905897.8252956-1.0650281-.3932507-4.1202794-1.913413-4.1202794-3.1526871v-28.3830429ZM57.555774,91.6260283c-.7898997.2608006-1.7371444,3.4081013-1.5773793,4.2900633.3089073,1.7052816,3.1412915,1.7269511,3.5753906.2335582.3423691-1.1778223-.4606867-5.0311988-1.9980113-4.5236215ZM68.4826186,91.6337605c-1.6552922.4826358-2.1242434,5.5622964,1.2989883,4.3873533,1.5549733-.5337077.3711729-4.8743244-1.2989883-4.3873533Z"/>
  <path class="st6" d="M75.0032879,65.5878593c-.0054559,1.8864095.2404917,13.9229393-.1349505,14.5460135-.2324015.3856875-2.0605208.8881027-2.606343,1.0304628-4.7174297,1.2303898-13.707931,1.3016885-18.3064126-.2737363-.9887672-.3387484-1.7591949-.6129566-1.9097099-1.7266845-.4759407-3.5216997.0287299-9.2199151.0137229-13.0167837,1.1520559-.1446272,2.6902503.3402742,3.6374148-.2796359,1.8237318.6077912,4.3808367,1.0586443,6.2981526,1.1155254.9517546.0282358,2.834052-.4059817,3.3110589-.2969766.2981121.0681243.4871249,1.9896477,2.2815521,1.9921671,2.0461208.0028728,1.5085514-1.7881515,1.8664984-2.2034036.115858-.1344061,2.3023927-.5293579,2.751005-.6073123.9245296-.1606535,1.8434905-.3785661,2.7980114-.2796359ZM54.5764027,67.267132c-.6912016-.0749978-1.4728949-.019054-1.3962192.8359803l1.3991035.0002711-.0028843-.8362515ZM73.8826796,67.5467817c-.6141361.1833971-2.453704-.5152201-2.2384307.556044.8163225-.0773718,2.1998889.859421,2.2384307-.556044ZM58.4931208,68.105407l-1.6741033.414384c.5519005.7420065,1.7323514.5751232,1.6741033-.414384ZM54.0182027,70.3416694c.2062358-.2052735,1.1348606-.1315153.8366.6962456-.3486152.9675097-1.2010845-.3334618-.8366-.6962456-.0546002.0554682-1.1365027-.0793798-.4232784,1.1246887.3964668.669317,1.0721314.2975899,1.5424829.2734908-.3091812.8543693-.2098889,1.2461421.8379331,1.396796l.0014256-1.3983675c-.2778474.0064459-.5609199-.0126946-.8393587.0015716.2989592-.8261227,1.1103206-1.9630708-.7087111-1.9853083-.6326103-.0077336-.3493089.5249715-.4104935.5871288ZM73.3231033,70.3431386c-.1029139-.0952708-1.0468286-.1765097-.835265.4137653.3092934.8629469,1.1280619-.1427135.835265-.4137653ZM71.6442332,70.6227683h-1.1163225v.5563459h1.1163225v-.5563459ZM72.7663665,72.0206835l-1.3990645.0002656c-.2192603.7614891.7219686.7853492,1.396104.8360574l.0029605-.836323ZM67.0968348,73.4616413c-2.221722.3945324-1.8262334,4.0167833.471891,3.8686016,2.7481689-.1772003,2.1957758-4.3423247-.471891-3.8686016ZM53.7467713,77.3240654c.6938069.8863298,2.1474205-1.0360531.9680954-1.3869498-.9189285-.2734183-1.2308502,1.0512838-.9680954,1.3869498ZM71.7194914,78.2452479c-1.0416024,1.0396051.8568552,2.2223381,1.4819169,1.3401812.6125112-.8644443-.5729615-2.2473936-1.4819169-1.3401812ZM64.6106763,78.2115214c-1.2005181-.7577503-2.4625016,1.0764882-1.0792727,1.7901632,1.2432741.6414655,1.7349511-1.3763081,1.0792727-1.7901632ZM57.3507631,80.1034327c.759313-1.0606556-1.3501206-2.0303786-1.6517167-.9444913-.2790841,1.0048335,1.2347319,1.5269616,1.6517167.9444913Z"/>
  <path class="st8" d="M60.73343,61.3933209c-2.2630532-.2083126-4.357583.2856273-6.4354261,1.1185436v-19.2948765c6.109703,1.1116506,12.3605596.9949613,18.466875,0v19.2948765c-2.4613854-1.1480992-4.9998085-1.4365492-7.7045661-1.4002704-.3169943.0042518-1.8947316.1871835-3.7672805.2817269-.0997808-.0452961-.3829046.0162649-.5596023,0ZM67.0963575,47.7346696c-2.4913141.4500053-1.8176532,4.4005083.9853434,3.8221829,2.2843478-.4713158,1.4495066-4.261989-.9853434-3.8221829ZM66.809681,56.4136624c-1.4222093.4219251-1.8016413,3.0647098-.28734,3.5257489,3.9491952,1.2023588,3.6689695-4.5289727.28734-3.5257489Z"/>
  <path class="st8" d="M72.4850777,30.3537371v11.3252536c0,.4861201-4.4640799.9498968-5.1646439.9903958-4.2629142.2464356-8.8577934.0129123-13.02243-.8505779v-11.4650715c5.886274.8703633,12.2974102.8707203,18.1870739,0Z"/>
  <path class="st2" d="M75.8426913,105.8554276v7.4103511c0,.9061688-5.4543813,2.4289684-6.3670872,2.5850215-4.0576341.6937686-11.1124733.4978103-15.052233-.7528635-1.1935791-.3789008-3.2031797-1.2523431-3.2031797-2.6710657v-6.8510793c8.0371379,2.7827838,16.4777254,2.386839,24.6225.2796359Z"/>
  <path class="st7" d="M61.0013839,101.1141057c.0757084.0752988.0888325,1.3809954.6108579,2.0457888,1.5345015,1.9541703,4.3903546.0693312,4.3154907-2.067129,1.3367915-.3060367,10.3246286.9212641,9.9148618,2.661625-.0832592.3536186-2.1048172,1.1788931-2.5788616,1.3412349-4.6278547,1.5848605-14.8046189,1.4910924-19.4640049-.0006883-1.0568861-.3383799-3.2225646-.9879417-1.9521755-2.2493963.788911-.7833626,8.5879618-2.2942432,9.1538315-1.7314351Z"/>
  <path class="st8" d="M79.7586543,109.4919547c.0607016-.378794-.0880209-1.8752356-.0003938-1.9601604.0630368-.0610928,1.3037015.0260373,1.7549834-.0646445,7.7099796-1.5492644,7.6897822-17.9948439-1.7514295-15.0352365.093106-.4696788-.1604294-1.9845306.0286364-2.2065792.2413259-.2834255,2.3526621-.3299129,2.876492-.2777233,9.8910649.9854553,7.6445303,20.9209456-2.9082885,19.5443439Z"/>
  <path class="st1" d="M49.0524504,83.1362068c1.1315042,1.1916671,8.2908052,2.2102121,10.1303961,2.3174711,3.3529269.1954953,16.7382378.110879,18.7820196-2.5038595.485346-.6209337.3478427-1.369739.3977147-1.4243526.1298457-.1421909,3.5814473,1.0765102,3.6403065,1.2598076.0735303.2289859.0744418.5464446-.170633.7244888-.6072946.4411931-7.3349452,2.1628229-8.493613,2.365851-5.5624059.9746752-13.5227088.9275718-19.1052529.0504255-1.0402377-.1634453-8.8833586-2.0656444-9.1681523-2.4448823-.703105-.9362712,3.1053478-1.6962693,3.5015173-1.9496646.2133241-.0502113.1252195,1.2250706.485697,1.604715Z"/>
  <path class="st11" d="M61.2930322,61.3933209s.1585099.7679473.4525975.8561937c.9313654.2794734,2.5682775-.3249069,3.6034875-.3212658,1.2493335.0043942,4.1433461.4451968,5.3311906.8493204,3.5811649,1.2183693.9655316,2.5148522-1.2718749,2.7046676-.6738992.0571718-1.0680365-.5407627-2.0954204-.4732125-1.3823588.0908898-1.9236884,1.0039429-4.3411734.8584708,0,0-.4696434.0608278-.6863488.0608278s-.7525629.0090491-1.1567499-.0525831-6.2203472-.9232576-6.5497454-1.4109287c-1.0596184-1.5687555,4.5361782-2.0693435,5.179826-2.2268762.5762352-.1410335.9910637.007335.974609-.844614.1766977.0162649.5596023,0,.5596023,0Z"/>
  <path class="st8" d="M50.8005609,80.1337687c.0987878.0012899,1.0470026,1.1197992,1.439498,1.3527599,3.8393921,2.2788225,19.3326294,2.3958041,22.9650641-.1771725.8028764-.5687045.9944893-1.8112832,1.7711031-.4954285.5921904,1.0033771.2291954,1.4047609-.7002321,1.8451481-4.6008453,2.1800017-21.1027738,2.4092431-25.5312799.0428208-1.7000706-.9084519-.3234538-2.5730804.0558469-2.5681279Z"/>
  <path class="st1" d="M75.0019389,28.3990719c-.1424629.4344048-1.2877763.5537726-1.723191.6509271-4.1515119.9263308-18.1210252,1.2919574-21.6943037-.5982147-.2600252-.1375466-.6149334-.2770977-.6437573-.6117642,2.7301647-.8315236,5.3850755-1.5130414,8.2572655-1.6917861.8031598.058707.6693821,1.2535324,1.4333156,1.9307064,3.4248357,3.0358787,10.2989231-1.0189234,14.3706707.3201314Z"/>
  <path class="st8" d="M52.0595947,66.1471311c-.0312949-7.9178281.0220926-15.8497994.0014827-23.7676642l1.1284351.4691029-.0043611,21.1949325c.4415144,1.3794124,1.4344378,1.4649233,2.5118582,1.8239929-.9471644.6199101-2.4853588.1350087-3.6374148.2796359Z"/>
  <path class="st8" d="M52.4159747,87.6028952c-.0772909-.0669191-.3897815-.7344884-.3563581-.7598822,7.6527585,1.1345496,15.6120444,1.3126606,23.2177094-.1455502-.3068907.2939689-.352228.6944821-.7217005.9537001-2.0077647,1.4086267-11.5604449,1.5862987-14.2534788,1.437686-1.4341734-.0791436-6.9676559-.6906945-7.886172-1.4859536Z"/>
  <path class="st8" d="M75.0032879,65.5878593c-.9545209-.0989302-1.8734818.1189824-2.7980114.2796359.608978-.7059894,1.6541814-.7048097,1.6538323-1.8321465l.1628645-21.0999534.8432352-.5554761c.2358913,7.7200932.1604319,15.479445.1380793,23.2079401Z"/>
  <path class="st2" d="M62.4823846,102.4294801c-.7185079-.7234666.3928058-4.1733152.4859002-5.3861342.1457772-1.8991624-.0779576-3.9453473.003634-5.8710723.018243-.4305714-.2627781-1.1070029.4154065-.9736903.4953553.3250316.3985131.7502771.4386076,1.2409129.1536747,1.8805178-.128465,3.9648085-.0100782,5.8824298.0711884,1.1531036,1.3447207,4.6672087-.0085605,5.3322859-.3938408.1935551-1.0366478.0655193-1.3249096-.2247319Z"/>
  <path class="st6" d="M68.2491396,65.9062814c1.0139016.6484377-.4911019,2.9478791-1.6648897,1.5206328-.8998292-1.0941312.9445732-1.9813091,1.6648897-1.5206328ZM68.0068323,67.2642483c.723487-.7230597-1.1099887-1.5011579-1.1121775-.418034-.0005843.2891419.9396436.590466,1.1121775.418034Z"/>
  <path class="st11" d="M53.1759921,41.5391348c-1.1987764-.3801938-1.1987764-.738274,0-1.1184677v1.1184677Z"/>
  <path class="st11" d="M74.7230292,40.7034405c.3819759.4657146-.4388516.6743135-.8361386.8356943v-1.1184677c.2108862.1875395.8081591.24866.8361386.2827734Z"/>
  <path class="st4" d="M57.555774,91.6260283c1.5373246-.5075773,2.3403804,3.3457993,1.9980113,4.5236215-.4340991,1.4933928-3.2664832,1.4717233-3.5753906-.2335582-.1597651-.881962.7874796-4.0292627,1.5773793-4.2900633ZM57.6589854,93.2724715c-.2371678.6397601-1.2097413,3.2575206.4137252,2.7931922.7892574-.2257358.4732574-2.5945299-.4137252-2.7931922Z"/>
  <path class="st3" d="M68.4826186,91.6337605c1.6701612-.4869711,2.8539616,3.8536456,1.2989883,4.3873533-3.4232317,1.1749431-2.9542805-3.9047176-1.2989883-4.3873533ZM68.5707449,93.273009c-.2252619.1655984-.5367946,1.8052434.4126371,1.6751747.9405092-.4575082.181744-2.1121264-.4126371-1.6751747Z"/>
  <path class="st3" d="M67.0968348,73.4616413c2.6676667-.4737231,3.2200599,3.6914013.471891,3.8686016-2.2981243.1481817-2.6936129-3.4740691-.471891-3.8686016ZM66.6797054,76.1436132c.9535639.9530008,2.7720205-.6092453,1.4928619-1.6317883-1.2244821-.9788354-2.3131432.8119915-1.4928619,1.6317883Z"/>
  <path class="st2" d="M55.1374072,71.7398489c-.4703515.0240991-1.1460161.3958262-1.5424829-.2734908-.7132243-1.2040685.3686782-1.0692204.4232784-1.1246887-.3644845.3627838.4879847,1.6637553.8366.6962456.2982607-.8277609-.6303642-.9015191-.8366-.6962456.0611846-.0621573-.2221168-.5948624.4104935-.5871288,1.8190317.0222375,1.0076703,1.1591856.7087111,1.9853083Z"/>
  <path class="st0" d="M64.6106763,78.2115214c.6556784.4138551.1640014,2.4316287-1.0792727,1.7901632-1.3832289-.713675-.1212454-2.5479134,1.0792727-1.7901632Z"/>
  <path class="st12" d="M71.7194914,78.2452479c.9089554-.9072125,2.0944281.4757368,1.4819169,1.3401812-.6250617.882157-2.5235193-.3005761-1.4819169-1.3401812ZM72.7634088,78.4524873c-.2638986-.2992844-1.1367123.5686502-.8365556.8360615.4715801.4201333,1.2590266-.3569419.8365556-.8360615Z"/>
  <path class="st0" d="M57.3507631,80.1034327c-.4169848.5824703-1.9308009.0603421-1.6517167-.9444913.3015962-1.0858873,2.4110298-.1161642,1.6517167.9444913Z"/>
  <path class="st12" d="M53.7467713,77.3240654c-.2627548-.335666.049167-1.6603681.9680954-1.3869498,1.1793251.3508968-.2742885,2.2732796-.9680954,1.3869498Z"/>
  <path class="st12" d="M73.8826796,67.5467817c-.0385418,1.415465-1.4221081.4786722-2.2384307.556044-.2152734-1.0712641,1.6242945-.3726469,2.2384307-.556044Z"/>
  <path class="st0" d="M55.1374072,71.7398489c.2784388-.0142662.5615113.0048743.8393587-.0015716l-.0014256,1.3983675c-1.0478219-.1506539-1.1471143-.5424267-.8379331-1.396796Z"/>
  <path class="st5" d="M54.5764027,67.267132l.0028843.8362515-1.3991035-.0002711c-.0766757-.8550343.7050176-.9109781,1.3962192-.8359803Z"/>
  <path class="st9" d="M58.4931208,68.105407c.0582481.9895072-1.1222028,1.1563904-1.6741033.414384l1.6741033-.414384Z"/>
  <path class="st2" d="M72.7663665,72.0206835l-.0029605.836323c-.6741354-.0507082-1.6153643-.0745683-1.396104-.8360574l1.3990645-.0002656Z"/>
  <rect class="st12" x="70.5279108" y="70.6227683" width="1.1163225" height=".5563459"/>
  <path class="st0" d="M73.3231033,70.3431386c.2927969.2710518-.5259716,1.2767122-.835265.4137653-.2115636-.5902751.7323511-.5090362.835265-.4137653Z"/>
  <path class="st12" d="M67.0963575,47.7346696c2.43485-.4398062,3.2696912,3.3508671.9853434,3.8221829-2.8029966.5783255-3.4766575-3.3721776-.9853434-3.8221829ZM66.6082007,48.8086534l.2604705,1.8392797c.8599631.6232041,2.1701373-.5720209,1.5798962-1.5789631l-1.8403666-.2603166Z"/>
  <path class="st12" d="M66.809681,56.4136624c3.3816295-1.0032239,3.6618551,4.7281076-.28734,3.5257489-1.5143013-.4610391-1.1348692-3.1038238.28734-3.5257489ZM68.2491396,59.1174476c1.0139016-.6484377-.4911019-2.9478791-1.6648897-1.5206328-.8998292,1.0941312.9445732,1.9813091,1.6648897,1.5206328Z"/>
  <path class="st0" d="M68.0068323,67.2642483c-.1725339.172432-1.1127618-.1288921-1.1121775-.418034.0021888-1.0831238,1.8356645-.3050257,1.1121775.418034Z"/>
  <path class="st7" d="M57.6589854,93.2724715c.8869825.1986624,1.2029826,2.5674564.4137252,2.7931922-1.6234665.4643283-.650893-2.1534321-.4137252-2.7931922Z"/>
  <path class="st7" d="M68.5707449,93.273009c.5943811-.4369517,1.3531463,1.2176665.4126371,1.6751747-.9494317.1300687-.637899-1.5095762-.4126371-1.6751747Z"/>
  <path class="st6" d="M66.6797054,76.1436132c-.8202812-.8197968.2683798-2.6106237,1.4928619-1.6317883,1.2791585,1.022543-.539298,2.5847891-1.4928619,1.6317883ZM68.0068326,74.8172638l-.8365819-.0005927.0000753,1.1163329.4140026-.0013961c.4393561-.2941181.4878296-.5990314.422504-1.114344Z"/>
  <path class="st6" d="M72.7634088,78.4524873c.4224711.4791196-.3649755,1.2561948-.8365556.8360615-.3001567-.2674113.572657-1.1353459.8365556-.8360615Z"/>
  <path class="st11" d="M66.6082007,48.8086534c1.0254463-1.0254463,1.8403666.2603166,1.8403666.2603166.5902411,1.0069422-.7199331,2.2021672-1.5798962,1.5789631,0,0-1.2859167-.8138335-.2604705-1.8392797ZM67.3129293,49.0907746c-.6610699.1453669-.4127256,1.2661268.2714558,1.1156778.6610699-.1453669.4127256-1.2661268-.2714558-1.1156778Z"/>
  <path class="st11" d="M68.2491396,59.1174476c-.8452211.7456936-2.5647189-.4265017-1.6648897-1.5206328,1.1737878-1.4272463,2.5673845.7244098,1.6648897,1.5206328Z"/>
  <path class="st9" d="M68.0068326,74.8172638c.0653255.5153126.3021046.7888343-.1372515,1.0829524l-.6992552.0327877s-.4932239-.7558939-.0000753-1.1163329.8365819.0005927.8365819.0005927Z"/>
  <path class="st5" d="M67.3129293,49.0907746c.6841814-.150449.9325257.9703108.2714558,1.1156778-.6841814.150449-.9325257-.9703108-.2714558-1.1156778Z"/>
  <path class="st5" d="M67.9715496,58.4573935s-.5255837.6545922-.983323,0,.9627896-1.2571927.983323,0Z"/>
</svg>