<?xml version="1.0" encoding="UTF-8"?>
<svg id="Layer_1" xmlns="http://www.w3.org/2000/svg" version="1.1" viewBox="0 0 196 196">
  <!-- Generator: Adobe Illustrator 29.0.0, SVG Export Plug-In . SVG Version: 2.1.0 Build 186)  -->
  <defs>
    <style>
      .st0 {
        fill: #f5f6ef;
      }

      .st1 {
        fill: #f1f1ec;
      }

      .st2 {
        fill: #242422;
      }

      .st3 {
        fill: #282826;
      }

      .st4 {
        fill: #dbdbd2;
      }

      .st5 {
        fill: #151514;
      }

      .st6 {
        fill: #3a3835;
      }

      .st7 {
        fill: #191a18;
      }

      .st8 {
        fill: none;
      }

      .st9 {
        fill: #1d1d1c;
      }

      .st10 {
        fill: #403e3c;
      }

      .st11 {
        fill: #9e7646;
      }

      .st12 {
        fill: #62a2cf;
      }

      .st13 {
        fill: #ecede7;
      }

      .st14 {
        fill: #eae9e5;
      }

      .st15 {
        fill: #171816;
      }

      .st16 {
        fill: #b8b6b2;
      }

      .st17 {
        fill: #f6f6f0;
      }

      .st18 {
        fill: #7d7d6c;
      }
    </style>
  </defs>
  <path class="st0" d="M103.1287,30.943l23.9804,48.8941s.5092,2.9073,7.3636,1.0219,32.7273-22.5736,32.7273-22.5736c0,0,7.3636-6.0099,1.3091-12.5026s-35.8224-35.9473-35.8224-35.9473c0,0-1.6503,4.2239-13.5958,12.5847s-15.9622,8.5229-15.9622,8.5229Z"/>
  <path class="st14" d="M120.3432,9.9654c4.1853-.7787,7.604-3.5751,12.2487-1.9598.8618.9121-4.4095,5.7295-5.3829,6.6198-1.3736,1.2599-9.1285,8.1683-9.8055,8.5675-.1859.1083-1.2555-.1684-1.9204.2658-1.6623,1.0816-12.1087,7.7571-13.2658,6.5935-.2406-2.1457.6715-4.4992,1.7422-6.3398.4145-.7141,4.8557-6.097,5.2122-6.296.6179-.3445,2.0298.0317,2.978-.21,1.0368-.2658,4.228-2.2048,4.7879-3.0501.2657-.4025,1.2249-2.2627,1.4458-2.7231l1.9598-1.4677Z"/>
  <path class="st7" d="M78.43,66.283c.065.962,1.688.674,1.819,1.142.552,1.978-.7,1.583-2.267,1.544,3.643,6.263-4.564-.048-4.912-1.6-.213-.955,5.28-3.339,6.056-3.33,1.884.02.897,2.246-.696,2.244"/>
  <path class="st9" d="M49.311,83.299c-1.093-1.184,1.207-2.216,1.341-2.464.155-.288-1.171-.368-1.342-.896-.472-1.456,1.23-1.424,1.344-1.576.092-.125-2.157-2.925-.224-2.685,1.21.15,5.513,3.354,5.126,4.656-.194.653-5.862,3.378-6.245,2.965"/>
  <path class="st3" d="M36.12,71.477c-.066.118-.514.09-.674.512-.186.49.123,1.356-.236,1.915-.76,1.18-2.014.291-2.073-1.133-.141-3.358,4.992-4.789,2.984-1.296"/>
  <path class="st2" d="M76.193,78.822c1.317,2.805-4.837,2.807-5.376,1.563-.456-1.05-.026-.899.62-1.163,1.46-.598,3.218-.379,4.754-.4M89.178,72.998c1.461,1.543-2.945,6.704-4.027,3.365.811-.342,3.079-4.365,4.027-3.363"/>
  <path class="st9" d="M77.982,78.379c.168-.23,4.988-1.949,5.37-.672.764,2.54-6.964,2.864-5.37.672"/>
  <path class="st2" d="M47.964,80.163c-1.906-.203-5.696.02-4.928-2.683,2.04.265,5.56-.258,4.928,2.683M86.884,69.913c1.76,3.13-5.182.664-4.869-.718.365-2.174,4.663.352,4.869.718"/>
  <path class="st3" d="M35.87,75.241c.612-.875,5.358.892,4.923,2.455-.432,1.555-5.978-.944-4.923-2.455"/>
  <path class="st2" d="M52.892,65.385c.195-.24,5.709-1.38,4.925,1.112-.456,1.45-6.466.792-4.925-1.112M43.482,68.509c-.179.268-4.54,1.273-4.923.902-1.955-1.902,6.984-4.002,4.923-.902"/>
  <path class="st15" d="M45.727,66.283c.162-.251,5.709-1.875,4.922.662-.3.965-6.448,1.687-4.922-.662"/>
  <path class="st5" d="M175.762,19.264v.001c-2.272-2.7-21.292-17.17-24.313-18.168-7.248-2.392-12.528,3.805-15.451,9.62-3.336-4.314-7.052-5.128-12.24-3.719-1.252.341-6.368,3.088-6.776,2.807-.78-1.472-.975-5.162-2.946-5.357-1.762-.176-8.611,4.526-9.098,6.149-.934,3.12,3.997,3.718,3.468,5.652-.213.776-1.207.866-1.618,1.357-1.78,2.123-4.229,4.723-5.035,7.704-.331,1.223-.586,2.205-.448,3.509.237,2.232,6.125,14.096,7.509,17.152,3.04,6.71,6.633,13.253,9.568,20.003.368.848,2.17,4.661,1.694,5.211-15.578,4.972-19.549-14.87-32.08-20.075-3.114-1.294-11.782-2.456-14.304-.099-.8.747-.42,1.616-.757,2.154-.126.201-2.144,1.27-2.803,1.904-3.997,3.828-4.691,6.2-6.486,11.208-2.2553,5.1526-3.368,12.85-3.776,18.4-.578.808-17.5,3.763-19.077,5.563-1.392,1.589.441,10.509-.66,12.333-.17.284-5.577,2.961-5.903,3.016-2.282.374-6.836-4.562-8.176,2.614l-3.632,29.538c.233,3.46,4.697,4.235,7.379,5.139.1939,1.7841-.207,6.272-.203,7.62.01,3.676.176,6.465,0,10.305-.11,2.374.078,4.79,0,7.168.0337,3.2079,2.782,5.032,4.032,5.976.896.676,4.176,2.179,5.376,2.688,1.208.512,4.876,1.387,5.376,1.792,3.268.459,6.564,1.064,9.856,1.344,10.16.864,22.465.4,31.926-3.69,7.05-3.048,7.944-3.4293,7.944-14.832,23.582,1.52,28.955-39.104,5.58-42.986-1.431-3.924-.466-13.857-2.878-16.8329-1.563-1.9301-11.494-4.434-14.352-4.688-.262-1.373.501-5.442-.284-6.32-1.543-1.72-14.09-3.888-14.738-4.864-.533-5.667.986-23.288,5.406-26.887.741-.603,6.46-2.267,7.607-2.288,9.808-.174,15.283,12.536,21.958,17.946,3.575,2.896,8.759,5.032,13.407,4.954,1.824-.032,7.966-1.973,8.504-1.842.176.043.828,2.218,1.89,3.102,4.02,3.344,8.633,1.4,12.702-.38h0c7.3531-3.221,27.952-17.344,31.73-24.045,1.311-2.33,1.929-4.52,1.052-7.155-.22-.66-.374-1.578-.576-1.872-1.358-2-17.422-18-17.422-18-.648-.719-3.36-3.448-3.493-3.9-.493-1.668.389-3.316-.597-5.228-.816-1.584-4.82-4.181-5.2271-5.525-.933-3.079,2.35-7,5.438-5.447,2.512,1.264,6.47,5.924,9.043,7.99,1.714,1.378,10.61,8.294,11.879,8.729,4.683,1.611,8.352-2.495,5.025-6.448ZM40.348,107.493c-.254.268-2.787-.5-3.131-1.12l3.131-1.117v2.237ZM94.11,128.102c16.763-6.419,14.884,26.784,0,24.64v-24.64ZM94.106,154.981c.128-.128,2.684-.016,3.612-.199,14.539-2.869,14.616-34.377-3.607-29.366l-.001-4.48c2.156.232,4.875-.322,6.944,0v-.002c5.921.9189,10.276,7.687,10.928,13.264,1.414,12.127-3.904,25.365-17.876,24.818.117-.707-.16-3.879,0-4.035ZM93.212,162.155c.304.155-.262.762-.891.438v.001c-.304-.156.262-.76.891-.439ZM45.503,176.934v-.448c.29.15.29.2994,0,.448ZM80.67,97.638v19.488c0,.474-1.272.853-1.792.672v-19.488c0-.473,1.27-.853,1.792-.672ZM80.218,92.712c-.116.646.245,2.264-.067,2.624v-.002c-.526.608-3.046.239-3.486,3.005-.914,5.75.601,13.642,0,19.632l-4.061.726-.374-23.003c.457-1.347,6.496-2.384,7.988-2.982ZM70.812,95.849l-.443,23.296-5.378.445v-17.248c-.51-2.41-3.893-2.035-5.918-2.593-5.543-1.53-11.02-3.397-16.509-5.074l.029-1.965c.673-.69,15.565,4.903,18.592,4.963,3.12.063,6.43-1.974,9.627-1.824ZM107.593,11.021c.179-.672,5.56-4.461,6.224-3.88.208,2.956,3.382,6.238-.888,7.435-1.394.39-5.687-2.247-5.336-3.555ZM103.52,29.093c-.22-1.962.614-4.114,1.593-5.797.379-.653,4.44-5.575,4.768-5.757.563-.315,1.856.0291,2.721-.192.948-.243,3.868-2.016,4.378-2.789.243-.368,1.12-2.069,1.322-2.49.11-.23,1.312-1.254,1.7921-1.343,3.827-.712,6.953-3.268,11.201-1.79.6434.6793-2.4446,3.7327-4.0881,5.2783-.0622.0479-11.3943,8.7595-12.9862,9.7622-3.1435,1.976-9.8251,5.998-10.7007,5.1175ZM152.3482,30.4351l-.0002.0019c1.269,1.288,3.1,3.219,3.563,3.81,2.827,3.6089,12.523,11.364,13.36,15.33,1.173,5.572-4.824,9.863-8.645,13.104-5.478,4.648-16.368,12.76-22.612,15.692h0c-2.32,1.088-6.9009,1.968-9.293,1.004-2.576-1.036-6.224-10.219-7.607-12.982-1.5453-3.1707-3.08-6.346-4.604-9.526l-1.242-2.994-10.418-22.304c2.5369-1.3534,7.704-3.2022,9.9443-5.2485.6293-.421,1.3406-.8999,2.1075-1.4213.1873-.095.3011-.1861.5042-.2883.0029-.0161.003-.0406.0051-.059,5.2755-3.6005,12.7036-8.897,13.7242-10.8425.0007-.0007.002-.0018.0027-.0026,1.127-1.16.695-3.125,3.092-1.661.468.285,3.665,3.432,4.232,4.053l1.344,1.344c.9958,2.6664,10.0001,10.4086,12.5422,12.9902Z"/>
  <path class="st13" d="M28.7521,106.7228c.866-.541,4.408.904,5.554,1.28,4.96,1.627,10.736,3.579,15.556,5.499,3.418,1.36,3.648,1.038,3.468,5.033-.373,8.352-3.461,17.818-3.613,26.4,0,0-.3142,2.005-1.162,2.005s-21.4823-6.8806-23.672-8.457c-1.0831-1.5565,3.869-31.76,3.869-31.76ZM40.0001,115.9728c-.77-.793.24-2.463-2.552-3.945-1.904-1.011-5.115-2.033-6.462.288-1.184,2.04.292,6.483-.087,9.32-.518,3.872-5.789,11.904-2.433,15.055,1.116,1.05,15.513,6.286,16.828,6.08.48-.077,1.183-.39,1.562-.701,2.56-2.091.106-12.634.685-16.336.416-2.664,4.232-5.994,1.633-9.088-1.153-1.373-7.604-4.122-6.592-.12-.096.107-2.358-.322-2.582-.554"/>
  <path class="st1" d="M101.054,120.934c5.923.917,10.276,7.685,10.928,13.264,1.414,12.125-3.904,25.365-17.876,24.816.117-.707-.16-3.878,0-4.035.128-.128,2.684-.016,3.612-.198,14.539-2.87,14.616-34.376-3.607-29.367l-.001-4.48c2.156.232,4.875-.321,6.944,0"/>
  <path class="st1" d="M64.99,102.342c-.51-2.411-3.893-2.037-5.919-2.595-5.542-1.53-11.019-3.397-16.509-5.074l.03-1.964c.673-.688,15.564,4.902,18.591,4.963,3.12.062,6.43-1.975,9.627-1.824l-.443,23.296-5.377.445v-17.247Z"/>
  <path class="st14" d="M174.652,20.3945c1.17,2.027-1.66,3.987-3.48,2.813-3.104-3.078-7.18-5.146-10.523-7.843-3.287-2.651-9.015-10.005-13.24-9.216-5.096.953-7.069,7.622-3.573,11.464-2.045-.131-2.917-2.24-4.24-3.603-.42-.432-1.443-.853-1.5-.95-.705-1.188,2.72-6.431,3.774-7.49,3.336-3.35,8.176-3.808,11.963-.86l20.819,15.685Z"/>
  <path class="st13" d="M52.9268,112.229c2.97,1.768,2.872,4,2.684,7.168h3.14v-12.992l-16.125-4.928c.2,1.06-.28,7.352-.002,7.611.085.08,1.821.346,2.463.428,1.19,1.504,4.667,1.294,6.048,1.816l1.792.897Z"/>
  <path class="st0" d="M80.218,92.71c-.116.647.245,2.264-.067,2.624-.526.607-3.046.237-3.488,3.003-.912,5.75.602,13.642,0,19.632l-4.059.725-.374-23.001c.457-1.348,6.496-2.384,7.988-2.983"/>
  <path class="st18" d="M90.6468,112.7865c-.86.941-7.239,4.443-7.903,3.741.098-.603-.152-2.997-.003-3.134.096-.087,1.365.088,1.922-.085,1.544-.48,2.352-5.509,3.012-7.083.685-.501,6.19,3.033,2.972,6.56v.001Z"/>
  <path class="st14" d="M113.818,7.14c.207,2.957,3.381,6.239-.89,7.436-1.391.39-5.686-2.247-5.335-3.555.179-.672,5.56-4.461,6.224-3.88"/>
  <path class="st4" d="M80.67,97.638v19.488c0,.472-1.272.851-1.792.672v-19.488c0-.475,1.27-.854,1.792-.672"/>
  <path class="st13" d="M77.53,90.923c-1.8164.7988-4.871,1.5734-5.3,1.7274l-4.999-1.4306v-3.1927l10.299,2.896Z"/>
  <path class="st16" d="M40.346,105.254v2.237c-.254.269-2.787-.5-3.13-1.12l3.13-1.117Z"/>
  <path class="st18" d="M147.9836,20.5415l-.001,1.789c-.245.542-1.135-1.54-.89-1.787l.891-.002Z"/>
  <path class="st7" d="M48.414,176.038c.273,1.33-1.146,1.402-.896,0,.273.051.617-.051.896,0M93.21,162.153c.304.156-.262.762-.89.439-.305-.155.262-.76.89-.439M45.502,176.486c.2893.15.2893.2993,0,.448v-.448Z"/>
  <g>
    <path class="st8" d="M39.919,118.451c-2.513-.904-4.777-2.234-7.184-3.34.224,2.026.639,3.991.464,6.066-.131,1.536-.816,2.656-.918,4.008-.263,3.528.16,7.376.048,10.936l.001.001c3.877.564,8.384,3.659,12.032,4.348.512.096.76.317,1.154-.256,1.013-4.608-.74-9.611-.242-14.131.146-1.328,1.936-5.195,1.599-5.616-2.235-.914-4.688-1.203-6.954-2.016Z"/>
    <path class="st18" d="M30.04,134.8195l.001-3.7568c-.2656,1.1043-1.6443,3.1201-.001,3.7568Z"/>
    <polygon class="st5" points="30.041 134.82 30.04 134.8195 30.04 134.82 30.041 134.82"/>
  </g>
  <path class="st17" d="M32.33,136.121c.112-3.56-.312-7.408-.048-10.936.101-1.352.784-2.472.916-4.008.176-2.073-.237-4.04-.463-6.065,2.407,1.105,4.67,2.435,7.184,3.339,2.264.813,4.72,1.104,6.954,2.016.339.42-1.453,4.288-1.6,5.616-.498,4.52,1.256,9.523.243,14.131-.394.573-.64.352-1.152.256-3.651-.688-8.157-3.784-12.034-4.349"/>
  <path class="st6" d="M47.174,42.787c-.325,1.58-1.298,2.731-1.14,4.493.228,2.544,2.848,4.517,2.848,7.36.004,1.312-.864,4.275-2.598,4.25-.035-.965.71-1.489.869-2.48.707-4.433-2.96-5.941-2.69-9.817.088-1.28,1.159-3.8,2.71-3.808M52.993,47.261c-2.087,4.563,3.27,7.257.54,11.496-2.467,3.833-.532-2.456-.625-3.124-.32-2.299-4.869-6.636.086-8.372"/>
  <path class="st10" d="M41.354,47.709c.15.856-.656,1.348-.806,2.105-.629,3.128,5.494,8.08-.085,10.416.295-1.481,1.085-2.067.88-3.76-.296-2.464-5.227-6.637.011-8.763"/>
  <path class="st13" d="M59.714,87.334l-.1867,3.1878-8.85,2.1285c-1.68-.443-4.2603-.8614-4.5073-1.5154-.385-1.02,3.024-.883,3.488-1.437l10.056-2.364Z"/>
  <path class="st13" d="M121.5563,73.1053c.205.147.537,1.711.273,2.223-.635,1.236-5.766,1.842-7.17,1.81-17.61-.405-20.225-27.96-39.673-21.968-.416-2.602.715-2.798,2.963-3.082,19.034-2.4,21.733,24.263,38.925,22.348,1.123-.125,4.272-1.624,4.682-1.332"/>
  <path class="st17" d="M47.4253,176.039c-3.91-.753-9.664-2.448-12.757-4.94-.394-.317-2.475-2.279-2.475-2.453v-24.863c4.678.56,10.392,4.275,14.755,5.18,4.029.831,4.123-1.173,4.742-4.274,1.517-7.587,1.647-15.535,3.32-23.11,10.109.17,20.563.14,30.279-3.324l6.488-3.144-.296,53.6772c0,2.765-6.722,5.0188-9.016,5.7788-14.2653,5.4503-34.767,1.525-35.04,1.472"/>
  <path class="st18" d="M33.4,113.5536l4.6364,1.8273s-.1638-1.623-1.8545-2.3455c-3-1.2818-2.7818.5182-2.7818.5182Z"/>
  <path class="st18" d="M44.2545,117.29l3.3,1.2818s.7909-.7286-1.2273-1.8545c-2.3853-1.3307-2.0727.5727-2.0727.5727Z"/>
  <path class="st4" d="M62.7109,102.528v17.024c0,.088-1.792.088-1.792,0v-11.872c-.028-2.426-.853-3.187-1.826-3.552l-16.275-5.139c-.456-.218-.328-1.768-.266-1.835.704-.768,17.373,5.805,20.159,5.373"/>
  <path class="st16" d="M82.8073,98.9203c.472-.477,12.115,3.23,12.745,4.051,1.472,1.916,1.112,12.682,2.039,15.658l-3.136.002v-9.184c0-1.636-4.332-6.154-6.434-5.936-3.347.347-2.326,6.824-5.216,7.504l.002-12.095Z"/>
  <path class="st5" d="M99.7333,126.7714s-.3315,4.8026-5.6233,6.1697l-.8154-5.6644,6.4387-.5053Z"/>
  <path class="st16" d="M94.418,127.852s1.123-.4614,2.182-.5446.0723,2.128-2.182,2.7553v-2.2107Z"/>
  <path class="st11" d="M50.6773,92.6503l8.85-2.1285,7.7037.3682,4.999,1.7603s-7.0504,2.5488-10.2447,2.4669-11.308-2.4669-11.308-2.4669Z"/>
  <path class="st12" d="M65.0977,66.7041c1.443-4.064,3.0271-7.7835,6.3751-10.5595.359-.297,1.5807-1.4528,2.0297-.7088-5.674,6.352-7.4847,17.0754-7.9537,25.3834-.115,2.048-.354,8.7167-.1305,11.562-.141.144-3.5558.1079-4.1668.0999.0441-3.2833.2573-5.9429.7123-10.3189.378-3.64,1.2345-9.2669,2.1815-12.6699.034-.119.7045-2.0931.9505-2.7891l.002.001Z"/>
</svg>