<?xml version="1.0" encoding="UTF-8"?>
<svg id="Layer_1" xmlns="http://www.w3.org/2000/svg" version="1.1" viewBox="0 0 48 48">
  <!-- Generator: Adobe Illustrator 29.0.0, SVG Export Plug-In . SVG Version: 2.1.0 Build 186)  -->
  <defs>
    <style>
      .st0 {
        fill: none;
        stroke: #000;
        stroke-linecap: round;
        stroke-linejoin: round;
        stroke-width: 2px;
      }
    </style>
  </defs>
  <rect class="st0" x="15" y="27" width="18" height="4"/>
  <polygon class="st0" points="33 27 15 27 13 13 35 13 33 27"/>
  <polygon class="st0" points="33 31 15 31 13 45 35 45 33 31"/>
  <line class="st0" x1="20" y1="31" x2="19" y2="45"/>
  <line class="st0" x1="19" y1="13" x2="20" y2="27"/>
  <line class="st0" x1="28" y1="31" x2="29" y2="45"/>
  <line class="st0" x1="29" y1="13" x2="28" y2="27"/>
  <polygon class="st0" points="35 13 25.98 6.44 25.98 3 21.98 3 21.98 6.47 13 13 35 13"/>
  <polygon class="st0" points="13.86 19.01 12.98 13.01 8.86 13.01 13.86 19.01"/>
  <path class="st0" d="M33.69,23h3c1.1,0,2,.9,2,2v8c0,1.1-.9,2-2,2h-3"/>
</svg>