<?xml version="1.0" encoding="UTF-8"?>
<svg id="Layer_1" xmlns="http://www.w3.org/2000/svg" version="1.1" viewBox="0 0 196 196">
  <!-- Generator: Adobe Illustrator 29.0.0, SVG Export Plug-In . SVG Version: 2.1.0 Build 186)  -->
  <defs>
    <style>
      .st0 {
        fill: #fff;
      }

      .st1 {
        fill: #3a3835;
      }

      .st2 {
        fill: #dededc;
      }

      .st3 {
        fill: #5f4028;
      }

      .st4 {
        fill: #262524;
      }

      .st5 {
        fill: #201f1e;
      }

      .st6 {
        fill: #b09170;
      }

      .st7 {
        fill: #9e7646;
      }

      .st8 {
        fill: #62a2cf;
      }

      .st9 {
        fill: #eae9e5;
      }

      .st10 {
        fill: #2c2a29;
      }

      .st11 {
        fill: #f3f4ef;
      }

      .st12 {
        fill: #cbcecb;
      }

      .st13 {
        fill: #33312f;
      }

      .st14 {
        fill: #b8b6b2;
      }

      .st15 {
        fill: #f0efeb;
      }
    </style>
  </defs>
  <path class="st9" d="M116.0636,157.0059l10.6364,2.6795s3.4977,5.6779,3.5795,5.8355,2.7409,10.8349,2.7409,10.8349l-70.2818.2045,4.3773-15.2395s6.8727-3.6605,6.975-3.7219,6.5132-.0614,6.5132-.0614l-.745,3.1705-1.3367,4.8128.9276,1.9781,4.5818,2.3727s7.6295,1.6159,7.7114,1.6364l11.3727.0614,8.7136-1.5955,5.9114-3.4568-1.6773-9.5114Z"/>
  <path class="st0" d="M77.4182,119.3627l-2.0727,7.0218-3.0545,23.7419,4.1455,3.8182,9.8456,2.0182s2.6998-33.6,2.5362-33.7091-7.5477-3.4909-7.5477-3.4909l-3.8523.6Z"/>
  <polygon class="st0" points="107.271 122.7435 114.597 119.3082 118.9338 119.8122 123.6182 150.5627 118.9338 154.6536 109.8182 155.9627 107.271 122.7435"/>
  <polygon class="st0" points="78.3384 105.5459 79.145 114.7264 93.5345 118.0536 114.2364 116.3039 117.9675 113.0355 117.9675 105.8355 96.5091 108.6445 78.3384 105.5459"/>
  <path class="st2" d="M79.5318,115.5445l-2.55,2.9455,8.9311,2.3455,3.4626,1.4182,8.4425-1.4182,9.5409,1.4182,8.7866-3.3545s2.9455.0273,2.7818-.3-2.2909-3.3273-2.5091-3.3273-17.4545,2.5636-17.4545,2.5636l-13.9466-1.3091-5.4852-.9818Z"/>
  <polygon class="st0" points="93.413 55.7355 77.2818 60.8333 74.2545 64.0161 77.883 66.1734 89.7219 67.19 113.3636 66.5576 125.2273 64.0209 101.9644 55.7355 93.413 55.7355"/>
  <polygon class="st11" points="96.1223 55.7355 84.3975 66.1245 112.301 66.1245 100.601 55.7355 96.1223 55.7355"/>
  <polygon class="st0" points="74.2545 65.1036 82.7021 66.5568 86.2 107.638 76.0545 103.9264 72.8636 84.0878 74.2545 65.1036"/>
  <path class="st0" d="M113.3636,66.5576l-3.5455,40.9414,9.0273-2.5909,2.3727-5.6721s4.8629-35.1702,4.5178-34.9172-12.3723,2.2388-12.3723,2.2388Z"/>
  <polygon class="st11" points="83.2979 67.19 84.8748 91.3264 111.045 91.3264 113.0015 67.19 83.2979 67.19"/>
  <polygon class="st15" points="61.9656 66.1245 71.9044 65.1036 73.3955 66.9445 72.503 83.5945 63.9455 70.4627 60.7955 67.3945 61.9656 66.1245"/>
  <polygon class="st3" points="85.6 94.3264 91.4636 94.4082 98.0754 97.6809 107.6636 94.8445 110.9364 94.632 109.8182 107.4991 97.6548 108.6445 86.6364 106.6264 85.6 94.3264"/>
  <path class="st7" d="M96.4829,69.4958l2.7994.4052,1.6894,5.8421,1.4829,14.4377,6.7636,1.1727,1.5545.9818-1.7727,2.0455-6.4091,1.9636-3.1364.9818-5.6182-1.3364-3.9545-2.611s-4.1182.5656-4.2545.4292.2839-2.7159.2839-2.7159l7.6233-.6493.956-10.053,1.9924-10.8942Z"/>
  <path class="st2" d="M79.0631,163.6335l6.1142,3.9845,12.3545,1.9675,12.2532-1.6568,6.8105-4.0909.8182,2.7717s-6.3587,3.9373-6.7589,3.9578-16.1911,1.6977-16.2115,1.6364-13.2341-3.1705-13.3159-3.2114-2.7614-2.925-2.7614-2.925l.6972-2.4338Z"/>
  <path class="st12" d="M113.0408,164.9191c0,2.45-6.625,4.4361-14.7973,4.4361s-16.973-2.3106-16.973-4.7606,8.8007-4.1116,16.973-4.1116,14.7973,1.9861,14.7973,4.4361Z"/>
  <path class="st9" d="M81.2705,156.2286l4.6432,6.4023,3.1091-3.8455s2.0659,3.3006,2.1068,3.3685,1.7795,1.1929,1.7795,1.1929h2.4955l2.5955-4.6227,3.1727,5.1136,2.3114-.3682,3.7869-4.2446,2.514,3.0991s2.8627-2.1477,2.9036-2.2909,2.2909-3.8045,2.2909-3.8045l-16.9795,1.1629-16.7295-1.1629Z"/>
  <path class="st4" d="M74.95,154.615c-1.634-.777-4.214-2.778-3.81-4.824l4.69-31.42c.012-1.15,1.818-2.317,1.989-3.06.106-.466-.63-8.872-.836-9.497-4.473-2.675-2.962-15.675-5.311-21.119-2.648-4.36-7.557-15.616-13.401-16.377-2.342-6.255,29.33-11.199,34.672-14.005.765-1.175-1.85-8.04-1.53-9.76.453-2.432,11.562-2.446,12.722-.692,1.209,1.827-2.153,9.642-.82,10.552,12.6983,4.6003,24.4058,5.5475,37.127,4.755,3.698,3.054,11.366,8.64,9.864,14.513-4.303,7.978-6.183,28.477-13.152,32.575-1.179.356-7.359,1.554-8.182,1.317-1.725-.498-3.22-7.035-1.919-7.846,1.43-.893,5.1,1.687,6.345-1,.501-3.526,1-9.352,3.04-12.902.707-2.486.557-4.953,1.447-7.362.793-2.147,2.803-3.486,1.935-6.087-2.5742-4.591-11.1322,2.9254-13.9372,4.3024-1.6063,9.4629-2.5298,29.6966-6.8708,29.1546-.162,2.516.2,6.69-.806,9.17,5.52,10.212,3.653,23.854,6.7,35.218-.521,3.78-5.168,5.091-8.404,5.655,1.845,1.191,9.975.34,13.185,5.064-.16.648,6.276,16.93,4.232,16.745-.57-.888-73.071,1.732-72.327-.953,5.06-14.563.568-18.61,17.973-20.854-1.346-.31-3.416-.693-4.616-1.263h.001ZM102.651,45.142c-3.118-.695-6.127-.73-9.238,0,1.8,5.412-.572,11.937,7.365,9.24.912-1.296.79-7.42,1.875-9.24M93.417,56.467c-2.72.274-18.001,4.833-18.039,7.335,1.217.723,6.113,2.133,7.245,1.83,2.555-1.83,8.415-6.477,10.794-9.165M109.6818,65.674c-1.3636-1.8725-6.7647-8.6295-11.6818-9.1909-5.3909,1.925-10.299,7.6791-11.8,9.143.1163-.0643,11.2636-.1543,11.2636-.1543M123.215,63.18l-20.565-6.713,10.795,9.157c.195.06,11.26-1.14,9.77-2.445M129.56,105.489c.525.34,7.809-.907,8.533-2.068l10.65-31.344c.34-3.21-6.246-8.64-8.1-10.591-2.242-1.38-4.488-.093-6.934-.407,1.968,5.523-2.726,9.8-7.133,5.031l-.84,7.13c3.981-1.17,9.836-6.453,13.827-3.965,6.266,3.7-.1091,12.999-.916,16.24s-1.4011,17.7414-9.977,16.25c-.258.258.672,3.58.89,3.723M132.027,61.496c-1.49.015-8.272-.024-9.65-.006,1.703.576,3.617,1.15,4.993,2.355.95.833,1.56,2.843,3.166,2.705,1.81-.155,2.168-3.675,1.493-5.055l-.002.001ZM124.89,65.272c-3.15,1.39-8.376.657-10.855,2.78l-2.99,38.324c2.303-.43,7.365-1.353,8.2-3.757l5.645-37.347ZM72.4545,66.1734s-12.15-.4835-10.2965,1.5885c4.165,2.643,7.0944,9.8253,9.9284,13.9193-.182-5.0029.3682-15.5078.3682-15.5078ZM82.064,67.385c-1.434.207-6.57-2.034-7.35-.879-.8,1.188-.871,16.8402-.871,18.201l3.016,18.293c1.996,2.46,5.304,2.65,8.158,3.375l-2.953-38.99ZM112.301,67.785h-28.538c.554,1.927,1.167,22.612,2.304,22.64,1.628-1.018,4.886-1.077,6.929-.826l.846-14.048c2.64-2.833-.801-6.982,4.816-6.423,2.724.27,1.476,2.486,1.98,4.235,2.37,1.068,2.028,14.175,2.43,16.237,2.55-.088,4.937-.11,7.341.843l1.892-22.658ZM94.256,91.278c-.075.057.195,1.298-1.259.84.134-2.707-8.358-.78-6.92,1.262,10.498-2.946,6.616,7.704,17.833,1.254,1.206-.372,2.688-.39,4.008-.816.45-.146,2.628-.815,2.283-1.485-2.387-1.244-7.27-2.547-6.711,1.462-2.895.384-1.191-.916-1.39-2.253-1.421-5.326.613-12.369-2.807-16.623-.15-1.155-.2592-2.2387-.417-3.777s-1.7633-1.6526-2.106,0,.213,3.67-1.16,4.923c-1.283,4.176-.254,10.713-1.357,15.213M98.87,107.638c13.313-.005,9.987-1.399,11.33-12.583-4.709.476-7.646,2.673-12.378,3.39-7.36-1.387-2.858-5.118-11.544-3.393.045,3.735.3,7.542.928,11.235,3.293,1.14,10.859,1.266,11.666,1.35l-.002.001ZM116.918,106.798c-12.184,3.586-25.58,3.404-37.773,0l.7618,7.3284c0,.202,2.4392.8944,2.7952,1.0614,4.7528,1.5675,27.8059,3.4292,34.2159-1.8878v-6.502ZM117.755,118.122c-.742-3.38-3.297-1.102-5.45-.624-9,1.998-17.8145,1.6466-26.392.1738-2.775-.549-6.706-2.9048-8.032.6572,6.6597-.7297,11.2645,3.15,11.2645,3.15,0,0,3.3273-1.0799,6.5585-1.278,3.457-.58,8.314.57,11.33,1.278,2.707-1.46,7.16-3.7,10.721-3.358M85.442,155.036l2.517-31.673c-.348-1.843-7.086-3.702-8.98-3.541-3.69.879-4.988,24.595-5.706,28.716-.531,5.767,7.978,5.974,12.17,6.498M118.535,120.281c-3.454-1.115-7.657.585-10.365,2.731l2.456,32.44c2.611-.458,11.535-2.065,12.097-4.925l-4.188-30.246ZM106.352,123.225c-5.043-2.08-11.535-1.815-16.656-.01l-2.535,32.2c7.1456,1.7047,14.5921,1.7033,21.737-.004l-2.546-32.186ZM97.19,158.391c-5.112.314-10.04-1.294-15.105-1.677.54,2.22,2.91,3.128,3.99,5.028l2.933-3.765c1.993,1.857,2.559,5.939,6.025,4.96l2.157-4.546ZM68.648,176.004c2.004-9.382.242-13.503,10.485-16.578.525-.49.693-.825.026-1.26-14.357.488-11.571,7.376-15.543,17.835l5.032.003ZM106.426,157.974l-7.973.623c.735.483,2.367,4.201,2.58,4.335,2.37,1.482,4.919-3.126,5.393-4.958M132.446,176.0029c-4.4-11.2-1.1-17.025-15.946-18.03-1.425,1.392,4.702,3.126,5.472,3.544,4.492.837,4.368,12.779,5.457,14.47.241.233,4.19-.127,5.017.016M82.502,160.9l-1.253-1.671-.423,2.094,1.676-.423ZM115.659,161.32l-1.047-2.091-1.05,1.672,2.097.419ZM87.54,166.358c-1.09-.228-1.098-.795-1.26-.84l-2.31-3.772c-.588,1.617-1.624,1.31-3.144,1.26,2.142,7.042,32.547,7.33,33.771-.01-1.635.69-1.956-.842-2.085-.844-1.194-.012-2.298,2.415-2.728,3.368-.096.009-1.085.316-1.68.42.61-1.466.796-5.385-1.25-5.451-.898,1.275-2.784,4.1-2.946,5.87-2.145.409.66-2.272-2.305-1.693-.741.113.718,2.38-1.892,2.53,0,0-3.613-2.294-3.777.421-1.965-.774-2.106-6.542-3.358-1.26l-5.036.001M70.332,176.005h55.401c-2.24-7.265.053-12.642-9.02-14.685,13.736,15.093-50.275,15.9-37.774.007-1.416,1.01-4.993,1.6-5.859,2.955-.36.563-3.187,11.312-2.748,11.723M79.151,164.261c-2.294,9.599,41.094,8.51,37.345.203-6.483,7.857-30.652,7.65-37.345-.203"/>
  <path class="st1" d="M75.3733,31.926c.088,1.625-1.287,2.52-1.577,4.08-.993,5.835,7.692,11.95.323,15.63-.227-1.275.936-2.15,1.165-3.24.912-4.813-8.106-12.724.089-16.47"/>
  <path class="st13" d="M54.3344,42.789c-2.0648-2.1138,2.8582-.7938,4.3648.6445,4.7358,5.0105-3.3687,9.485,2.7491,14.211,1.3812,1.926-2.0756,1.1437-3.238-1.0219-3.2129-6.4294,5.3261-11.9626-3.8758-13.8336M69.0773,39.897c-3.331,5.333,1.808,7.236,1.69,13.221-.098.867-1.364,4.238-2.525,3.132,3.81-5.518-6.243-13.02.835-16.354M58.048,60.9197c-.8697,1.186-4.9847-2.495-5.4783-3.8121-.571-1.5318-.3816-7.3575,1.1555-7.7018,1.9767.1046-1.5474,5.9948,1.2123,8.4196.4018.5568,3.4388,2.645,3.1105,3.0943"/>
  <path class="st11" d="M106.356,123.226l2.544,32.185c-7.1449,1.7101-14.5923,1.7118-21.738.005l2.535-32.2c5.121-1.805,11.615-2.07,16.658.01"/>
  <path class="st15" d="M102.653,45.142c-1.083,1.82-.96,7.944-1.874,9.24-7.936,2.701-5.568-3.846-7.365-9.24,3.113-.73,6.12-.695,9.24,0"/>
  <path class="st14" d="M132.03,61.496c.675,1.379.317,4.9-1.492,5.055-1.605.137-2.216-1.873-3.167-2.707-1.375-1.205-3.29-1.778-4.992-2.354,1.442-.05,8.135.04,9.65.006h.001Z"/>
  <path class="st8" d="M99.711,167.198c-1.264.075-2.584-.258-3.775.42-.188-.2416-.5429-2.2414,1.888-6.705,1.926,1.63,2.928,3.795,1.889,6.285h-.002ZM87.541,166.36c.157-1.788-.638-5.067,1.465-5.876l3.571,5.876c-.753.865-3.865.244-5.035,0M103.91,166.36c.2696-2.935,1.865-4.8132,2.946-5.87,2.049.07,1.857,3.98,1.25,5.45-1.916.328-2.9037-.419-4.196.42"/>
  <path class="st2" d="M113.98,156.715c.6.552-3.61,4.33-3.985,5.022l-2.724-3.563c.15-1.456,5.208-.778,6.71-1.46"/>
  <path class="st8" d="M109.785,165.521c.43-.952,1.535-3.38,2.73-3.367.128,0,.45,1.534,2.085.844.869,2.37-3.23,3.335-4.815,2.522M86.282,165.521c-1.54-.41-5.303-.066-5.454-2.515,1.52.05,2.556.36,3.144-1.26l2.31,3.775Z"/>
  <path class="st12" d="M75.008,61.6c-3.1036,3.4627-6.741,2.668-8.528,2.577,2.445-1.164,4.28-1.587,8.528-2.577"/>
  <path class="st14" d="M115.66,161.321l-2.095-.42,1.05-1.67,1.045,2.09Z"/>
  <path class="st12" d="M82.503,160.901l-1.675.423.423-2.094,1.252,1.671Z"/>
  <path class="st6" d="M90.693,84.15c1.93-.54,1.93,2.63,0,2.09-.844-.237-.844-1.852,0-2.09M89.637,82.052c.743,3.36-3.69,1.553-1.686.198.501-.339,1.3389-.7627,1.686-.2v.002ZM107.901,79.957c1.427-.384,1.928,1.374.831,1.67-1.428.383-1.927-1.376-.83-1.67M89.217,85.827c.692.69-1.07,2.659-1.672,1.042-.537-1.446,1.492-1.223,1.672-1.043M92.532,80.414c.074.045.608,1.5.005,2.102,0,0-1.278.837-1.674,0s.459-2.847,1.67-2.102M107.265,77.432c-.81.81-2.593-1.332-1.04-1.672.883-.195,1.345,1.368,1.04,1.674M104.747,77.852c-.81.81-2.592-1.332-1.041-1.674.885-.193,1.347,1.37,1.04,1.674"/>
  <path class="st10" d="M81.135,122.801c4.35-.786,5.306,6.738.717,7.053-4.635.32-4.486-6.373-.717-7.054M82.818,124.939c-2.017-2.013-4.185,1.944-1.995,3.048,2.08,1.048,3.165-1.88,1.995-3.048"/>
  <path class="st5" d="M98.732,101.414c4.282-1.473,4.065,4.463.786,4.134-2.07-.208-2.535-3.532-.786-4.134M94.535,99.307c3.033-1.019,3.232,3.753.02,2.799-1.525-.453-1.18-2.41-.02-2.8M95.933,100.086c-.666-.664-1.92.59-1.254,1.256s1.92-.59,1.254-1.254M106.008,97.567c2.1799,3.6116-4.4058,3.5828-2.338.39.42-.585,1.5489-.8018,2.338-.39"/>
  <path class="st12" d="M82.818,124.94c1.17,1.169.084,4.095-1.995,3.048-2.19-1.104-.022-5.06,1.995-3.048M82.503,125.672c-.05-.069-1.197-.498-1.479-.015-1.64,2.816,2.625,1.58,1.48.015"/>
  <path class="st7" d="M95.933,100.088c.666.665-.59,1.92-1.254,1.254s.588-1.92,1.254-1.254"/>
  <path class="st13" d="M82.503,125.672c1.146,1.565-3.12,2.802-1.479-.015.282-.483,1.428-.054,1.48.015"/>
  <circle class="st7" cx="104.8641" cy="98.695" r=".5411"/>
  <ellipse class="st7" cx="99.9557" cy="103.3108" rx="1.0779" ry=".9717" transform="translate(-39.4919 138.2196) rotate(-60)"/>
  <path class="st6" d="M100.4636,84.5644c.1365,3.8165.1407,4.1983.1364,5.8619-.0076,2.9516-2.1637,2.3402-2.3182.0545-.0664-.9824.4636-4.2001.4636-5.3837,0-3.9373-.1576-8.3891.3545-8.3891s1.2229,3.9215,1.3636,7.8563Z"/>
</svg>