<?xml version="1.0" encoding="UTF-8"?>
<svg id="Layer_1" xmlns="http://www.w3.org/2000/svg" version="1.1" viewBox="0 0 196 196">
  <!-- Generator: Adobe Illustrator 29.0.0, SVG Export Plug-In . SVG Version: 2.1.0 Build 186)  -->
  <defs>
    <style>
      .st0 {
        fill: #f5f6ef;
      }

      .st1 {
        fill: #f1f1ec;
      }

      .st2 {
        fill: #dbdbd2;
      }

      .st3 {
        fill: #3a3835;
      }

      .st4 {
        fill: #181918;
      }

      .st5 {
        fill: none;
      }

      .st6 {
        fill: #403e3c;
      }

      .st7 {
        fill: #9e7646;
      }

      .st8 {
        fill: #ecede7;
      }

      .st9 {
        fill: #f2f2ec;
      }

      .st10 {
        fill: #171816;
      }

      .st11 {
        fill: #b8b6b2;
      }

      .st12 {
        fill: #f6f6f0;
      }

      .st13 {
        fill: #7d7d6c;
      }
    </style>
  </defs>
  <g>
    <path class="st5" d="M120.469,62.077v31.136c.456-.216,3.136-.29,3.136-.448v-33.152c-1.291.096-3.136,1.056-3.136,2.464Z"/>
    <path class="st5" d="M64.616,76.113c-.667.293-2.147.748-2.384,1.415,2.087.571,4.032,1.86,6.266,1.798v-4.478c-.3-.317-3.287,1.003-3.882,1.265Z"/>
    <path class="st5" d="M148.694,106.651c.655,6.01-1.377,7.402-7.17,6.72v28.226c13.835,1.508,18.384-13.57,16.45-24.74-.89-5.144-3.551-9.875-9.28-10.206Z"/>
    <path class="st4" d="M147.794,95.456c-.656-5.559-.738-11.239-1.344-16.8-.365-3.358-.239-7.139-3.709-8.835-2.878-1.41-9.866-3.303-13.312-4.383-.57-.177-2.784-.158-3.091-.502-.218-.542.057-1.238-.045-1.738-.261-1.266-.378-1.696-.448-3.136-.016-.297.011-.598,0-.896-.088-2.329.208-4.898,0-7.168-.059-.633-.091-1.24-.448-1.792h0c-6.168-2.033-12.413-4.113-18.72-5.697-8.409-2.778-10.16-2.235-19.01,0-2.657.672-17.403,4.681-18.507,5.685-.778.707-1,1.451-1.118,2.467-.328,2.838.609,19.142-.043,19.894-2.703.04-6.522,3.409-8.724,3.629-2.948.298-7.392-4.238-9.812.904l-5.884,43.312c.165,6.013,6.584,5.339,10.613,7.584-.071,5.701.455,11.277.439,16.992-.028,9.389-3.482,18.482,5.844,24.582,14.452,9.456,45.01,9.05,61.338,5.192,2.181-.515,5.12-1.024,7.168-1.792,4.133-1.552,11.677-6.064,12.544-10.752.272-1.475-.336-9.076-.004-9.411,1.707-.157,3.73.227,5.38.003,2.186-.296,9.415-3.139,11.2-4.48.983-.737,4.571-4.707,5.376-5.824,2.32-3.225,4.083-7.776,4.928-11.648.554-2.544.796-4.571.896-7.168.562-14.489-5.379-27.75-21.507-28.222ZM54.613,117.854c-2.598.235-2.425-3.598-1.549-5.358l1.55-3.602v8.96ZM68.498,79.326c-2.234.062-4.179-1.227-6.266-1.798.237-.667,1.717-1.122,2.384-1.415.595-.262,3.582-1.582,3.882-1.265v4.478ZM123.605,92.765c0,.158-2.68.232-3.136.448v-31.136c0-1.408,1.845-2.368,3.136-2.464v33.152ZM141.524,141.597v-28.226c5.793.682,7.825-.71,7.17-6.72,5.729.331,8.39,5.062,9.28,10.206,1.934,11.17-2.615,26.248-16.45,24.74Z"/>
  </g>
  <path class="st12" d="M56.853,129.054l23.063,7.644c1.964-.084,3.02-1.327,3.547-3.06l5.113-35.881c17.115.067,35.578.464,50.26-9.472v73.696c0,2.246-4.644,5.509-6.484,6.509-15.45,8.4-48.704,8.09-64.867,1.675-2.915-1.157-10.632-5.061-10.632-8.63v-32.481Z"/>
  <path class="st1" d="M141.527,98.706c35.567-7.92,32.47,54.642-.003,51.522v-5.829c7.91.397,13.894-3.373,16.963-10.589,5.59-13.148,1.607-34.924-16.96-28.384v-6.72Z"/>
  <path class="st0" d="M109.732,57.308v37.632l-8.064.448v-28c0-.168-.869-1.324-1.309-1.512-1.376-.589-3.195-.749-4.633-1.057l-24.672-7.585c-1.392-.832-.543-3.004-.744-4.405l25.766,7.613c4.635-.068,9.069-2.426,13.656-3.136v.002Z"/>
  <path class="st8" d="M93.689,95.449c-7.731,1.072-3.81-2.878-5.13-7.192-.495-1.625-2.606-2.177-2.863-2.96-.657-1.984.76-4.316-1.882-6.182-.984-.694-6.655-2.592-7.71-2.408-2.541.446-1.754,4.362-2.362,4.416-5.176-.331-2.885-2.58-2.946-5.658-.029-1.456-.917-9.45-.4-10.03,2.483,1.011,23.293,6.608,23.293,7.838v22.176Z"/>
  <path class="st11" d="M141.851,95.801v-11.872c0-2.49-1.697-5.158-3.356-6.949-1.907-2.057-5.488-4.342-7.5-1.219-.88,1.367-2.246,7.67-3.006,8.195-.68.472-1.819-.035-1.819-.475v-16.352c4.7,1.44,10.989,2.512,15.355,4.58.95.45,1.77.735,2.228,1.806l2.144,21.17c-.112,1.751-2.87.983-4.048,1.116h.002Z"/>
  <path class="st2" d="M123.606,59.614v33.152c0,.159-2.68.232-3.137.448v-31.136c0-1.408,1.845-2.368,3.136-2.464"/>
  <path class="st13" d="M126.609,91.696v-5.373c5.092,2.163,4.642-6.472,6.502-8.958.758-1.013,2.816.742,3.568,1.35,8.228,6.675-4.677,11.213-10.07,12.98"/>
  <path class="st11" d="M83.244,83.958c-2.88-.624-8.22-.873-7.165-4.928,3.01.368,8.16.628,7.165,4.928"/>
  <path class="st11" d="M146.763,106.502c.509,4.937-.387,4.724-4.928,4.483-.7-3.427,2.032-4.371,4.928-4.483"/>
  <path class="st13" d="M68.498,74.848v4.48c-2.232.06-4.18-1.229-6.266-1.8.237-.667,1.719-1.12,2.384-1.415.595-.262,3.581-1.582,3.882-1.265"/>
  <path class="st10" d="M65.699,86.157c.748.8,1.132,4.297,1.556,4.72.23.23,4.13,1.217,4.38.99.208-.19-1.97-3.707,2.8-3.03,2.868.404,6.176,2.528,6.525,5.616.39,3.432-3.128,6.612-3.51,9.728-.552,4.492.797,9.78.925,14.326.112,3.96.992,9.35-4.677,8.726-2.442-.268-18.056-5.75-20.295-7.05-1.696-.985-2.873-2.593-3.09-4.56-.457-4.145,5.084-13.442,5.609-18.196.42-3.798-3.818-13.656,2.944-13.66,1.174,0,6.142,1.652,6.832,2.39h0ZM64.467,89.629c.597-2.866-3.76-3.12-5.82-3.581l2.55,2.152,3.27,1.429ZM77.912,95.904c-4.256-.317-8.32-1.84-12.33-3.13l-8.28-4.038c-.4.457.951,6.485.932,7.833-.03,2.146-1.175,4.279-1.386,6.273-.536,5.096.36,11.11.06,16.304l17.612,5.888c2.14-.282,1.68-3.47,1.613-5.184-.189-4.88-1.497-11.415-.923-16.119.31-2.54,2.885-5.1,2.7-7.827h.002ZM78.357,93.658c-.947-1.757-3.003-2.577-4.926-2.682-.773,2.707,3.02,2.48,4.926,2.681M54.613,117.854v-8.96l-1.549,3.602c-.876,1.76-1.05,5.593,1.55,5.358"/>
  <path class="st12" d="M77.912,95.904c.183,2.726-2.392,5.286-2.702,7.827-.575,4.704.736,11.239.925,16.12.065,1.714.525,4.9-1.615,5.184l-17.61-5.888c.3-5.195-.596-11.21-.06-16.304.211-1.995,1.355-4.128,1.386-6.272.019-1.35-1.333-7.378-.932-7.835l8.279,4.038c4.013,1.29,8.073,2.813,12.33,3.13"/>
  <path class="st13" d="M64.466,89.629l-3.269-1.43-2.55-2.151c2.06.462,6.417.715,5.819,3.58M78.357,93.658c-1.904-.204-5.7.027-4.926-2.682,1.923.104,3.979.925,4.926,2.681"/>
  <path class="st3" d="M97.971,12.83c-.487,2.37-1.947,4.098-1.71,6.74.342,3.816,4.273,6.775,4.275,11.04.003,1.968-1.296,6.413-3.9,6.374-.053-1.447,1.066-2.23,1.303-3.72,1.061-6.648-4.44-8.91-4.034-14.724.132-1.92,1.738-5.7,4.066-5.712M106.7,19.541c-3.13,6.845,4.905,10.887.81,17.244-3.7,5.75-.799-3.684-.938-4.685-.477-3.449-7.303-9.955.13-12.559"/>
  <path class="st6" d="M89.242,20.213c.225,1.286-.984,2.026-1.21,3.16-.943,4.693,8.242,12.118-.127,15.625.442-2.222,1.627-3.1,1.32-5.64-.444-3.696-7.84-9.955.017-13.145"/>
  <path class="st2" d="M99.308,95.35h-3.584v-22.624c0-.184-1.034-1.585-1.315-1.822l-23.509-7.848c-1.165-.73-.63-2.325-.709-3.547l29.12,8.287-.003,27.554Z"/>
  <path class="st0" d="M86.17,88.763c-.57-1.273-7.572-3.4-9.392-4.048-5.925-2.112-16.441-6.366-22.165-7.41-3.024-.553-3.055.605-3.545,3.22-2.36,12.563-2.451,26.291-4.988,38.931-.943,3.994,6.063,5.36,9.17,6.499,6.261,2.298,16.512,6.555,22.616,7.845.669.139,2.146.464,2.653.144v-.002c.299-.188,1.189-5.976,1.339-6.947,1.59-10.293,3.877-23.363,4.538-33.541.078-1.208.227-3.676-.226-4.691ZM77.432,104.199c-.552,4.494.797,9.784.925,14.327.113,3.962.993,9.351-4.677,8.727-2.442-.269-18.055-5.75-20.295-7.05-1.696-.985-2.873-2.592-3.09-4.563-.457-4.142,5.084-13.441,5.61-18.194.42-3.798-3.817-13.655,2.944-13.66,1.173,0,6.142,1.653,6.832,2.39.749.8,1.132,4.3,1.556,4.72.23.23,4.13,1.218,4.38.99.208-.19-1.969-3.707,2.802-3.03,2.866.405,6.174,2.528,6.523,5.616.39,3.432-3.128,6.613-3.51,9.727Z"/>
  <path class="st9" d="M111.784,56.471l11.418-3.142c.318.016.49,3.73-.035,4.09-1.812,1.24-4.128.167-4.636,3.787v32.174l-6.747,1.171v-38.08Z"/>
  <g>
    <path class="st9" d="M108.738,55.252c3.725-1.076,7.162-2.164,8.833-2.685,1.044-.327,2.958-.662,3.584-1.562l-23.088-6.293c-8.302,1.48-16.435,3.86-24.402,6.512l13.329,4.261c5.052-1.443,10.402-2.866,11.854-2.866,1.077,0,5.154,1.161,9.889,2.633Z"/>
    <path class="st7" d="M108.738,55.252c-4.735-1.472-8.812-2.633-9.889-2.633-1.452,0-6.802,1.423-11.854,2.866l8.058,2.576c1.948.368,8.137-1.206,13.686-2.808Z"/>
  </g>
  <path class="st4" d="M97.648,45.471c1.308-.26,1.604,2.518.435,3.131-1.31.262-1.607-2.517-.436-3.131M98.757,49.951c.14.142.493,2.552-.203,2.667-.118,0-1.484.25-1.484.25-.62-1.147.698-3.928,1.688-2.917"/>
</svg>