<svg xmlns="http://www.w3.org/2000/svg" id="Layer_1" version="1.1" viewBox="0 0 196 196"><defs><style>.st0{fill:#3a3835}.st1{fill:#dededc}.st2{fill:#5f4028}.st3{fill:#262524}.st5{fill:#403e3c}.st6{fill:#b09170}.st7{fill:#9e7646}.st8{fill:#eae9e5}.st9{fill:#2c2a29}.st11{fill:#cbcecb}.st12{fill:#33312f}</style></defs><path d="m138.349 6.34-5.216 5.71s-5.59 5.315-5.865 5.315-10.722 2.657-10.722 2.657H104.72l-6.66 1.467-18.887 6.873s-8.077 4.203-8.72 4.53-6.69 4.254-6.69 4.254.185 1.845.643 2.21 4.032 1.582 4.032 1.582h3.849l8.236-2.313 9.359-2.475h2.932l1.191 2.056s1.283 1.67 1.65 1.686 7.02.566 7.02.566l9.234-1.376 7.113.81 7.697 1.046 7.239-3.23 13.837-12.83 3.984-4.492z" style="fill:#f3f4ef"/><path d="M67.42 39.675c-.606-.79-.473-3.282.301-3.777l13.556-6.488 16.569-5.268c.978-.28.834 1.374.37 1.736-.645.5-5.395 2.21-6.543 2.595-7.297 2.455-13.674 3.952-20.482 8.053-.866.52-3.495 1.697-1.695 2.969 2.562 1.81 11.919-2.78 15.106-3.405 2.223-.438 5.195-.224 7.284-.69 1.328-.3 2.018-1.688 3.09-2.364 4.14-2.609 10.24-2.468 14.847-3.62 1.053-.262 8.538-3.795 6.509-.625-1.488 2.322-13.104 3.495-16.18 4.383-1.744.502-7.44 2.436-5.483 5.07 2.439 3.283 12.925-.102 16.68-.081 5.862.033 10.11 2.883 16.602 1.4 7.503-1.714 14.506-12.337 20.466-17.296.502-.42 2.85-2.415 3.36-1.88.505 2.315-.795 2.195-1.9 3.34-4.874 5.055-15.245 16.975-21.92 17.94-3.023.438-6.569-.45-9.072-.188-1.29.135-3.435 2.17-5.295 1.559l-.03 13.584c.12.442 3.063.304 3.405 2.96l.045 56.162c.066.198 3.025 2.4 3.32 2.555 1.826.945 7.95 1.377 7.459 4.548-.417 2.674-4.937 2.685-5.33 3.3-.394.615.162 3.93-.06 4.975 8.786-1.156 14.88 4.03 15.55 12.774.824 10.788-3.823 19.835-15.502 20.405.095 4.122.306 6.555-3.27 9.108-8.66 6.183-32.04 5.791-41.125.565-2.793-1.606-4.056-3.232-4.353-6.555l.036-41.055c-.162-.675-5.451-1.14-5.445-3.844.007-2.978 5.295-3.183 7.215-4.08.756-.354 3.54-2.363 3.669-3.045L79.15 59.58c.328-2.505 2.953-2.313 3.313-3.399.91-2.754-.54-9.885.065-13.144-2.11.685-4.695-1.853-6.149-1.995-.753-.072-1.833.678-2.872.736-3.425.197-11.354.929-10.695-4.368.205-1.668 1.384-2.104 2.547-2.938 8.556-6.13 18.219-8.633 27.88-11.985 3.302-1.145 5.634-2.92 9.233-3.354 11.011-1.332 20.34 1.953 28.755-6.918 1.053-1.112 4.807-6.435 5.655-6.534.519-.06 1.366.186 1.467.658.142.674-6.683 8.47-7.776 9.419-8.265 7.156-19.6 3.676-29.27 5.562-2.214.432-4.651 2.09-6.804 2.848-4.455 1.568-9.519 2.517-13.76 4.284-5.107 2.13-10.237 5.775-15.227 8.268-1.533 1.614-.084 3.28 1.908 2.955m47.844.848c-6.108-2.009-16.42 4.074-21.555-.48-1.148-1.016-.945-2.808-2.151-2.895-4.308.267-8.29 1.29-12.386 2.536.044.503.575.711.965.918 5.36 2.835 26.314 2.286 32.542.897.653-.145 2.37-.325 2.585-.975m-3.776 2.933c-8.835 1.305-18.45 1.305-27.28 0v17.197c6.247 1.295 13.14 1.646 19.533 1.275 1.051-.06 7.747-.756 7.747-1.485zM82.525 60.232v-1.677c-1.799.57-1.799 1.107 0 1.677m32.32-1.254c-.042-.05-.937-.142-1.254-.423v1.677c.596-.241 1.827-.555 1.254-1.254M80.851 97.144c.022 5.696-.735 14.243-.021 19.526.225 1.67 1.38 2.082 2.865 2.59 6.897 2.363 20.383 2.256 27.459.41.819-.213 3.56-.966 3.909-1.545.564-.935.195-18.99.202-21.82.035-11.593.147-23.231-.207-34.811l-1.264.832-.245 31.65c0 1.692-1.567 1.69-2.48 2.748-.673.117-3.953.71-4.126.912-.538.623.269 3.31-2.8 3.305-2.693-.003-2.976-2.886-3.423-2.988-.716-.164-3.54.487-4.965.445-2.877-.085-6.713-.762-9.449-1.674-1.615-.538-3.105-.666-3.768-2.734l.008-31.793-1.694-.705c.03 11.877-.05 23.775-.001 35.652m13.85-7.13c-.496-2.68 1.95-2.293 3.524-1.2.503.346 1.65.784 2.126.778 4.057-.056 7.864.378 11.557 2.1V62.749c-9.159 1.493-18.535 1.668-27.7 0v28.943c3.117-1.25 6.258-1.99 9.652-1.679.026 1.278-.597 1.056-1.46 1.268-.967.235-9.36.987-7.77 3.34.494.73 8.474 1.74 9.824 2.115l1.08-1.269c.051.354-.208 1.158.236 1.29.162.047.396-.05.609-.033.277.023.562-.015.84 0 3.625.22 4.438-1.15 6.511-1.287 1.54-.102 2.133.795 3.143.71 3.357-.285 7.28-2.23 1.908-4.056-1.782-.608-6.123-1.268-7.995-1.275-1.554-.005-4.01.901-5.406.483-.441-.134-.73-.923-.68-1.286m10.434 6.77c-1.08-.69-3.847.64-2.497 2.28 1.76 2.142 4.018-1.307 2.497-2.28m-26.172 21.342c-.57-.008-2.634 2.49-.084 3.852 6.642 3.549 31.395 3.205 38.297-.065 1.395-.66 1.938-1.263 1.05-2.767-1.164-1.974-1.452-.11-2.655.742-5.45 3.86-28.69 3.684-34.45.267-.587-.35-2.01-2.028-2.16-2.03m-2.623 4.504c-.54-.57-.408-2.483-.727-2.408-.594.381-6.308 1.521-5.253 2.925.427.57 12.192 3.423 13.752 3.668 8.374 1.315 20.314 1.386 28.659-.075 1.737-.305 11.829-2.888 12.74-3.55.367-.266.365-.743.254-1.087-.087-.274-5.265-2.103-5.46-1.89-.075.083.132 1.206-.595 2.138-3.066 3.922-23.145 4.05-28.173 3.756-2.76-.162-13.499-1.69-15.195-3.477m-.525 3.879v42.574c0 1.859 4.582 4.14 6.18 4.728 8.6 3.177 26.982 3.293 35.085-1.237.804-.449 3.223-2.213 3.223-3.072v-42.993c-.51.5-2.761.735-2.887.89-.746.91 1.038 2.467-2.835 4.085-1.553.65-6.764 1.736-8.337 1.736h-6.087c.108 4.765-.468 9.59.883 14.217 3.533.331 15.414 1.015 16.946 4.666 1.19 2.838-.297 12.78.036 16.377-1.107 3.35-12.381 5.2-15.561 5.423-4.63.32-22.844-.305-24.462-5.745.486-4.415-1.028-12.09.094-16.101.894-3.19 13.53-4.36 16.55-4.635 1.291-4.628.83-9.447.9-14.205-3.029.184-14.435-.5-15.98-3.114-.513-.869-.222-2.05-.8-2.556-.514-.447-2.234-.485-2.948-1.038m5.57 2.82c1.378 1.194 9.679 2.112 11.83 2.23 4.04.222 18.369-.045 21.38-2.157.556-.39.622-.99 1.082-1.43-11.407 2.188-23.347 1.92-34.825.218-.051.038.418 1.04.534 1.14m41.014 32.835c15.828 2.066 19.199-27.838 4.362-29.316-.786-.08-3.952-.009-4.315.416-.284.333.097 2.605-.042 3.31 14.161-4.44 14.191 20.23 2.626 22.553-.676.135-2.538.006-2.632.097-.13.128.091 2.372 0 2.94M96.482 151.57c.434.435 1.397.628 1.988.337 2.03-.997.12-6.268.013-7.998-.178-2.877.246-6.003.015-8.824-.06-.735.086-1.373-.658-1.86-1.017-.201-.596.814-.623 1.46-.123 2.888.213 5.957-.006 8.806-.14 1.82-1.806 6.994-.729 8.079m25.917-12.687v18.666c1.185-.37 2.498-.315 3.666-.741 7.68-2.795 7.46-21.84-2.34-18.696-.388.124-1.213.42-1.326.77m-28.138 10.714c-.848-.845-12.548 1.422-13.73 2.598-1.905 1.891 1.343 2.865 2.928 3.373 6.99 2.238 22.254 2.378 29.196 0 .711-.243 3.743-1.48 3.869-2.01.615-2.611-12.867-4.452-14.873-3.993.113 3.204-4.171 6.032-6.474 3.1-.783-.997-.802-2.954-.915-3.068m22.263 7.111c-12.217 3.162-24.879 3.756-36.934-.42v10.278c0 2.129 3.015 3.438 4.804 4.005 5.91 1.878 16.493 2.172 22.58 1.131 1.368-.234 9.55-2.52 9.55-3.877z" class="st3"/><path d="M75.814 126.507c.714.553 2.434.59 2.947 1.038.58.505.288 1.687.801 2.556 1.545 2.614 12.951 3.3 15.98 3.114-.07 4.758.391 9.577-.9 14.205-3.02.274-15.656 1.444-16.55 4.635-1.122 4.01.392 11.685-.094 16.1 1.62 5.441 19.831 6.067 24.462 5.746 3.18-.222 14.454-2.073 15.56-5.423-.332-3.595 1.156-13.539-.035-16.377-1.532-3.65-13.413-4.335-16.946-4.666-1.351-4.628-.775-9.45-.883-14.217h6.087c1.575 0 6.784-1.086 8.337-1.736 3.873-1.618 2.09-3.175 2.835-4.086.126-.154 2.379-.39 2.887-.89V169.5c0 .86-2.42 2.623-3.222 3.072-8.104 4.53-26.485 4.414-35.085 1.237-1.599-.59-6.181-2.87-6.181-4.728zm13.28 8.856c-1.184.39-2.605 5.112-2.366 6.435.465 2.557 4.713 2.59 5.364.35.513-1.766-.69-7.547-2.997-6.785m16.39.012c-2.484.723-3.187 8.343 1.949 6.58 2.332-.8.555-7.31-1.95-6.58" style="fill:#f0efeb"/><path d="M115.265 96.306c-.007 2.829.36 20.884-.202 21.819-.348.579-3.09 1.332-3.91 1.545-7.075 1.845-20.561 1.953-27.458-.41-1.485-.51-2.64-.92-2.865-2.59-.714-5.283.043-13.83.02-19.526 1.729-.216 4.036.51 5.456-.42 2.736.912 6.57 1.59 9.447 1.674 1.428.042 4.251-.609 4.967-.445.447.102.73 2.985 3.423 2.988 3.069.004 2.262-2.682 2.799-3.305.174-.202 3.454-.795 4.126-.912 1.388-.24 2.766-.567 4.197-.42m-30.64 2.52c-1.035-.114-2.208-.03-2.094 1.253h2.1zm28.96.419c-.92.274-3.68-.773-3.358.834 1.225-.117 3.3 1.29 3.358-.834m-23.085.837-2.51.622c.827 1.113 2.597.863 2.51-.622m-6.712 3.355c.309-.309 1.702-.198 1.255 1.044-.523 1.45-1.801-.5-1.255-1.044-.081.083-1.704-.12-.635 1.686.594 1.005 1.608.447 2.313.411-.463 1.281-.315 1.87 1.257 2.096l.003-2.099c-.417.01-.841-.018-1.26.003.45-1.239 1.665-2.944-1.062-2.977-.95-.012-.525.787-.615.88m28.958.002c-.155-.143-1.57-.264-1.253.62.465 1.295 1.692-.214 1.253-.62m-2.519.42h-1.674v.834h1.674zm1.683 2.097h-2.098c-.329 1.141 1.083 1.177 2.094 1.254zm-8.505 2.16c-3.33.592-2.737 6.025.71 5.805 4.122-.267 3.294-6.515-.708-5.805m-20.025 5.794c1.042 1.33 3.222-1.554 1.453-2.08-1.38-.41-1.846 1.576-1.452 2.08m26.96 1.382c-1.562 1.56 1.285 3.334 2.223 2.01.92-1.296-.86-3.37-2.223-2.01m-10.662-.05c-1.8-1.137-3.695 1.614-1.62 2.685 1.866.962 2.602-2.065 1.62-2.685m-10.89 2.837c1.14-1.59-2.025-3.045-2.478-1.416-.419 1.507 1.852 2.29 2.478 1.416" class="st6"/><path d="M93.86 90.013c-3.394-.312-6.535.43-9.652 1.679V62.749c9.165 1.668 18.54 1.493 27.7 0v28.943c-3.693-1.722-7.5-2.156-11.557-2.1-.476.006-2.841.28-5.65.421-.15-.067-.575.026-.84 0m9.544-20.487c-3.737.675-2.726 6.6 1.479 5.733 3.426-.706 2.175-6.393-1.48-5.733m-.428 13.019c-2.135.633-2.703 4.596-.432 5.287 5.925 1.805 5.505-6.793.432-5.287m8.512-39.09v16.987c0 .73-6.696 1.425-7.747 1.485-6.393.37-13.286.02-19.533-1.275V43.455c8.829 1.305 18.445 1.305 27.28 0" class="st8"/><path d="M116.525 156.706v11.115c0 1.36-8.182 3.645-9.55 3.88-6.087 1.04-16.67.746-22.58-1.13-1.79-.569-4.804-1.878-4.804-4.007v-10.276c12.055 4.174 24.717 3.58 36.934.42" class="st2"/><path d="M94.262 149.595c.114.112.135 2.071.917 3.069 2.302 2.93 6.585.105 6.474-3.1 2.005-.46 15.486 1.38 14.872 3.99-.126.532-3.157 1.77-3.87 2.014-6.94 2.376-22.206 2.235-29.194-.002-1.586-.507-4.835-1.482-2.928-3.375 1.182-1.174 12.882-3.44 13.73-2.595" class="st7"/><path d="M122.4 162.162c.09-.569-.133-2.813 0-2.94.092-.092 1.954.039 2.63-.098 11.565-2.325 11.535-26.992-2.626-22.552.14-.705-.24-2.978.042-3.31.363-.425 3.53-.496 4.315-.416 14.837 1.477 11.466 31.38-4.362 29.316" class="st8"/><path d="M76.339 122.628c1.698 1.788 12.436 3.315 15.195 3.477 5.03.292 25.11.165 28.174-3.756.728-.932.522-2.055.597-2.138.195-.213 5.372 1.616 5.46 1.89.11.345.111.82-.255 1.088-.912.661-11.004 3.244-12.74 3.549-8.345 1.46-20.285 1.39-28.66.075-1.56-.245-13.324-3.1-13.752-3.668-1.054-1.404 4.66-2.544 5.253-2.925.32-.075.188 1.84.728 2.408" class="st1"/><path d="M94.7 90.013s.239 1.152.68 1.286c1.396.418 3.852-.488 5.404-.483 1.875.007 6.215.667 7.997 1.275 5.371 1.827 1.449 3.77-1.908 4.056-1.01.085-1.602-.81-3.143-.71-2.073.135-2.886 1.506-6.511 1.287 0 0-.705.092-1.03.092s-1.129.015-1.735-.078-9.33-1.386-9.825-2.117c-1.59-2.353 6.804-3.105 7.77-3.34.864-.212 1.485.01 1.461-1.268.266.026.84 0 .84 0" class="st11"/><path d="M78.96 118.125c.15.001 1.573 1.68 2.16 2.03 5.76 3.416 29 3.592 34.448-.268 1.205-.852 1.493-2.715 2.657-.742.888 1.504.345 2.107-1.05 2.767-6.9 3.27-31.655 3.615-38.297.065-2.55-1.364-.486-3.86.084-3.852" class="st8"/><path d="M115.264 40.524c-.215.65-1.932.83-2.585.975-6.228 1.389-27.181 1.938-32.542-.897-.39-.207-.921-.416-.965-.918 4.095-1.248 8.078-2.27 12.386-2.538 1.204.088 1.005 1.88 2.15 2.895 5.137 4.555 15.45-1.527 21.554.481" class="st1"/><path d="M80.85 97.144c-.047-11.877.034-23.775.002-35.652l1.694.705-.008 31.793c.663 2.068 2.153 2.196 3.768 2.734-1.42.93-3.727.204-5.455.42m.534 32.184c-.116-.1-.585-1.102-.534-1.14 11.478 1.703 23.418 1.97 34.825-.219-.46.441-.528 1.043-1.081 1.431-3.012 2.114-17.34 2.38-21.381 2.157-2.151-.12-10.452-1.035-11.83-2.229m33.881-33.022c-1.43-.15-2.81.178-4.197.42.915-1.06 2.481-1.058 2.481-2.75l.245-31.65 1.264-.832c.354 11.58.24 23.22.207 34.812" class="st8"/><path d="M96.484 151.569c-1.077-1.086.59-6.261.729-8.08.219-2.85-.117-5.918.006-8.806.027-.646-.395-1.662.622-1.46.744.487.599 1.124.659 1.86.23 2.82-.194 5.947-.015 8.824.106 1.73 2.017 7-.014 7.998-.59.29-1.554.099-1.987-.338" class="st2"/><path d="M105.136 96.783c1.52.973-.738 4.422-2.5 2.28-1.35-1.64 1.418-2.97 2.498-2.28m-.364 2.037c1.084-1.085-1.665-2.25-1.668-.627 0 .435 1.41.885 1.668.627" class="st6"/><path d="M82.525 60.234c-1.799-.572-1.799-1.11 0-1.68zm32.32-1.256c.573.7-.658 1.013-1.254 1.254v-1.677c.315.28 1.212.372 1.254.423" class="st11"/><path d="M89.095 135.363c2.305-.762 3.51 5.019 2.997 6.786-.651 2.24-4.9 2.206-5.364-.351-.24-1.323 1.182-6.045 2.367-6.435m.154 2.469c-.355.96-1.815 4.887.621 4.19 1.184-.338.71-3.892-.62-4.19" style="fill:#201f1e"/><path d="M105.485 135.375c2.505-.73 4.281 5.78 1.949 6.58-5.136 1.763-4.433-5.857-1.95-6.58m.132 2.458c-.34.25-.806 2.708.618 2.513 1.41-.686.273-3.168-.618-2.513m-2.21-29.716c4.002-.711 4.83 5.536.708 5.802-3.447.222-4.04-5.211-.708-5.802m-.625 4.023c1.43 1.43 4.158-.915 2.24-2.448-1.838-1.469-3.472 1.218-2.24 2.448" class="st3"/><path d="M85.466 105.534c-.705.036-1.719.594-2.313-.411-1.07-1.806.554-1.604.635-1.686-.546.543.732 2.494 1.255 1.044.447-1.242-.945-1.353-1.255-1.044.091-.093-.333-.893.615-.88 2.73.032 1.512 1.738 1.065 2.977" class="st2"/><path d="M99.676 115.242c.984.62.247 3.646-1.619 2.685-2.074-1.071-.18-3.822 1.62-2.685" class="st0"/><path d="M110.34 115.291c1.363-1.36 3.142.714 2.222 2.01-.937 1.325-3.784-.45-2.223-2.01m1.565.31c-.395-.448-1.704.856-1.254 1.256.706.63 1.888-.535 1.254-1.255" class="st12"/><path d="M88.786 118.078c-.624.875-2.895.09-2.477-1.416.453-1.629 3.617-.174 2.478 1.416" class="st0"/><path d="M83.381 113.91c-.394-.504.074-2.49 1.452-2.08 1.77.526-.41 3.409-1.452 2.08m30.204-14.666c-.058 2.123-2.133.717-3.358.834-.323-1.606 2.437-.56 3.358-.834" class="st12"/><path d="M85.466 105.534c.419-.021.843.007 1.26-.003l-.003 2.098c-1.57-.226-1.72-.814-1.257-2.095" class="st0"/><path d="m84.625 98.824.004 1.254h-2.098c-.114-1.282 1.057-1.365 2.094-1.254" class="st5"/><path d="M90.5 100.081c.087 1.485-1.683 1.736-2.51.623z" class="st9"/><path d="m111.91 105.954-.005 1.255c-1.01-.075-2.422-.112-2.094-1.254z" class="st2"/><path d="M108.553 103.858h1.674v.834h-1.674z" class="st12"/><path d="M112.745 103.438c.44.407-.789 1.916-1.252.621-.318-.885 1.098-.765 1.252-.62" class="st0"/><path d="M103.405 69.526c3.652-.66 4.905 5.025 1.479 5.733-4.205.867-5.216-5.058-1.48-5.733m-.731 1.611.39 2.759c1.29.934 3.255-.858 2.37-2.369zm.303 11.408c5.071-1.506 5.493 7.092-.432 5.287-2.271-.69-1.703-4.654.432-5.287m2.16 4.054c1.52-.972-.738-4.42-2.5-2.28-1.35 1.641 1.418 2.972 2.498 2.28" class="st12"/><path d="M104.771 98.82c-.26.26-1.67-.194-1.668-.627.003-1.625 2.753-.458 1.668.627" class="st0"/><path d="M89.25 137.832c1.33.3 1.804 3.852.62 4.19-2.436.697-.976-3.23-.62-4.19m16.366.001c.892-.655 2.03 1.827.62 2.513-1.424.195-.958-2.265-.619-2.513" class="st7"/><path d="M102.78 112.14c-1.23-1.23.403-3.917 2.24-2.448 1.919 1.533-.81 3.877-2.24 2.448m1.991-1.99h-1.255v1.673l.62-.001c.66-.443.733-.9.635-1.673m7.134 5.453c.635.72-.547 1.885-1.254 1.255-.45-.402.86-1.704 1.254-1.255" class="st6"/><path d="M102.673 71.137c1.539-1.539 2.76.39 2.76.39.885 1.51-1.08 3.303-2.37 2.369 0 0-1.928-1.221-.39-2.76m1.057.423c-.991.217-.62 1.899.407 1.672.991-.217.62-1.899-.407-1.672m1.406 15.04c-1.27 1.12-3.85-.639-2.5-2.28 1.762-2.14 3.853 1.086 2.498 2.28" class="st11"/><path d="M104.771 110.15c.098.773.453 1.184-.205 1.624l-1.05.05s-.74-1.135 0-1.675 1.255 0 1.255 0" class="st9"/><path d="M103.73 71.559c1.026-.225 1.398 1.456.407 1.674-1.026.225-1.398-1.455-.407-1.673m.989 14.05s-.79.982-1.476 0 1.444-1.886 1.476 0" class="st5"/></svg>