<?xml version="1.0" encoding="UTF-8"?>
<svg id="Layer_1" xmlns="http://www.w3.org/2000/svg" version="1.1" viewBox="0 0 196 196">
  <!-- Generator: Adobe Illustrator 29.0.0, SVG Export Plug-In . SVG Version: 2.1.0 Build 186)  -->
  <defs>
    <style>
      .st0 {
        fill: #fff;
      }

      .st1 {
        fill: #3a3835;
      }

      .st2 {
        fill: #5f4028;
      }

      .st3 {
        fill: #262524;
      }

      .st4 {
        fill: #201f1e;
      }

      .st5 {
        fill: #403e3c;
      }

      .st6 {
        fill: #b09170;
      }

      .st7 {
        fill: #9e7646;
      }

      .st8 {
        fill: #eae9e5;
      }

      .st9 {
        fill: #2c2a29;
      }

      .st10 {
        fill: #f3f4ef;
      }

      .st11 {
        fill: #cbcecb;
      }

      .st12 {
        fill: #33312f;
      }

      .st13 {
        fill: #f0efeb;
      }
    </style>
  </defs>
  <ellipse class="st8" cx="97.0818" cy="39.9826" rx="19.1727" ry="3.4744"/>
  <polygon class="st11" points="126.6917 124.0051 113.585 127.8165 97.7608 128.9627 81.8504 127.8165 70.2274 124.5039 70.2274 120.1938 75.814 119.2536 78.2364 122.7456 86.726 124.8566 97.2182 125.3627 111.488 124.5039 117.6901 122.7456 120.302 119.69 126.6917 121.0454 126.6917 124.0051"/>
  <polygon class="st0" points="79.591 126.507 80.4855 129.7957 90.5464 132.8172 103.1492 132.8172 112.8155 131.1959 115.676 129.29 116.525 126.507 104.9547 129.3254 91.7636 128.9627 79.591 126.507"/>
  <polygon class="st8" points="79.172 117.0375 76.4909 119.2536 76.9273 121.9809 84.629 124.8566 107.3312 124.8566 118.3438 121.9809 120.302 119.69 117.4 117.0375 113.585 120.1938 97.848 121.9809 85.2362 121.0454 79.172 117.0375"/>
  <rect class="st11" x="81.1757" y="57.9445" width="34.5002" height="2.8364"/>
  <polygon class="st13" points="121.6545 168.89 117.0727 173.3627 105.6815 176.6355 97.7608 177.29 87.6454 176.0959 77.6328 173.2536 75.1818 168.89 75.1818 125.7991 79.591 127.0599 80.8471 130.5991 97.8934 132.8172 114.2922 131.0355 116.5453 126.9991 121.6545 125.7991 121.6545 168.89"/>
  <polyline class="st2" points="78.7818 155.2536 78.7818 167.3627 80.5227 170.1113 94.1636 173.2536 104.0709 173.2536 116.5444 168.9991 117.4 155.4709 108.5221 157.549 92.7455 158.1991 79.591 155.2536"/>
  <path class="st7" d="M94.2727,148.2718c-.5455-.3273-12.4224,1.8545-12.4224,1.8545l-2.2593,1.917.3581,2.6648,8.542,2.8408,14.6109.7592,12.574-2.4338,1.724-1.2753-.8556-3.0545-14.192-3.3062-8.0797.0335Z"/>
  <path class="st11" d="M83.3091,42.6372l.3872,18.8548,11.0128,1.6889h10.0974s8.6819-1.6889,8.009-1.6889,0-18.8548,0-18.8548l-15.27.8198-14.2364-.8198Z"/>
  <polygon class="st0" points="115.264 93.8226 80.5227 93.8226 80.5227 60.7809 86.258 62.066 97.7626 62.749 109.39 62.0684 115.264 60.7809 115.264 93.8226"/>
  <path class="st6" d="M115.676,117.7654l-5.119,3.5485-12.709.667-12.6118-.9355-4.7134-3.28.0318-25.4572s-.4829.8611,1.1045,1.5174c1.41.583,27.1529.1303,32.8899.0218.7219-.0136,1.1271-1.5393,1.1271-1.5393v25.4572Z"/>
  <polygon class="st8" points="112.1426 93.8256 83.6962 93.8256 83.6962 61.492 87.6454 62.749 98 63.29 107.3312 62.749 112.1426 61.492 112.1426 93.8256"/>
  <ellipse class="st11" cx="98.1753" cy="93.5478" rx="13.9673" ry="3.5348"/>
  <path class="st10" d="M138.349,6.34l-5.216,5.71s-5.59,5.315-5.865,5.315-10.722,2.657-10.722,2.657h-11.826l-6.66,1.467-18.887,6.873s-8.077,4.203-8.72,4.53-6.69,4.254-6.69,4.254c0,0,.185,1.845.643,2.21s4.032,1.582,4.032,1.582h3.849l8.236-2.313,9.359-2.475h2.932l1.191,2.056s1.283,1.67,1.65,1.686,7.02.566,7.02.566l9.234-1.376,7.113.81,7.697,1.046,7.239-3.23,13.837-12.83,3.984-4.492-13.43-14.046Z"/>
  <path class="st3" d="M67.42,39.675c-.606-.79-.8291-2.2668.5345-3.4395s13.5545-6.4909,13.5545-6.4909l16.3369-5.6026c.978-.28.834,1.374.37,1.736-.645.5-5.395,2.21-6.543,2.595-7.297,2.455-13.674,3.952-20.482,8.053-.866.52-3.495,1.697-1.695,2.969,2.562,1.81,11.919-2.78,15.106-3.405,2.223-.438,5.195-.224,7.284-.69,1.328-.3,2.018-1.688,3.09-2.364,4.14-2.609,10.24-2.468,14.847-3.62,1.053-.262,8.538-3.795,6.509-.625-1.488,2.322-13.104,3.495-16.18,4.383-1.744.502-7.44,2.436-5.483,5.07,2.439,3.283,12.925-.102,16.68-.081,5.862.033,10.11,2.883,16.602,1.4,7.503-1.714,14.506-12.337,20.466-17.296.502-.42,2.85-2.415,3.36-1.88.505,2.315-.795,2.195-1.9,3.34-4.874,5.055-15.245,16.975-21.92,17.94-3.023.438-6.569-.45-9.072-.188-1.29.135-3.435,2.17-5.295,1.559l-.03,13.584c.12.442,3.063.304,3.405,2.96l.045,56.162c.066.198,3.025,2.4,3.32,2.555,1.826.945,7.95,1.377,7.459,4.548-.417,2.674-4.937,2.685-5.33,3.3-.394.615.162,3.93-.06,4.975,8.786-1.156,14.88,4.03,15.55,12.774.824,10.788-3.823,19.835-15.502,20.405.095,4.122.306,6.555-3.27,9.108-8.66,6.183-32.04,5.791-41.125.565-2.793-1.606-4.056-3.232-4.353-6.555l.036-41.055c-.162-.675-5.451-1.14-5.445-3.844.007-2.978,5.295-3.183,7.215-4.08.756-.354,3.54-2.363,3.669-3.045l-.024-55.815c.328-2.505,2.953-2.313,3.313-3.399.91-2.754-.54-9.885.065-13.144-2.11.685-4.695-1.853-6.149-1.995-.753-.072-1.833.678-2.872.736-3.425.197-11.354.929-10.695-4.368.205-1.668,1.384-2.104,2.547-2.938,8.556-6.13,18.219-8.633,27.88-11.985,3.302-1.145,5.634-2.92,9.233-3.354,11.011-1.332,20.34,1.953,28.755-6.918,1.053-1.112,4.807-6.435,5.655-6.534.519-.06,1.366.186,1.467.658.142.674-6.683,8.47-7.776,9.419-8.265,7.156-19.6,3.676-29.27,5.562-2.214.432-4.651,2.09-6.804,2.848-4.455,1.568-9.519,2.517-13.76,4.284-5.107,2.13-10.237,5.775-15.227,8.268-1.533,1.614-.084,3.28,1.908,2.955M115.264,40.523c-6.108-2.009-16.42,4.074-21.555-.48-1.148-1.016-.945-2.808-2.151-2.895-4.308.267-8.29,1.29-12.386,2.536.044.503.575.711.965.918,5.36,2.835,26.314,2.286,32.542.897.653-.145,2.37-.325,2.585-.975M111.488,43.457c-8.835,1.305-18.45,1.305-27.28,0v17.197c6.247,1.295,13.14,1.646,19.533,1.275,1.051-.06,7.747-.756,7.747-1.485v-16.987ZM82.525,60.232v-1.677c-1.799.57-1.799,1.107,0,1.677M114.845,58.978c-.042-.05-.937-.142-1.254-.423v1.677c.596-.241,1.827-.555,1.254-1.254M80.851,97.144c.022,5.696-.735,14.243-.021,19.526.225,1.67,1.38,2.082,2.865,2.59,6.897,2.363,20.383,2.256,27.459.41.819-.213,3.56-.966,3.909-1.545.564-.935.195-18.99.202-21.82.035-11.593.147-23.231-.207-34.811l-1.264.832-.245,31.65c0,1.692-1.567,1.69-2.48,2.748-.673.117-3.953.71-4.126.912-.538.623.269,3.31-2.8,3.305-2.693-.003-2.976-2.886-3.423-2.988-.716-.164-3.54.487-4.965.445-2.877-.085-6.713-.762-9.449-1.674-1.615-.538-3.105-.666-3.768-2.734l.008-31.793-1.694-.705c.03,11.877-.05,23.775-.001,35.652M94.701,90.014c-.496-2.68,1.95-2.293,3.524-1.2.503.346,1.65.784,2.126.778,4.057-.056,7.864.378,11.557,2.1v-28.943c-9.159,1.493-18.535,1.668-27.7,0v28.943c3.117-1.25,6.258-1.99,9.652-1.679.026,1.278-.597,1.056-1.46,1.268-.967.235-9.36.987-7.77,3.34.494.73,8.474,1.74,9.824,2.115,0,0,.872-.111,1.316.021.162.047.396-.05.609-.033.277.023.562-.015.84,0,3.625.22,4.438-1.15,6.511-1.287,1.54-.102,2.133.795,3.143.71,3.357-.285,7.28-2.23,1.908-4.056-1.782-.608-6.123-1.268-7.995-1.275-1.554-.005-4.01.901-5.406.483-.441-.134-.73-.923-.68-1.286M105.134,96.783c-1.08-.69-3.847.64-2.497,2.28,1.76,2.142,4.018-1.307,2.497-2.28M78.962,118.125c-.57-.008-2.634,2.49-.084,3.852,6.642,3.549,31.395,3.205,38.297-.065,1.395-.66,1.938-1.263,1.05-2.767-1.164-1.974-1.452-.11-2.655.742-5.45,3.86-28.69,3.684-34.45.267-.587-.35-2.01-2.028-2.16-2.03M76.337,122.628c-.54-.57-.408-2.483-.727-2.408-.594.381-6.308,1.521-5.253,2.925.427.57,12.192,3.423,13.752,3.668,8.374,1.315,20.314,1.386,28.659-.075,1.737-.305,11.829-2.888,12.74-3.55.367-.266.365-.743.254-1.087-.087-.274-5.265-2.103-5.46-1.89-.075.083.132,1.206-.595,2.138-3.066,3.922-23.145,4.05-28.173,3.756-2.76-.162-13.499-1.69-15.195-3.477M75.814,126.507v42.574c0,1.859,4.582,4.14,6.18,4.728,8.6,3.177,26.982,3.293,35.085-1.237.804-.449,3.223-2.213,3.223-3.072v-42.993c-.51.5-2.761.735-2.887.89-.746.91,1.038,2.467-2.835,4.085-1.553.65-6.764,1.736-8.337,1.736h-6.087c.108,4.765-.468,9.59.883,14.217,3.533.331,15.414,1.015,16.946,4.666,1.19,2.838-.297,12.78.036,16.377-1.107,3.35-12.381,5.2-15.561,5.423-4.63.32-22.844-.305-24.462-5.745.486-4.415-1.028-12.09.094-16.101.894-3.19,13.53-4.36,16.55-4.635,1.291-4.628.83-9.447.9-14.205-3.029.184-14.435-.5-15.98-3.114-.513-.869-.222-2.05-.8-2.556-.514-.447-2.234-.485-2.948-1.038M81.384,129.327c1.378,1.194,9.679,2.112,11.83,2.23,4.04.222,18.369-.045,21.38-2.157.556-.39.622-.99,1.082-1.43-11.407,2.188-23.347,1.92-34.825.218-.051.038.418,1.04.534,1.14M122.399,162.1629c15.828,2.066,19.199-27.838,4.362-29.316-.786-.08-3.952-.009-4.315.416-.284.333.097,2.605-.042,3.31,14.161-4.44,14.191,20.23,2.626,22.553-.676.135-2.538.006-2.632.097-.13.128.091,2.372,0,2.94M96.482,151.57c.434.435,1.397.628,1.988.337,2.03-.997.12-6.268.013-7.998-.178-2.877.246-6.003.015-8.824-.06-.735.086-1.373-.658-1.86-1.017-.201-.596.814-.623,1.46-.123,2.888.213,5.957-.006,8.806-.14,1.82-1.806,6.994-.729,8.079M122.399,138.883v18.666c1.185-.37,2.498-.315,3.666-.741,7.68-2.795,7.46-21.84-2.34-18.696-.388.124-1.213.42-1.326.77M94.261,149.596c-.848-.845-12.548,1.422-13.73,2.598-1.905,1.891,1.343,2.865,2.928,3.373,6.99,2.238,22.254,2.378,29.196,0,.711-.243,3.743-1.48,3.869-2.01.615-2.611-12.867-4.452-14.873-3.993.113,3.204-4.171,6.032-6.474,3.1-.783-.997-.802-2.954-.915-3.068M116.525,156.707c-12.217,3.162-24.879,3.756-36.934-.42v10.278c0,2.129,3.015,3.438,4.804,4.005,5.91,1.878,16.493,2.172,22.58,1.131,1.368-.234,9.55-2.52,9.55-3.877v-11.117Z"/>
  <path class="st8" d="M122.4,162.162c.09-.569-.133-2.813,0-2.94.092-.092,1.954.039,2.63-.098,11.565-2.325,11.535-26.992-2.626-22.552.14-.705-.24-2.978.042-3.31.363-.425,3.53-.496,4.315-.416,14.837,1.477,11.466,31.38-4.362,29.316"/>
  <path class="st2" d="M96.484,151.569c-1.077-1.086.59-6.261.729-8.08.219-2.85-.117-5.918.006-8.806.027-.646-.395-1.662.622-1.46.744.487.599,1.124.659,1.86.23,2.82-.194,5.947-.015,8.824.106,1.73,2.017,7-.014,7.998-.59.29-1.554.099-1.987-.338"/>
  <path class="st6" d="M105.136,96.783c1.52.973-.738,4.422-2.5,2.28-1.35-1.64,1.418-2.97,2.498-2.28M104.77,98.82c1.084-1.085-1.665-2.25-1.668-.627,0,.435,1.41.885,1.668.627"/>
  <path class="st4" d="M89.095,135.363c2.305-.762,3.51,5.019,2.997,6.786-.651,2.24-4.9,2.206-5.364-.351-.24-1.323,1.182-6.045,2.367-6.435"/>
  <path class="st3" d="M105.485,135.375c2.505-.73,4.281,5.78,1.949,6.58-5.136,1.763-4.433-5.857-1.95-6.58M103.406,108.117c4.002-.711,4.83,5.536.708,5.802-3.447.222-4.04-5.211-.708-5.802M102.781,112.14c1.43,1.43,4.158-.915,2.24-2.448-1.838-1.469-3.472,1.218-2.24,2.448"/>
  <path class="st2" d="M85.466,105.534c-.705.036-1.719.594-2.313-.411-1.07-1.806.554-1.604.635-1.686-.546.543.732,2.494,1.255,1.044.447-1.242-.945-1.353-1.255-1.044.091-.093-.333-.893.615-.88,2.73.032,1.512,1.738,1.065,2.977"/>
  <path class="st1" d="M99.676,115.242c.984.62.247,3.646-1.619,2.685-2.074-1.071-.18-3.822,1.62-2.685"/>
  <path class="st12" d="M110.34,115.291c1.363-1.36,3.142.714,2.222,2.01-.937,1.325-3.784-.45-2.223-2.01M111.904,115.601c-.395-.448-1.704.856-1.254,1.256.706.63,1.888-.535,1.254-1.255"/>
  <path class="st1" d="M88.786,118.078c-.624.875-2.895.09-2.477-1.416.453-1.629,3.617-.174,2.478,1.416"/>
  <path class="st12" d="M83.381,113.91c-.394-.504.074-2.49,1.452-2.08,1.77.526-.41,3.409-1.452,2.08M113.585,99.244c-.058,2.123-2.133.717-3.358.834-.323-1.606,2.437-.56,3.358-.834"/>
  <path class="st1" d="M85.466,105.534c.419-.021.843.007,1.26-.003l-.003,2.098c-1.57-.226-1.72-.814-1.257-2.095"/>
  <path class="st5" d="M84.625,98.824l.004,1.254h-2.098c-.114-1.282,1.057-1.365,2.094-1.254"/>
  <path class="st9" d="M90.5,100.081c.087,1.485-1.683,1.736-2.51.623l2.51-.623Z"/>
  <path class="st2" d="M111.91,105.954l-.005,1.255c-1.01-.075-2.422-.112-2.094-1.254l2.099-.001Z"/>
  <path class="st12" d="M108.553,103.858h1.674v.834h-1.674v-.834Z"/>
  <path class="st1" d="M112.745,103.438c.44.407-.789,1.916-1.252.621-.318-.885,1.098-.765,1.252-.62"/>
  <path class="st12" d="M103.405,69.526c3.652-.66,4.905,5.025,1.479,5.733-4.205.867-5.216-5.058-1.48-5.733M102.673,71.137l.39,2.759c1.29.934,3.255-.858,2.37-2.369l-2.76-.39ZM102.976,82.545c5.071-1.506,5.493,7.092-.432,5.287-2.271-.69-1.703-4.654.432-5.287M105.136,86.599c1.52-.972-.738-4.42-2.5-2.28-1.35,1.641,1.418,2.972,2.498,2.28"/>
  <path class="st1" d="M104.771,98.82c-.26.26-1.67-.194-1.668-.627.003-1.625,2.753-.458,1.668.627"/>
  <path class="st7" d="M89.4476,137.832c1.33.3,1.804,3.852.62,4.19-2.436.697-.976-3.23-.62-4.19M105.8136,137.833c.892-.655,2.03,1.827.62,2.513-1.424.195-.958-2.265-.619-2.513"/>
  <path class="st6" d="M102.78,112.14c-1.23-1.23.403-3.917,2.24-2.448,1.919,1.533-.81,3.877-2.24,2.448M104.771,110.15h-1.255v1.673l.62-.001c.66-.443.733-.9.635-1.673M111.905,115.602c.635.72-.547,1.885-1.254,1.255-.45-.402.86-1.704,1.254-1.255"/>
  <path class="st11" d="M102.673,71.137c1.539-1.539,2.76.39,2.76.39.885,1.51-1.08,3.303-2.37,2.369,0,0-1.928-1.221-.39-2.76M103.73,71.559c-.991.217-.62,1.899.407,1.672.991-.217.62-1.899-.407-1.672M105.136,86.599c-1.27,1.12-3.85-.639-2.5-2.28,1.762-2.14,3.853,1.086,2.498,2.28"/>
  <path class="st1" d="M104.771,110.15c.098.773.453,1.184-.205,1.624l-1.05.05s-.74-1.135,0-1.675,1.255,0,1.255,0"/>
  <path class="st5" d="M103.73,71.559c1.026-.225,1.398,1.456.407,1.674-1.026.225-1.398-1.455-.407-1.673M104.719,85.61s-.79.982-1.476,0,1.444-1.886,1.476,0"/>
</svg>