<svg xmlns="http://www.w3.org/2000/svg" id="Layer_1" version="1.1" viewBox="0 0 196 196"><defs><style>.st1{fill:#dededc}.st5{fill:#b09170}.st6{fill:#9e7646}.st7{fill:#62a2cf}.st8{fill:#eae9e5}.st11{fill:#cbcecb}.st12{fill:#33312f}.st13{fill:#b8b6b2}.st15{fill:#f0efeb}</style></defs><path d="M74.95 154.615c-1.634-.777-4.214-2.778-3.81-4.824l4.69-31.42c.012-1.15 1.818-2.317 1.989-3.06.106-.466-.63-8.872-.836-9.497-4.473-2.675-2.962-15.675-5.311-21.119-2.648-4.36-7.557-15.616-13.401-16.377-2.342-6.255 29.33-11.199 34.672-14.005.765-1.175-1.85-8.04-1.53-9.76.453-2.432 11.562-2.446 12.722-.692 1.209 1.827-2.153 9.642-.82 10.552 12.155 4.911 24.265 5.628 37.127 4.755 3.698 3.054 11.366 8.64 9.864 14.513-4.303 7.978-6.183 28.477-13.152 32.575-1.179.356-7.359 1.554-8.182 1.317-1.725-.498-3.22-7.035-1.919-7.846 1.43-.893 5.1 1.687 6.345-1 .501-3.526 1-9.352 3.04-12.902.707-2.486.557-4.953 1.447-7.362.793-2.147 2.803-3.486 1.935-6.087-3.368-5.505-9.954 2.527-14.423 3.045-2.766 9.138-.625 22.978-6.385 30.412-.162 2.516.2 6.69-.806 9.17 5.52 10.212 3.653 23.854 6.7 35.218-.521 3.78-5.168 5.091-8.404 5.655 1.845 1.191 9.975.34 13.185 5.064-.16.648 6.276 16.93 4.232 16.745-.57-.888-73.071 1.732-72.327-.953 5.06-14.563.568-18.61 17.973-20.854-1.346-.31-3.416-.693-4.616-1.263zm27.701-109.473c-3.118-.695-6.127-.73-9.238 0 1.8 5.412-.572 11.937 7.365 9.24.912-1.296.79-7.42 1.875-9.24m-9.236 11.325c-2.72.274-18.001 4.833-18.039 7.335 1.217.723 6.113 2.133 7.245 1.83 2.555-1.83 8.415-6.477 10.794-9.165m18.045 8.812c-3.898-1.395-9.35-10.389-13.62-8.376-3.217-2.09-9.82 7.403-13.243 8.577.249-.511 28.302 1.815 26.862-.2m11.754-2.1-20.565-6.713 10.795 9.157c.195.06 11.26-1.14 9.77-2.445m6.345 42.31c.525.34 7.809-.907 8.533-2.068l10.65-31.344c.34-3.21-6.246-8.64-8.1-10.591-2.242-1.38-4.488-.093-6.934-.407 1.968 5.523-2.726 9.8-7.133 5.031l-.84 7.13c3.981-1.17 9.836-6.453 13.827-3.965 6.266 3.7-1.722 10.34-.916 16.24-5.003 7.726.475 18.03-9.977 16.25-.258.258.672 3.58.89 3.723m2.467-43.992c-1.49.015-8.272-.024-9.65-.006 1.703.576 3.617 1.15 4.993 2.355.95.833 1.56 2.843 3.166 2.705 1.81-.155 2.168-3.675 1.493-5.055zm-7.137 3.776c-3.15 1.39-8.376.657-10.855 2.78l-2.99 38.324c2.303-.43 7.365-1.353 8.2-3.757zm-51.62.42H62.566c-1.45.813-3.158 1.36-.408 2.07 4.165 2.643 7.024 10.192 9.858 14.286 1.38.052 1.068-15.503 1.252-16.358m8.796 1.695c-1.434.207-6.57-2.034-7.35-.879-.8 1.188-.001 15.597-.871 18.201L76.859 103c1.996 2.46 5.304 2.65 8.158 3.375zm30.237.4H83.763c.554 1.927 1.167 22.612 2.304 22.64 1.628-1.018 4.886-1.077 6.929-.826l.846-14.048c2.64-2.833-.801-6.982 4.816-6.423 2.724.27 1.476 2.486 1.98 4.235 2.37 1.068 2.028 14.175 2.43 16.237 2.55-.088 4.937-.11 7.341.843zM94.256 91.278c-.075.057.195 1.298-1.259.84.134-2.707-8.358-.78-6.92 1.262 10.498-2.946 6.616 7.704 17.833 1.254 1.206-.372 2.688-.39 4.008-.816.45-.146 2.628-.815 2.283-1.485-2.387-1.244-7.27-2.547-6.711 1.462-2.895.384-1.191-.916-1.39-2.253-1.421-5.326.613-12.369-2.807-16.623-.15-1.155-.756-2.403-.417-3.777H96.77c.104 1.806.213 3.67-1.16 4.923-1.283 4.176-.254 10.713-1.357 15.213m4.617 16.36c13.313-.005 9.987-1.399 11.33-12.583-4.709.476-7.646 2.673-12.378 3.39-7.36-1.387-2.858-5.118-11.544-3.393.045 3.735.3 7.542.928 11.235 3.293 1.14 7.605 2.16 10.826.51-.12 1.14.033.756.84.84zm18.048-.84c-12.184 3.586-25.58 3.404-37.773 0v6.502c0 .202 1.647 1.186 2.003 1.353 7.359 2.965 29.36 3.964 35.77-1.353zm.837 11.324c-.742-3.38-3.297-1.102-5.45-.624-9 1.998-18.815 1.941-27.86.153-2.775-.549-5.238-2.884-6.564.678 8.88-.973 7.894 5.328 17.823 1.872 3.457-.58 8.314.57 11.33 1.278 2.707-1.46 7.16-3.7 10.721-3.358m-32.313 36.915 2.517-31.673c-.348-1.843-7.086-3.702-8.98-3.541-3.69.879-4.988 24.595-5.706 28.716-.531 5.767 7.978 5.974 12.17 6.498m33.092-34.755c-3.454-1.115-7.657.585-10.365 2.731l2.456 32.44c2.611-.458 11.535-2.065 12.097-4.925zm-12.183 2.944c-5.043-2.08-11.535-1.815-16.656-.01l-2.535 32.2a46.8 46.8 0 0 0 21.737-.004zm-9.162 35.166c-5.112.314-10.04-1.294-15.105-1.677.54 2.22 2.91 3.128 3.99 5.028l2.933-3.765c1.993 1.857 2.559 5.939 6.025 4.96zm16.788-1.677c-5.175 1.45-9.538-1.3-3.985 5.022.375-.691 4.585-4.47 3.985-5.022m-45.33 19.29c2.004-9.382.242-13.503 10.485-16.578.525-.49.693-.825.026-1.26-14.357.488-11.571 7.376-15.543 17.835zm37.778-18.03-7.973.623c.735.483 2.367 4.201 2.58 4.335 2.37 1.482 4.919-3.126 5.393-4.958m26.02 18.029c-4.4-11.2-1.1-17.025-15.946-18.03-1.425 1.392 4.702 3.126 5.472 3.544 4.492.837 4.368 12.779 5.457 14.47.241.233 4.19-.127 5.017.016M82.502 160.9l-1.253-1.671-.423 2.094zm33.157.42-1.047-2.091-1.05 1.672zm-28.119 5.038c-1.09-.228-1.098-.795-1.26-.84l-2.31-3.772c-.588 1.617-1.624 1.31-3.144 1.26 2.142 7.042 32.547 7.33 33.771-.01-1.635.69-1.956-.842-2.085-.844-1.194-.012-2.298 2.415-2.728 3.368-.096.009-1.085.316-1.68.42.61-1.466.796-5.385-1.25-5.451-.898 1.275-2.784 4.1-2.946 5.87-2.145.409.66-2.272-2.305-1.693-.741.113.718 2.38-1.892 2.53 1.04-2.488.038-4.655-1.89-6.283-2.154 2.175-1.723 3.989-1.887 6.704-1.965-.774-2.106-6.542-3.358-1.26l-3.572-5.874c-2.103.813-1.306 4.083-1.464 5.875m-17.208 9.647h55.401c-2.24-7.265.053-12.642-9.02-14.685 13.736 15.093-50.275 15.9-37.774.007-1.416 1.01-4.993 1.6-5.859 2.955-.36.563-3.187 11.312-2.748 11.723m8.819-11.744c-2.294 9.599 41.094 8.51 37.345.203-6.483 7.857-30.652 7.65-37.345-.203" style="fill:#262524"/><path d="M79.565 27.941c.088 1.625-1.287 2.52-1.577 4.08-.993 5.835 7.692 11.95.323 15.63-.227-1.275.936-2.15 1.165-3.24.912-4.813-8.106-12.724.089-16.47" style="fill:#3a3835"/><path d="M56.118 42.568c-1.591-2.49 2.96-.195 4.142 1.52 3.616 5.87-5.23 8.6-.203 14.473.96 2.167-2.265.697-2.962-1.66-1.836-6.949 7.651-10.627-.977-14.333m17.151-6.656c-3.331 5.333 1.808 7.236 1.69 13.221-.098.867-1.364 4.238-2.525 3.132 3.81-5.518-6.243-13.02.835-16.354M56.061 61.075c-1.093.984-4.372-3.458-4.587-4.848-.247-1.616 1.125-7.281 2.7-7.305 1.914.505-2.736 5.554-.528 8.49.28.627 2.828 3.29 2.415 3.663" class="st12"/><path d="m106.356 123.226 2.544 32.185a46.74 46.74 0 0 1-21.738.005l2.535-32.2c5.121-1.805 11.615-2.07 16.658.01" style="fill:#f3f4ef"/><path d="m112.304 67.787-1.895 22.658c-2.403-.954-4.79-.93-7.34-.843-.415-2.145-.044-15.113-2.43-16.238-.505-1.749.743-3.964-1.98-4.234-5.62-.56-2.176 3.59-4.817 6.423L92.996 89.6c-2.039-.252-5.306-.189-6.929.827-1.137-.03-1.75-20.715-2.304-22.638zm-5.04 9.645c.306-.304-.156-1.867-1.04-1.672-1.552.34.23 2.484 1.041 1.674m-2.517.42c.306-.305-.157-1.868-1.04-1.674-1.552.342.23 2.484 1.04 1.674m3.155 2.104c-1.097.294-.597 2.054.83 1.67 1.096-.296.596-2.055-.83-1.67m-15.37.458c-1.21-.746-1.438.54-1.211 1.633h1.675c.146-.132-.39-1.59-.463-1.635zm-2.894 1.636c-.55.01-1.185-.14-1.686.2-2.004 1.354 2.43 3.162 1.686-.2m1.056 2.1c-.845.237-.845 1.853 0 2.09 1.93.54 1.93-2.631 0-2.09m-1.476 1.676c-.18-.18-2.21-.405-1.673 1.042.602 1.617 2.364-.354 1.673-1.042m29.32 34.453 4.187 30.246c-.563 2.86-9.486 4.467-12.098 4.925l-2.454-32.44c2.706-2.146 6.91-3.845 10.365-2.732zm6.353-55.008-5.646 37.344c-.836 2.405-5.897 3.327-8.2 3.758l2.992-38.325c2.476-2.124 7.702-1.388 10.854-2.778m-39.447 89.764c-4.193-.507-12.698-.747-12.168-6.496.32-7.335 2.568-19.206 3.89-26.753.18-4.482 10.076-.31 10.795 1.575zm-4.31-32.235c-3.77.68-3.918 7.373.717 7.053 4.59-.315 3.635-7.839-.717-7.054m-10.801 53.206c-.441-.41 2.388-11.16 2.748-11.724.865-1.354 4.443-1.944 5.859-2.953-12.504 15.883 51.5 15.094 37.773-.008 9.225 2.175 6.696 7.302 9.02 14.685zm11.733-108.62 2.952 38.992c-2.855-.726-6.162-.915-8.16-3.377L73.844 84.71c.87-2.604.072-17.013.873-18.201.78-1.155 5.916 1.086 7.35.879m47.494 38.101c-.217-.142-1.147-3.465-.89-3.723 10.438 1.797 4.987-8.545 9.976-16.248-.806-5.93 7.185-12.508.92-16.242-3.994-2.49-9.848 2.793-13.83 3.966l.84-7.13c4.408 4.77 9.101.491 7.133-5.032 2.445.312 4.692-.972 6.936.405 1.865 1.983 8.423 7.368 8.097 10.593l-10.65 31.344c-.723 1.161-8.007 2.408-8.532 2.067m-12.64 1.31v6.5c-6.395 5.318-28.425 4.32-35.77 1.355-.356-.168-2.003-1.152-2.003-1.354v-6.503c12.192 3.405 25.59 3.587 37.773 0" class="st15"/><path d="M87.209 106.288c-.627-3.695-.882-7.502-.93-11.237 8.725-1.719 4.16 2.001 11.545 3.392 4.728-.714 7.677-2.915 12.378-3.39-.723 2.124-.117 9.826-1.213 11.158-6.63 2.103-14.496 2.387-21.78.075zm18.8-8.721c-.664.02-1.92-.195-2.34.39-1.624 2.27 3.35 3.346 2.34-.39m-11.476 1.74c-1.158.39-1.504 2.346.023 2.799 3.21.954 3.012-3.818-.021-2.8m4.198 2.108c-1.749.602-1.285 3.926.786 4.134 3.278.33 3.495-5.607-.786-4.134" style="fill:#5f4028"/><path d="M111.46 65.28c1.588 2.01-26.806-.31-26.861.2 3.445-1.185 10.01-10.657 13.243-8.577 4.26-2.019 9.734 6.987 13.62 8.376z" class="st8"/><path d="M94.256 91.277c1.102-4.5.073-11.037 1.357-15.211 1.373-1.253 1.263-3.12 1.16-4.925h2.103c.429 6.25 1.974 12.384 1.246 18.684.203 1.043 1.163.864 1.278 1.325.186.735-.124 1.83-.01 2.641l-1.254-1.254-.006 2.517h-1.256l-.414-2.514c.25 1.107-1.04.705-1.2.88-.157.169.143 2.618-.9 1.631-.541-1.993.525-2.919-2.104-3.774" class="st6"/><path d="M73.27 65.69c-.191.915.139 16.358-1.252 16.358-2.835-4.095-5.692-11.643-9.858-14.286-2.739-.705-1.05-1.26.41-2.072z" class="st15"/><path d="m68.652 176.005-5.034-.002c3.97-10.474 1.2-17.352 15.545-17.835.666.435.498.768-.03 1.257-10.395 3.21-8.39 7.065-10.482 16.58zm63.797-.002c-.827-.142-4.776.22-5.018-.015-1.098-1.728-.955-13.606-5.457-14.469-.77-.42-6.898-2.154-5.472-3.546 14.871 1.011 11.538 6.842 15.947 18.03" class="st8"/><path d="M102.653 45.142c-1.083 1.82-.96 7.944-1.874 9.24-7.936 2.701-5.568-3.846-7.365-9.24 3.113-.73 6.12-.695 9.24 0" class="st15"/><path d="M117.758 118.12c-3.561-.345-8.01 1.9-10.72 3.358-3.025-.71-7.868-1.857-11.332-1.276-9.922 3.454-8.949-2.847-17.823-1.875 1.326-3.561 3.788-1.226 6.564-.677 9.045 1.788 18.861 1.845 27.86-.153 2.154-.48 4.708-2.755 5.45.623" class="st1"/><path d="M123.216 63.178c1.374 1.356-9.475 2.47-9.768 2.445l-10.795-9.156zm-29.799-6.711c-2.355 2.67-8.26 7.353-10.794 9.165-1.132.303-6.028-1.107-7.245-1.83.038-2.502 15.318-7.06 18.04-7.335" class="st8"/><path d="M79.152 164.263c6.683 7.85 30.867 8.062 37.346.202 3.775 8.286-39.62 9.414-37.346-.202" class="st1"/><path d="M99.293 74.918c3.42 4.257 1.384 11.294 2.808 16.623.198 1.335-1.505 2.637 1.389 2.253.033.237.334.569.42.84-5.408 2.738-7.265 3.293-11.333-1.26.809-.669 1.133-.186.42-1.258 1.455.459 1.185-.782 1.26-.839 2.639.864 1.556 1.78 2.103 3.774 1.043.987.743-1.462.9-1.632.16-.174 1.45.228 1.2-.879l.414 2.514h1.256l.006-2.517 1.252 1.254c-.112-.811.197-1.906.012-2.64-.115-.462-1.075-.283-1.276-1.326.384-4.936-.066-9.982-.831-14.907" class="st5"/><path d="M95.936 167.618c3.082-1.34 5.235 1.172 5.668-2.952 2.436-.375 1.011.948 1.524 1.643 2.061.565 2.913.264 4.979-.37 1.695-.625 2.227-.218 3.777 0-6.46 3.101-24.324 3.683-29.8-1.258 1.25.692 3.095.536 4.198.84.673 1.194 5.287 1.75 6.295.839 1.251-5.283 1.395.486 3.359 1.258" class="st11"/><path d="M132.03 61.496c.675 1.379.317 4.9-1.492 5.055-1.605.137-2.216-1.873-3.167-2.707-1.375-1.205-3.29-1.778-4.992-2.354 1.442-.05 8.135.04 9.65.006z" class="st13"/><path d="M106.428 157.975c-.474 1.83-3.02 6.44-5.39 4.959-.215-.135-1.849-3.854-2.58-4.337zm-9.237.417-2.155 4.545c-3.465.98-4.032-3.102-6.026-4.96l-2.934 3.766c-1.08-1.9-3.447-2.808-3.99-5.028 5.066.382 9.996 1.99 15.105 1.677" class="st8"/><path d="M99.711 167.198c-1.264.075-2.584-.258-3.775.42.165-2.715-.267-4.528 1.888-6.705 1.926 1.63 2.928 3.795 1.889 6.285zm-12.17-.838c.157-1.788-.638-5.067 1.465-5.876l3.571 5.876c-.753.865-3.865.244-5.035 0m16.368 0c.156-1.76 2.052-4.605 2.946-5.87 2.049.07 1.857 3.98 1.25 5.45-1.916.328-2.29 1.21-4.196.42" class="st7"/><path d="M103.491 93.794c-.56-4.01 4.322-2.706 6.71-1.462-.735 1.953-4.61 1.67-6.291 2.3-.086-.27-.387-.6-.42-.84" class="st6"/><path d="M113.98 156.715c.6.552-3.61 4.33-3.985 5.022l-2.724-3.563c.15-1.456 5.208-.778 6.71-1.46" class="st1"/><path d="M92.577 93.374c-2.049-.898-4.408-.276-6.5.005-1.447-2.036 7.054-3.972 6.92-1.263.711 1.07.39.59-.42 1.26z" class="st6"/><path d="M109.785 165.521c.43-.952 1.535-3.38 2.73-3.367.128 0 .45 1.534 2.085.844.869 2.37-3.23 3.335-4.815 2.522m-23.503.001c-1.54-.41-5.303-.066-5.454-2.515 1.52.05 2.556.36 3.144-1.26z" class="st7"/><path d="M75.008 61.6c-1.163 3.024-6.741 2.668-8.528 2.577 2.445-1.164 4.28-1.587 8.528-2.577" class="st11"/><path d="m115.66 161.321-2.095-.42 1.05-1.67z" class="st13"/><path d="m82.503 160.901-1.675.423.423-2.094z" class="st11"/><path d="M103.9 74.08c-.808-.36-3.01-1.905-2.926-2.301.21-.996 2.727-.116 3.186.186 1.094.715.836 2.6-.26 2.115" class="st6"/><path d="M90.693 84.15c1.93-.54 1.93 2.63 0 2.09-.844-.237-.844-1.852 0-2.09m-1.056-2.098c.743 3.36-3.69 1.553-1.686.198.501-.339 1.136-.189 1.686-.2m18.264-2.093c1.427-.384 1.928 1.374.831 1.67-1.428.383-1.927-1.376-.83-1.67m-18.685 5.87c.692.69-1.07 2.659-1.672 1.042-.537-1.446 1.492-1.223 1.672-1.043m3.315-5.412c.074.045.608 1.5.005 2.102 0 0-1.278.837-1.674 0s.459-2.847 1.67-2.102m14.732-2.982c-.81.81-2.593-1.332-1.04-1.672.883-.195 1.345 1.368 1.04 1.674m-2.518.418c-.81.81-2.592-1.332-1.041-1.674.885-.193 1.347 1.37 1.04 1.674" class="st5"/><path d="M81.135 122.801c4.35-.786 5.306 6.738.717 7.053-4.635.32-4.486-6.373-.717-7.054m1.683 2.139c-2.017-2.013-4.185 1.944-1.995 3.048 2.08 1.048 3.165-1.88 1.995-3.048" style="fill:#2c2a29"/><path d="M98.732 101.414c4.282-1.473 4.065 4.463.786 4.134-2.07-.208-2.535-3.532-.786-4.134m.144 2.865c.616.072 1.878.065 2.09-.633.583-1.91-2.785-2.137-2.09.632m-4.341-4.971c3.033-1.019 3.232 3.753.02 2.799-1.525-.453-1.18-2.41-.02-2.8m1.398.78c-.666-.664-1.92.59-1.254 1.256s1.92-.59 1.254-1.254m10.075-2.521c1.011 3.736-3.963 2.66-2.338.39.42-.585 1.675-.37 2.338-.39m-.841.424h-.836v1.254h.836z" style="fill:#201f1e"/><path d="M82.818 124.94c1.17 1.169.084 4.095-1.995 3.048-2.19-1.104-.022-5.06 1.995-3.048m-.315.732c-.05-.069-1.197-.498-1.479-.015-1.64 2.816 2.625 1.58 1.48.015" class="st11"/><path d="M98.876 104.278c-.695-2.77 2.673-2.541 2.09-.63-.212.696-1.474.703-2.09.63" class="st6"/><path d="M95.933 100.088c.666.665-.59 1.92-1.254 1.254s.588-1.92 1.254-1.254" class="st5"/><path d="M104.331 97.991h.836v1.254h-.836z" class="st6"/><path d="M82.503 125.672c1.146 1.565-3.12 2.802-1.479-.015.282-.483 1.428-.054 1.48.015" class="st12"/></svg>