<?xml version="1.0" encoding="UTF-8"?>
<svg id="Layer_1" xmlns="http://www.w3.org/2000/svg" version="1.1" viewBox="0 0 196 196">
  <!-- Generator: Adobe Illustrator 29.0.0, SVG Export Plug-In . SVG Version: 2.1.0 Build 186)  -->
  <defs>
    <style>
      .st0 {
        fill: #f1f1ec;
      }

      .st1 {
        fill: #242422;
      }

      .st2 {
        fill: #282826;
      }

      .st3 {
        fill: #2d2c2a;
      }

      .st4 {
        fill: #191a18;
      }

      .st5 {
        fill: #1d1d1c;
      }

      .st6 {
        fill: #eae9e5;
      }

      .st7 {
        fill: #f9f8f4;
      }

      .st8 {
        fill: #171816;
      }

      .st9 {
        fill: #373633;
      }

      .st10 {
        fill: #cbcecb;
      }
    </style>
  </defs>
  <polygon class="st0" points="26.394 77.595 28.179 85.244 31.139 85.85 28.767 89.311 39.71 156.307 41.163 177.513 123.594 163.004 117.114 133.069 110.886 91.327 109.415 79.832 88.453 75.972 85.072 71.924 85.544 67.336 79.367 68.407 78.721 75.972 80.72 82.45 72.985 75.972 68.541 70.285 26.394 77.595"/>
  <path class="st0" d="M45.224,101.761l9.23,56.762c1.145,2.512,11.157-.614,11.157-.614l38.774-6.848,2.105-4.075s-8.345-51.22-9.982-56.14-21.097.787-21.097.787l-27.947,4.891s-3.251-.972-2.241,5.237h.001Z"/>
  <path class="st0" d="M76.098,123.588l-7.028,3.921-8.834,12.45-1.547,5.059,1.819,8.555,37.947-6.953s2.197-2.257,2.164-2.784-3.782-8.64-3.946-9.384-17.975-10.864-17.975-10.864h-2.6Z"/>
  <path class="st7" d="M176.816,50.705l-11.347-2.411s-15.709-7.647-17.629-7.41-20.246-7.528-20.246-7.528l-9.077-2.36-8.86,2.653-13.483,9.699-9.748,7.17-3.226,8.722-2.365,8.096h4.952l.639,5.777,6.41,4.112,12.38,2.2,13.475,2.75,11.869,3.674,14.837,2.047,14.137-4.034,13.412,2.87s3.87-36.027,3.87-36.027Z"/>
  <path class="st8" d="M177.773,48.986c.272.455-.026,1.564.064,2.178-4.056.125-8.176-.512-12.096-1.571-11.76-3.178-24.315-10.378-36.176-14.447-7.25-2.486-10.048-4.37-17.439-.637-4.977,2.517-19.576,11.239-23.232,14.848-3.561,3.52-4.832,11.43-6.48,16.138,3.104.498,4.877-2.17,7.516-3.008,1.232-.39,4.136-.477,4.598-.776.549-.355.611-1.92.976-2.608,1.085-2.042,6.718-4.024,8.995-5.342.923-.535,2.9-2.416,3.32-2.536,1.37-.39,3.88,2.41,5.645,3.156,1.102.468,2.205.925,3.442.815.284-1.467.256-5.709,2.09-5.767,2.345-.07.134,6.48.116,7.786-.02,1.454.611,2.79.486,4.251,2.192-.105,3.59-2.229,5.821-1.792.9,2.746-3.307,4.03-5.464,4.615-8.443,2.297-18.451-.474-27.033.296-4.216.376-8.576,3.984-5.38,8.104,3.668,4.723,21.156,5.192,27.666,6.829,7.874,1.979,15.043,5.84,23.485,6.53,9.273.76,15.949-3.723,25.048-3.095,1.531.105,7.589,1.041,8.7,1.601,1.013.51.943,1.267.505,2.18-.67.884-7.232-.945-8.781-1.07-7.267-.58-10.282,1.468-16.683,2.567-12.765,2.194-24.368-4.045-36.394-7.053,1.976,18.632,4.488,37.226,8.267,55.568,1.323,6.418,3.41,12.717,4.589,19.155.307,1.677,1.552,7.008.475,8.055l-79.467,13.933c-1.06.046-2.771.401-3.546-.376-1.42-1.43-2.915-23.223-3.401-27.063-2.581-20.368-6.626-40.505-10.672-60.608-.616-2.168,2.06-1.952,2.213-3.734-4.519.613-3.74-6.81-3.981-9.811l43.62-8.133c1.8.21.77,2.537,1.541,3.76.328.52,3.548,1.86,4.277,3.448.362.787.112,1.696.656,2.48.567.811,3.235,1.869,4.061,2.878.725-2.113-2.074-3.395-2.25-4.728-.13-.989.535-2.056.501-3.112-.057-1.73-1.003-3.968-.416-5.752.338-1.022,1.786-.782,2.176-1.52.95-1.808,1.805-6.888,2.672-9.312,1.973-5.502,2.683-7.35,7.483-10.885,4.448-3.275,22.405-14.995,26.914-15.646,5.435-.784,14.1,3.037,19.365,5.042,10.059,3.83,23.35,11.227,33.515,13.076,1.26.23,7.853.695,8.093,1.093M72.557,76.699c-1.16-2.654-4.925-1.903-4.71-5.831l-40.04,7.88c.383.731.707,4.427.9,4.614.344.331,3.168-.14,3.535,2.095.472,2.88-2.132,3.564-2.208,4.868,4.339,22.008,8.652,44.02,11.16,66.343.294,2.624,1.08,17.98,2.217,18.856l78.867-13.263c.914-.896-4.592-21.896-5.232-24.998-3.848-18.602-6.342-37.394-8.603-56.26-8.013-2.554-25.552-.289-24.24-12.814-.726-.064-4.376-.105-4.507.714,1.389,2.229.405,4.045.651,6.011.368,2.955,1.847,4.408,2.064,8.952-.72-.17-1.017.33-1.344.896l-7.287-4.912c-.441-.336-.595-.868-.776-1.36-.155-.423-.056-.893-.448-1.792"/>
  <path class="st5" d="M73.456,45.786c-.464.611,2.011,9.714,1.733,10.943-.167.736-1.84,1.113-2.18.4-.735-1.562-1.23-10.316-1.803-10.895-6.268,5.575-.704-5.293-.168-5.408,1.404-.305,5.245,3.938,5.482,4.811.832,3.072-2.93-.027-3.064.15"/>
  <path class="st4" d="M54.186,51.612c.236.229-.218,1.584-.493,1.984-.517.757-1.605.374-1.296,1.595,1.605-.286,10.024.32,10.683,1.413.155.256.125,1.66.064,1.723-.355.38-8.79-2.035-10.298-1.34-.156,1.342.912.569,1.239,2.102.134.633.467,1.76-.554,1.468-1.033-.294-6.457-3.75-5.867-4.912.365-.72,5.814-4.713,6.522-4.032h0v-.001Z"/>
  <path class="st3" d="M64.942,57.884c.516-.525,4.045.725,3.581,2.454-.547,2.042-4.827-1.184-3.58-2.454"/>
  <path class="st5" d="M72.106,64.153c-1.164.416-3.552-1.02-2.936-2.237,1.09-2.154,3.465.589,2.936,2.237"/>
  <path class="st5" d="M74.605,67.549c-1.266,1.165-3.334-3.044-1.01-2.288.86.279,1.421,1.906,1.01,2.288"/>
  <path class="st6" d="M111.045,55.262c.18.654-.176.744-.435,1.12-.36.526-5.043,5.208-5.392,5.357-2.218.944-5.213-.656-7.607-.216-.025-.664.092-1.645.564-2.125,1.408-1.432,7.91-3.34,9.728-5.312,1.366-.675,1.841,1.057,3.142,1.176"/>
  <path class="st10" d="M117.322,61.97c-3.104.594-6.256.468-9.408.447.867-.942,4.877-5.576,5.659-5.73.494-.097,2.834.807,3.088,1.242.48.829.096,2.94.66,4.04"/>
  <path class="st9" d="M72.555,76.698c.392.898.293,1.368.448,1.792-1.093-.196-3.43,1.188-4.027-.228-.74-1.754,2.757-1.621,3.58-1.564M82.411,83.866c.016.355-.429.903-.317,1.479.104.54.928.93.722,1.788-.512,2.141-3.774,1.152-1.749-2.37.327-.567.624-1.066,1.344-.897"/>
  <path class="st4" d="M92.613,87.556c2.667-.325,4.611.697,5.376,3.357l9.401,56.915c-.312,4.598-3.393,4.58-6.976,5.337-14.276,3.013-29.339,4.737-43.71,7.28-3.232-.332-3.6-2.991-4.186-5.694-3.132-14.486-5.627-32.182-7.664-46.992-.547-3.976-2.854-10.59,2.052-12.134,15.142-1.877,30.656-6.242,45.707-8.07M104.709,150.068l.507-3.195c-3.728-17.784-5.342-36.407-9.042-54.144-.64-3.067-.904-3.184-4.072-2.981-14.099.909-29.968,6.571-44.308,7.66-1.868.503-2.47,1.746-2.066,3.642,3.42,17.312,5.253,35.04,8.59,52.35.396,2.049.38,5.449,3.103,5.18l47.288-8.512Z"/>
  <path class="st5" d="M47.912,166.3l-1.776-.008c-2.133-24.405-6.064-48.635-11.578-72.47-.376-1.442,1.532-2.159,2.061-.676,4.95,24.167,9.6,48.48,11.293,73.152M104.808,82.521c1.392,15.761,3.528,31.513,6.49,47.053,1.265,6.644,4.73,17.11,5.13,23.126.143,2.18-.988,2.82-1.897.518-.806-2.044-1.336-5.64-1.886-7.97-4.336-18.375-8.253-40.564-9.621-59.369-.152-2.09-.66-3.966,1.784-3.36"/>
  <path class="st4" d="M116.909,159.574l-67.877,11.69c-1.669-.02-2.264-1.27-.486-1.871l66.416-11.573c1.384-.264,2.184.286,1.947,1.753"/>
  <path class="st9" d="M60.34,78.567c2.505-.497,2.826,2.371-.106,2.202-2.332-.133-1.8-1.824.107-2.202"/>
  <path class="st2" d="M69.928,82.585c.629-.99,3.358-.103,2.42,1.728-1.158,2.262-3.457-.104-2.42-1.728"/>
  <path class="st9" d="M53.742,81.625c-1.268-1.23,3.183-3.4,3.58-1.56.31,1.446-3.143,1.984-3.58,1.558"/>
  <path class="st3" d="M82.26,74.529c4.116-1.303,2.929,2.915-.012,2.133-.955-.255-1.094-1.781.011-2.132"/>
  <path class="st2" d="M50.498,80.36c3.097-.3.73,4.092-2.132,1.484-.17-.874,1.533-1.426,2.132-1.485"/>
  <path class="st9" d="M67.18,77.596c.524,2.36-1.196,2.235-3.137,2.235-.523-2.358,1.197-2.233,3.136-2.235M74.832,84.801c1.123-1.555,4.19,1.248,1.757,2.448-1.287.637-2.274-1.731-1.757-2.448"/>
  <path class="st3" d="M47.008,81.647c1.568,2.374-6.47,2.346-2.805.064.586-.363,2.498-.53,2.805-.064M33.133,85.21c-1.443-1.455,3.237-2.75,3.58-1.112.306,1.457-3.435,1.257-3.58,1.112"/>
  <path class="st9" d="M41.642,82.524c1.252,1.184-2.544,2.907-3.578,1.112-.544-1.122,3.355-1.322,3.578-1.112M73.898,88.348c.71.71-.63,2.051-1.34,1.34s.63-2.05,1.34-1.34"/>
  <path class="st4" d="M87.34,120.602c.28.093.6-.23.9.31.696,1.252.693,6.164,1.44,7.205.25.35,5.16,2.729,6.14,3.492,2.553,1.984,3.106,3.91,3.844,6.908,2.22,9.033.925,8.956-7.312,10.617-10.171,2.05-20.547,3.44-30.794,5.102-4.05.262-4.704-9.512-4.024-12.144.615-2.378,4.41-6.693,4.581-8.328.202-1.915-2.235-10.091-1.205-11.368,1.004-.229.725.128,1.03.557,1.487,2.096.942,6.352,1.878,8.848,4.574-4.512,8.107-11.35,15.83-9.106,1.02.296,7.331,4.629,7.688,4.18-.035-1.905-1.158-4.436-.893-6.273.248-.064.611.043.896,0M64.491,137.626v.448c-.046-.008-.488.685-.904.275-.593-.583-.065-1.673-.881-1.615-.623,2.238-3.296,4.747-3.493,7.043-.101,1.157,1.035,8.528,1.974,8.667l35.125-6.07c4.384-.176.933-10.5-.618-12.176-.648-.7-5.614-3.794-6.268-3.66-.397.084-1.02,1.03-1.186.816l-.288-1.84c-4.928-1.572-7.672-5.932-13.278-4.777-3.367.694-7.52,7.317-10.136,9.603-.78,1.011.05,2.137-.047,3.286M91.37,92.828l-.192,1.82-39.524,7.113c-4.004-1.533.212-2.07,2.076-2.452,12.448-2.548,25.176-4.006,37.64-6.483"/>
  <path class="st5" d="M69.78,112.19c2.009-.052,1.726,1.499.202,2.031-1.868.655-13.56,2.695-15.636,2.775-1.837.07-2.028-1.76-.754-2.14,5.112.1,11.347-2.543,16.189-2.667M86.891,120.154c-.04.133-.427.31-.448.448-.705.181-1.355.677-2.237.445l.072-1.04c2.07-2.062,3.527-8.869,5.312-10.37,1.143-.96,4.712-1.85,4.916.43-1.148,1.16-2.885.353-4.044,1.785-.576.712-3.184,7.054-3.57,8.302"/>
  <path class="st1" d="M66.731,117.02c-.062.48.117,1.083.02,1.507-.172.743-11.289,2.251-13.009,2.52.058-.48-.118-1.081-.02-1.504.148-.65,11.28-2.32,13.01-2.523"/>
  <path class="st3" d="M73.691,103.134c1.498-.426,2.9,2.139,1.28,2.644-2.318.723-2.499-2.297-1.28-2.645"/>
  <path class="st9" d="M84.163,106.673c-1.699,1.216-3.253-2.16-1.513-2.643,1.61-.448,2.446,1.977,1.513,2.644"/>
  <path class="st2" d="M78.83,99.1c1.258-1.27,3.559,2.09,1.56,2.682-1.728.512-1.876-2.364-1.56-2.682"/>
  <path class="st9" d="M87.34,120.602c-.284.043-.647-.064-.897,0,.021-.137.407-.315.448-.448.171.096.327.407.448.448"/>
  <path class="st9" d="M64.491,137.626l2.239.002.004.665c-.139.744-1.86-.155-2.243-.219v-.448Z"/>
  <path class="st3" d="M76.586,140.764c.74,2.958-2.855,2.715-2.234.675.227-.744,1.574-.752,2.234-.675"/>
  <path class="st9" d="M69.422,146.585c-.74-2.959,2.855-2.716,2.232-.676-.227.745-1.572.753-2.232.674M64.723,141.66c1.341-.285,2.117,2.315.434,2.685-1.328.29-1.523-2.453-.435-2.685M86.89,131.356c.74,2.958-2.855,2.715-2.234.675.227-.744,1.574-.752,2.234-.675M84.88,139.871c2.06-.58,2.06,2.808,0,2.23-.9-.252-.9-1.977,0-2.23M80.4,143.903c2.06-.578,2.06,2.808,0,2.23-.9-.252-.9-1.977,0-2.23"/>
  <path class="st3" d="M70.096,132.255c2.06-.577,2.06,2.808,0,2.23-.9-.252-.9-1.977,0-2.23"/>
  <path class="st9" d="M80.618,129.564c.512.361.676,2.734-1.114,2.233-1.595-.444-.144-3.12,1.114-2.233"/>
  <path class="st3" d="M77.034,135.388c.798.8-1.088,3.57-1.736,1.512-.6-1.903,1.324-1.923,1.736-1.512M92.714,142.108c.798.8-1.088,3.57-1.736,1.512-.6-1.903,1.324-1.922,1.736-1.512"/>
  <path class="st1" d="M64.49,147.036c.41.411.39,2.336-1.512,1.736-2.058-.648.713-2.535,1.512-1.736"/>
  <path class="st9" d="M83.306,137.625c-.119.118-2.86.55-2.234-1.114.674-1.793,3.136.205,2.234,1.114M92.27,137.628c1.023-1.024,2.83,1.848,1.11,2.235-1.097.25-1.4-1.944-1.11-2.235"/>
  <path class="st2" d="M75.242,127.772c.934.934-.855,2.721-1.788,1.789s.853-2.722,1.788-1.79"/>
  <path class="st9" d="M71.21,138.076c-.024.49.097,1.033-.052,1.512-.656,2.093-3.688-1.287.052-1.512"/>
  <path class="st2" d="M90.474,133.596c.192.192.432,2.36-1.114,1.785-1.728-.64.378-2.523,1.114-1.785"/>
  <path class="st2" d="M79.3815,109.9472c-.14.141-2.12.096-2.484-.429-.915-1.255,1.395-3.143,2.272-1.823.254.385.336,2.126.211,2.252"/>
  <path class="st2" d="M95.0235,115.1838c1.51,1.472-4.088,3.416-4.476,1.56-.292-1.4,4.152-1.874,4.476-1.56"/>
</svg>