<svg xmlns="http://www.w3.org/2000/svg" id="Layer_1" version="1.1" viewBox="0 0 196 196"><defs><style>.st0{fill:#f5f6ef}.st1{fill:#f1f1ec}.st2{fill:#242422}.st3{fill:#282826}.st4{fill:#dbdbd2}.st5{fill:#151514}.st8{fill:#191a18}.st9{fill:#1d1d1c}.st13{fill:#ecede7}.st14{fill:#eae9e5}.st16{fill:#b8b6b2}</style></defs><path d="M78.43 66.283c.065.962 1.688.674 1.819 1.142.552 1.978-.7 1.583-2.267 1.544 3.643 6.263-4.564-.048-4.912-1.6-.213-.955 5.28-3.339 6.056-3.33 1.884.02.897 2.246-.696 2.244" class="st8"/><path d="M49.311 83.299c-1.093-1.184 1.207-2.216 1.341-2.464.155-.288-1.171-.368-1.342-.896-.472-1.456 1.23-1.424 1.344-1.576.092-.125-2.157-2.925-.224-2.685 1.21.15 5.513 3.354 5.126 4.656-.194.653-5.862 3.378-6.245 2.965" class="st9"/><path d="M36.12 71.477c-.066.118-.514.09-.674.512-.186.49.123 1.356-.236 1.915-.76 1.18-2.014.291-2.073-1.133-.141-3.358 4.992-4.789 2.984-1.296" class="st3"/><path d="M76.193 78.822c1.317 2.805-4.837 2.807-5.376 1.563-.456-1.05-.026-.899.62-1.163 1.46-.598 3.218-.379 4.754-.4m12.987-5.824c1.461 1.543-2.945 6.704-4.027 3.365.811-.342 3.079-4.365 4.027-3.363" class="st2"/><path d="M77.982 78.379c.168-.23 4.988-1.949 5.37-.672.764 2.54-6.964 2.864-5.37.672" class="st9"/><path d="M47.964 80.163c-1.906-.203-5.696.02-4.928-2.683 2.04.265 5.56-.258 4.928 2.683m38.92-10.25c1.76 3.13-5.182.664-4.869-.718.365-2.174 4.663.352 4.869.718" class="st2"/><path d="M35.87 75.241c.612-.875 5.358.892 4.923 2.455-.432 1.555-5.978-.944-4.923-2.455" class="st3"/><path d="M52.892 65.385c.195-.24 5.709-1.38 4.925 1.112-.456 1.45-6.466.792-4.925-1.112m-9.41 3.124c-.179.268-4.54 1.273-4.923.902-1.955-1.902 6.984-4.002 4.923-.902" class="st2"/><path d="M45.727 66.283c.162-.251 5.709-1.875 4.922.662-.3.965-6.448 1.687-4.922-.662" style="fill:#171816"/><path d="M64.99 66.726c-.248.695-.864 1.672-.896 1.792H62.75c.28-.947.633-1.51.896-2.24z" class="st8"/><path d="M165.342 40.742c-1.372.168-1.962-.448-1.792-1.792.585.605 1.152 1.096 1.792 1.792" class="st5"/><path d="M171.692 48.965c-.22-.66-.374-1.578-.576-1.872-1.358-2-4.003-4.428-5.776-6.352-1.37.17-1.96-.448-1.792-1.792-2.304-2.386-5.037-4.56-7.168-6.72l-.448-.448c-.528-.538-1.488-1.856-2.24-2.688l-1.344 1.344c1.269 1.288 3.1 3.219 3.563 3.81 2.827 3.609 12.523 11.364 13.36 15.33 1.173 5.572-4.824 9.863-8.645 13.104-5.478 4.648-16.368 12.76-22.612 15.692l.896 1.792c7.353-3.221 27.952-17.344 31.73-24.045 1.311-2.33 1.929-4.52 1.052-7.155" class="st5"/><path d="M47.518 176.038c-3.91-.753-9.664-2.448-12.757-4.94-.394-.317-2.475-2.279-2.475-2.453v-24.863c4.678.56 10.392 4.275 14.755 5.18 4.029.831 4.123-1.173 4.742-4.274 1.517-7.587 1.647-15.535 3.32-23.11 10.109.17 20.563.14 30.279-3.324l6.488-3.144v52.64c0 2.765-7.018 6.056-9.312 6.816-10.43 3.456-23.424 3.384-34.144 1.472-.279-.048-.623.053-.896 0m90.944-159.936c.179.197-.004 1.565 1.344 1.344.995 2.666 10.004 10.411 12.544 12.992 1.267 1.287 2.3 2.41 2.443 2.552a17 17 0 0 1 1.12 1.258c2.825 3.608 12.521 11.363 13.357 15.33 1.174 5.57-4.823 9.862-8.644 13.103-5.476 4.648-16.368 12.759-22.612 15.692-2.32 1.09-6.901 1.968-9.293 1.004-2.578-1.035-6.224-10.219-7.608-12.982-.731-1.462-5.66-11.211-5.847-12.52L104.85 31.571c2.688-1.434 8.333-3.422 10.316-5.614.652-.007 1.148-.253 1.344-.896.502-.16.584-.292.896-.448.536-.272.744-.805.896-.896 2.566-1.533 3.952-2.628 6.272-4.48.921-.736 2.635-1.002 2.688-2.688.9-.204 3.123-2.066 3.875-2.84 1.128-1.16.696-3.125 3.093-1.661.467.285 3.664 3.432 4.232 4.053z" class="st0"/><path d="M28.756 106.653c.866-.541 4.408.904 5.554 1.28 4.96 1.627 10.736 3.579 15.556 5.499 3.418 1.36 3.648 1.038 3.468 5.033-.373 8.352-3.461 17.818-3.613 26.4l-1.162 2.005-23.672-8.457zm11.248 9.25c-.77-.793.24-2.463-2.552-3.945-1.904-1.011-5.115-2.033-6.462.288-1.184 2.04.292 6.483-.087 9.32-.518 3.872-5.789 11.904-2.433 15.055 1.116 1.05 15.513 6.286 16.828 6.08.48-.077 1.183-.39 1.562-.701 2.56-2.091.106-12.634.685-16.336.416-2.664 4.232-5.994 1.633-9.088-1.153-1.373-7.604-4.122-6.592-.12-.096.107-2.358-.322-2.582-.554" class="st13"/><path d="M101.054 120.934c5.923.917 10.276 7.685 10.928 13.264 1.414 12.125-3.904 25.365-17.876 24.816.117-.707-.16-3.878 0-4.035.128-.128 2.684-.016 3.612-.198 14.539-2.87 14.616-34.376-3.607-29.367l-.001-4.48c2.156.232 4.875-.321 6.944 0" class="st1"/><path d="M120.094 10.726c3.827-.712 6.953-3.269 11.2-1.792.788.834-4.032 5.239-4.922 6.053-1.256 1.152-8.347 7.469-8.966 7.834-.17.099-1.148-.154-1.756.243-1.52.989-11.072 7.093-12.13 6.029-.22-1.962.614-4.114 1.593-5.797.379-.653 4.44-5.575 4.766-5.757.565-.315 1.856.029 2.723-.192.948-.243 3.866-2.016 4.378-2.789.243-.368 1.12-2.069 1.322-2.49z" class="st14"/><path d="M64.99 102.342c-.51-2.411-3.893-2.037-5.919-2.595-5.542-1.53-11.019-3.397-16.509-5.074l.03-1.964c.673-.688 15.564 4.902 18.591 4.963 3.12.062 6.43-1.975 9.627-1.824l-.443 23.296-5.377.445z" class="st1"/><path d="M174.652 20.67c1.17 2.027-1.66 3.987-3.48 2.813-3.104-3.078-7.18-5.146-10.523-7.843-3.287-2.651-9.015-10.005-13.24-9.216-5.096.953-7.069 7.622-3.573 11.464-2.045-.131-2.917-2.24-4.24-3.603-.42-.432-1.443-.853-1.5-.95-.705-1.188 2.72-6.431 3.774-7.49 3.336-3.35 8.176-3.808 11.963-.86z" class="st14"/><path d="M121.865 73.01c.205.147.537 1.711.273 2.223-.635 1.236-5.766 1.842-7.17 1.81-17.61-.405-20.225-27.96-39.673-21.968-.416-2.602.715-2.798 2.963-3.082 19.034-2.4 21.733 24.263 38.925 22.348 1.123-.125 4.272-1.624 4.682-1.332m-79.272 28.213c.2 1.06-.28 7.352-.002 7.611.085.08 1.821.346 2.463.428 1.19 1.504 4.667 1.294 6.048 1.816.283-.645.595-1.048 1.337-.895l.455 1.792c2.97 1.768 2.872 4 2.684 7.168h3.14V106.15z" class="st13"/><path d="M64.99 66.726c1.443-4.064 3.368-7.757 6.716-10.533.359-.297.901-1.184 1.35-.44-5.674 6.352-7.146 16.78-7.615 25.088-.115 2.048.464 13.581-.027 14.085-.141.144-3.397.48-4.008.472-.048-4.397-.005-8.838.45-13.214.378-3.64 1.289-10.264 2.236-13.667.034-.119.65-1.096.896-1.792z" style="fill:#62a2cf"/><path d="M80.218 92.71c-.116.647.245 2.264-.067 2.624-.526.607-3.046.237-3.488 3.003-.912 5.75.602 13.642 0 19.632l-4.059.725-.374-23.001c.457-1.348 6.496-2.384 7.988-2.983" class="st0"/><path d="M82.462 98.982c.472-.477 12.115 3.23 12.745 4.051 1.472 1.916 1.112 12.682 2.039 15.658l-3.136.002v-9.184c0-1.636-4.332-6.154-6.434-5.936-3.347.347-2.326 6.824-5.216 7.504zm-19.712 3.584v17.024c0 .088-1.792.088-1.792 0v-11.872c0-.846-.853-3.187-1.826-3.552l-16.275-5.139c-.456-.218-.328-1.768-.266-1.835.704-.768 17.373 5.805 20.159 5.373m-3.136-15.23v7.615c-1.68-.443-13.197-3.16-13.444-3.814-.385-1.02 3.024-.883 3.488-1.437z" class="st13"/><path d="M90.366 112.71c-.86.941-7.239 4.443-7.903 3.741.098-.603-.152-2.997-.003-3.134.096-.087 1.365.088 1.922-.085 1.544-.48 2.352-5.509 3.012-7.083.685-.501 6.19 3.033 2.972 6.56z" class="st16"/><path d="M113.818 7.14c.207 2.957 3.381 6.239-.89 7.436-1.391.39-5.686-2.247-5.335-3.555.179-.672 5.56-4.461 6.224-3.88" class="st14"/><path d="M80.67 97.638v19.488c0 .472-1.272.851-1.792.672V98.31c0-.475 1.27-.854 1.792-.672" class="st4"/><path d="M77.53 90.923c.132.603-.467.502-.896.656-3.01 1.06-6.313 1.666-9.403 2.472v-5.824z" class="st13"/><path d="M40.346 105.254v2.237c-.254.269-2.787-.5-3.13-1.12z" class="st16"/><path d="M127.262 16.55c-.055 1.685-1.767 1.949-2.688 2.688-.226-1.008 1.056-2.576 1.83-2.944.595-.281.813.264.858.256m-76.16 94.528c.283-.646.595-1.05 1.337-.896l.455 1.792a64 64 0 0 0-1.792-.896m68.992-100.352-1.792 1.344c.11-.232-.183-1.109.03-1.3.248-.225 1.28.044 1.76-.045m18.37 5.377c2.083-.323 1.048.55 1.344 1.344-1.348.221-1.165-1.147-1.344-1.344m-21.056 6.72c.448-.488 1.243.248.896.896-.152.09-.36.624-.896.896.075-.419-.116-1.67 0-1.792" class="st8"/><path d="m147.866 21.03-.001 1.789c-.245.542-1.135-1.54-.89-1.787z" class="st4"/><path d="M116.51 25.062c-.196.64-.692.888-1.344.896.068-.077-.152-.656.048-.838.28-.256.98.041 1.296-.06" class="st8"/><path d="M175.762 19.265c-2.272-2.7-21.292-17.17-24.313-18.168-7.248-2.392-12.528 3.805-15.451 9.62-3.336-4.314-7.052-5.128-12.24-3.719-1.252.341-6.368 3.088-6.776 2.807-.78-1.472-.975-5.162-2.946-5.357-1.762-.176-8.611 4.526-9.098 6.149-.934 3.12 3.997 3.718 3.468 5.652-.213.776-1.207.866-1.618 1.357-1.78 2.123-4.229 4.723-5.035 7.704-.331 1.223-.586 2.205-.448 3.509.237 2.232 6.125 14.096 7.509 17.152 3.04 6.71 6.633 13.253 9.568 20.003.368.848 2.17 4.661 1.694 5.211-15.578 4.972-19.549-14.87-32.08-20.075-3.114-1.294-11.782-2.456-14.304-.099-.8.747-.42 1.616-.757 2.154-.126.201-2.144 1.27-2.803 1.904-3.997 3.828-4.691 6.2-6.486 11.208l1.344.448c1.443-4.063 3.368-7.756 6.716-10.532.359-.297.903-1.184 1.352-.44-5.676 6.352-7.148 16.78-7.616 25.088-.115 2.048.463 13.581-.028 14.085-.141.144-3.397.48-4.008.472-.048-4.397-.004-8.838.45-13.214.38-3.64 1.29-10.264 2.238-13.667H62.75c-1.573 5.297-2.472 10.61-2.88 16.16-.578.808-17.5 3.763-19.077 5.563-1.392 1.589.441 10.509-.66 12.333-.17.284-5.577 2.961-5.903 3.016-2.282.374-6.836-4.562-8.176 2.614l-3.632 29.538c.233 3.46 4.897 3.835 7.579 4.739.64.74-.407 6.672-.403 8.02.01 3.676.176 6.465 0 10.305-.11 2.374.078 4.79 0 7.168.305.142 2.782 4.432 4.032 5.376.896.676 4.176 2.179 5.376 2.688 1.208.512 3.136.728 4.48 1.344.356.163.396.043.896.448 3.268.459 6.564 1.064 9.856 1.344 10.16.864 22.465.4 31.926-3.69 7.05-3.048 8.48-6.546 7.944-14.232 23.582 1.52 28.955-39.104 5.58-42.986-1.431-3.924-.466-13.857-2.878-16.833-1.563-1.93-11.494-4.434-14.352-4.688-.262-1.373.501-5.442-.284-6.32-1.543-1.72-14.09-3.888-14.738-4.864-.533-5.667.986-23.288 5.406-26.887.741-.603 6.46-2.267 7.607-2.288 9.808-.174 15.283 12.536 21.958 17.946 3.575 2.896 8.759 5.032 13.407 4.954 1.824-.032 7.966-1.973 8.504-1.842.176.043.828 2.218 1.89 3.102 4.02 3.344 8.633 1.4 12.702-.38l-.896-1.792c-2.32 1.088-6.901 1.968-9.293 1.004-2.576-1.036-6.224-10.219-7.607-12.982q-2.318-4.756-4.604-9.526l-1.242-2.994-10.418-22.304c2.688-1.434 8.333-3.424 10.316-5.616.068-.075-.152-.651.05-.835.278-.256.978.041 1.294-.06.502-.16.584-.29.896-.447.075-.42-.116-1.67 0-1.792-.168.099-1.146-.154-1.756.243-1.52.989-11.072 7.093-12.13 6.029-.22-1.962.614-4.114 1.593-5.797.379-.653 4.44-5.575 4.768-5.757.563-.315 1.856.029 2.721-.192.948-.243 3.868-2.016 4.378-2.789.243-.368 1.12-2.069 1.322-2.49.11-.23-.181-1.107.032-1.299.246-.224 1.28.045 1.76-.044 3.827-.712 6.953-3.268 11.201-1.79.789.833-4.035 5.238-4.923 6.052-1.256 1.15-8.347 7.469-8.966 7.834.45-.487 1.243.25.896.896 2.566-1.533 3.953-2.626 6.272-4.48-.224-1.007 1.056-2.576 1.83-2.944.595-.282.814.265.858.256.902-.204 3.123-2.066 3.876-2.84 1.127-1.16.695-3.125 3.092-1.661.468.285 3.665 3.432 4.232 4.053 2.084-.324 1.048.552 1.344 1.344.996 2.667 10.004 10.412 12.544 12.992l1.344-1.344c-.648-.719-3.36-3.448-3.493-3.9-.493-1.668.389-3.316-.597-5.228-.816-1.584-4.82-4.181-5.227-5.525-.933-3.079 2.35-7 5.438-5.447 2.512 1.264 6.47 5.924 9.043 7.99 1.714 1.378 10.61 8.294 11.879 8.729 4.683 1.611 8.352-2.495 5.025-6.448zM49.658 89.697l9.956-2.364v7.616c-1.68-.442-13.197-3.159-13.444-3.813-.385-1.02 3.024-.883 3.488-1.439m-7.065 3.013c.673-.69 15.565 4.903 18.592 4.963 3.12.063 6.43-1.974 9.627-1.824l-.443 23.296-5.378.445v-17.248c-.51-2.41-3.893-2.035-5.918-2.593-5.543-1.53-11.02-3.397-16.509-5.074zm0 4.482c.704-.768 17.373 5.806 20.158 5.376v17.024c0 .088-1.792.088-1.792 0V107.72c0-.847-.853-3.187-1.825-3.552l-16.276-5.14c-.456-.217-.328-1.767-.265-1.836m0 4.032 16.126 4.928v12.992H55.58c.187-3.168.286-5.4-2.685-7.168a65 65 0 0 0-1.792-.896c-1.38-.523-4.185-.288-5.376-1.792-.099.032-.304.005-.448 0-.232-.011-2.587-.36-2.688-.453-.277-.26.203-6.552.002-7.611m-2.245 4.032v2.237c-.254.268-2.787-.5-3.131-1.12zm-15.46 33.16 3.87-31.762c.865-.54 4.408.904 5.553 1.28 4.96 1.627 10.736 3.58 15.557 5.5 3.418 1.36 3.648 1.038 3.467 5.033-.373 8.352-3.46 17.818-3.613 26.4l-1.161 2.005zm20.615 38.518v-.448q.435.225 0 .448m46.818-14.34c-.304-.156.262-.76.891-.439.304.155-.262.762-.891.438m8.733-41.659c5.921.919 10.276 7.687 10.928 13.264 1.414 12.127-3.904 25.365-17.876 24.818.117-.707-.16-3.879 0-4.035.128-.128 2.684-.016 3.612-.199 14.539-2.869 14.616-34.377-3.607-29.366l-.001-4.48c2.156.232 4.875-.322 6.944 0zm-6.944 31.808v-24.64c16.763-6.419 14.884 26.784 0 24.64m-11.648-53.76c.472-.475 12.115 3.232 12.747 4.053 1.469 1.915 1.11 12.682 2.037 15.658l-3.136.001v-9.184c0-1.635-4.332-6.153-6.434-5.936-3.347.347-2.326 6.824-5.216 7.504zm0 14.336c.092-.086 1.363.088 1.92-.085 1.544-.48 2.352-5.508 3.012-7.083.685-.5 6.19 3.034 2.972 6.56-.86.944-7.24 4.445-7.903 3.744.098-.605-.152-2.998-.003-3.136m2.92 4.936 6.488-3.144v52.64c0 2.765-7.018 6.058-9.312 6.816-10.429 3.456-23.424 3.384-34.144 1.472.274 1.331-1.146 1.403-.896 0-3.91-.752-9.664-2.446-12.757-4.939-.393-.317-2.475-2.278-2.475-2.453v-24.864c4.678.56 10.392 4.275 14.757 5.18 4.027.831 4.121-1.173 4.74-4.274 1.517-7.587 1.647-15.535 3.32-23.11 10.11.17 20.564.14 30.279-3.324m-4.71-20.616v19.488c0 .474-1.272.853-1.792.672V98.31c0-.473 1.27-.853 1.792-.672m-.519-2.304c-.526.608-3.046.239-3.486 3.005-.914 5.75.601 13.642 0 19.632l-4.061.726-.374-23.003c.457-1.347 6.496-2.384 7.988-2.982-.116.646.245 2.264-.067 2.624m-2.62-4.41c.13.603-.468.503-.897.656-3.01 1.06-6.315 1.666-9.403 2.472V88.23zm44.335-17.913c.204.147.536 1.712.272 2.224-.635 1.235-5.768 1.841-7.17 1.81-17.61-.406-20.225-27.96-39.673-21.969-.416-2.601.715-2.798 2.963-3.081 19.034-2.4 21.733 24.262 38.925 22.347 1.123-.125 4.272-1.624 4.682-1.331m-8.936-58.437c-1.394.39-5.687-2.247-5.336-3.555.179-.672 5.56-4.461 6.224-3.88.208 2.956 3.382 6.238-.888 7.435m34.046 6.456h.891l-.001 1.787c-.245.542-1.135-1.54-.89-1.787m24.197 2.451c-3.104-3.078-7.18-5.146-10.522-7.843-3.288-2.651-9.016-10.005-13.241-9.216-5.095.953-7.069 7.622-3.571 11.464-2.047-.131-2.919-2.24-4.242-3.603-.42-.432-1.443-.853-1.5-.95-.705-1.188 2.72-6.431 3.774-7.49 3.336-3.35 8.176-3.808 11.963-.86l20.819 15.685c1.17 2.027-1.66 3.987-3.48 2.813" class="st8"/><path d="M48.414 176.038c.273 1.33-1.146 1.402-.896 0 .273.051.617-.051.896 0m44.796-13.885c.304.156-.262.762-.89.439-.305-.155.262-.76.89-.439m-47.708 14.333q.434.225 0 .448z" class="st8"/><path d="M40.004 115.902c.224.232 2.486.661 2.584.554-1.014-4.002 5.437-1.253 6.592.121 2.597 3.093-1.22 6.423-1.635 9.088-.58 3.701 1.877 14.244-.685 16.336a3.84 3.84 0 0 1-1.562.698c-1.315.208-15.712-5.029-16.828-6.078-3.357-3.152 1.913-11.184 2.432-15.055.38-2.837-1.095-7.28.088-9.32 1.345-2.321 4.558-1.299 6.462-.288 2.794 1.482 1.782 3.152 2.552 3.944m-7.674 20.22c3.877.564 8.384 3.659 12.032 4.348.512.096.76.317 1.154-.256 1.013-4.608-.74-9.611-.242-14.131.146-1.328 1.936-5.195 1.599-5.616-2.235-.914-4.688-1.203-6.954-2.016-2.513-.904-4.777-2.234-7.184-3.34.224 2.026.639 3.991.464 6.066-.131 1.536-.816 2.656-.918 4.008-.263 3.528.16 7.376.048 10.936zm-2.29-1.302-.438-3.58c.165 1.224-1.206 2.944.439 3.58" class="st5"/><path d="M32.33 136.121c.112-3.56-.312-7.408-.048-10.936.101-1.352.784-2.472.916-4.008.176-2.073-.237-4.04-.463-6.065 2.407 1.105 4.67 2.435 7.184 3.339 2.264.813 4.72 1.104 6.954 2.016.339.42-1.453 4.288-1.6 5.616-.498 4.52 1.256 9.523.243 14.131-.394.573-.64.352-1.152.256-3.651-.688-8.157-3.784-12.034-4.349" style="fill:#dededc"/><path d="M30.04 134.822c-1.644-.64-.273-2.358-.438-3.584z" class="st4"/><path d="M47.174 42.787c-.325 1.58-1.298 2.731-1.14 4.493.228 2.544 2.848 4.517 2.848 7.36.004 1.312-.864 4.275-2.598 4.25-.035-.965.71-1.489.869-2.48.707-4.433-2.96-5.941-2.69-9.817.088-1.28 1.159-3.8 2.71-3.808m5.82 4.476c-2.087 4.563 3.27 7.257.54 11.496-2.467 3.833-.532-2.456-.625-3.124-.32-2.299-4.869-6.636.086-8.372" style="fill:#3a3835"/><path d="M41.354 47.709c.15.856-.656 1.348-.806 2.105-.629 3.128 5.494 8.08-.085 10.416.295-1.481 1.085-2.067.88-3.76-.296-2.464-5.227-6.637.011-8.763" style="fill:#403e3c"/><path d="m49.017 92.21.368.095 10.229 2.644 2.464.45s2.779-.372 3.336-.473 8.088-2.405 8.088-2.405l-6.272-1.804v1.932h-5.84l-1.776.061v-2.816" style="fill:#b09170"/></svg>