<?xml version="1.0" encoding="UTF-8"?>
<svg id="Layer_1" xmlns="http://www.w3.org/2000/svg" version="1.1" viewBox="0 0 128 128">
  <!-- Generator: Adobe Illustrator 29.0.0, SVG Export Plug-In . SVG Version: 2.1.0 Build 186)  -->
  <defs>
    <style>
      .st0 {
        fill: #3a3835;
      }

      .st1 {
        fill: #dededc;
      }

      .st2 {
        fill: #5f4028;
      }

      .st3 {
        fill: #262524;
      }

      .st4 {
        fill: #201f1e;
      }

      .st5 {
        fill: #b09170;
      }

      .st6 {
        fill: #9e7646;
      }

      .st7 {
        fill: #62a2cf;
      }

      .st8 {
        fill: #eae9e5;
      }

      .st9 {
        fill: #2c2a29;
      }

      .st10 {
        fill: #f3f4ef;
      }

      .st11 {
        fill: #cbcecb;
      }

      .st12 {
        fill: #33312f;
      }

      .st13 {
        fill: #b8b6b2;
      }

      .st14 {
        fill: #f0efeb;
      }
    </style>
  </defs>
  <path class="st3" d="M47.6125834,98.3550091c-1.0893354-.5178358-2.8094243-1.8519834-2.5402738-3.2163747l3.1266418-20.9453603c.0080813-.7670221,1.2122434-1.5451076,1.3262886-2.0414661.07116-.3097095-.4197104-5.9131628-.5570931-6.3309638-.1258979-.3828741-.757068-.5159684-1.0429456-.9151216-1.2885049-1.7990595-1.3217046-10.2772499-2.4980626-13.1630226-.4495566-1.1028259-4.8652677-8.2790759-5.6445537-9.1794829-.9589837-1.1080344-2.1827536-1.0927536-3.29009-1.739392-1.0139396-.5920985.9267824-2.1848457,1.5141052-2.5434045,1.0491429-.6404985,1.571558-.3829869,2.4061061-.6713094.4667014-.1612375.7556098-.7180714,1.3185913-.9192746,5.6914599-2.034063,12.1418055-3.1252334,17.8769365-5.2028002.5095978-.782912-1.2328178-5.3594277-1.0195202-6.5070706.3012963-1.621118,7.7076155-1.6295696,8.4803432-.4606989.8055409,1.2185058-1.4354885,6.4277453-.5465921,7.0351545,3.525615.5587783,7.7845222,2.8728564,11.191814,3.3001805,4.344391.5448499,9.190365-.5555482,13.5596792-.129122.8874352.2631553,3.8447998,3.4404132,4.6083147,4.3427291,1.3604063,1.6077175,2.6535426,3.0312961,1.9674747,5.3313924-2.5396776,6.3792047-3.9209306,13.3405698-6.6554273,19.6328108-.6080722,1.3992106-.5938673,1.6218615-2.1130268,2.0827594-.7851868.2382178-4.9050038,1.0368059-5.4538188.8788004-1.150866-.3313379-2.1464469-4.6890896-1.2793277-5.2306883.9532579-.5954005,3.400426,1.1250222,4.2297168-.6666142.4092209-.8840988.2581882-3.507042.6245523-4.9687063.3264669-1.3024884,1.0482703-2.393027,1.4014413-3.6328324.4719064-1.6566252.3726033-3.3022698.9654335-4.9074922.5286725-1.4315008,1.8683883-2.3242528,1.2897359-4.0578906-.2385796-.7147825-1.4420471-1.4243333-2.1868966-1.3327158-1.9287212.2372354-5.2706078,2.9505026-7.4283797,3.3619382-1.1984118,5.7529526-1.4111619,12.1783004-2.6986469,17.8560692-.3808649,1.6796022-1.5234548,2.2731754-1.5593309,2.4188931-.2158173.876584.0800602,2.7606188.0029874,3.855704-.0522793.7428094-.5693677,1.7278123-.5380098,2.2583056.0348833.5901357.7669045.8853427,1.0397595,1.4403018.2918362.593565.4066183,1.5744249.5382303,2.2585582,1.2375217,6.4327698,1.5706169,13.3179981,2.887871,19.7797266-.0009724,1.2207409-1.5192209,2.451066-2.5259032,2.9284802-.801161.3799467-2.177933.6357582-3.076116.8420387-.0695883.4689113.6987651.3163055,1.2691184.2895347s6.1936893.8024601,7.5206819,3.0851908l3.1927338,10.2562084c.1785449.2960127-.173337.9070013-.3724834.9070013h-47.8459943c-.0978847,0-.4764632-.4106395-.3720642-.6363088,1.2875278-2.5730931,1.8014695-8.8882709,3.3497947-10.9287856,1.3460727-1.7739691,3.32835-1.7478952,4.9039623-2.2282762.644238-.1494302.9159043-.3036104,1.7635407-.4041601s1.9908089.1283495,1.9648172-.3404046c-.8970039-.2064067-2.2766867-.4620151-3.0761161-.8420387ZM66.0813328,25.3730895c-2.0792562-.4633866-4.084822-.4868486-6.1592829-.0010409.3015174.8848597.9586934,6.004462,1.3819919,6.3086263.3536664.2541296,3.2481136.251129,3.5279872-.1469871.6082648-.8652477.5271401-4.9474818,1.2493038-6.1605983ZM59.9238055,32.9230443c-1.8137395.1832291-12.0008148,3.2217956-12.0257953,4.8907642.8110245.4814742,4.0750945,1.4212955,4.8294906,1.2186499.2891661-.0776757,4.0801297-3.2228345,4.6828656-3.7306023.8615061-.7257656,1.7807167-1.5188367,2.5134391-2.3788118ZM71.9531313,38.7979383c-.0241574-.0281954-.4581075-.0796658-.6877333-.280587-1.0663751-.9330718-5.7534562-5.1504554-6.605152-5.4614709-.6180686-.2257015-1.1714153.1479283-1.7860703.1582061-.385874.0064523-.8122093-.2891448-1.1538906-.2740197-1.0249406.0453706-6.1584332,5.4283433-7.6751081,5.9923011l17.7693074.4208694c.2428614.0328718.167454-.5216766.1386469-.5552989ZM79.7901677,37.3973156l-13.7093328-4.474233,7.1965321,6.1044516c.5366974.1534362,5.2686673-.819271,6.1052321-1.0648728.3031668-.0890048.8890876-.1229446.4075687-.5653458ZM84.0202384,65.6038429c.3493974.2274788,5.2060004-.603893,5.6886605-1.3781598l7.0992273-20.8951958c.1520004-.6669112-.2159768-1.2903752-.5579316-1.8346184-.4712373-.7500049-4.1780389-4.8198231-4.8406171-5.2269319-1.4959456-.919156-2.9928951-.0623769-4.6238484-.2708143,1.3122529,3.6821828-1.8171876,6.5332474-4.7548633,3.353735l-.559502,4.7537641c2.6536201-.7811455,6.5569039-4.30275,9.2176733-2.6437883,3.5677173,2.2244342.5473966,4.7517246-.1290051,7.3955986-.2992671,1.1697553-.2385061,2.4266524-.4832324,3.4319554-.3244896,1.3329598-1.3361062,2.7978969-1.6552055,4.2181258-.8321188,3.7035475.968885,7.3766233-4.9950204,6.614659-.1717412.1721828.4481901,2.3869581.5936645,2.4816706ZM85.665538,36.2758414h-5.176321c-.1596399,0-.9358207-.0279554-1.2570104-.0035285,1.1352019.3838599,2.4110011.7654897,3.3278644,1.5691563.6340495.5557693,1.0400822,1.8955541,2.1108778,1.8039294,1.2065826-.1032435,1.4452423-2.4505889.9945893-3.3695572ZM80.9069716,38.7935072c-1.9993658.7069892-4.9082975.752889-6.8010467,1.4493398-.2194258.0807393-.3826375.1514069-.4353724.4037924l-1.9935773,25.5494582c1.5349368-.2869355,4.9091134-.9019404,5.4657993-2.5047745l3.7641972-24.8978159ZM46.4933789,39.0722003h-7.134929c-.0511474,0-.7704984.4069204-.8954706.4942317-.9996436.6983965.0672308.5333895.6230644.8862005,2.7765774,1.7624105,4.6826533,6.7949706,6.5715338,9.5246962l.5662941-.9677764.2695073-9.937352ZM52.3567097,40.2025577c-.9558234.1381919-4.3804104-1.3559302-4.8994414-.5857107-.533835.7921881-.0014797,10.398468-.5816826,12.1345286l2.0099335,12.1945965c1.3315963,1.6404024,3.5367422,1.7665983,5.4395473,2.2507593l-1.9683569-25.9941736ZM72.5148846,40.4703797h-19.0264773c.3684212,1.2832999.777296,15.073369,1.5360241,15.0926136.084307.0021384.9244082-.4726066,1.4249978-.5280072.9951081-.1101293,2.1977925-.1386281,3.1931711-.0232586l.564047-9.3650727c1.7605495-1.8881622-.5341124-4.6547467,3.2117783-4.281967,1.8158077.1807037.9831993,1.6570492,1.3196416,2.8232003.1390493.4819624.9499097.8786317,1.0041883,1.5131233l.6155567,9.3118813c1.69982-.0584283,3.2917324-.0734441,4.8941665.5618481l1.2629057-15.104361ZM60.4834357,56.1299896c-.0496046.0377523.1303596.8648228-.8394034.5592718-.3767146-1.0317822-.3749817-.8979205-1.5385214-.848953-.8643975.0363782-3.8503627.5216422-3.0752741,1.6910945,1.3948276-.1876881,2.968044-.6021045,4.3339944-.0032338,1.1839608.5190813,1.1401057,2.0679702,3.2177191,2.2503232,1.9839262.1741301,2.7099993-.9104888,4.3369116-1.4114156.80439-.2476719,1.7919001-.2593434,2.6720338-.544284.2994987-.0969618,1.7518406-.5431174,1.5223226-.9895976-1.5917335-.8289891-4.8471891-1.6984061-4.4741575.9746098-1.9294259.2566317-.7942505-.6110513-.9268191-1.5018546-.428116-2.8767528-.4216777-5.5749875-.787987-8.3892678-.1203456-.9245905-.1236273-2.3144336-1.0832052-2.6924926-.1004096-.7700375-.5044054-1.6020083-.2783772-2.5181203l-1.4018864.0000579c-.0688188.6648676.1222481,1.4593172-.0023473,2.0955925-.1158718.5917261-.6370274.7538158-.7702828,1.1868432-.8566059,2.783629-.170459,7.1410382-.9047199,10.1414265ZM63.5612482,67.0357893c1.0531441.1081191,6.1926566-.2802744,6.7440494-.9499205.7310237-.8878012.3270264-6.0230716.8086977-7.4381511-1.2066753.4599216-2.6396003.4254566-3.8231721.7901906-1.5957479.4917518-2.3914612,1.5187899-4.4288006,1.4687253-2.7315554-.0671239-3.0692023-2.1240008-4.2555695-2.4835312-1.0877158-.329634-2.3141467.4170177-3.4406915.2226184.0311916,2.4901888.2009359,5.0286859.6189521,7.4909498,2.1951077.7592546,5.0711494,1.4385212,7.2169322.339847-.0785738.7592978.02234.5041147.5596023.5592718ZM75.5926971,66.4765176c-8.122338,2.3907487-17.0537055,2.2703643-25.1821023,0v4.3343563c0,.1353228,1.0986672.7912382,1.3353.9025757,4.3084901,2.0271758,18.5327459,2.1809755,22.6981462-.0931022.2083675-.1137571,1.1486561-.6955536,1.1486561-.8094735v-4.3343563ZM76.1509532,74.0252751c-.4953287-2.2521074-2.19775-.7344395-3.6335199-.4155692-5.9994338,1.3324148-12.5438598,1.2941065-18.5737635.1018263-1.85015-.3658263-3.4915266-1.9228116-4.3751855.4522469,1.1769384-.2065786,2.4762952-.0318394,3.6484713.2738685,1.3000597.3390604,3.0960134,1.7319638,3.7897465,1.8278949.7330435.1013671,3.2009699-.7645778,4.4433406-.8533332,1.1090491-.0792308,2.8253745-.0836086,3.9254258.0171436,1.0088764.0924016,3.0042716.8961398,3.6287683.8337979.4959562-.0495101,2.2953805-1.3135223,3.1673581-1.6008229,1.2065019-.3975202,2.7031655-.6205546,3.9793583-.6370527ZM54.6089573,98.6363406l1.6782567-21.115643c-.2320635-1.2287374-4.724415-2.4674731-5.9877873-2.3606892-.9861286.0833504-1.0574493.4393675-1.2097708,1.3098549-.8804222,5.0314403-2.3793241,12.945806-2.5928447,17.8345019-.1002348,2.2949421.4669163,2.3232758,2.4412618,3.1453911,1.7241042.7179151,3.7887447,1.2291099,5.6708842,1.1865844ZM76.6714968,75.4656264c-2.303762-.7426004-5.1053971.3903538-6.909708,1.8214166l1.6358117,21.6262712c1.7415783-.3051669,7.6906887-1.3761831,8.0656837-3.2833425l-2.7917874-20.1643454ZM68.5495092,77.428924c-3.3629144-1.3869362-7.6911961-1.210259-11.1046125-.0073453l-1.6904809,21.4673399c4.7592365,1.1341239,9.7313158,1.140885,14.4920918-.0025382l-1.6969984-21.4574564ZM62.440642,100.8732044c-3.4071965.2085045-6.6941499-.8633627-10.0700821-1.1185026.3614108,1.4805374,1.9398218,2.0848728,2.6596945,3.3526174l1.9556366-2.5102934c1.3286648,1.2377358,1.7064397,3.9588331,4.0172392,3.3055999l1.4375119-3.0294214ZM73.6326317,99.7546014c-1.3203549.3109636-2.7388436.2382493-4.0531851.5648894-.3251732.080812-.5092555-.2143865-.4198144.4086358l1.8162592,2.3751091c.2496318-.4614381,3.0572422-2.9797877,2.6567403-3.3486344ZM43.4135386,112.6145947c.5357992-2.0952568.9165482-6.7851079,1.9977598-8.4899477.9860209-1.5547445,3.8984095-1.5472928,4.9904971-2.5625635.3510187-.3263282.463108-.5489367.0184062-.8388066-.8705367-.5674417-6.8027904,1.4842652-7.4106329,2.3992383-1.3435233,2.0223787-1.6958342,7.1452864-2.951489,9.4911659l3.3554588.0009135ZM68.5976081,100.5949166l-5.3143461.414839c.4891968.3226993,1.5779113,2.8017477,1.7206028,2.8909046,1.5799309.9871765,3.2776275-2.08475,3.5937433-3.3057436ZM85.9452156,112.6136777c-1.2376889-2.0923253-1.8511707-8.1750679-3.2274365-9.7746532-.6139924-.7136217-6.8867123-2.7501735-7.4035359-2.2454991-.9509368.9285826,3.1348103,2.0847409,3.6475657,2.3639845.4921653.2680304,1.3254604.7232994,1.6318576,1.1654651.8447313,1.2190421,1.6927797,8.177676,2.0062384,8.4805091.1615416.1560657,2.7941493-.08414,3.3453107.0101936ZM52.6480633,102.5464366l-.8350792-1.1147714-.2817064,1.3961281,1.1167857-.2813567ZM74.7532654,102.8263515l-.6980778-1.3939825-.699571,1.1143331,1.3976488.2796494ZM56.0066175,106.1848141c-.7270685-.1517724-.7320469-.5296238-.8394034-.5592718l-1.5400719-2.5157573c-.3924716,1.0786101-1.083431.8732223-2.0959665.8393844-.1194636.6665662.48488.798383.838027,1.1171011,3.649484,3.2936903,15.5589582,2.9057658,19.8658807.8389077.7767236-.3727435,2.3873113-.8641402,1.8099897-1.9607418-1.0892715.4594028-1.3035941-.5624805-1.3896426-.5633728-.7964129-.0082592-1.5323059,1.6103317-1.8193527,2.2444788-.0635979.0066561-.7229294.2118762-1.1192045.2796359.272934-.7959053.3545502-1.4656827.2176589-2.3121533-.0473479-.292777-.5627535-1.7234912-1.0516281-1.3208844-.1058682.0871865-1.3117382,2.0436031-1.453114,2.325829-.250882.5008311-.4013197,1.0413693-.5109282,1.5868446-.0997703-.0414175-.4189595.103939-.5204549-.0334115-.3426901-.4637516.6077126-1.3447776-1.0164232-1.0948666-.4936517.0759598.4789721,1.586415-1.2611333,1.6875499.69351-1.6591044.0247954-3.1037878-1.2591853-4.1891411-1.4369918,1.4501073-1.1491876,2.6587625-1.2590249,4.468777-.9385444-.2111605-.8890241-1.9228943-1.542955-2.2344854-.6300678-.3002206-.354001,1.0034131-.6954541,1.3955778l-2.3813306-3.9167245c-.4769018-.1394743-.8674746,1.0638262-.9121927,1.322921-.1485762.8608459-.0370129,1.7309449-.0640904,2.5938035ZM44.5347709,112.6164395h36.93375c-.7308894-1.8080883-.9384339-6.5141463-1.9397983-7.9178102-.4249788-.5957145-3.268244-1.4447923-4.0733511-1.8720016.2237682.9129388,1.4674824,1.3040579,1.534121,2.3996561.1231674,2.0249826-2.8200038,3.3995734-4.4030882,3.9661846-5.2784463,1.8892402-14.5701603,1.8211297-19.8035054-.2052935-1.6640963-.644361-4.3367505-2.0560432-3.6507681-4.2133861.2486557-.781996,1.4500393-1.189532,1.1405908-1.9425614-.9436017.6728943-3.3285712,1.0660962-3.9054806,1.9691618-.2398604.3754656-2.1259226,7.5420084-1.8324702,7.8160503ZM50.4138182,104.7871037c-.6494926,1.1529857.701165,2.1435421,1.6607696,2.6708984,4.5801617,2.5170543,17.9502375,2.5938525,22.3270443-.3662802.669969-.4531151,2.2454989-1.8935281.9093653-2.1698709-.2555804.299717-.3937343.7299176-.6980423.9829113-4.268269,3.548527-17.541128,3.4564064-22.2258105.6815747-.9161086-.5426295-1.2646267-1.0923133-1.9733265-1.7992334Z"/>
  <path class="st0" d="M50.6889008,13.906333c.0586824,1.0826987-.8583021,1.679098-1.0512704,2.7191834-.5994124,3.2307896,2.2660934,4.7733051,2.1854238,7.4762656-.0299153,1.0023602-.7799489,2.836399-1.9705726,2.9447038-.1508861-.8496924.6249356-1.4341772.7771714-2.1595881.7089687-3.3782701-4.0989894-5.8203747-1.4648908-9.8501442.150709-.2305618,1.2512979-1.434958,1.5241385-1.1304205Z"/>
  <path class="st12" d="M35.057631,23.6572585c-1.0610601-1.6602127,1.9729239-.1312345,2.7615943,1.0140745,1.947208,2.82774-.8978911,4.2457573-1.1266323,6.4266063-.1990527,1.8977945.4144579,1.9224531.9908024,3.2211422.6413403,1.4451453-1.5098662.4651861-1.9746931-1.1070768-1.073814-3.6321428,2.069614-4.6809919,1.7801929-7.0686082-.2305495-1.9019477-2.225417-2.1640545-2.4312641-2.486138Z"/>
  <path class="st12" d="M46.4919608,19.2194874c-.1049096.9145273-.8653108,1.6457767-.8219468,2.6312369.0896949,2.038341,2.2713159,3.3204131,1.9484129,6.1831043-.0652572.5785368-.9085852,2.8253687-1.6833011,2.0885172-.1775888-.1689091.480876-1.1237471.5432608-1.5492108.4740887-3.2332796-1.9792899-4.3849083-1.6724139-7.2616132.0954313-.8945884.6742508-1.9937391,1.685988-2.0920343Z"/>
  <path class="st12" d="M35.0201676,35.9947168c-.7291136.6558487-2.9155807-2.3043372-3.0578674-3.2320528-.1651583-1.076839.7495547-4.8534141,1.8001534-4.870266,1.0558228-.0169358-.4729715,2.3116084-.573986,2.7740157-.2258022,1.0336398-.2128034,1.9151336.2210858,2.88594.1870565.41853,1.8856246,2.1949872,1.6106142,2.4423632Z"/>
  <path class="st10" d="M68.5495092,77.428924l1.6969984,21.4574564c-4.760776,1.1434233-9.7328553,1.1366621-14.4920918.0025382l1.6904809-21.4673399c3.4134165-1.2029137,7.7416981-1.379591,11.1046125.0073453Z"/>
  <path class="st14" d="M72.5148846,40.4703797l-1.2629057,15.104361c-1.602434-.6352922-3.1943464-.6202765-4.8941665-.5618481l-.6155567-9.3118813c-.0542786-.6344916-.865139-1.0311609-1.0041883-1.5131233-.3364423-1.1661511.496166-2.6424966-1.3196416-2.8232003-3.7458907-.3727796-1.4512288,2.3938048-3.2117783,4.281967l-.564047,9.3650727c-.9953786-.1153694-2.198063-.0868707-3.1931711.0232586-.5005896.0554006-1.3406908.5301456-1.4249978.5280072-.7587281-.0192445-1.1676029-13.8093136-1.5360241-15.0926136h19.0264773ZM69.1558437,46.9005789c.2034934-.2033732-.1048811-1.2452205-.693903-1.1156843-1.0344818.2275006.1535076,1.6557605.693903,1.1156843ZM67.4770369,47.1802147c.2034934-.2033732-.1048811-1.2452205-.693903-1.1156843-1.0344818.2275006.1535076,1.6557605.693903,1.1156843ZM69.5798187,48.5825793c-.7310301.1967359-.3977154,1.369129.5539102,1.1130262.7310301-.1967359.3977154-1.369129-.5539102-1.1130262ZM59.3344103,48.8877926c-.8077672-.4967367-.9594212.3607659-.8081555,1.0887814l1.1164131-.0000585c.0968888-.0878398-.2600463-1.0590753-.3082576-1.0887229ZM57.4042147,49.9794367c-.3674474.0062346-.789623-.0936144-1.1239636.132359-1.336201.9031082,1.6189648,2.1084537,1.1239636-.132359ZM58.1079719,51.3789384c-.5627155.1577594-.5627155,1.2349021,0,1.3926615,1.2867547.3607466,1.2867547-1.7534081,0-1.3926615ZM57.1243886,52.4961428c-.1204603-.120141-1.4732584-.2692783-1.1149613.6948321.4005996,1.0779383,1.5755368-.2354775,1.1149613-.6948321Z"/>
  <path class="st14" d="M76.6714968,75.4656264l2.7917874,20.1643454c-.374995,1.9071594-6.3241053,2.9781755-8.0656837,3.2833425l-1.6358117-21.6262712c1.8043109-1.4310628,4.605946-2.564017,6.909708-1.8214166Z"/>
  <path class="st14" d="M80.9069716,38.7935072l-3.7641972,24.8978159c-.5566859,1.6028341-3.9308625,2.217839-5.4657993,2.5047745l1.9935773-25.5494582c.0527349-.2523855.2159466-.3230531.4353724-.4037924,1.8927493-.6964508,4.801681-.7423506,6.8010467-1.4493398Z"/>
  <path class="st14" d="M54.6089573,98.6363406c-1.8821395.0425254-3.94678-.4686694-5.6708842-1.1865844-1.9743455-.8221153-2.5414966-.850449-2.4412618-3.1453911.2135206-4.8886959,1.7124224-12.8030615,2.5928447-17.8345019.1523215-.8704874.2236421-1.2265044,1.2097708-1.3098549,1.2633723-.1067839,5.7557238,1.1319518,5.9877873,2.3606892l-1.6782567,21.115643ZM51.7364073,77.145481c-2.513862.4537849-2.6126767,4.9156113.4776127,4.7029145,3.0590916-.2105496,2.4227843-5.226474-.4776127-4.7029145Z"/>
  <path class="st14" d="M44.5347709,112.6164395c-.2934524-.2740418,1.5926098-7.4405847,1.8324702-7.8160503.5769093-.9030655,2.9618789-1.2962675,3.9054806-1.9691618.3094485.7530294-.8919351,1.1605653-1.1405908,1.9425614-.6859824,2.1573428,1.9866718,3.5690251,3.6507681,4.2133861,5.233345,2.0264232,14.525059,2.0945337,19.8035054.2052935,1.5830843-.5666112,4.5262555-1.941202,4.4030882-3.9661846-.0666386-1.0955982-1.3103528-1.4867172-1.534121-2.3996561.8051071.4272093,3.6483724,1.2762871,4.0733511,1.8720016,1.0013644,1.4036639,1.2089089,6.1097219,1.9397983,7.9178102h-36.93375Z"/>
  <path class="st14" d="M52.3567097,40.2025577l1.9683569,25.9941736c-1.9028051-.484161-4.107951-.6103569-5.4395473-2.2507593l-2.0099335-12.1945965c.5802028-1.7360606.0478476-11.3423404.5816826-12.1345286.5190309-.7702195,3.9436179.7239027,4.8994414.5857107Z"/>
  <path class="st14" d="M84.0202384,65.6038429c-.1454743-.0947126-.7654057-2.3094878-.5936645-2.4816706,5.9639053.7619643,4.1629016-2.9111115,4.9950204-6.614659.3190992-1.4202288,1.3307159-2.885166,1.6552055-4.2181258.2447263-1.005303.1839654-2.2622002.4832324-3.4319554.6764017-2.643874,3.6967224-5.1711643.1290051-7.3955986-2.6607694-1.6589618-6.5640532,1.8626428-9.2176733,2.6437883l.559502-4.7537641c2.9376757,3.1795124,6.0671161.3284478,4.7548633-3.353735,1.6309533.2084374,3.1279028-.6483417,4.6238484.2708143.6625782.4071089,4.3693797,4.4769271,4.8406171,5.2269319.3419548.5442433.709932,1.1677072.5579316,1.8346184l-7.0992273,20.8951958c-.4826601.7742668-5.3392631,1.6056386-5.6886605,1.3781598Z"/>
  <path class="st14" d="M75.5926971,66.4765176v4.3343563c0,.1139199-.9402886.6957165-1.1486561.8094735-4.1654003,2.2740777-18.3896561,2.120278-22.6981462.0931022-.2366328-.1113375-1.3353-.7672529-1.3353-.9025757v-4.3343563c8.1283967,2.2703643,17.0597643,2.3907487,25.1821023,0Z"/>
  <path class="st2" d="M55.7847137,66.1366706c-.4180162-2.4622639-.5877605-5.000761-.6189521-7.4909498,1.1265449.1943993,2.3529758-.5522523,3.4406915-.2226184,1.1863671.3595304,1.5240141,2.4164073,4.2555695,2.4835312,2.0373394.0500646,2.8330527-.9769735,4.4288006-1.4687253,1.1835718-.364734,2.6164968-.330269,3.8231721-.7901906-.4816713,1.4150795-.077674,6.5503499-.8086977,7.4381511-.5513928.6696461-5.6706788,1.0055438-6.8382969,1.0601054s-3.3523323-.0433454-4.0862486-.1458486-1.4009307-.1042005-3.5960384-.863455ZM68.3178965,60.3233589c-.4420136.0132557-1.2796047-.1302953-1.558916.2601146-1.0826292,1.513255,2.2332577,2.2307264,1.558916-.2601146ZM60.6687641,61.4828762c-.7724072.2593011-1.0032879,1.5642707.013813,1.8663248,2.1409812.6358192,2.007991-2.545055-.013813-1.8663248ZM63.4667068,62.8884341c-1.1652914.4008014-.8564844,2.6170413.524423,2.7556877,2.1851513.2193946,2.3307476-3.7377223-.524423-2.7556877Z"/>
  <path class="st8" d="M71.9531313,38.7979383c.0288071.0336223.1042145.5881707-.1386469.5552989l-17.7693074-.4208694c1.5166749-.5639578,6.6501675-5.9469305,7.6751081-5.9923011.3416813-.015125.7680167.280472,1.1538906.2740197.614655-.0102778,1.1680017-.3839075,1.7860703-.1582061.8516958.3110156,5.5387769,4.5283991,6.605152,5.4614709.2296258.2009212.6635759.2523916.6877333.280587Z"/>
  <path class="st6" d="M60.4834357,56.1299896c.734261-3.0003883.0481141-7.3577975.9047199-10.1414265.1332555-.4330273.654411-.595117.7702828-1.1868432.1245954-.6362753-.0664715-1.4307249.0023473-2.0955925l1.4018864-.0000579c-.2260283.916112.1779675,1.7480828.2783772,2.5181203.2722691,2.0880208.6209763,4.8371483.7319474,6.8995577.0477894.8881713-.3732996,2.026292-.1781122,3.0377536.1342009.6954294.7743925.5764664.8516163.8838343.1229863.4895129-.0834579,1.2195004-.0079047,1.7610187l-.8351016-.8360665-.0040473,1.6779522-.8369947-.0000006-.2764901-1.6766782c.1672003.7380342-.6931556.4702062-.8007617.5865948-.1041686.1126706.0961582,1.7460012-.5991283,1.087609-.3080606-.2917138.0095752-1.3833419-.1350252-1.6727992-.1318254-.2638848-1.1869878-.9043362-1.2676116-.8429762Z"/>
  <path class="st14" d="M46.4933789,39.0722003l-.2695073,9.937352-.5662941.9677764c-1.8888805-2.7297256-3.7949563-7.7622857-6.5715338-9.5246962-.5558336-.352811-1.6227081-.1878041-.6230644-.8862005.1249722-.0873113.8443232-.4942317.8954706-.4942317h7.134929Z"/>
  <path class="st8" d="M43.4135386,112.6145947l-3.3554588-.0009135c1.2556548-2.3458794,1.6079658-7.4687872,2.951489-9.4911659.6078425-.9149731,6.5400962-2.9666801,7.4106329-2.3992383.4447018.2898698.3326125.5124783-.0184062.8388066-1.0920876,1.0152707-4.0044762,1.0078189-4.9904971,2.5625635-1.0812116,1.7048398-1.4619606,6.3946908-1.9977598,8.4899477Z"/>
  <path class="st8" d="M85.9452156,112.6136777c-.5511615-.0943336-3.1837691.1458721-3.3453107-.0101936-.3134587-.3028331-1.1615071-7.261467-2.0062384-8.4805091-.3063972-.4421656-1.1396923-.8974347-1.6318576-1.1654651-.5127554-.2792436-4.5985025-1.435402-3.6475657-2.3639845.5168236-.5046743,6.7895436,1.5318774,7.4035359,2.2454991,1.3762658,1.5995853,1.9897476,7.6823279,3.2274365,9.7746532Z"/>
  <path class="st14" d="M66.0813328,25.3730895c-.7221637,1.2131165-.641039,5.2953506-1.2493038,6.1605983-.2798736.3981161-3.1743208.4011167-3.5279872.1469871-.4232985-.3041643-1.0804745-5.4237665-1.3819919-6.3086263,2.0744609-.4858077,4.0800267-.4623457,6.1592829.0010409Z"/>
  <path class="st1" d="M76.1509532,74.0252751c-1.2761928.0164982-2.7728564.2395325-3.9793583.6370527-.8719776.2873006-2.6714018,1.5513128-3.1673581,1.6008229-.6244967.0623419-2.6198919-.7413963-3.6287683-.8337979-1.1000513-.1007521-2.8163767-.0963744-3.9254258-.0171436-1.2423707.0887554-3.7102971.9547002-4.4433406.8533332-.6937331-.0959311-2.4896868-1.4888345-3.7897465-1.8278949-1.1721761-.3057079-2.4715329-.4804471-3.6484713-.2738685.8836589-2.3750585,2.5250355-.8180732,4.3751855-.4522469,6.0299037,1.1922802,12.5743297,1.2305885,18.5737635-.1018263,1.4357699-.3188703,3.1381912-1.8365382,3.6335199.4155692Z"/>
  <path class="st8" d="M79.7901677,37.3973156c.481519.4424012-.1044019.476341-.4075687.5653458-.8365648.2456018-5.5685346,1.2183089-6.1052321,1.0648728l-7.1965321-6.1044516,13.7093328,4.474233Z"/>
  <path class="st8" d="M59.9238055,32.9230443c-.7327224.8599751-1.651933,1.6530462-2.5134391,2.3788118-.6027359.5077678-4.3936995,3.6529266-4.6828656,3.7306023-.7543961.2026456-4.018466-.7371757-4.8294906-1.2186499.0249805-1.6689686,10.2120558-4.7075352,12.0257953-4.8907642Z"/>
  <path class="st1" d="M50.4138182,104.7871037c.7086998.7069201,1.0572179,1.2566038,1.9733265,1.7992334,4.6846825,2.7748317,17.9575415,2.8669523,22.2258105-.6815747.304308-.2529937.4424619-.6831943.6980423-.9829113,1.3361335.2763428-.2393963,1.7167558-.9093653,2.1698709-4.3768068,2.9601327-17.7468826,2.8833345-22.3270443.3662802-.9596046-.5273562-2.3102622-1.5179127-1.6607696-2.6708984Z"/>
  <path class="st5" d="M63.8410494,45.2241899c.9595779.378059.9628596,1.7679021,1.0832052,2.6924926.3663094,2.8142803.359871,5.512515.787987,8.3892678.1325686.8908034-1.0026067,1.7584864.9268191,1.5018546.022072.1581604.2228968.3790828.2798011.5592718-1.6269123.5009267-2.3529855,1.5855456-4.3369116,1.4114156-2.0776134-.182353-2.0337582-1.7312419-3.2177191-2.2503232.0920148-.2030482.5451153-.2591746.5585878-.2875389.0537296-.1131197-.2222969-.3966494-.2787866-.5513688.9697631.3055511.7897988-.5215195.8394034-.5592718.0806238-.0613599,1.1357862.5790914,1.2676116.8429762.1446003.2894573-.1730354,1.3810853.1350252,1.6727992.6952865.6583922.4949596-.9749384.5991283-1.087609.1076061-.1163886.9679621.1514395.8007617-.5865948l.2764901,1.6766782.8369947.0000006.0040473-1.6779522.8351016.8360665c-.0755533-.5415183.130891-1.2715058.0079047-1.7610187-.0772238-.3073679-.7174154-.188405-.8516163-.8838343-.1951874-1.0114616.2259016-2.1495824.1781122-3.0377536-.1109711-2.0624094-.4596783-4.811537-.7319474-6.8995577Z"/>
  <path class="st11" d="M61.6026403,107.0237217c.7937722-.4521173,1.6744798-.2305983,2.5182102-.2796359,1.7401054-.1011349.7674816-1.6115901,1.2611333-1.6875499,1.6241358-.2499111.6737331.631115,1.0164232,1.0948666.1014954.1373505.4206846-.008006.5204549.0334115,1.2711104.5276744,1.5200227-.0611107,2.7980114-.2796359.3962752-.0677597,1.0556066-.2729798,1.1192045-.2796359.3380749-.0353825.9661457.3489764,1.3990057.2796359-4.3069225,2.0668581-16.2163967,2.4547826-19.8658807-.8389077.8326998.4608156,2.0630933.356314,2.7980114.5592718.1073565.029648.1123349.4074994.8394034.5592718.7801333.1628494,2.8551225.5771195,3.3576136,0,.3414531-.3921647.0653864-1.6957984.6954541-1.3955778.6539308.3115911.6044105,2.0233249,1.542955,2.2344854Z"/>
  <path class="st13" d="M85.665538,36.2758414c.450653.9189682.2119933,3.2663136-.9945893,3.3695572-1.0707956.0916247-1.4768282-1.2481601-2.1108778-1.8039294-.9168632-.8036666-2.1926625-1.1852964-3.3278644-1.5691563.5156441-.0569483,1.0973704.0035285,1.2570104.0035285h5.176321Z"/>
  <path class="st8" d="M68.5976081,100.5949166c-.3161159,1.2209936-2.0138124,4.29292-3.5937433,3.3057436-.1426915-.0891569-1.231406-2.5682053-1.7206028-2.8909046l5.3143461-.414839Z"/>
  <path class="st8" d="M62.440642,100.8732044l-1.4375119,3.0294214c-2.3107995.6532332-2.6885743-2.0678641-4.0172392-3.3055999l-1.9556366,2.5102934c-.7198727-1.2677446-2.2982837-1.87208-2.6596945-3.3526174,3.3759322.2551399,6.6628857,1.3270071,10.0700821,1.1185026Z"/>
  <path class="st7" d="M64.1208505,106.7440858c-.8437305.0490376-1.724438-.1724814-2.5182102.2796359.1098373-1.8100145-.1779669-3.0186697,1.2590249-4.468777,1.2839807,1.0853533,1.9526953,2.5300367,1.2591853,4.1891411Z"/>
  <path class="st7" d="M56.0066175,106.1848141c.0270775-.8628586-.0844859-1.7329576.0640904-2.5938035.044718-.2590948.4352909-1.4623953.9121927-1.322921l2.3813306,3.9167245c-.5024911.5771195-2.5774803.1628494-3.3576136,0Z"/>
  <path class="st7" d="M66.9188619,106.1848141c.1096084-.5454753.2600462-1.0860135.5109282-1.5868446.1413758-.282226,1.3472458-2.2386426,1.453114-2.325829.4888745-.4026068,1.0042802,1.0281074,1.0516281,1.3208844.1368913.8464707.0552751,1.516248-.2176589,2.3121533-1.2779887.2185251-1.526901.8073103-2.7980114.2796359Z"/>
  <path class="st6" d="M66.6390607,57.8078049c-.3730316-2.6730159,2.882424-1.803599,4.4741575-.9746098.2295179.4464802-1.2228239.8926357-1.5223226.9895976-.8801336.2849407-1.8676437.2966121-2.6720338.544284-.0569043-.1801889-.2577291-.4011114-.2798011-.5592718Z"/>
  <path class="st1" d="M73.6326317,99.7546014c.4005019.3688467-2.4071085,2.8871963-2.6567403,3.3486344l-1.8162592-2.3751091c-.089441-.6230223.0946412-.3278238.4198144-.4086358,1.3143416-.3266401,2.7328303-.2539259,4.0531851-.5648894Z"/>
  <path class="st6" d="M59.3642312,57.5281691c-1.3659504-.5988706-2.9391668-.1844543-4.3339944.0032338-.7750886-1.1694523,2.2108766-1.6547164,3.0752741-1.6910945,1.1635397-.0489675,1.1618068-.1828292,1.5385214.848953.0564897.1547194.3325163.4382491.2787866.5513688-.0134725.0283643-.466573.0844906-.5585878.2875389Z"/>
  <path class="st7" d="M70.8360778,105.6255423c.2870468-.6341471,1.0229399-2.2527379,1.8193527-2.2444788.0860486.0008924.3003712,1.0227756,1.3896426.5633728.5773216,1.0966016-1.033266,1.5879983-1.8099897,1.9607418-.43286.0693405-1.0609308-.3150184-1.3990057-.2796359Z"/>
  <path class="st7" d="M55.1672141,105.6255423c-.7349181-.2029578-1.9653115-.0984562-2.7980114-.5592718-.353147-.3187181-.9574906-.450535-.838027-1.1171011,1.0125355.0338379,1.7034948.2392258,2.0959665-.8393844l1.5400719,2.5157573Z"/>
  <path class="st11" d="M47.651006,36.3452663c-.7754202,2.016-4.4940327,1.7784038-5.6853055,1.7173129.1985455-.1527273,1.1317259-.4447663,1.3905902-.584676s2.6189202-.7667828,4.2947152-1.1326369Z"/>
  <polygon class="st13" points="74.7532654 102.8263515 73.3556166 102.5467021 74.0551876 101.432369 74.7532654 102.8263515"/>
  <polygon class="st11" points="52.6480633 102.5464366 51.5312776 102.8277932 51.8129841 101.4316651 52.6480633 102.5464366"/>
  <path class="st6" d="M66.9130685,44.6645051c-.5387082-.2387115-2.0068146-1.2699182-1.9513466-1.5334244.1397072-.6636926,1.8180159-.0768843,2.1243022.1236287.7285464.4769514.5564603,1.7330138-.1729556,1.4097957Z"/>
  <path class="st5" d="M58.1079719,51.3789384c1.2867547-.3607466,1.2867547,1.7534081,0,1.3926615-.5627155-.1577594-.5627155-1.2349021,0-1.3926615Z"/>
  <path class="st5" d="M57.4042147,49.9794367c.4950012,2.2408127-2.4601647,1.0354671-1.1239636.132359.3343407-.2259733.7565163-.1261243,1.1239636-.132359Z"/>
  <path class="st5" d="M69.5798187,48.5825793c.9516256-.2561029,1.2849403.9162903.5539102,1.1130262-.9516256.2561029-1.2849403-.9162903-.5539102-1.1130262Z"/>
  <path class="st5" d="M57.1243886,52.4961428c.4605755.4593546-.7143617,1.7727704-1.1149613.6948321-.3582971-.9641104.994501-.814973,1.1149613-.6948321Z"/>
  <path class="st5" d="M59.3344103,48.8877926c.0482114.0296476.4051465,1.0008832.0028051,1.401451,0,0-.8518568.5573555-1.1164131.0000585s.3058409-1.8982462,1.113608-1.4015094Z"/>
  <path class="st5" d="M69.1558437,46.9005789c-.5403954.5400762-1.7283848-.8881837-.693903-1.1156843.5890219-.1295362.8973964.9123111.693903,1.1156843Z"/>
  <path class="st5" d="M67.4770369,47.1802147c-.5403954.5400762-1.7283848-.8881837-.693903-1.1156843.5890219-.1295362.8973964.9123111.693903,1.1156843Z"/>
  <path class="st9" d="M51.7364073,77.145481c2.900397-.5235595,3.5367043,4.4923649.4776127,4.7029145-3.0902894.2126968-2.9914747-4.2491296-.4776127-4.7029145ZM52.8579016,78.5721744c-1.34498-1.3420136-2.7892972,1.2956537-1.3301743,2.0314481,1.3863264.6990852,2.1104312-1.2529121,1.3301743-2.0314481Z"/>
  <path class="st4" d="M63.4667068,62.8884341c2.8551706-.9820345,2.7095743,2.9750823.524423,2.7556877-1.3809074-.1386465-1.6897144-2.3548863-.524423-2.7556877ZM63.5626882,64.7972631c.4116468.048626,1.2527583.0438414,1.3945282-.4211691.3880713-1.2728875-1.8569619-1.424801-1.3945282.4211691Z"/>
  <path class="st4" d="M60.6687641,61.4828762c2.021804-.6787301,2.1547942,2.5021441.013813,1.8663248-1.0171008-.3020542-.7862202-1.6070237-.013813-1.8663248ZM61.6012196,62.0037631c-.4437915-.4435294-1.2803536.3925387-.8365621.836068s1.2803536-.3925387.8365621-.836068Z"/>
  <path class="st4" d="M68.3178965,60.3233589c.6743417,2.4908411-2.6415451,1.7733697-1.558916.2601146.2793113-.3904099,1.1169024-.2468589,1.558916-.2601146ZM67.7568018,60.6055902h-.5566753v.836055h.5566753v-.836055Z"/>
  <path class="st11" d="M52.8579016,78.5721744c.7802569.778536.0561521,2.7305332-1.3301743,2.0314481-1.4591229-.7357944-.0148057-3.3734616,1.3301743-2.0314481ZM52.6476139,79.0596435c-.033694-.0459936-.7979082-.3313583-.9859203-.0087708-1.0937517,1.8766374,1.7499386,1.0516859.9859203.0087708Z"/>
  <path class="st6" d="M63.5626882,64.7972631c-.4624337-1.84597,1.7825995-1.6940565,1.3945282-.4211691-.1417699.4650104-.9828814.4697951-1.3945282.4211691Z"/>
  <path class="st5" d="M61.6012196,62.0037631c.4437915.4435294-.3927706,1.2795974-.8365621.836068s.3927706-1.2795974.8365621-.836068Z"/>
  <rect class="st6" x="67.2001265" y="60.6055902" width=".5566753" height=".836055"/>
  <path class="st12" d="M52.6476139,79.0596435c.7640183,1.0429151-2.079672,1.8678666-.9859203-.0087708.1880121-.3225875.9522264-.0372228.9859203.0087708Z"/>
</svg>