<svg xmlns="http://www.w3.org/2000/svg" id="Layer_1" version="1.1" viewBox="0 0 196 196"><defs><style>.st2{fill:#dbdbd2}.st4{fill:#dededc}.st7{fill:#ecede7}.st11{fill:#b8b6b2}</style></defs><path d="M124.961 50.206c.357.552.389 1.159.448 1.792.208 2.27-.088 4.839 0 7.168.011.298-.016.599 0 .896.07 1.44.187 1.87.448 3.136.102.5-.173 1.196.045 1.738.307.344 2.521.325 3.091.502 3.446 1.08 10.434 2.973 13.312 4.383 3.47 1.696 3.344 5.477 3.709 8.835.606 5.561.688 11.241 1.344 16.8 16.128.472 22.069 13.733 21.507 28.222-.1 2.597-.342 4.624-.896 7.168-.845 3.872-2.608 8.423-4.928 11.648-.805 1.117-4.393 5.087-5.376 5.824-1.785 1.341-9.014 4.184-11.2 4.48-1.65.224-3.673-.16-5.38-.003-.332.335.276 7.936.004 9.411-.867 4.688-8.411 9.2-12.544 10.752-2.048.768-4.987 1.277-7.168 1.792-16.328 3.858-46.886 4.264-61.338-5.192-9.326-6.1-5.872-15.193-5.844-24.582.016-5.715-.51-11.291-.439-16.992-4.029-2.245-10.448-1.571-10.613-7.584l5.884-43.312c2.42-5.142 6.864-.606 9.812-.904 2.202-.22 6.021-3.589 8.724-3.629.652-.752-.285-17.056.043-19.894.118-1.016.34-1.76 1.118-2.467 1.104-1.004 15.85-5.013 18.507-5.685 8.85-2.235 10.208-2.208 19.01 0 6.307 1.584 12.552 3.664 18.72 5.696m-4.483.9-23.088-6.29c-8.302 1.478-16.435 3.855-24.402 6.51l21.388 6.836c3.254.615 18.356-4.195 22.52-5.494 1.043-.326 2.956-.662 3.582-1.561m-11.197 6.267c-4.587.71-9.02 3.067-13.656 3.136L69.86 52.894c.201 1.402-.648 3.573.744 4.405l24.672 7.584c1.438.309 3.12-.187 4.496.4.441.19 1.446 2 1.446 2.17v28l8.064-.448zm2.24-.896v38.08l6.746-1.172.001-32.176c.506-3.616 2.824-2.544 4.635-3.785.525-.36.354-4.072.036-4.09zM98.977 95.453V67.9L69.86 59.613c.08 1.22-.456 2.816.709 3.545l23.51 7.848c.281.237 1.315 1.639 1.315 1.823v22.624zm24.192-35.84c-1.291.096-3.136 1.056-3.136 2.464v31.136c.456-.216 3.136-.29 3.136-.448zm-30.016 35.84V73.277c0-1.23-20.81-6.828-23.294-7.839-.515.581.373 8.573.4 10.03.064 3.079-2.23 5.329 2.947 5.658.608-.054-.18-3.97 2.361-4.416 1.057-.184 6.727 1.714 7.713 2.408 2.64 1.866 1.223 4.199 1.88 6.184.257.781 2.367 1.333 2.863 2.96 1.32 4.312-2.601 8.264 5.13 7.19m47.936.449c1.178-.133 3.935.635 4.047-1.117l-2.144-21.17c-.458-1.07-1.277-1.357-2.228-1.806-4.366-2.066-10.656-3.14-15.355-4.58v16.353c0 .441 1.14.947 1.82.476.76-.528 2.124-6.828 3.004-8.195 2.013-3.125 5.594-.838 7.5 1.216 1.66 1.792 3.356 4.461 3.356 6.95zM68.062 74.848c-.3-.317-3.287 1.003-3.882 1.265-.667.293-2.147.748-2.384 1.415 2.087.571 4.032 1.86 6.266 1.798zm12.04 59.074c.297-.19 1.189-5.976 1.34-6.948 1.59-10.292 3.876-23.363 4.537-33.54.078-1.208.227-3.677-.226-4.692-.57-1.273-7.574-3.4-9.392-4.048-5.925-2.112-16.441-6.368-22.166-7.41-3.023-.553-3.055.606-3.544 3.22-2.36 12.563-2.451 26.291-4.987 38.931-.944 3.994 6.062 5.36 9.168 6.5 6.262 2.297 16.513 6.555 22.617 7.843.669.14 2.144.464 2.651.144m45.31-42.053c5.391-1.768 18.297-6.306 10.066-12.981-.75-.608-2.808-2.363-3.568-1.35-1.856 2.486-1.408 11.121-6.499 8.96zm-42.566-7.615c.996-4.3-4.155-4.56-7.164-4.928-1.057 4.053 4.284 4.304 7.164 4.928m-26.428 44.8v32.48c0 3.568 7.716 7.474 10.632 8.63 16.163 6.417 49.417 6.724 64.867-1.675 1.84-1 6.484-4.262 6.484-6.507V88.286c-14.683 9.936-33.446 9.538-50.56 9.47l-5.11 35.882c-.528 1.733-1.285 2.976-3.25 3.06zm84.672-30.464v6.72c18.566-6.54 22.55 15.235 16.96 28.384-3.07 7.216-9.053 10.986-16.964 10.589v5.829c32.474 3.12 35.568-59.44.004-51.522m4.924 8.064c-2.896.11-5.627 1.056-4.928 4.482 4.541.241 5.437.454 4.928-4.483m-4.924 34.944c13.835 1.508 18.384-13.57 16.45-24.74-.89-5.144-3.551-9.875-9.28-10.206.655 6.01-1.377 7.402-7.17 6.72z" style="fill:#181918"/><path d="M125.41 60.062c1.388-.513 1.186 2.316.447 3.136-.26-1.267-.378-1.696-.448-3.136m-68.992 68.992 23.063 7.644c1.964-.084 2.72-1.327 3.247-3.06l5.113-35.881c17.115.067 35.878.464 50.56-9.472v73.696c0 2.246-4.644 5.509-6.484 6.509-15.45 8.4-48.704 8.09-64.867 1.675-2.915-1.157-10.632-5.061-10.632-8.63z" style="fill:#f6f6f0"/><path d="M80.102 133.923c-.507.32-1.984-.005-2.653-.144-6.104-1.29-16.355-5.547-22.616-7.845-3.107-1.139-10.113-2.505-9.17-6.499 2.537-12.64 2.628-26.368 4.988-38.931.49-2.615.521-3.773 3.545-3.22 5.724 1.044 16.24 5.298 22.165 7.41 1.82.648 8.822 2.775 9.392 4.048.453 1.015.304 3.483.226 4.691-.661 10.178-2.948 23.248-4.538 33.541-.15.971-1.04 6.759-1.34 6.947M65.264 86.155c-.69-.737-5.659-2.39-6.832-2.39-6.761.005-2.524 9.862-2.944 13.66-.526 4.753-6.067 14.052-5.61 18.194.217 1.971 1.394 3.578 3.09 4.563 2.24 1.3 17.853 6.781 20.295 7.05 5.67.624 4.79-4.765 4.677-8.727-.128-4.543-1.477-9.833-.925-14.327.382-3.114 3.9-6.295 3.51-9.727-.349-3.088-3.657-5.211-6.523-5.616-4.771-.677-2.594 2.84-2.802 3.03-.25.228-4.15-.76-4.38-.99-.424-.42-.807-3.92-1.556-4.72M141.09 98.59c35.567-7.92 32.47 54.642-.003 51.522v-5.829c7.91.397 13.894-3.373 16.963-10.589 5.59-13.148 1.607-34.924-16.96-28.384z" style="fill:#f1f1ec"/><path d="M109.281 57.374v37.632l-8.064.448v-28c0-.168-1.005-1.98-1.445-2.168-1.376-.589-3.059-.093-4.497-.401L70.603 57.3c-1.392-.832-.543-3.004-.744-4.405l25.766 7.613c4.635-.068 9.069-2.426 13.656-3.136z" style="fill:#f5f6ef"/><path d="M93.153 95.454c-7.731 1.072-3.81-2.878-5.13-7.192-.495-1.625-2.606-2.177-2.863-2.96-.657-1.984.76-4.316-1.882-6.182-.984-.694-6.655-2.592-7.71-2.408-2.541.446-1.754 4.362-2.362 4.416-5.176-.331-2.885-2.58-2.946-5.658-.029-1.456-.917-9.45-.4-10.03 2.483 1.011 23.293 6.608 23.293 7.838z" class="st7"/><path d="M120.478 51.107c-.626.9-2.54 1.235-3.584 1.562-4.16 1.299-19.264 6.109-22.519 5.494l-21.387-6.837c7.967-2.652 16.1-5.032 24.402-6.512zM96.52 46.176c-1.172.614-.874 3.393.435 3.131 1.17-.613.873-3.392-.436-3.131m1.11 4.48c-.991-1.01-2.405 1.536-1.786 2.686l1.787.002c-.082-.56.14-2.546 0-2.688m0 4.477h-1.787c-.741 3.924 2.53 3.924 1.787 0m13.891 1.345 11.418-3.142c.318.016.49 3.73-.035 4.09-1.812 1.24-4.128.167-4.636 3.787v32.174l-6.747 1.171z" style="fill:#f2f2ec"/><path d="M141.09 95.902V84.03c0-2.49-1.697-5.158-3.356-6.949-1.907-2.057-5.488-4.342-7.5-1.219-.88 1.367-2.246 7.67-3.006 8.195-.68.472-1.819-.035-1.819-.475V67.23c4.7 1.44 10.989 2.512 15.355 4.58.95.45 1.77.735 2.228 1.806l2.144 21.17c-.112 1.751-2.87.983-4.048 1.116zm-42.113-.448h-3.584V72.83c0-.184-1.034-1.585-1.315-1.822L70.569 63.16c-1.165-.73-.63-2.325-.709-3.547L98.98 67.9z" class="st7"/><path d="M123.17 59.614v33.152c0 .159-2.68.232-3.137.448V62.078c0-1.408 1.845-2.368 3.136-2.464" class="st2"/><path d="M125.41 91.869v-5.373c5.092 2.163 4.642-6.472 6.502-8.958.758-1.013 2.816.742 3.568 1.35 8.228 6.675-4.677 11.213-10.07 12.98" class="st11"/><path d="M82.846 84.254c-2.88-.624-8.22-.873-7.165-4.928 3.01.368 8.16.628 7.165 4.928" class="st4"/><path d="M146.014 106.653c.509 4.937-.387 4.724-4.928 4.483-.7-3.427 2.032-4.371 4.928-4.483" class="st2"/><path d="M68.062 74.848v4.48c-2.232.06-4.18-1.229-6.266-1.8.237-.667 1.719-1.12 2.384-1.415.595-.262 3.581-1.582 3.882-1.265" class="st11"/><path d="M65.263 86.157c.748.8 1.132 4.297 1.556 4.72.23.23 4.13 1.217 4.38.99.208-.19-1.97-3.707 2.8-3.03 2.868.404 6.176 2.528 6.525 5.616.39 3.432-3.128 6.612-3.51 9.728-.552 4.492.797 9.78.925 14.326.112 3.96.992 9.35-4.677 8.726-2.442-.268-18.056-5.75-20.295-7.05-1.696-.985-2.873-2.593-3.09-4.56-.457-4.145 5.084-13.442 5.609-18.196.42-3.798-3.818-13.656 2.944-13.66 1.174 0 6.142 1.652 6.832 2.39zm-1.232 3.472c.597-2.866-3.76-3.12-5.82-3.581l2.55 2.152zm13.445 6.275c-4.256-.317-8.32-1.84-12.33-3.13l-8.28-4.038c-.4.457.951 6.485.932 7.833-.03 2.146-1.175 4.279-1.386 6.273-.536 5.096.36 11.11.06 16.304l17.612 5.888c2.14-.282 1.68-3.47 1.613-5.184-.189-4.88-1.497-11.415-.923-16.119.31-2.54 2.885-5.1 2.7-7.827zm.445-2.246c-.947-1.757-3.003-2.577-4.926-2.682-.773 2.707 3.02 2.48 4.926 2.681m-23.744 24.197v-8.96l-1.549 3.602c-.876 1.76-1.05 5.593 1.55 5.358" style="fill:#171816"/><path d="M96.52 46.176c1.308-.26 1.604 2.518.435 3.131-1.31.262-1.607-2.517-.436-3.131m1.11 8.957c.743 3.924-2.527 3.924-1.786 0zm0-4.477c.14.142-.08 2.128 0 2.688l-1.786-.003c-.62-1.147.797-3.696 1.787-2.685" style="fill:#373633"/><path d="M77.476 95.904c.183 2.726-2.392 5.286-2.702 7.827-.575 4.704.736 11.239.925 16.12.065 1.714.525 4.9-1.615 5.184l-17.61-5.888c.3-5.195-.596-11.21-.06-16.304.211-1.995 1.355-4.128 1.386-6.272.019-1.35-1.333-7.378-.932-7.835l8.279 4.038c4.013 1.29 8.073 2.813 12.33 3.13" class="st4"/><path d="M54.177 117.854c-2.598.235-2.425-3.598-1.549-5.358l1.55-3.602z" class="st2"/><path d="m64.03 89.629-3.269-1.43-2.55-2.151c2.06.462 6.417.715 5.819 3.58m13.891 4.03c-1.904-.204-5.7.027-4.926-2.682 1.923.104 3.979.925 4.926 2.681" class="st11"/><path d="M97.535 12.83c-.487 2.37-1.947 4.098-1.71 6.74.342 3.816 4.273 6.775 4.275 11.04.003 1.968-1.296 6.413-3.9 6.374-.053-1.447 1.066-2.23 1.303-3.72 1.061-6.648-4.44-8.91-4.034-14.724.132-1.92 1.738-5.7 4.066-5.712m8.729 6.713c-3.13 6.845 4.905 10.887.81 17.244-3.7 5.75-.799-3.684-.938-4.685-.477-3.449-7.303-9.955.13-12.559" style="fill:#3a3835"/><path d="M88.806 20.213c.225 1.286-.984 2.026-1.21 3.16-.943 4.693 8.242 12.118-.127 15.625.442-2.222 1.627-3.1 1.32-5.64-.444-3.696-7.84-9.955.017-13.145" style="fill:#403e3c"/></svg>