<?xml version="1.0" encoding="UTF-8"?>
<svg id="Layer_1" xmlns="http://www.w3.org/2000/svg" version="1.1" viewBox="0 0 128 128">
  <!-- Generator: Adobe Illustrator 29.0.0, SVG Export Plug-In . SVG Version: 2.1.0 Build 186)  -->
  <defs>
    <style>
      .st0 {
        fill: #dededc;
      }

      .st1 {
        fill: #5f4028;
      }

      .st2 {
        fill: #262524;
      }

      .st3 {
        fill: #b09170;
      }

      .st4 {
        fill: #9e7646;
      }

      .st5 {
        fill: #eae9e5;
      }

      .st6 {
        fill: #2c2a29;
      }

      .st7 {
        fill: #f3f4ef;
      }

      .st8 {
        fill: #cbcecb;
      }

      .st9 {
        fill: #33312f;
      }

      .st10 {
        fill: #7d7d6c;
      }

      .st11 {
        fill: #f0efeb;
      }
    </style>
  </defs>
  <path class="st6" d="M89.9807435,50.9079196v6.1519896c0,.0631418.8036372.0937968,1.2252628.3086416,5.3592963,2.7308993,5.0968129,11.0060474,6.4014227,16.2576817.4873374,1.9617497,3.617287,7.1143147-.2266378,7.7448553-4.6673686.7656147-3.5442188-4.3962178-4.1135017-7.6018173-.3526035-1.9854905-1.8064075-10.3470921-2.4896134-11.4935852-.1710552-.2870491-.4571009-.6623157-.7969326-.7416017v26.1459558c0,1.682253,4.9304529,9.4133892,5.2917267,12.0488237.267613,1.9521937.3078269,8.9701917.0085482,10.8653822-.2178553,1.3795751-1.3427048,2.0082948-2.6288824,2.1264803-1.6126366.1481835-7.542087.2422696-8.9065855-.073571-1.6569549-.3835355-.8754563-2.4164103-2.5655951-2.4693661-10.9521576.7296095-23.067865-.926378-33.8808252.0015606-2.5988405.2230254-1.3466019,2.0714083-3.1257948,2.4682008-1.4298569.3188842-7.2442458.2239649-8.906996.0731758-1.1495596-.1042496-2.3085378-.6562476-2.5857413-1.8899601-.3308698-1.4725579-.2640639-9.4279551-.0345929-11.1019024.3662779-2.6719266,5.2917267-10.3696299,5.2917267-12.0488237v-36.7721196c-2.9238232.3008913-5.3916023-.249045-6.3718615-3.2793398.4956726-6.4784674-.8933646-14.5983046-.0388639-20.8844786.3055696-2.2479369,2.5111891-3.5123336,4.1969749-4.7538523,2.037673-1.5006706,4.8745027-3.6233772,7.3782948-3.8114983,13.535385-1.0169739,28.3251237.7945869,41.993255.0004686,1.3975409.0051284,2.4605105.7693972,3.5744255,1.4611316,1.7730298,1.1010406,6.3677615,4.3161006,6.9724065,6.1745981.4558031,7.3018393.1546477,14.747246.1554602,22.0980849-.971847,2.4295866-3.309644,3.3337652-5.8170802,2.9948858ZM91.099948,23.2239664c-1.4880451-1.0633214-3.9336048-3.4234657-5.7296544-3.6415318l-43.5232411.1381924c-1.7376132.9276053-3.6401879,2.0787253-5.028525,3.5033394h54.2814205ZM35.0659931,24.6882797c-1.6707945.226713-2.3812389,1.9259578-2.4157583,3.4597736-.0734647,3.2642905.2723116,6.7844102.256982,10.0507944-.0113191,2.4118487-.5040245,5.4654227-.2820092,7.8127354.1500697,1.5866495.5969444,2.8533866,2.2265867,3.3664595l57.2338041.1380402c1.3088269-.0610529,2.0663365-1.1311754,2.5202342-2.2350644-.261244-6.1138613.8025775-13.4646469.1323597-19.443889-.2300654-2.0524923-1.3158727-3.3350962-3.486626-3.2266946l-56.1855733.0778448ZM58.9228173,66.5675295c-1.8406372,1.5513608-7.5559231,7.0941302-9.4367065,7.4864127-4.2488615.886202-7.9409417-2.9764671-6.2932161-7.1278853.7261504-1.8295242,3.8759077-3.481344,5.5736437-4.4966365.7965233-.4763426,5.7344086-2.8929771,5.9136744-3.1766225.2926952-.4631205-.126749-2.9314683.0627728-3.7001465-2.9461116-.5842848-2.6428219-2.0412936-2.5353956-4.6447318h-12.8708523v36.0730299h14.8294602c-.46596-1.7911423-.912406-3.6073774-1.1155093-5.4565926-.1345563-1.2251083-.3055142-3.5333813-.3079404-4.7485073-.007048-3.5298909,3.6332577-4.0867051,6.4598701-4.3359664-.0028321.3727745.0051275.7458308,0,1.1185436-5.1603051.8591244-6.9857599,2.1304699-.5596023,3.3556307.7526443.1434933,1.1628962.191515,1.958608.2796359,2.5748233.2851482,4.1400515.2716383,6.7152273,0,.6358756-.0670743.9647298-.208864,1.3990057-.2796359.9100109-.1483001,5.0417325-.449222,5.0393893-1.8148126-1.5187177-.8889547-3.2730544-1.3941545-5.0393893-1.5408181.0023577-.3721359-.0136752-.7470233,0-1.1185436,3.1317452.0926612,7.4179695.98029,6.4369585,5.0321139,6.4471238-1.3708323,7.565794,5.8611173,3.3560813,9.5089524h10.0728409v-26.2857737c-2.6590638-.8072772-5.696786-1.1819341-7.3967806-3.6532055-.199768-.2904015-.9972535-1.8928494-.9972535-2.0793303v-4.0547204h-4.4768182c-.0823194,1.2688187.4100304,3.2440559-.8536296,4.0392969-.4342441.2732766-1.5811605.397676-1.6367383.4620012-.4455133.5156323.8801396,3.022822-1.2878566,4.7251553-.4373409.3434047-1.7195866.8009273-1.7722411.8847764-.4013295.6390931.6224269,3.9474717-1.1647617,4.4298365-.2088751.0563757-1.7506376.0564592-1.958608,0-.6880867-.1867998-1.0828812-1.6361278-1.3045396-1.6904479-.336994-.0825845-3.5011424-.02739-3.6738326.0734755-.102213.059701-.8801016,1.4430586-1.1772528,1.6169724-.8133796.4760471-.8175664.1568292-1.958608,1.1185436ZM74.3118798,50.9079196h-20.7052841c.1123697.7644464-.1911057,1.9381188.0384643,2.6181082.2562929.759143,4.781066,1.2513576,5.6857436,1.3085028,2.2622506.1428982,13.3413511.1664087,14.7051941-.9865389.5797747-.4901223.1552417-2.1820602.2758822-2.9400721ZM82.9872291,50.9064745l-1.6818262-.0000011c-.0142619,1.4587223-.0635625,3.078166.4234121,4.4734163,1.5179112,4.3490275,8.9086957,2.6631198,10.5042081,6.8395203.2397598.6275933.4475187,2.8361996.5564682,2.9387043.2887947.2717113,1.7071355.1617917,1.6577838-.9308584-.1474225-3.2639444-2.7213005-5.4699432-5.597122-6.4568779-4.2740054-1.4667684-6.5634695-.8543402-5.862924-6.8639035ZM88.5817378,50.9079196h-4.4768182c-.5091672,3.9333883.836106,4.9620102,4.4768182,5.5927178v-5.5927178ZM71.7921434,55.662955c-5.1648272.8323027-10.3785729.7024527-15.5468725.0129202-.9650698-.1287555.050262,1.9765393-.1188845,2.5026772,3.1680862-.9929243,6.0367606-3.127111,8.0857615.7303547.1741177.3277953.2850321,1.1485161.3375903,1.1946336.4023961.3530843,4.7381167-.0947212,5.5575041-.3947066,2.3128355-.8467507,1.6286338-1.8995475,1.6849011-4.045879ZM63.115726,60.9737982c.6928889-1.7421999-.6114277-3.3989066-2.5127637-3.0720717l.8442367.6888328,1.6685269,2.3832388ZM52.7699399,69.9231335c2.1672341-1.7270489,4.7115293-3.5675722,6.7164392-5.4489162.3657501-.3432084,1.6740947-1.5329149,1.8082267-1.8259186.9199244-2.0095233-1.2511688-4.771323-3.5049916-3.7827593l-9.2181137,5.3264287c2.5731719.7041543,4.4211779,2.9981208,4.1984395,5.7311653ZM62.8400333,62.652627h4.197017c.1025259,0-.0179013,1.6345066.978801,1.5664902,1.4396967-.0982471.908435-2.0031254.9808849-2.9657603-1.8897674.3788822-5.1563879-.4486603-6.1567029,1.3992701ZM50.1512353,66.3862687c-3.6761156-3.4633803-8.5037115,2.2016088-4.80149,5.4970294,3.9735396,3.5369262,8.385651-2.1202824,4.80149-5.4970294ZM95.0161029,66.0069604l-1.9465379.2930737c-.2942767.3387234,1.4572556,6.8903684,1.6397255,7.9855381.251677,1.5105443-.3009655,6.307016,2.0639036,5.9386665,2.1443892-.3340078.7654527-3.2240372.3428085-4.7086912-.1065247-.3741972-.5235077-.6714782-.6236644-1.0545188-.6841222-2.6163661-1.0636974-5.7575034-1.4762354-8.4540683ZM59.2026185,78.5918728l-5.0348976-1.6764606c-.1038672,4.1855857.9768935,13.633016,4.6137043,16.2190176,1.9928718,1.4170574,8.4506971,1.4449151,10.4805728.1248739,3.5293984-2.2951905,4.8528555-12.3354704,4.7685587-16.3438906l-5.3146996,1.6764597c-.4639049.0206318-.9362086-.0301259-1.3990057,0-1.9273055.1254587-4.5003799.1097277-6.4354261,0-.5560844-.031533-1.1217595.0217233-1.6788068,0ZM73.472574,88.0967492c3.3655099-.462378,7.8757296-4.6219027,5.8381256-8.209323-.7441507-1.3101571-3.7414076-1.9193722-4.1573668-.8740273-.4738859,1.1909199.9502695.3219397,1.7888846.4199628,3.6113902.4221244,1.4660822,5.1094668-.9111587,6.609297-1.1057253.6976155-2.3818997.5187274-2.5584847,2.0540905ZM74.3128372,85.3012193c1.5927143.2199039,4.8316384-3.6002144,2.796262-4.6211093-2.4484825-1.2280988-2.3779582,3.2935336-2.796262,4.6211093ZM34.3003173,99.2849287h59.3178409l-4.745022-10.7775722-12.1896144-.1348907-2.9312443,1.1252068h12.4511506c.2961386,0,.5327495.7936542.4197017,1.1185436h-13.8501562c-.1358669,0-.6268269.8806502-.6995028,1.1185436h15.3890625c.0559602,0,.0559602,1.1185436,0,1.1185436h-16.0885653c-.0743582,0-.9140151.8647894-.979304,1.1185436h17.7673722c.2984129,0,.5354167.8050126.4183412,1.1171244-6.9476966.0246388-13.9040094-.0230243-20.8553638-.0101137-2.4827743.0046112-5.0445476.0046191-7.5315513,0-6.9513544-.0129107-13.9076672.0347526-20.8553638.0101137-.1170755-.3121117.1199282-1.1171244.4183412-1.1171244h18.0471733c-.0652889-.2537542-.9049458-1.1185436-.979304-1.1185436h-16.2284659c-.4824218,0-.4818741-1.1185436,0-1.1185436h15.5289631c-.0726759-.2378933-.563636-1.1185436-.6995028-1.1185436h-14.1299574c-.1130478-.3248893.1235631-1.1185436.4197017-1.1185436h13.290554l-.4707594-1.1292603-15.3005522.0481473-4.9339725,10.8683692ZM93.8979594,100.6831081h-59.8774432v9.9270741c0,.0484043.4315876.493252.5638317.5550449.4781453.2234199,7.9841491.2962678,8.8034827.1380248,1.1445903-.2210619,1.1306209-2.074842,2.5936387-2.4413391l35.4716819-.0757025c2.2142462.2588408,2.0434612,2.3304335,3.0703026,2.5242285.815808.1539669,8.3414031.0740614,8.8106738-.1452116.1322441-.0617928.5638317-.5066406.5638317-.5550449v-9.9270741Z"/>
  <path class="st7" d="M35.0659931,24.6882797l56.1855733-.0778448c2.1707533-.1084016,3.2565605,1.1742022,3.486626,3.2266946.6702178,5.9792421-.3936037,13.3300276-.1323597,19.443889-.4538977,1.103889-1.2114073,2.1740115-2.5202342,2.2350644l-57.2338041-.1380402c-1.6296423-.5130729-2.076517-1.77981-2.2265867-3.3664595-.2220153-2.3473127.2706901-5.4008867.2820092-7.8127354.0153296-3.2663842-.3304467-6.7865039-.256982-10.0507944.0345194-1.5338158.7449638-3.2330606,2.4157583-3.4597736ZM62.2130954,28.8900866c-10.2399307,1.4774604-8.3311731,17.1937101,2.1368151,16.1141011,10.684395-1.1019279,8.8664209-17.7016944-2.1368151-16.1141011ZM39.1968372,29.6555919c-.1250076.1874548-.6995028.6086031-.6995028.6990897v5.033446c0,.0494331.6500405.6990897.6995028.6990897h5.3162216c.0494623,0,.6995028-.6496566.6995028-.6990897v-5.033446c0-.0494331-.6500405-.6990897-.6995028-.6990897h-5.3162216ZM81.5137144,30.840955c-6.3784862,1.1957164-6.1264377,11.3568781.2786194,12.4493816,9.9857695,1.7032617,10.0438224-14.3844352-.2786194-12.4493816ZM47.9372007,31.1028206c-2.0965458.4327666-1.6885196,4.079246.9861454,3.5372336,2.2552069-.4570106,1.5908484-4.0691737-.9861454-3.5372336ZM39.1968372,37.7650327c-.1250076.1874548-.6995028.6086031-.6995028.6990897v5.033446c0,.0494331.6500405.6990897.6995028.6990897h5.3162216c.0494623,0,.6995028-.6496566.6995028-.6990897v-5.033446c0-.0494331-.6500405-.6990897-.6995028-.6990897h-5.3162216ZM47.6446177,39.2181644c-2.0005144.612904-.8217374,4.5588948,1.6989367,3.3723993,1.7372749-.8177451.9489637-4.183645-1.6989367-3.3723993Z"/>
  <path class="st7" d="M93.8979594,100.6831081v9.9270741c0,.0484042-.4315876.493252-.5638317.5550449-.4692707.219273-7.9948658.2991785-8.8106738.1452116-1.0268414-.193795-.8560564-2.2653877-3.0703026-2.5242285l-35.4716819.0757025c-1.4630178.3664971-1.4490484,2.2202772-2.5936387,2.4413391-.8193337.158243-8.3253375.0853951-8.8034827-.1380248-.1322441-.0617929-.5638317-.5066406-.5638317-.5550449v-9.9270741h59.8774432Z"/>
  <path class="st7" d="M68.9956583,65.4489859c1.7871885-.4823648.7634322-3.7907434,1.1647617-4.4298365.0526545-.0838491,1.3349002-.5413717,1.7722411-.8847764,2.1679963-1.7023333.8423433-4.209523,1.2878566-4.7251553.0555779-.0643252,1.2024942-.1887246,1.6367383-.4620012,1.2636599-.7952409.7713101-2.7704782.8536296-4.0392969h4.4768182v4.0547204c0,.1864809.7974855,1.7889287.9972535,2.0793303,1.6999946,2.4712714,4.7377168,2.8459283,7.3967806,3.6532055v26.2857737h-10.0728409c4.2097127-3.6478351,3.0910425-10.8797847-3.3560813-9.5089524.981011-4.051824-3.3052133-4.9394527-6.4369585-5.0321139.085738-2.3292917.4364113-4.6468268.2798011-6.9908973Z"/>
  <path class="st7" d="M59.2026185,72.4398832c-2.8266124.2492614-6.4669181.8060755-6.4598701,4.3359664.0024262,1.215126.1733841,3.523399.3079404,4.7485073.2031033,1.8492152.6495493,3.6654503,1.1155093,5.4565926h-14.8294602v-36.0730299h12.8708523c-.1074264,2.6034382-.4107161,4.060447,2.5353956,4.6447318-.1895218.7686782.2299224,3.237026-.0627728,3.7001465-.1792657.2836454-5.1171511,2.7002799-5.9136744,3.1766225-1.6977361,1.0152924-4.8474934,2.6671123-5.5736437,4.4966365-1.6477256,4.1514183,2.0443546,8.0140874,6.2932161,7.1278853,1.8807834-.3922825,7.5960693-5.9350519,9.4367065-7.4864127.5044133,1.7778217.2940652,3.9948338.2798011,5.8723537Z"/>
  <path class="st5" d="M34.3003173,99.2849287l4.9339725-10.8683692,15.3005522-.0481473.4707594,1.1292603h-13.290554c-.2961386,0-.5327495.7936542-.4197017,1.1185436h14.1299574c.1358669,0,.6268269.8806502.6995028,1.1185436h-15.5289631c-.4818741,0-.4824218,1.1185436,0,1.1185436h16.2284659c.0743582,0,.9140151.8647894.979304,1.1185436h-18.0471733c-.2984129,0-.5354167.8050126-.4183412,1.1171244,6.9476966.0246389,13.9040094-.0230244,20.8553638-.0101137,2.4870037.0046191,5.048777.0046112,7.5315513,0,6.9513544-.0129106,13.9076672.0347525,20.8553638.0101137.1170755-.3121117-.1199282-1.1171244-.4183412-1.1171244h-17.7673722c.0652889-.2537542.9049458-1.1185436.979304-1.1185436h16.0885653c.0559602,0,.0559602-1.1185436,0-1.1185436h-15.3890625c.0726759-.2378933.563636-1.1185436.6995028-1.1185436h13.8501562c.1130478-.3248893-.1235631-1.1185436-.4197017-1.1185436h-12.4511506l2.9312443-1.1252068,12.1896144.1348907,4.745022,10.7775722h-59.3178409ZM38.4973344,97.3274775h50.7839062c.1492674,0,.5781144-.6115567.418394-.8360093-.0671314-.0943388-1.2364582-.2754419-1.5247793-.2960389-15.7500218-1.1251482-32.8231185.8819947-48.7125742-.0008432-.7998595-.015491-1.0872378.3527314-.9649468,1.1328914Z"/>
  <path class="st7" d="M91.099948,23.2239664h-54.2814205c1.3883371-1.4246141,3.2909118-2.5757341,5.028525-3.5033394l43.5232411-.1381924c1.7960496.2180661,4.2416093,2.5782103,5.7296544,3.6415318Z"/>
  <path class="st11" d="M74.3118798,50.9079196c-.1206405.7580119.3038925,2.4499498-.2758822,2.9400721-1.3638429,1.1529476-12.4429435,1.1294371-14.7051941.9865389-.9046776-.0571452-5.4294507-.5493598-5.6857436-1.3085028-.22957-.6799894.0739055-1.8536618-.0384643-2.6181082h20.7052841Z"/>
  <path class="st10" d="M52.7699399,69.9231335c.2227385-2.7330446-1.6252676-5.027011-4.1984395-5.7311653l9.2181137-5.3264287c2.2538228-.9885637,4.424916,1.773236,3.5049916,3.7827593-.1341319.2930037-1.4424765,1.4827102-1.8082267,1.8259186-2.00491,1.881344-4.5492051,3.7218673-6.7164392,5.4489162Z"/>
  <path class="st0" d="M59.2026185,78.5918728c.3613431,2.6732562-.3037334,3.02032-2.7980114,3.3556307-.0127072-.078559-.2380451-.3218309-.2918473-.676451-.1370799-.9035186.5300496-2.6503161-.8258849-2.6777782-.3562234,3.3444634,1.3038989,12.7822466,4.7499397,14.1254149,1.9983281.7788912,7.6031228.6761873,9.2514775-.8312865,2.5005323-2.2868179,3.7055019-9.9455208,3.6233926-13.2970669l-.837042.0000082c.0667927,1.1268789-.1034202,2.2544333-.2809731,3.3571594-.4736214-.2121583-2.9368963-.712334-3.0415517-.8755976-.2275486-.3549784.0799126-1.9044035-.0362608-2.4800331l5.3146996-1.6764597c.0842968,4.0084202-1.2391603,14.0487001-4.7685587,16.3438906-2.0298757,1.3200412-8.487701,1.2921835-10.4805728-.1248739-3.6368108-2.5860016-4.7175715-12.0334319-4.6137043-16.2190176l5.0348976,1.6764606Z"/>
  <path class="st3" d="M60.8814253,78.5918728l-.0014332,2.238573,6.2759228.0033737.1609366-2.2419467c.4627971-.0301259.9351008.0206318,1.3990057,0,.1161734.5756296-.1912878,2.1250547.0362608,2.4800331.1046553.1632635,2.5679303.6634393,3.0415517.8755976-.087375.5426594-.1730349,1.1434578-.2798011,1.6778153-5.0539005,1.2955867-9.8683377,1.4642805-14.8294602-.2796359-.0947958-.4801953-.1976965-.8905894-.2798011-1.3981795,2.494278-.3353107,3.1593545-.6823745,2.7980114-3.3556307.5570473.0217233,1.1227224-.031533,1.6788068,0Z"/>
  <path class="st11" d="M60.8814253,65.4489859c.2971511-.1739138,1.0750398-1.5572714,1.1772528-1.6169724.1726901-.1008655,3.3368385-.15606,3.6738326-.0734755.2216585.0543201.616453,1.5036481,1.3045396,1.6904479-.0448587,2.2482638.2153293,4.4656128.2798011,6.7112614-2.2072023-.3514189-4.2264178-.3518215-6.4354261,0,.0812697-2.227494-.0593485-4.482066,0-6.7112614Z"/>
  <path class="st10" d="M50.1512353,66.3862687c3.5841609,3.376747-.8279504,9.0339556-4.80149,5.4970294-3.7022215-3.2954206,1.1253744-8.9604096,4.80149-5.4970294Z"/>
  <path class="st5" d="M71.7921434,55.662955c-.0562673,2.1463315.6279344,3.1991283-1.6849011,4.045879-.8193875.2999854-5.155108.7477909-5.5575041.3947066-.0525583-.0461175-.1634727-.8668382-.3375903-1.1946336-2.0490008-3.8574656-4.9176753-1.723279-8.0857615-.7303547.1691466-.5261379-.8461853-2.6314327.1188845-2.5026772,5.1682996.6895324,10.3820452.8193825,15.5468725-.0129202Z"/>
  <path class="st0" d="M82.9872291,50.9064745c-.7005455,6.0095634,1.5889187,5.3971351,5.862924,6.8639035,2.8758216.9869347,5.4496995,3.1929335,5.597122,6.4568779.0493517,1.0926501-1.3689891,1.2025697-1.6577838.9308584-.1089495-.1025047-.3167084-2.311111-.5564682-2.9387043-1.5955124-4.1764005-8.9862968-2.4904928-10.5042081-6.8395203-.4869747-1.3952503-.4376741-3.014694-.4234121-4.4734163l1.6818262.0000011Z"/>
  <path class="st10" d="M95.0161029,66.0069604c.4125379,2.6965649.7921131,5.8377022,1.4762354,8.4540683.1001567.3830406.5171397.6803216.6236644,1.0545188.4226442,1.4846539,1.8015807,4.3746834-.3428085,4.7086912-2.3648691.3683496-1.8122267-4.4281222-2.0639036-5.9386665-.18247-1.0951696-1.9340022-7.6468147-1.6397255-7.9855381l1.9465379-.2930737Z"/>
  <path class="st5" d="M67.3168514,73.2787908c.0023633,1.301872-.0016771,2.6130279,0,3.9149025-2.5751757.2716383-4.140404.2851482-6.7152273,0,.0472499-1.2974839-.0666006-2.619517,0-3.9149025h6.7152273Z"/>
  <path class="st11" d="M88.5817378,50.9079196v5.5927178c-3.6407122-.6307076-4.9859854-1.6593295-4.4768182-5.5927178h4.4768182Z"/>
  <path class="st4" d="M68.9956583,65.4489859c.1566102,2.3440704-.1940631,4.6616056-.2798011,6.9908973-.0136752.3715202.0023577.7464076,0,1.1185436-.007069,1.1157543.0049712,2.2398485,0,3.3556307-.4342759.0707719-.7631301.2125616-1.3990057.2796359-.0016771-1.3018746.0023633-2.6130305,0-3.9149025-.0006759-.3723298.0106784-.7465985,0-1.1185436-.0644719-2.2456486-.3246598-4.4629976-.2798011-6.7112614.2079704.0564592,1.7497329.0563757,1.958608,0Z"/>
  <path class="st4" d="M60.8814253,65.4489859c-.0593485,2.2291954.0812697,4.4837674,0,6.7112614-.0069263.1898414-.2557359.6504736-.2798011,1.1185436-.0666006,1.2953854.0472499,2.6174186,0,3.9149025-.7957118-.0881209-1.2059637-.1361426-1.958608-.2796359.1566625-.0247155.5246209.0480464.5590926.0021562.1008562-.1342642-.0073456-2.7867917.0005097-3.3577869.0051275-.3727127-.0028321-.7457691,0-1.1185436.014264-1.8775199.2246121-4.094532-.2798011-5.8723537,1.1410416-.9617143,1.1452283-.6424965,1.958608-1.1185436Z"/>
  <path class="st5" d="M67.3168514,78.5918728l-.1609366,2.2419467-6.2759228-.0033737.0014332-2.238573c1.9350462.1097277,4.5081207.1254587,6.4354261,0Z"/>
  <path class="st0" d="M73.472574,88.0967492c.1765849-1.5353631,1.4527594-1.356475,2.5584847-2.0540905,2.3772409-1.4998302,4.5225489-6.1871727.9111587-6.609297-.8386151-.0980232-2.2627704.770957-1.7888846-.4199628.4159593-1.0453448,3.4132161-.4361298,4.1573668.8740273,2.037604,3.5874203-2.4726157,7.746945-5.8381256,8.209323Z"/>
  <path class="st5" d="M68.7158571,73.5584267c1.7663349.1466637,3.5206716.6518634,5.0393893,1.5408181.0023432,1.3655905-4.1293785,1.6665124-5.0393893,1.8148126.0049712-1.1157821-.007069-2.2398764,0-3.3556307Z"/>
  <path class="st5" d="M59.2026185,73.5584267c-.0078552.5709952.1003465,3.2235227-.0005097,3.3577869-.0344717.0458902-.4024301-.0268717-.5590926-.0021562-6.4261576-1.2251608-4.6007028-2.4965063.5596023-3.3556307Z"/>
  <path class="st0" d="M74.3128372,85.3012193c.4183038-1.3275757.3477795-5.8492081,2.796262-4.6211093,2.0353763,1.0208949-1.2035478,4.8410132-2.796262,4.6211093Z"/>
  <path class="st0" d="M62.8400333,62.652627c1.000315-1.8479305,4.2669355-1.0203879,6.1567029-1.3992701-.0724499.9626349.4588119,2.8675132-.9808849,2.9657603-.9967023.0680165-.8762751-1.5664902-.978801-1.5664902h-4.197017Z"/>
  <path class="st0" d="M63.115726,60.9737982l-1.6685269-2.3832388-.8442367-.6888328c1.901336-.3268349,3.2056526,1.3298718,2.5127637,3.0720717Z"/>
  <path class="st6" d="M62.2130954,28.8900866c11.003236-1.5875933,12.8212101,15.0121732,2.1368151,16.1141011-10.4679882,1.0796089-12.3767458-14.6366408-2.1368151-16.1141011ZM69.2754594,40.5613916c2.3001289-3.7726159,1.0364233-8.1431253-3.0778125-9.7872562-.1404063-.0561092-.2959734-.3711904-.7521295-.4939667-5.9456463-1.6002942-10.851369,4.3749279-7.972451,9.9124829,2.382795,4.5832699,9.1409396,4.7339916,11.802393.3687399Z"/>
  <path class="st6" d="M81.5137144,30.840955c10.3224418-1.9350536,10.2643889,14.1526432.2786194,12.4493816-6.4050571-1.0925035-6.6571056-11.2536652-.2786194-12.4493816ZM83.2625932,31.892349c-.393612-.4149497-.5076741.0289536-.5571703.4148748-.0707424.5515779.3879363,4.5439041-.8417307,3.6430763-.6717643-.4921202.0301454-2.9409923-.4149792-3.7760717-5.7843643,2.6191158-3.8092733,10.7118121,2.7720219,9.7607071,4.8359595-.6988754,5.1440167-8.1539265.5817829-9.7607068-.5283906,1.226935.6824809,3.6080274-1.2557287,3.9115865-.0269779-.7284932.0930621-3.7957568-.284196-4.1934662Z"/>
  <path class="st2" d="M39.1968372,37.7650327h5.3162216c.0494623,0,.6995028.6496566.6995028.6990897v5.033446c0,.0494331-.6500405.6990897-.6995028.6990897h-5.3162216c-.0494623,0-.6995028-.6496566-.6995028-.6990897v-5.033446c0-.0904866.5744952-.511635.6995028-.6990897ZM44.0933571,38.8835763h-4.4768182v2.516723h4.4768182v-2.516723ZM44.0933571,42.239207h-4.4768182v.8389077h4.4768182v-.8389077Z"/>
  <path class="st2" d="M39.1968372,29.6555919h5.3162216c.0494623,0,.6995028.6496566.6995028.6990897v5.033446c0,.0494331-.6500405.6990897-.6995028.6990897h-5.3162216c-.0494623,0-.6995028-.6496566-.6995028-.6990897v-5.033446c0-.0904866.5744952-.511635.6995028-.6990897ZM44.0933571,30.7741355h-4.4768182v2.516723h4.4768182v-2.516723ZM44.0933571,34.1297661h-4.4768182v.8389077h4.4768182v-.8389077Z"/>
  <path class="st6" d="M47.9372007,31.1028206c2.5769938-.5319401,3.2413523,3.080223.9861454,3.5372336-2.674665.5420124-3.0826912-3.104467-.9861454-3.5372336ZM48.1533194,32.1750739c-.5627155.1577594-.5627155,1.2349021,0,1.3926615,1.2867547.3607466,1.2867547-1.7534081,0-1.3926615Z"/>
  <path class="st2" d="M47.6446177,39.2181644c2.6479003-.8112457,3.4362116,2.5546542,1.6989367,3.3723993-2.5206741,1.1864955-3.6994511-2.7594953-1.6989367-3.3723993ZM48.1533194,40.2845147c-.5627155.1577594-.5627155,1.2349021,0,1.3926615,1.2867547.3607466,1.2867547-1.7534081,0-1.3926615Z"/>
  <path class="st6" d="M38.4973344,97.3274775c-.122291-.7801601.1650873-1.1483824.9649468-1.1328914,15.8894556.8828379,32.9625523-1.124305,48.7125742.0008432.2883211.020597,1.4576479.2017002,1.5247793.2960389.1597203.2244526-.2691266.8360093-.418394.8360093h-50.7839062Z"/>
  <path class="st2" d="M56.4046071,81.9475035c.0821046.5075901.1850053.9179841.2798011,1.3981795.1931047.9781862.3061955,1.3474937.5596023,2.2370871.4773856,1.6758788,1.0224624,4.8610852,2.6508798,5.8795804,1.3676679.8554091,6.4586145.728194,7.9861769.1372021,1.9366131-.7492478,2.6034084-4.2322799,3.073199-6.0167825.1723491-.6546694.4246061-1.2818047.5596023-1.9574512.1067662-.5343575.1924261-1.135156.2798011-1.6778153.1775529-1.1027261.3477658-2.2302805.2809731-3.3571594l.837042-.0000082c.0821093,3.3515461-1.1228603,11.010249-3.6233926,13.2970669-1.6483547,1.5074738-7.2531494,1.6101777-9.2514775.8312865-3.4460408-1.3431683-5.1061631-10.7809516-4.7499397-14.1254149,1.3559345.0274621.688805,1.7742596.8258849,2.6777782.0538022.3546201.2791401.597892.2918473.676451Z"/>
  <path class="st4" d="M71.5138685,83.6253188c-.1349962.6756465-.3872531,1.3027819-.5596023,1.9574512-4.4190262,1.3960365-9.2693008,1.2187944-13.7102557,0-.2534068-.8895934-.3664976-1.258901-.5596023-2.2370871,4.9611226,1.7439164,9.7755597,1.5752226,14.8294602.2796359Z"/>
  <path class="st6" d="M67.3168514,72.1602473c.0106784.371945-.0006759.7462138,0,1.1185436h-6.7152273c.0240652-.4680699.2728748-.9287022.2798011-1.1185436,2.2090083-.3518215,4.2282239-.3514189,6.4354261,0Z"/>
  <path class="st5" d="M66.1976469,30.7741355c-.6619501-.0115775-.9700814-.1883928-.8394034.5592718-5.0139134-1.5211553-9.4203885,3.5392317-7.0022076,8.2564381.2340185.4565057.9129615,1.693748,1.4066053.8263104-.0891085-.8999873-.7984135-1.432738-.9948331-2.3554632-1.0014715-4.7046378,4.5335847-7.9441397,7.9894411-4.4901982h-.2798011c-1.0485558.1128833-1.5883054,1.4553285-2.3687457,1.9670162-.7465777.4894861-1.8613743.1574418-1.8560019,1.5306773.0040516,1.0356262.9603372,1.4588369,1.8046307.9480041.8420225-.5094587,1.1626999-2.8425586,2.4201169-3.60679.5277073,2.2917142-.2966817,2.8274907-.2060217,4.5501356.0642779,1.2213537.6816915.9495784.765624,1.0425822.3829954.4243888.3445536,1.7695509,1.3990057,0,.4083295.0041268.7178551.158234.8394034.5592718-2.6614534,4.3652517-9.419598,4.2145299-11.802393-.3687399-2.878918-5.537555,2.0268047-11.5127771,7.972451-9.9124829.4561561.1227762.6117232.4378575.7521295.4939667Z"/>
  <path class="st8" d="M66.1976469,30.7741355c4.1142358,1.6441309,5.3779414,6.0146403,3.0778125,9.7872562-.1215483-.4010378-.4310739-.555145-.8394034-.5592718,1.8089603-3.0357448.4118161-7.6100053-3.0778125-8.6687126-.130678-.7476646.1774533-.5708493.8394034-.5592718Z"/>
  <path class="st11" d="M83.2625932,31.892349c.3772581.3977094.2572181,3.464973.284196,4.1934662,1.9382096-.3035591.727338-2.6846515,1.2557287-3.9115865,4.5622338,1.6067803,4.2541766,9.0618314-.5817829,9.7607068-6.5812952.951105-8.5563863-7.1415913-2.7720219-9.7607071.4451246.8350794-.256785,3.2839515.4149792,3.7760717,1.229667.9008278.7709882-3.0914984.8417307-3.6430763.0494962-.3859211.1635583-.8298245.5571703-.4148748Z"/>
  <rect class="st5" x="39.6165389" y="38.8835763" width="4.4768182" height="2.516723"/>
  <rect class="st0" x="39.6165389" y="42.239207" width="4.4768182" height=".8389077"/>
  <rect class="st5" x="39.6165389" y="30.7741355" width="4.4768182" height="2.516723"/>
  <rect class="st8" x="39.6165389" y="34.1297661" width="4.4768182" height=".8389077"/>
  <path class="st8" d="M48.1533194,32.1750739c1.2867547-.3607466,1.2867547,1.7534081,0,1.3926615-.5627155-.1577594-.5627155-1.2349021,0-1.3926615Z"/>
  <path class="st8" d="M48.1533194,40.2845147c1.2867547-.3607466,1.2867547,1.7534081,0,1.3926615-.5627155-.1577594-.5627155-1.2349021,0-1.3926615Z"/>
  <path class="st1" d="M70.9542662,85.58277c-.4697906,1.7845026-1.1365859,5.2675347-3.073199,6.0167825-1.5275623.5909919-6.618509.718207-7.9861769-.1372021-1.6284175-1.0184952-2.1734943-4.2037016-2.6508798-5.8795804,4.4409549,1.2187944,9.2912295,1.3960365,13.7102557,0Z"/>
  <path class="st6" d="M65.3582435,31.3334072c3.4896286,1.0587074,4.8867728,5.6329678,3.0778125,8.6687126-1.0544521,1.7695509-1.0160103.4243888-1.3990057,0,1.7324018-2.0244501,1.5722268-4.5806237-.2798011-6.4316255-3.4558564-3.4539415-8.9909126-.2144396-7.9894411,4.4901982.1964196.9227251.9057246,1.4554759.9948331,2.3554632-.4936438.8674376-1.1725868-.3698047-1.4066053-.8263104-2.4181809-4.7172064,1.9882942-9.7775935,7.0022076-8.2564381Z"/>
  <path class="st8" d="M67.0370503,40.0021198c-.0839325-.0930038-.7013461.1787715-.765624-1.0425822-.09066-1.722645.733729-2.2584215.2060217-4.5501356-.0542903-.2357707.0365967-.5757674,0-.8389077h.2798011c1.852028,1.8510018,2.0122029,4.4071754.2798011,6.4316255Z"/>
  <path class="st9" d="M66.477448,33.5704944c.0365967.2631402-.0542903.603137,0,.8389077-1.2574169.7642314-1.5780943,3.0973313-2.4201169,3.60679-.8442935.5108328-1.8005792.0876221-1.8046307-.9480041-.0053724-1.3732355,1.1094242-1.0411912,1.8560019-1.5306773.7804402-.5116877,1.3201899-1.8541329,2.3687457-1.9670162Z"/>
</svg>