<svg xmlns="http://www.w3.org/2000/svg" id="Layer_1" version="1.1" viewBox="0 0 196 196"><defs><style>.st0{fill:#dededc}.st2{fill:#262524}.st4{fill:#9e7646}.st5{fill:#eae9e5}.st6{fill:#2c2a29}.st7{fill:#f3f4ef}.st8{fill:#cbcecb}.st10{fill:#7d7d6c}.st11{fill:#f0efeb}</style></defs><path d="M136.946 84.656v9.228c0 .094 1.206.14 1.839.463 8.04 4.095 7.645 16.51 9.601 24.386.732 2.943 5.427 10.672-.339 11.617-7.002 1.15-5.316-6.594-6.171-11.403-.528-2.977-2.709-15.52-3.735-17.24-.255-.43-.684-.994-1.194-1.112v39.219c0 2.523 7.395 14.12 7.937 18.073.402 2.928.462 13.455.013 16.298-.327 2.07-2.014 3.013-3.943 3.19-2.42.222-11.314.363-13.36-.11-2.485-.575-1.313-3.625-3.848-3.706-16.429 1.095-34.602-1.389-50.82.003-3.9.335-2.021 3.108-4.691 3.704-2.145.477-10.866.336-13.36.11-1.726-.158-3.463-.986-3.878-2.836-.496-2.21-.396-14.142-.052-16.653.548-4.008 7.937-15.555 7.937-18.073V84.656c-4.385.45-8.087-.375-9.557-4.92.743-9.717-1.34-21.897-.059-31.326.459-3.372 3.767-5.268 6.296-7.131 3.056-2.25 7.31-5.435 11.066-5.717 20.305-1.525 42.488 1.191 62.992 0 2.095.008 3.69 1.155 5.36 2.192 2.66 1.651 9.553 6.474 10.459 9.262.684 10.953.232 22.12.234 33.147-1.458 3.645-4.965 5.001-8.726 4.493m1.68-41.526c-2.232-1.595-5.901-5.135-8.595-5.463l-65.284.208c-2.607 1.39-5.46 3.117-7.542 5.255zm-84.051 2.196c-2.505.34-3.572 2.889-3.624 5.19-.11 4.896.41 10.176.385 15.075-.016 3.62-.756 8.199-.423 11.72.225 2.38.896 4.28 3.341 5.05l85.851.207c1.962-.092 3.099-1.697 3.78-3.353-.391-9.17 1.203-20.197.198-29.166-.345-3.078-1.974-5.002-5.229-4.84zm35.786 62.82c-2.76 2.325-11.334 10.64-14.156 11.229-6.373 1.329-11.91-4.466-9.44-10.692 1.09-2.745 5.815-5.222 8.362-6.746 1.194-.714 8.6-4.34 8.869-4.764.44-.694-.19-4.398.095-5.55-4.42-.877-3.965-3.063-3.803-6.967H60.981v54.108h22.245c-.7-2.687-1.37-5.41-1.674-8.186-.202-1.837-.459-5.3-.462-7.122-.01-5.295 5.45-6.13 9.69-6.504-.004.56.008 1.12 0 1.677-7.74 1.29-10.479 3.195-.84 5.034 1.13.216 1.745.288 2.939.42 3.86.428 6.21.407 10.072 0 .954-.1 1.448-.315 2.099-.42 1.365-.222 7.563-.675 7.56-2.722-2.28-1.334-4.911-2.091-7.56-2.31.003-.56-.021-1.122 0-1.68 4.698.14 11.127 1.471 9.655 7.55 9.67-2.056 11.349 8.79 5.034 14.263h15.11V99.336c-3.99-1.21-8.546-1.773-11.096-5.48-.3-.434-1.495-2.839-1.495-3.12v-6.08h-6.717c-.123 1.903.615 4.866-1.281 6.06-.651.408-2.37.595-2.454.691-.67.774 1.32 4.535-1.932 7.088-.657.516-2.58 1.201-2.66 1.327-.6.96.935 5.922-1.746 6.645-.315.084-2.626.084-2.938 0-1.032-.28-1.625-2.454-1.956-2.535-.506-.124-5.253-.042-5.511.11-.155.09-1.32 2.164-1.767 2.425-1.22.714-1.226.236-2.937 1.679m23.083-23.49H82.386c.168 1.146-.288 2.907.057 3.927.384 1.14 7.172 1.876 8.529 1.963 3.393.213 20.012.25 22.058-1.48.87-.735.232-3.273.413-4.41m13.013-.003h-2.523c-.021 2.19-.094 4.618.636 6.71 2.277 6.524 13.364 3.995 15.756 10.26.36.941.672 4.255.834 4.408.435.408 2.562.243 2.487-1.395-.22-4.898-4.081-8.205-8.395-9.687-6.412-2.2-9.845-1.281-8.795-10.296m8.392.003h-6.715c-.765 5.9 1.254 7.443 6.716 8.39zm-25.185 7.132c-7.747 1.248-15.566 1.053-23.32.02-1.447-.194.075 2.964-.178 3.754 4.751-1.49 9.055-4.692 12.128 1.095.262.492.428 1.722.508 1.793.603.53 7.107-.143 8.335-.593 3.47-1.27 2.444-2.85 2.528-6.069M96.65 99.753c1.039-2.611-.919-5.097-3.77-4.606l1.266 1.033zm-15.52 13.425c3.251-2.59 7.067-5.35 10.075-8.173.548-.515 2.51-2.3 2.713-2.74 1.38-3.014-1.878-7.156-5.258-5.672l-13.827 7.989c3.86 1.056 6.63 4.497 6.297 8.596m15.106-10.905h6.295c.155 0-.027 2.451 1.469 2.35 2.16-.148 1.362-3.005 1.47-4.45-2.834.57-7.734-.672-9.234 2.1m-19.034 5.6c-5.514-5.195-12.754 3.303-7.201 8.245 5.959 5.306 12.577-3.18 7.201-8.245m67.298-.569-2.92.44c-.442.508 2.186 10.335 2.46 11.979.377 2.265-.452 9.46 3.095 8.907 3.218-.501 1.149-4.836.515-7.062-.161-.563-.786-1.008-.936-1.583-1.026-3.924-1.595-8.635-2.214-12.68m-53.72 18.877-7.552-2.516c-.156 6.28 1.465 20.45 6.919 24.33 2.99 2.124 12.677 2.166 15.722.186 5.295-3.442 7.279-18.502 7.153-24.516l-7.972 2.516c-.696.03-1.404-.045-2.1 0-2.89.187-6.75.165-9.653 0-.834-.048-1.681.033-2.517 0m21.405 14.257c5.048-.694 11.813-6.933 8.757-12.315-1.116-1.965-5.613-2.878-6.237-1.31-.711 1.786 1.425.482 2.685.63 5.415.632 2.198 7.664-1.368 9.914-1.659 1.046-3.573.777-3.837 3.081m1.26-4.194c2.39.33 7.247-5.4 4.194-6.93-3.672-1.843-3.567 4.94-4.194 6.93m-60.02 20.976h88.978l-7.118-16.167-18.285-.202-4.395 1.689h18.675c.446 0 .8 1.19.63 1.677h-20.775c-.204 0-.94 1.32-1.05 1.678h23.085c.083 0 .083 1.677 0 1.677h-24.133c-.112 0-1.372 1.298-1.47 1.679h26.652c.447 0 .802 1.207.627 1.675-10.421.038-20.856-.034-31.283-.015-3.724.006-7.567.006-11.298 0-10.425-.02-20.86.053-31.282.015-.176-.468.18-1.675.627-1.675h27.072c-.1-.381-1.358-1.679-1.47-1.679H62.87c-.725 0-.723-1.677 0-1.677h23.293c-.11-.357-.846-1.678-1.05-1.678H63.918c-.17-.488.186-1.677.63-1.677h19.935l-.705-1.695-22.95.073zm89.398 2.097H53.006v14.89c0 .074.647.74.845.833.717.336 11.976.444 13.206.207 1.715-.33 1.694-3.112 3.889-3.661l53.208-.114c3.321.39 3.066 3.495 4.605 3.786 1.224.23 12.513.112 13.217-.218.197-.093.845-.759.845-.832z" class="st6"/><path d="m54.575 45.326 84.279-.117c3.254-.162 4.883 1.762 5.228 4.84 1.006 8.97-.589 19.995-.197 29.166-.681 1.656-1.818 3.261-3.78 3.353l-85.851-.207c-2.445-.77-3.116-2.67-3.341-5.05-.333-3.521.405-8.1.423-11.719.024-4.9-.495-10.18-.385-15.075.052-2.302 1.117-4.85 3.624-5.19m40.72 6.303c-15.36 2.217-12.496 25.791 3.206 24.171 16.025-1.653 13.298-26.553-3.206-24.17m-34.524 1.148c-.187.28-1.05.912-1.05 1.049v7.55c0 .074.975 1.05 1.05 1.05h7.974c.075 0 1.05-.976 1.05-1.05v-7.55c0-.075-.975-1.05-1.05-1.05zm63.476 1.778c-9.569 1.794-9.191 17.035.416 18.675 14.98 2.554 15.067-21.578-.416-18.675m-50.366.393c-3.144.65-2.532 6.12 1.479 5.305 3.384-.685 2.387-6.105-1.479-5.305m-13.11 9.993c-.187.28-1.05.913-1.05 1.05v7.55c0 .073.975 1.048 1.05 1.048h7.974c.075 0 1.05-.975 1.05-1.05v-7.55c0-.075-.975-1.048-1.05-1.048zm12.672 2.18c-3 .919-1.233 6.84 2.549 5.059 2.605-1.227 1.423-6.276-2.55-5.06m69.38 92.196v14.89c0 .074-.648.74-.846.833-.705.33-11.992.45-13.215.218-1.54-.29-1.285-3.398-4.605-3.786l-53.209.114c-2.195.549-2.174 3.33-3.89 3.661-1.23.237-12.489.13-13.206-.207-.198-.093-.844-.759-.844-.832v-14.89zm-37.353-52.85c2.681-.724 1.145-5.686 1.747-6.646.079-.126 2.002-.811 2.659-1.327 3.252-2.553 1.263-6.315 1.932-7.088.082-.096 1.803-.283 2.454-.693 1.896-1.192 1.158-4.155 1.281-6.06h6.715v6.084c0 .28 1.196 2.684 1.496 3.119 2.55 3.706 7.107 4.269 11.096 5.48v39.428h-15.11c6.315-5.472 4.635-16.32-5.034-14.263 1.47-6.078-4.957-7.41-9.655-7.548.128-3.495.653-6.97.42-10.487m-14.69 10.487c-4.24.375-9.7 1.209-9.69 6.504.003 1.822.26 5.284.462 7.122.305 2.775.975 5.499 1.673 8.185H60.98v-54.11h19.308c-.163 3.905-.617 6.09 3.802 6.968-.285 1.152.345 4.856-.095 5.55-.27.425-7.675 4.05-8.869 4.764-2.547 1.524-7.272 4.002-8.361 6.746-2.472 6.226 3.066 12.02 9.44 10.692 2.82-.588 11.393-8.903 14.155-11.23.756 2.666.441 5.992.42 8.809" class="st7"/><path d="m53.426 157.221 7.4-16.302 22.95-.073.709 1.695H64.548c-.444 0-.8 1.19-.63 1.677h21.195c.204 0 .94 1.32 1.05 1.678H62.868c-.722 0-.723 1.677 0 1.677h24.345c.111 0 1.37 1.298 1.469 1.679H61.61c-.448 0-.803 1.207-.628 1.675 10.422.038 20.856-.034 31.283-.015 3.73.006 7.575.006 11.298 0 10.426-.02 20.862.053 31.282.015.176-.468-.18-1.675-.627-1.675h-26.65c.097-.381 1.357-1.679 1.468-1.679h24.134c.083 0 .083-1.677 0-1.677h-23.085c.11-.357.846-1.678 1.05-1.678h20.775c.17-.488-.185-1.677-.63-1.677h-18.675l4.395-1.69 18.285.203 7.117 16.167zm6.295-2.937h76.176c.225 0 .867-.916.629-1.254-.101-.14-1.856-.412-2.288-.444-23.625-1.687-49.234 1.323-73.07 0-1.2-.024-1.63.528-1.447 1.698" class="st5"/><path d="M138.626 43.13H57.203c2.082-2.138 4.935-3.864 7.542-5.255l65.285-.208c2.694.328 6.363 3.868 8.595 5.463" class="st7"/><path d="M113.444 84.656c-.18 1.137.455 3.675-.415 4.41-2.045 1.73-18.664 1.695-22.057 1.48-1.357-.087-8.145-.825-8.529-1.963-.345-1.02.111-2.781-.057-3.927z" class="st11"/><path d="M81.13 113.178c.335-4.1-2.437-7.54-6.296-8.596l13.826-7.99c3.38-1.483 6.638 2.66 5.258 5.674-.202.44-2.164 2.224-2.713 2.739-3.008 2.823-6.824 5.583-10.074 8.175" class="st10"/><path d="M90.78 126.182c.542 4.01-.456 4.53-4.197 5.034-.02-.12-.357-.483-.438-1.016-.205-1.354.795-3.975-1.239-4.017-.534 5.018 1.956 19.175 7.125 21.19 2.997 1.168 11.404 1.013 13.876-1.249 3.75-3.429 5.56-14.917 5.437-19.945h-1.256c.099 1.69-.156 3.382-.421 5.037-.711-.32-4.406-1.07-4.563-1.314-.341-.533.12-2.856-.054-3.72l7.972-2.516c.126 6.014-1.86 21.075-7.153 24.516-3.045 1.98-12.732 1.938-15.72-.187-5.456-3.88-7.077-18.05-6.921-24.329z" class="st0"/><path d="m93.297 126.182-.001 3.357 9.413.006.24-3.363c.697-.045 1.405.03 2.1 0 .174.864-.286 3.187.054 3.72.158.244 3.853.994 4.564 1.314-.133.813-.26 1.714-.42 2.515-7.582 1.944-14.803 2.198-22.246-.42-.14-.72-.295-1.335-.42-2.095 3.743-.504 4.74-1.025 4.199-5.034.835.033 1.683-.048 2.517 0" style="fill:#b09170"/><path d="M93.297 106.467c.447-.26 1.613-2.335 1.767-2.425.258-.15 5.006-.234 5.511-.11.331.081.924 2.255 1.956 2.535-.068 3.372.322 6.7.42 10.067a29.7 29.7 0 0 0-9.654 0c.123-3.34-.088-6.723 0-10.067" class="st11"/><path d="M77.202 107.873c5.376 5.065-1.242 13.55-7.201 8.245-5.554-4.942 1.687-13.44 7.201-8.245" class="st10"/><path d="M109.664 91.788c-.085 3.22.941 4.8-2.528 6.07-1.23.45-7.732 1.121-8.335.592-.08-.07-.247-1.3-.508-1.793-3.073-5.787-7.377-2.584-12.129-1.095.255-.79-1.269-3.948.18-3.754 7.753 1.035 15.572 1.23 23.32-.02" class="st5"/><path d="M126.456 84.653c-1.05 9.015 2.385 8.097 8.795 10.296 4.313 1.48 8.174 4.79 8.395 9.685.075 1.64-2.053 1.805-2.487 1.397-.162-.153-.474-3.467-.834-4.409-2.392-6.264-13.479-3.735-15.756-10.26-.73-2.09-.657-4.52-.636-6.71z" class="st0"/><path d="M144.5 107.304c.619 4.046 1.188 8.757 2.214 12.681.15.575.775 1.02.936 1.583.634 2.226 2.703 6.56-.515 7.062-3.547.553-2.718-6.642-3.096-8.907-.273-1.644-2.901-11.47-2.46-11.98z" class="st10"/><path d="M102.951 118.212c.003 1.953-.003 3.92 0 5.873-3.862.406-6.21.427-10.072 0 .07-1.947-.101-3.93 0-5.873z" class="st5"/><path d="M134.849 84.656v8.388c-5.462-.947-7.48-2.49-6.716-8.39z" class="st11"/><path d="M105.47 106.467c.233 3.516-.292 6.993-.42 10.485-.022.558.002 1.12 0 1.68-.011 1.673.007 3.36 0 5.033-.652.105-1.145.32-2.1.42 0-1.953.004-3.92 0-5.873 0-.56.017-1.12 0-1.678-.097-3.368-.487-6.695-.419-10.067.312.084 2.625.084 2.939 0m-12.173 0c-.088 3.345.123 6.726 0 10.067-.01.285-.382.975-.42 1.678-.099 1.943.072 3.926 0 5.873a32 32 0 0 1-2.937-.42c.236-.038.788.072.84.003.15-.201-.012-4.18 0-5.037.008-.558-.004-1.118 0-1.677.021-2.817.336-6.143-.42-8.808 1.71-1.443 1.718-.965 2.937-1.679" class="st4"/><path d="m102.951 126.182-.241 3.363-9.415-.006.002-3.357c2.902.165 6.763.187 9.654 0" class="st5"/><path d="M112.185 140.44c.264-2.305 2.178-2.036 3.837-3.082 3.566-2.25 6.785-9.282 1.367-9.915-1.257-.147-3.395 1.157-2.684-.63.624-1.567 5.121-.654 6.237 1.311 3.056 5.382-3.71 11.62-8.757 12.315" class="st0"/><path d="M105.05 118.63c2.648.221 5.28.979 7.56 2.312.002 2.05-6.196 2.5-7.56 2.723.007-1.674-.011-3.36 0-5.034m-14.27 0c-.012.856.15 4.836 0 5.037-.052.069-.604-.04-.84-.003-9.639-1.838-6.9-3.744.84-5.034" class="st5"/><path d="M113.445 136.245c.627-1.99.522-8.773 4.194-6.93 3.053 1.53-1.804 7.26-4.194 6.93m-17.21-33.972c1.5-2.772 6.401-1.53 9.236-2.1-.11 1.445.689 4.302-1.471 4.45-1.496.101-1.315-2.35-1.469-2.35zm.415-2.518-2.504-3.575-1.266-1.035c2.852-.489 4.809 1.995 3.77 4.61" class="st0"/><path d="M95.295 51.629c16.505-2.382 19.232 22.518 3.206 24.17-15.703 1.62-18.566-21.953-3.206-24.17m10.593 17.506c3.45-5.658 1.556-12.214-4.615-14.68-.21-.084-.444-.557-1.128-.741-8.92-2.4-16.278 6.562-11.96 14.87 3.575 6.874 13.712 7.1 17.703.551m18.358-14.58c15.484-2.902 15.397 21.23.418 18.675-9.608-1.64-9.986-16.88-.418-18.675m2.624 1.577c-.591-.623-.762.045-.837.622-.105.828.582 6.816-1.261 5.465-1.009-.738.044-4.41-.623-5.664-8.677 3.93-5.715 16.068 4.158 14.64 7.254-1.047 7.716-12.23.873-14.64-.794 1.84 1.023 5.412-1.884 5.868-.04-1.094.14-5.694-.426-6.291" class="st6"/><path d="M60.771 64.941h7.974c.075 0 1.05.975 1.05 1.05v7.55c0 .073-.975 1.048-1.05 1.048h-7.974c-.075 0-1.05-.975-1.05-1.05v-7.55c0-.134.863-.767 1.05-1.048m7.344 1.679h-6.714v3.774h6.714zm0 5.032h-6.714v1.26h6.714zm-7.344-18.874h7.974c.075 0 1.05.975 1.05 1.048v7.55c0 .075-.975 1.05-1.05 1.05h-7.974c-.075 0-1.05-.975-1.05-1.05v-7.55c0-.135.863-.768 1.05-1.05m7.344 1.677h-6.714v3.776h6.714zm0 5.034h-6.714v1.259h6.714z" class="st2"/><path d="M73.881 54.948c3.866-.798 4.863 4.62 1.479 5.306-4.011.813-4.623-4.656-1.479-5.306m.324 1.608c-.843.237-.843 1.853 0 2.09 1.93.54 1.93-2.631 0-2.09" class="st6"/><path d="M73.443 67.12c3.972-1.216 5.154 3.833 2.549 5.06-3.782 1.78-5.55-4.14-2.55-5.06m.762 1.601c-.843.236-.843 1.851 0 2.088 1.93.54 1.93-2.63 0-2.088" class="st2"/><path d="M59.721 154.284c-.183-1.17.248-1.722 1.448-1.698 23.835 1.323 49.444-1.687 73.069 0 .432.032 2.187.303 2.288.444.24.338-.406 1.254-.629 1.254z" class="st6"/><path d="M86.583 131.216c.123.76.278 1.375.42 2.097.29 1.467.459 2.02.839 3.355.715 2.514 1.532 7.29 3.974 8.82 2.054 1.283 9.69 1.092 11.981.206 2.906-1.125 3.905-6.35 4.61-9.026.259-.982.637-1.923.84-2.937.16-.8.287-1.702.42-2.515.265-1.655.52-3.345.42-5.037h1.256c.124 5.028-1.684 16.515-5.435 19.945-2.473 2.262-10.88 2.415-13.877 1.248-5.169-2.014-7.659-16.171-7.125-21.189 2.034.042 1.034 2.663 1.239 4.017.081.533.419.897.438 1.016" class="st2"/><path d="M109.247 133.731c-.203 1.014-.581 1.955-.84 2.937-6.629 2.094-13.904 1.829-20.566 0-.379-1.335-.548-1.89-.84-3.355 7.443 2.616 14.664 2.362 22.245.42" class="st4"/><path d="M102.951 116.534c.015.558 0 1.119 0 1.678H92.879c.035-.702.407-1.393.42-1.678a29.7 29.7 0 0 1 9.652 0" class="st6"/><path d="M101.273 54.455c-.994-.017-1.456-.282-1.26.84-7.522-2.283-14.13 5.308-10.504 12.384.351.684 1.37 2.54 2.111 1.239-.135-1.35-1.199-2.15-1.493-3.533-1.503-7.057 6.8-11.916 11.985-6.735h-.42c-1.575.168-2.383 2.183-3.555 2.95-1.119.734-2.79.236-2.782 2.296.006 1.554 1.44 2.188 2.706 1.422 1.263-.765 1.744-4.263 3.63-5.41.792 3.437-.444 4.241-.309 6.824.097 1.833 1.023 1.425 1.149 1.565.574.637.517 2.655 2.1 0 .61.006 1.075.237 1.257.84-3.992 6.547-14.13 6.32-17.703-.555-4.319-8.306 3.04-17.268 11.96-14.868.683.184.916.657 1.127.74" class="st5"/><path d="M101.273 54.455c6.17 2.466 8.066 9.022 4.615 14.68-.182-.6-.645-.832-1.259-.838 2.714-4.554.618-11.415-4.617-13.004-.195-1.12.267-.855 1.26-.838" class="st8"/><path d="M126.87 56.132c.566.597.386 5.197.426 6.29 2.907-.455 1.09-4.027 1.884-5.867 6.843 2.41 6.381 13.593-.873 14.64-9.873 1.428-12.835-10.71-4.158-14.64.668 1.252-.385 4.926.623 5.664 1.845 1.351 1.155-4.637 1.261-5.465.075-.579.246-1.245.837-.622" class="st11"/><path d="M61.401 66.62h6.716v3.775H61.4z" class="st5"/><path d="M61.401 71.652h6.716v1.259H61.4z" class="st0"/><path d="M61.401 54.455h6.716v3.775H61.4z" class="st5"/><path d="M61.401 59.489h6.716v1.258H61.4zm12.804-2.933c1.93-.54 1.93 2.63 0 2.09-.843-.237-.843-1.853 0-2.09m0 12.165c1.93-.541 1.93 2.63 0 2.088-.843-.237-.843-1.852 0-2.088" class="st8"/><path d="M108.407 136.668c-.706 2.676-1.705 7.9-4.61 9.026-2.29.885-9.927 1.077-11.979-.207-2.443-1.527-3.261-6.305-3.976-8.82 6.661 1.83 13.936 2.095 20.565 0" style="fill:#5f4028"/><path d="M100.013 55.293c5.234 1.59 7.33 8.45 4.616 13.005-1.58 2.654-1.523.636-2.098 0 2.598-3.037 2.358-6.873-.42-9.65-5.184-5.179-13.485-.32-11.985 6.736.296 1.384 1.36 2.184 1.494 3.534-.741 1.302-1.76-.555-2.11-1.24-3.628-7.075 2.981-14.666 10.502-12.385" class="st6"/><path d="M102.531 68.297c-.126-.14-1.051.268-1.149-1.563-.135-2.585 1.101-3.389.309-6.825-.081-.354.056-.864 0-1.26h.42c2.778 2.776 3.018 6.612.42 9.648" class="st8"/><path d="M101.691 58.649c.056.396-.081.906 0 1.26-1.885 1.146-2.367 4.645-3.63 5.409-1.266.766-2.7.132-2.706-1.422-.009-2.06 1.665-1.562 2.784-2.295 1.17-.768 1.98-2.783 3.552-2.952" style="fill:#33312f"/></svg>