<svg xmlns="http://www.w3.org/2000/svg" id="Layer_1" version="1.1" viewBox="0 0 196 196"><defs><style>.st1{fill:#242422}.st2{fill:#282826}.st3{fill:#2d2c2a}.st5{fill:#191a18}.st6{fill:#1d1d1c}.st7{fill:#f2f2ec}.st9{fill:#373633}</style></defs><path d="m176.816 50.705-11.347-2.411s-15.709-7.647-17.629-7.41-20.246-7.528-20.246-7.528l-9.077-2.36-8.86 2.653-13.483 9.699-9.748 7.17L83.2 59.24l-2.365 8.096h4.952l.639 5.777 6.41 4.112 12.38 2.2 13.475 2.75 11.869 3.674 14.837 2.047 14.137-4.034 13.412 2.87z" style="fill:#f6f6f0"/><path d="M177.773 48.986c.272.455-.026 1.564.064 2.178-4.056.125-8.176-.512-12.096-1.571-11.76-3.178-24.315-10.378-36.176-14.447-7.25-2.486-10.048-4.37-17.439-.637-4.977 2.517-19.576 11.239-23.232 14.848-3.561 3.52-4.832 11.43-6.48 16.138 3.104.498 4.877-2.17 7.516-3.008 1.232-.39 4.136-.477 4.598-.776.549-.355.611-1.92.976-2.608 1.085-2.042 6.718-4.024 8.995-5.342.923-.535 2.9-2.416 3.32-2.536 1.37-.39 3.88 2.41 5.645 3.156 1.102.468 2.205.925 3.442.815.284-1.467.256-5.709 2.09-5.767 2.345-.07.134 6.48.116 7.786-.02 1.454.611 2.79.486 4.251 2.192-.105 3.59-2.229 5.821-1.792.9 2.746-3.307 4.03-5.464 4.615-8.443 2.297-18.451-.474-27.033.296-4.216.376-8.576 3.984-5.38 8.104 3.668 4.723 21.156 5.192 27.666 6.829 7.874 1.979 15.043 5.84 23.485 6.53 9.273.76 15.949-3.723 25.048-3.095 1.531.105 7.589 1.041 8.7 1.601 1.013.51.943 1.267.505 2.18-.67.884-7.232-.945-8.781-1.07-7.267-.58-10.282 1.468-16.683 2.567-12.765 2.194-24.368-4.045-36.394-7.053 1.976 18.632 4.488 37.226 8.267 55.568 1.323 6.418 3.41 12.717 4.589 19.155.307 1.677 1.552 7.008.475 8.055l-79.467 13.933c-1.06.046-2.771.401-3.546-.376-1.42-1.43-2.915-23.223-3.401-27.063-2.581-20.368-6.626-40.505-10.672-60.608-.616-2.168 2.06-1.952 2.213-3.734-4.519.613-3.74-6.81-3.981-9.811l43.62-8.133c1.8.21.77 2.537 1.541 3.76.328.52 3.548 1.86 4.277 3.448.362.787.112 1.696.656 2.48.567.811 3.235 1.869 4.061 2.878.725-2.113-2.074-3.395-2.25-4.728-.13-.989.535-2.056.501-3.112-.057-1.73-1.003-3.968-.416-5.752.338-1.022 1.786-.782 2.176-1.52.95-1.808 1.805-6.888 2.672-9.312 1.973-5.502 2.683-7.35 7.483-10.885 4.448-3.275 22.405-14.995 26.914-15.646 5.435-.784 14.1 3.037 19.365 5.042 10.059 3.83 23.35 11.227 33.515 13.076 1.26.23 7.853.695 8.093 1.093m-66.693 6.666c-1.3-.119-1.776-1.851-3.14-1.176-1.82 1.971-8.322 3.88-9.73 5.312-.472.48-.59 1.46-.565 2.123 2.395-.438 5.39 1.162 7.608.218.349-.15 5.032-4.832 5.392-5.357.259-.376.616-.466.435-1.12m6.277 6.707c-.565-1.1-.183-3.211-.663-4.04-.252-.435-2.592-1.34-3.088-1.242-.78.154-4.79 4.788-5.659 5.728 3.155.023 6.304.15 9.41-.448zm-44.8 14.34c-1.16-2.654-4.925-1.903-4.71-5.831l-40.04 7.88c.383.731.707 4.427.9 4.614.344.331 3.168-.14 3.535 2.095.472 2.88-2.132 3.564-2.208 4.868 4.339 22.008 8.652 44.02 11.16 66.343.294 2.624 1.08 17.98 2.217 18.856l78.867-13.263c.914-.896-4.592-21.896-5.232-24.998-3.848-18.602-6.342-37.394-8.603-56.26-8.013-2.554-25.552-.289-24.24-12.814-.726-.064-4.376-.105-4.507.714 1.389 2.229.405 4.045.651 6.011.368 2.955 1.847 4.408 2.064 8.952-.72-.17-1.017.33-1.344.896L73.78 79.85c-.441-.336-.595-.868-.776-1.36-.155-.423-.056-.893-.448-1.792" style="fill:#171816"/><path d="M73.456 45.786c-.464.611 2.011 9.714 1.733 10.943-.167.736-1.84 1.113-2.18.4-.735-1.562-1.23-10.316-1.803-10.895-6.268 5.575-.704-5.293-.168-5.408 1.404-.305 5.245 3.938 5.482 4.811.832 3.072-2.93-.027-3.064.15" class="st6"/><path d="M54.186 51.612c.236.229-.218 1.584-.493 1.984-.517.757-1.605.374-1.296 1.595 1.605-.286 10.024.32 10.683 1.413.155.256.125 1.66.064 1.723-.355.38-8.79-2.035-10.298-1.34-.156 1.342.912.569 1.239 2.102.134.633.467 1.76-.554 1.468-1.033-.294-6.457-3.75-5.867-4.912.365-.72 5.814-4.713 6.522-4.032z" class="st5"/><path d="M64.942 57.884c.516-.525 4.045.725 3.581 2.454-.547 2.042-4.827-1.184-3.58-2.454" class="st3"/><path d="M72.106 64.153c-1.164.416-3.552-1.02-2.936-2.237 1.09-2.154 3.465.589 2.936 2.237" class="st6"/><path d="M74.35 72.665c-.1-.104-.4-3.098.663-2.682 2.339.915.345 3.723-.663 2.682m.444-4.48c-.848.909-2.234-2.376-.677-1.786.576.218.952 1.488.677 1.786" class="st9"/><path d="M82.411 83.866c-.217-4.544-1.696-5.997-2.064-8.952-.246-1.966.736-3.782-.651-6.01.131-.82 3.78-.779 4.506-.715-1.31 12.525 16.228 10.26 24.24 12.813 2.262 18.867 4.756 37.66 8.604 56.263.64 3.1 6.146 24.102 5.232 24.997l-78.867 13.262c-1.137-.875-1.923-16.232-2.217-18.856-2.508-22.323-6.821-44.336-11.16-66.342.076-1.304 2.68-1.99 2.208-4.87-.367-2.234-3.19-1.762-3.535-2.094-.193-.187-.515-3.883-.9-4.614l40.04-7.88c-.215 3.93 3.551 3.178 4.708 5.83-.822-.057-4.32-.188-3.579 1.564.597 1.416 2.934.032 4.027.228.181.492.335 1.021.776 1.359l7.288 4.912c-2.025 3.523 1.235 4.512 1.749 2.373.206-.86-.618-1.248-.722-1.79-.112-.575.335-1.122.317-1.478m-.152-9.336c-1.104.35-.966 1.877-.011 2.131 2.94.781 4.128-3.435.011-2.13m-15.08 3.065c-1.939 0-3.659-.123-3.136 2.235 1.941 0 3.661.125 3.136-2.235m-6.838.971c-1.907.38-2.439 2.069-.107 2.202 2.932.17 2.61-2.7.107-2.202m-6.599 3.056c.437.426 3.89-.112 3.58-1.558-.397-1.84-4.848.33-3.58 1.558m-3.244-1.264c-.599.06-2.301.611-2.132 1.485 2.861 2.608 5.23-1.784 2.132-1.485m-3.488 1.288c-.31-.466-2.221-.3-2.807.064-3.664 2.282 4.371 2.309 2.805-.064m22.918.938c-1.036 1.624 1.264 3.99 2.421 1.728.938-1.83-1.792-2.717-2.42-1.728m-28.289-.061c-.22-.208-4.12-.01-3.576 1.112 1.034 1.795 4.83.072 3.578-1.112m63.168-.003c-2.443-.608-1.936 1.269-1.784 3.36 1.368 18.803 5.286 40.992 9.622 59.368.55 2.33 1.079 5.925 1.885 7.968.909 2.304 2.042 1.664 1.896-.516-.398-6.015-3.864-16.483-5.13-23.127-2.96-15.54-5.097-31.292-6.489-47.053m-71.675 2.688c.144.144 3.886.345 3.58-1.112-.343-1.639-5.023-.343-3.58 1.112m41.699-.408c-.517.717.47 3.085 1.757 2.448 2.432-1.2-.634-4.003-1.757-2.448m17.78 2.753c-15.049 1.83-30.564 6.194-45.706 8.07-4.906 1.545-2.599 8.16-2.052 12.135 2.037 14.81 4.532 32.506 7.664 46.992.584 2.704.952 5.36 4.186 5.696 14.371-2.546 29.434-4.269 43.71-7.283 3.583-.755 6.663-.738 6.976-5.336l-9.4-56.915c-.765-2.66-2.709-3.682-5.376-3.359m-18.715.794c-.71-.71-2.05.629-1.34 1.34s2.05-.628 1.34-1.34M47.914 166.3c-1.693-24.675-6.344-48.987-11.296-73.152-.528-1.485-2.436-.768-2.06.674 5.516 23.835 9.445 48.065 11.578 72.47zm68.995-6.727c.238-1.467-.563-2.017-1.946-1.753l-66.416 11.573c-1.779.601-1.184 1.85.485 1.872z" style="fill:#f1f1ec"/><path d="M111.08 55.652c.18.654-.176.744-.435 1.12-.36.526-5.043 5.208-5.392 5.357-2.218.944-5.213-.656-7.607-.216-.025-.664.092-1.645.564-2.125 1.408-1.432 7.91-3.34 9.728-5.312 1.366-.675 1.841 1.057 3.142 1.176" style="fill:#dededc"/><path d="M117.357 62.36c-3.104.594-6.256.468-9.408.447.867-.942 4.877-5.576 5.659-5.73.494-.097 2.834.807 3.088 1.242.48.829.096 2.94.66 4.04" style="fill:#b8b6b2"/><path d="M72.555 76.698c.392.898.293 1.368.448 1.792-1.093-.196-3.43 1.188-4.027-.228-.74-1.754 2.757-1.621 3.58-1.564m9.855 7.168c.016.355-.429.903-.317 1.479.104.54.928.93.722 1.788-.512 2.141-3.774 1.152-1.749-2.37.327-.567.624-1.066 1.344-.897" class="st9"/><path d="M92.613 87.556c2.667-.325 4.611.697 5.376 3.357l9.401 56.915c-.312 4.598-3.393 4.58-6.976 5.337-14.276 3.013-29.339 4.737-43.71 7.28-3.232-.332-3.6-2.991-4.186-5.694-3.132-14.486-5.627-32.182-7.664-46.992-.547-3.976-2.854-10.59 2.052-12.134 15.142-1.877 30.656-6.242 45.707-8.07m12.096 62.513.507-3.195c-3.728-17.784-5.342-36.407-9.042-54.144-.64-3.067-.904-3.184-4.072-2.981-14.099.909-29.968 6.571-44.308 7.66-1.868.503-2.47 1.746-2.066 3.642 3.42 17.312 5.253 35.04 8.59 52.35.396 2.049.38 5.449 3.103 5.18z" class="st5"/><path d="m47.912 166.3-1.776-.008c-2.133-24.405-6.064-48.635-11.578-72.47-.376-1.442 1.532-2.159 2.061-.676 4.95 24.167 9.6 48.48 11.293 73.152m56.896-83.777c1.392 15.761 3.528 31.513 6.49 47.053 1.265 6.644 4.73 17.11 5.13 23.126.143 2.18-.988 2.82-1.897.518-.806-2.044-1.336-5.64-1.886-7.97-4.336-18.375-8.253-40.564-9.621-59.369-.152-2.09-.66-3.966 1.784-3.36" class="st6"/><path d="m116.909 159.574-67.877 11.69c-1.669-.02-2.264-1.27-.486-1.871l66.416-11.573c1.384-.264 2.184.286 1.947 1.753" class="st5"/><path d="M60.34 78.567c2.505-.497 2.826 2.371-.106 2.202-2.332-.133-1.8-1.824.107-2.202" class="st9"/><path d="M69.928 82.585c.629-.99 3.358-.103 2.42 1.728-1.158 2.262-3.457-.104-2.42-1.728" class="st2"/><path d="M53.742 81.625c-1.268-1.23 3.183-3.4 3.58-1.56.31 1.446-3.143 1.984-3.58 1.558" class="st9"/><path d="M82.26 74.529c4.116-1.303 2.929 2.915-.012 2.133-.955-.255-1.094-1.781.011-2.132" class="st3"/><path d="M50.498 80.36c3.097-.3.73 4.092-2.132 1.484-.17-.874 1.533-1.426 2.132-1.485" class="st2"/><path d="M67.18 77.596c.524 2.36-1.196 2.235-3.137 2.235-.523-2.358 1.197-2.233 3.136-2.235m7.653 7.205c1.123-1.555 4.19 1.248 1.757 2.448-1.287.637-2.274-1.731-1.757-2.448" class="st9"/><path d="M47.008 81.647c1.568 2.374-6.47 2.346-2.805.064.586-.363 2.498-.53 2.805-.064M33.133 85.21c-1.443-1.455 3.237-2.75 3.58-1.112.306 1.457-3.435 1.257-3.58 1.112" class="st3"/><path d="M41.642 82.524c1.252 1.184-2.544 2.907-3.578 1.112-.544-1.122 3.355-1.322 3.578-1.112m32.256 5.824c.71.71-.63 2.051-1.34 1.34s.63-2.05 1.34-1.34" class="st9"/><path d="M104.709 150.068 57.42 158.58c-2.723.269-2.707-3.131-3.104-5.18-3.335-17.31-5.168-35.038-8.589-52.35-.403-1.896.198-3.139 2.064-3.643 14.34-1.088 30.211-6.752 44.31-7.66 3.168-.204 3.432-.085 4.072 2.98 3.698 17.74 5.314 36.362 9.042 54.146zm-13.34-57.24c-12.463 2.477-25.193 3.934-37.641 6.485-1.864.382-6.08.918-2.075 2.45l39.523-7.113zM78.83 99.1c-.316.32-.168 3.194 1.56 2.682 2-.592-.304-3.952-1.56-2.682m-5.139 4.034c-1.219.347-1.038 3.367 1.28 2.644 1.62-.505.218-3.072-1.28-2.645m10.472 3.541c.933-.667.096-3.09-1.513-2.645-1.74.484-.186 3.861 1.513 2.645m-4.44 4.52c.125-.128.043-1.867-.213-2.25-.875-1.323-3.184.565-2.272 1.823.367.525 2.346.568 2.485.427m7.168 8.96c.387-1.248 2.994-7.59 3.571-8.302 1.159-1.43 2.896-.626 4.044-1.784-.204-2.282-3.773-1.39-4.914-.432-1.787 1.504-3.243 8.309-5.312 10.371l-.074 1.04c.88.232 1.532-.264 2.237-.445-.265 1.837.858 4.368.891 6.272-.356.452-6.665-3.883-7.688-4.179-7.721-2.243-11.254 4.594-15.828 9.104-.936-2.496-.39-6.75-1.879-8.846-.304-.43-.025-.784-1.029-.555-1.03 1.275 1.408 9.45 1.205 11.366-.171 1.635-3.966 5.952-4.58 8.33-.682 2.63-.028 12.404 4.022 12.142 10.246-1.662 20.624-3.053 30.793-5.102 8.239-1.66 9.533-1.584 7.312-10.616-.736-2.999-1.29-4.925-3.84-6.91-.982-.762-5.892-3.142-6.144-3.49-.745-1.044-.742-5.952-1.438-7.207-.3-.54-.62-.216-.9-.309-.122-.041-.278-.352-.449-.448m-17.11-7.965c-4.842.124-11.077 2.767-16.189 2.666-1.274.38-1.083 2.211.752 2.14 2.08-.08 13.77-2.12 15.638-2.774 1.524-.532 1.807-2.083-.201-2.032m25.173.353c-.324-.316-4.768.158-4.476 1.558.388 1.856 5.984-.088 4.476-1.56m-28.223 4.48c-1.728.203-12.86 1.872-13.01 2.522-.097.422.08 1.024.021 1.504 1.72-.27 12.837-1.776 13.008-2.52.096-.424-.081-1.026-.019-1.508" class="st7"/><path d="M87.34 120.602c.28.093.6-.23.9.31.696 1.252.693 6.164 1.44 7.205.25.35 5.16 2.729 6.14 3.492 2.553 1.984 3.106 3.91 3.844 6.908 2.22 9.033.925 8.956-7.312 10.617-10.171 2.05-20.547 3.44-30.794 5.102-4.05.262-4.704-9.512-4.024-12.144.615-2.378 4.41-6.693 4.581-8.328.202-1.915-2.235-10.091-1.205-11.368 1.004-.229.725.128 1.03.557 1.487 2.096.942 6.352 1.878 8.848 4.574-4.512 8.107-11.35 15.83-9.106 1.02.296 7.331 4.629 7.688 4.18-.035-1.905-1.158-4.436-.893-6.273.248-.064.611.043.896 0m-22.848 17.024v.448c-.046-.008-.488.685-.904.275-.593-.583-.065-1.673-.881-1.615-.623 2.238-3.296 4.747-3.493 7.043-.101 1.157 1.035 8.528 1.974 8.667l35.125-6.07c4.384-.176.933-10.5-.618-12.176-.648-.7-5.614-3.794-6.268-3.66-.397.084-1.02 1.03-1.186.816l-.288-1.84c-4.928-1.572-7.672-5.932-13.278-4.777-3.367.694-7.52 7.317-10.136 9.603-.78 1.011.05 2.137-.047 3.286M91.37 92.828l-.192 1.82-39.524 7.113c-4.004-1.533.212-2.07 2.076-2.452 12.448-2.548 25.176-4.006 37.64-6.483" class="st5"/><path d="M69.78 112.19c2.009-.052 1.726 1.499.202 2.031-1.868.655-13.56 2.695-15.636 2.775-1.837.07-2.028-1.76-.754-2.14 5.112.1 11.347-2.543 16.189-2.667m17.11 7.965c-.04.133-.427.31-.448.448-.705.181-1.355.677-2.237.445l.072-1.04c2.07-2.062 3.527-8.869 5.312-10.37 1.143-.96 4.712-1.85 4.916.43-1.148 1.16-2.885.353-4.044 1.785-.576.712-3.184 7.054-3.57 8.302" class="st6"/><path d="M66.731 117.02c-.062.48.117 1.083.02 1.507-.172.743-11.289 2.251-13.009 2.52.058-.48-.118-1.081-.02-1.504.148-.65 11.28-2.32 13.01-2.523" class="st1"/><path d="M94.954 112.54c1.51 1.472-4.088 3.416-4.476 1.56-.292-1.4 4.152-1.874 4.476-1.56m-15.23-1.346c-.14.141-2.12.096-2.484-.429-.915-1.255 1.395-3.143 2.272-1.823.254.385.336 2.126.211 2.252" class="st2"/><path d="M73.691 103.134c1.498-.426 2.9 2.139 1.28 2.644-2.318.723-2.499-2.297-1.28-2.645" class="st3"/><path d="M84.163 106.673c-1.699 1.216-3.253-2.16-1.513-2.643 1.61-.448 2.446 1.977 1.513 2.644" class="st9"/><path d="M78.83 99.1c1.258-1.27 3.559 2.09 1.56 2.682-1.728.512-1.876-2.364-1.56-2.682" class="st2"/><path d="M87.34 120.602c-.284.043-.647-.064-.897 0 .021-.137.407-.315.448-.448.171.096.327.407.448.448" class="st9"/><path d="M64.491 137.626c.098-1.149-.731-2.275.048-3.286 2.615-2.288 6.768-8.909 10.135-9.603 5.606-1.155 8.348 3.205 13.276 4.777l.29 1.84c.166.213.789-.733 1.187-.816.653-.134 5.621 2.96 6.267 3.66 1.552 1.676 5.004 12 .618 12.175l-35.125 6.07c-.939-.137-2.073-7.51-1.974-8.666.197-2.296 2.87-4.805 3.493-7.044.816-.059.288 1.032.881 1.616.416.41.858-.283.904-.275.383.064 2.106.963 2.243.22l-.004-.666zm10.75-9.854c-.934-.933-2.72.854-1.787 1.789s2.72-.855 1.788-1.79m5.376 1.793c-1.258-.887-2.71 1.789-1.114 2.233 1.79.501 1.626-1.872 1.114-2.233m6.272 1.792c-.66-.077-2.007-.07-2.234.675-.62 2.04 2.974 2.283 2.234-.675m-16.794.9c-.9.252-.9 1.977 0 2.23 2.06.577 2.06-2.81 0-2.23m20.378 1.34c-.736-.736-2.84 1.144-1.114 1.785 1.546.575 1.306-1.592 1.114-1.785m-13.44 1.792c-.412-.411-2.336-.39-1.736 1.512.65 2.057 2.534-.714 1.736-1.512m6.272 2.237c.902-.91-1.56-2.908-2.234-1.114-.626 1.664 2.115 1.232 2.234 1.114m8.964.003c-.29.291.013 2.485 1.11 2.235 1.72-.387-.087-3.26-1.11-2.235m-21.06.448c-3.74.224-.708 3.605-.052 1.512.15-.479.028-1.023.052-1.512m13.67 1.795c-.9.253-.9 1.978 0 2.23 2.06.578 2.06-2.81 0-2.23m-8.294.893c-.66-.077-2.007-.07-2.234.675-.62 2.04 2.974 2.283 2.234-.675m-11.864.896c-1.088.232-.892 2.976.435 2.685 1.683-.368.907-2.97-.435-2.685m27.992.448c-.412-.411-2.336-.39-1.736 1.512.65 2.057 2.534-.712 1.736-1.512M80.4 143.905c-.9.252-.9 1.977 0 2.23 2.06.578 2.06-2.81 0-2.23m-10.978 2.68c.66.08 2.005.07 2.232-.674.621-2.04-2.972-2.283-2.232.674m-4.932.452c-.8-.798-3.568 1.088-1.512 1.736 1.904.6 1.923-1.324 1.512-1.736" class="st7"/><path d="m64.491 137.626 2.239.002.004.665c-.139.744-1.86-.155-2.243-.219z" class="st9"/><path d="M76.586 140.764c.74 2.958-2.855 2.715-2.234.675.227-.744 1.574-.752 2.234-.675" class="st3"/><path d="M69.422 146.585c-.74-2.959 2.855-2.716 2.232-.676-.227.745-1.572.753-2.232.674m-4.699-4.923c1.341-.285 2.117 2.315.434 2.685-1.328.29-1.523-2.453-.435-2.685m22.168-10.304c.74 2.958-2.855 2.715-2.234.675.227-.744 1.574-.752 2.234-.675m-2.01 8.515c2.06-.58 2.06 2.808 0 2.23-.9-.252-.9-1.977 0-2.23m-4.48 4.032c2.06-.578 2.06 2.808 0 2.23-.9-.252-.9-1.977 0-2.23" class="st9"/><path d="M70.096 132.255c2.06-.577 2.06 2.808 0 2.23-.9-.252-.9-1.977 0-2.23" class="st3"/><path d="M80.618 129.564c.512.361.676 2.734-1.114 2.233-1.595-.444-.144-3.12 1.114-2.233" class="st9"/><path d="M77.034 135.388c.798.8-1.088 3.57-1.736 1.512-.6-1.903 1.324-1.923 1.736-1.512m15.68 6.72c.798.8-1.088 3.57-1.736 1.512-.6-1.903 1.324-1.922 1.736-1.512" class="st3"/><path d="M64.49 147.036c.41.411.39 2.336-1.512 1.736-2.058-.648.713-2.535 1.512-1.736" class="st1"/><path d="M83.306 137.625c-.119.118-2.86.55-2.234-1.114.674-1.793 3.136.205 2.234 1.114m8.964.003c1.023-1.024 2.83 1.848 1.11 2.235-1.097.25-1.4-1.944-1.11-2.235" class="st9"/><path d="M75.242 127.772c.934.934-.855 2.721-1.788 1.789s.853-2.722 1.788-1.79" class="st2"/><path d="M71.21 138.076c-.024.49.097 1.033-.052 1.512-.656 2.093-3.688-1.287.052-1.512" class="st9"/><path d="M90.474 133.596c.192.192.432 2.36-1.114 1.785-1.728-.64.378-2.523 1.114-1.785" class="st2"/></svg>