<?xml version="1.0" encoding="UTF-8"?>
<svg id="Layer_1" xmlns="http://www.w3.org/2000/svg" version="1.1" viewBox="0 0 196 196">
  <!-- Generator: Adobe Illustrator 29.0.0, SVG Export Plug-In . SVG Version: 2.1.0 Build 186)  -->
  <defs>
    <style>
      .st0 {
        fill: #dededc;
      }

      .st1 {
        fill: #5f4028;
      }

      .st2 {
        fill: #262524;
      }

      .st3 {
        fill: #b09170;
      }

      .st4 {
        fill: #9e7646;
      }

      .st5 {
        fill: #eae9e5;
      }

      .st6 {
        fill: #f9f8f4;
      }

      .st7 {
        fill: #2c2a29;
      }

      .st8 {
        fill: #f3f4ef;
      }

      .st9 {
        fill: #cbcecb;
      }

      .st10 {
        fill: #33312f;
      }

      .st11 {
        fill: #7d7d6c;
      }

      .st12 {
        fill: #f0efeb;
      }
    </style>
  </defs>
  <polygon class="st6" points="51.727 158.744 51.727 175.378 55.327 176.526 68.007 176.526 71.364 172.817 124.6 172.817 127.977 175.981 140.954 175.981 143.648 174.672 143.648 158.744 51.727 158.744"/>
  <path class="st6" d="M54.454,43.954l-3.518,2.945-1.146,9.595,1.146,20.351,3.109,6.635h86.727l3.848-2.871s1.47-18.684,1.224-18.833-1.555-13.895-1.8-14.304-4.745-3.518-4.745-3.518H54.454Z"/>
  <ellipse class="st5" cx="97.123" cy="63.338" rx="11.413" ry="11.87"/>
  <path class="st8" d="M63.945,37.163l-9.491,7.364s87.178.982,87.075,0-11.23-8.509-11.23-8.509l-66.354,1.146h0v-.001Z"/>
  <ellipse class="st12" cx="126.57" cy="63.866" rx="8.796" ry="9.3"/>
  <polygon class="st0" points="60.182 139.844 135.879 139.844 143.648 157.926 52.164 157.926 60.182 139.844"/>
  <polygon class="st12" points="59.721 83.479 135.879 83.479 135.285 140.054 59.721 139.764 59.721 83.479"/>
  <polygon class="st0" points="81.127 83.799 81.127 88.851 85.139 90.999 85.139 96.602 90.864 95.216 95.355 99.753 94.906 103.026 101.705 103.026 102.958 105.644 105.888 105.154 106.491 98.644 110.909 96.602 110.909 91.788 114.345 88.851 114.345 83.479 81.127 83.799"/>
  <path class="st7" d="M102.951,116.534c.015.558,0,1.119,0,1.678h-10.072c.035-.702.407-1.393.42-1.678,3.196-.526,6.456-.526,9.652,0"/>
  <path class="st9" d="M81.727,84.017l-.436,4.2s-.016,4.36,17.419,3.571,15.635-2.643,15.635-2.643v-5.665l-32.618.538v-.001Z"/>
  <path class="st7" d="M136.946,84.656v9.228c0,.094,1.206.14,1.839.463,8.04,4.095,7.645,16.51,9.601,24.386.732,2.943,5.427,10.672-.339,11.617-7.002,1.15-5.316-6.594-6.171-11.403-.528-2.977-2.709-15.52-3.735-17.24-.255-.43-.684-.994-1.194-1.112v39.219c0,2.523,7.395,14.12,7.937,18.073.402,2.928.462,13.455.013,16.298-.327,2.07-2.014,3.013-3.943,3.19-2.42.222-11.314.363-13.36-.11-2.485-.575-1.313-3.625-3.848-3.706-16.429,1.095-34.602-1.389-50.82.003-3.9.335-2.021,3.108-4.691,3.704-2.145.477-10.866.336-13.36.11-1.726-.158-3.463-.986-3.878-2.836-.496-2.21-.396-14.142-.052-16.653.548-4.008,7.937-15.555,7.937-18.073v-55.158c-4.385.45-7.266.398-8.846-4.375s-2.051-22.442-.77-31.871c.459-3.372,3.767-5.268,6.296-7.131,3.056-2.25,7.31-5.435,11.066-5.717,20.305-1.525,42.488,1.191,62.992,0,2.095.008,3.69,1.155,5.36,2.192,2.66,1.651,9.553,6.474,10.459,9.262,2.616,9.325,1.561,26.038.57,33.919-1.458,3.645-5.301,4.229-9.062,3.72M138.627,43.13c-2.232-1.595-5.901-5.135-8.595-5.463l-65.284.208c-2.607,1.39-5.46,3.117-7.542,5.255h81.421ZM54.576,45.326c-2.505.34-3.572,2.889-3.624,5.19-.11,4.896.41,10.176.385,15.075-.016,3.62.008,16.77,2.918,16.77l85.851.207c1.962-.092,3.099-1.697,3.78-3.353.598-9.45,1.203-20.197.198-29.166-.345-3.078-1.974-5.002-5.229-4.84l-84.279.117h0ZM90.362,108.146c-2.76,2.325-11.334,10.64-14.156,11.229-6.373,1.329-11.91-4.466-9.44-10.692,1.09-2.745,5.815-5.222,8.362-6.746,1.194-.714,8.6-4.34,8.869-4.764.44-.694-.19-4.398.095-5.55-4.42-.877-3.965-3.063-3.803-6.967h-19.308v54.108h22.245c-.7-2.687-1.37-5.41-1.674-8.186-.202-1.837-.459-5.3-.462-7.122-.01-5.295,5.45-6.13,9.69-6.504-.004.56.008,1.12,0,1.677-7.74,1.29-10.479,3.195-.84,5.034,1.13.216,1.745.288,2.939.42,3.86.428,6.21.407,10.072,0,.954-.1,1.448-.315,2.099-.42,1.365-.222,7.563-.675,7.56-2.722-2.28-1.334-4.911-2.091-7.56-2.31.003-.56-.021-1.122,0-1.68,4.698.14,11.127,1.471,9.655,7.55,9.67-2.056,11.349,8.79,5.034,14.263h15.11v-39.428c-3.99-1.21-8.546-1.773-11.096-5.48-.3-.434-1.495-2.839-1.495-3.12v-6.08h-6.717c-.123,1.903.615,4.866-1.281,6.06-.651.408-2.37.595-2.454.691-.67.774,1.32,4.535-1.932,7.088-.657.516-2.58,1.201-2.66,1.327-.6.96.935,5.922-1.746,6.645-.315.084-2.626.084-2.938,0-1.032-.28-1.625-2.454-1.956-2.535-.506-.124-5.253-.042-5.511.11-.155.09-1.32,2.164-1.767,2.425-1.22.714-1.226.236-2.937,1.679M113.442,84.656h-31.056c.168,1.146-.288,2.907.057,3.927.384,1.14,7.172,1.876,8.529,1.963,3.393.213,20.012.25,22.058-1.48.87-.735.232-3.273.413-4.41M134.848,84.656h-6.715c-.765,5.9,1.254,7.443,6.716,8.39v-8.39h-.001ZM109.663,91.788c-7.747,1.248-15.566,1.053-23.32.02-1.447-.194.075,2.964-.178,3.754,4.751-1.49,9.055-4.692,12.128,1.095.262.492.428,1.722.508,1.793.603.53,7.107-.143,8.335-.593,3.47-1.27,2.444-2.85,2.528-6.069M96.65,99.753c1.039-2.611-.919-5.097-3.77-4.606l1.266,1.033s2.504,3.573,2.504,3.573ZM81.13,113.178c3.251-2.59,7.067-5.35,10.075-8.173.548-.515,2.51-2.3,2.713-2.74,1.38-3.014-1.878-7.156-5.258-5.672l-13.827,7.989c3.86,1.056,6.63,4.497,6.297,8.596M96.236,102.273h6.295c.155,0-.027,2.451,1.469,2.35,2.16-.148,1.362-3.005,1.47-4.45-2.834.57-7.734-.672-9.234,2.1M144.5,107.304l-2.92.44c-.442.508,2.186,10.335,2.46,11.979.377,2.265-.452,9.46,3.095,8.907,3.218-.501,1.149-4.836.515-7.062-.161-.563-.786-1.008-.936-1.583-1.026-3.924-1.595-8.635-2.214-12.68M90.78,126.182l-7.552-2.516c-.156,6.28,1.465,20.45,6.919,24.33,2.99,2.124,12.677,2.166,15.722.186,5.295-3.442,7.279-18.502,7.153-24.516l-7.972,2.516c-.696.03-1.404-.045-2.1,0-2.89.187-6.75.165-9.653,0-.834-.048-1.681.033-2.517,0M112.185,140.439c5.048-.694,11.813-6.933,8.757-12.315-1.116-1.965-5.613-2.878-6.237-1.31-.711,1.786,1.425.482,2.685.63,5.415.632,2.198,7.664-1.368,9.914-1.659,1.046-3.573.777-3.837,3.081M113.445,136.245c2.39.33,7.247-5.4,4.194-6.93-3.672-1.843-3.567,4.94-4.194,6.93M53.425,157.221h88.978l-7.118-16.167-18.285-.202-4.395,1.689h18.675c.446,0,.8,1.19.63,1.677h-20.775c-.204,0-.94,1.32-1.05,1.678h23.085c.083,0,.083,1.677,0,1.677h-24.133c-.112,0-1.372,1.298-1.47,1.679h26.652c.447,0,.802,1.207.627,1.675-10.421.038-20.856-.034-31.283-.015-3.724.006-7.567.006-11.298,0-10.425-.02-20.86.053-31.282.015-.176-.468.18-1.675.627-1.675h27.072c-.1-.381-1.358-1.679-1.47-1.679h-24.342c-.725,0-.723-1.677,0-1.677h23.293c-.11-.357-.846-1.678-1.05-1.678h-21.195c-.17-.488.186-1.677.63-1.677h19.935l-.705-1.695-22.95.073-7.403,16.302h0ZM142.823,159.318H53.006v14.89c0,.074.647.74.845.833.717.336,11.976.444,13.206.207,1.715-.33,1.694-3.112,3.889-3.661l53.208-.114c3.321.39,3.066,3.495,4.605,3.786,1.224.23,12.513.112,13.217-.218.197-.093.845-.759.845-.832l.002-14.891h0Z"/>
  <path class="st11" d="M81.13,113.178c.335-4.1-2.437-7.54-6.296-8.596l13.826-7.99c3.38-1.483,6.638,2.66,5.258,5.674-.202.44-2.164,2.224-2.713,2.739-3.008,2.823-6.824,5.583-10.074,8.175"/>
  <path class="st0" d="M90.78,126.182c.542,4.01-.456,4.53-4.197,5.034-.02-.12-.357-.483-.438-1.016-.205-1.354.795-3.975-1.239-4.017-.534,5.018,1.956,19.175,7.125,21.19,2.997,1.168,11.404,1.013,13.876-1.249,3.75-3.429,5.56-14.917,5.437-19.945h-1.256c.099,1.69-.156,3.382-.421,5.037-.711-.32-4.406-1.07-4.563-1.314-.341-.533.12-2.856-.054-3.72l7.972-2.516c.126,6.014-1.86,21.075-7.153,24.516-3.045,1.98-12.732,1.938-15.72-.187-5.456-3.88-7.077-18.05-6.921-24.329,0,0,7.552,2.516,7.552,2.516Z"/>
  <path class="st3" d="M93.297,126.182v3.357l9.412.006.24-3.363c.697-.045,1.405.03,2.1,0,.174.864-.286,3.187.054,3.72.158.244,3.853.994,4.564,1.314-.133.813-.26,1.714-.42,2.515-7.582,1.944-14.803,2.198-22.246-.42-.14-.72-.295-1.335-.42-2.095,3.743-.504,4.74-1.025,4.199-5.034.835.033,1.683-.048,2.517,0"/>
  <path class="st11" d="M77.3774,107.8582c5.376,5.065-1.242,13.55-7.201,8.245-5.554-4.942,1.687-13.44,7.201-8.245"/>
  <path class="st0" d="M126.4328,84.7006c-1.05,9.015,2.385,8.097,8.795,10.296,4.313,1.48,8.174,4.79,8.395,9.685.075,1.64-2.053,1.805-2.487,1.397-.162-.153-.474-3.467-.834-4.409-2.392-6.264-13.479-3.735-15.756-10.26-.73-2.09-.657-4.52-.636-6.71h2.523v.001Z"/>
  <path class="st11" d="M144.5,107.304c.619,4.046,1.188,8.757,2.214,12.681.15.575.775,1.02.936,1.583.634,2.226,2.703,6.56-.515,7.062-3.547.553-2.718-6.642-3.096-8.907-.273-1.644-2.901-11.47-2.46-11.98l2.921-.439h0Z"/>
  <path class="st4" d="M105.47,106.467c.233,3.516-.292,6.993-.42,10.485-.022.558.002,1.12,0,1.68-.011,1.673.007,3.36,0,5.033-.652.105-1.145.32-2.1.42,0-1.953.004-3.92,0-5.873,0-.56.017-1.12,0-1.678-.097-3.368-.487-6.695-.419-10.067.312.084,2.625.084,2.939,0M93.297,106.467c-.013,3.345.055,15.715-.102,17.663-.985-.094-2.4616-.2474-2.4096-.3164.15-.201-.0174-4.3256-.0054-5.1826.008-.558-.004-1.118,0-1.677.021-2.817.336-6.143-.42-8.808,1.71-1.443,1.718-.965,2.937-1.679"/>
  <path class="st5" d="M102.951,126.182l-.241,3.363-9.415-.006.002-3.357c2.902.165,6.763.187,9.654,0"/>
  <path class="st0" d="M112.185,140.44c.264-2.305,2.178-2.036,3.837-3.082,3.566-2.25,6.785-9.282,1.367-9.915-1.257-.147-3.395,1.157-2.684-.63.624-1.567,5.121-.654,6.237,1.311,3.056,5.382-3.71,11.62-8.757,12.315"/>
  <path class="st7" d="M95.295,51.629c16.505-2.382,19.232,22.518,3.206,24.17-15.703,1.62-18.566-21.953-3.206-24.17M105.888,69.135c3.45-5.658,1.556-12.214-4.615-14.68-.21-.084-.444-.557-1.128-.741-8.92-2.4-16.278,6.562-11.96,14.87,3.575,6.874,13.712,7.1,17.703.551M124.246,54.555c15.484-2.902,15.397,21.23.418,18.675-9.608-1.64-9.986-16.88-.418-18.675M126.87,56.132c-.591-.623-.762.045-.837.622-.105.828.582,6.816-1.261,5.465-1.009-.738.044-4.41-.623-5.664-8.677,3.93-5.715,16.068,4.158,14.64,7.254-1.047,7.716-12.23.873-14.64-.794,1.84,1.023,5.412-1.884,5.868-.04-1.094.14-5.694-.426-6.291"/>
  <path class="st2" d="M60.771,64.941h7.974c.075,0,1.05.975,1.05,1.05v7.55c0,.073-.975,1.048-1.05,1.048h-7.974c-.075,0-1.05-.975-1.05-1.05v-7.55c0-.134.863-.767,1.05-1.048M68.115,66.62h-6.714v3.774h6.714v-3.774ZM68.115,71.652h-6.714v1.26h6.714v-1.26ZM60.771,52.778h7.974c.075,0,1.05.975,1.05,1.048v7.55c0,.075-.975,1.05-1.05,1.05h-7.974c-.075,0-1.05-.975-1.05-1.05v-7.55c0-.135.863-.768,1.05-1.05M68.115,54.453h-6.714v3.776h6.714v-3.776ZM68.115,59.487h-6.714v1.259h6.714v-1.259Z"/>
  <path class="st7" d="M73.881,54.948c3.866-.798,4.863,4.62,1.479,5.306-4.011.813-4.623-4.656-1.479-5.306M74.205,56.556c-.843.237-.843,1.853,0,2.09,1.93.54,1.93-2.631,0-2.09"/>
  <path class="st2" d="M73.443,67.12c3.972-1.216,5.154,3.833,2.549,5.06-3.782,1.78-5.55-4.14-2.55-5.06M74.204,68.721c-.843.236-.843,1.851,0,2.088,1.93.54,1.93-2.63,0-2.088"/>
  <path class="st7" d="M59.721,154.284c-.183-1.17.248-1.722,1.448-1.698,23.835,1.323,49.444-1.687,73.069,0,.432.032,2.187.303,2.288.444.24.338-.406,1.254-.629,1.254H59.721Z"/>
  <path class="st4" d="M109.247,133.731c-.203,1.014-.581,1.955-.84,2.937-6.629,2.094-13.904,1.829-20.566,0-.379-1.335-.548-1.89-.84-3.355,7.443,2.616,14.664,2.362,22.245.42"/>
  <path class="st9" d="M101.273,54.455c6.17,2.466,8.066,9.022,4.615,14.68-.182-.6-.645-.832-1.259-.838,2.714-4.554.618-11.415-4.617-13.004-.195-1.12.267-.855,1.26-.838"/>
  <path class="st5" d="M61.401,66.62h6.716v3.775h-6.717v-3.775h.001Z"/>
  <path class="st9" d="M61.401,71.652h6.716v1.259h-6.717v-1.259h.001Z"/>
  <path class="st5" d="M61.401,54.455h6.716v3.775h-6.717v-3.775h.001Z"/>
  <path class="st9" d="M61.401,59.489h6.716v1.258h-6.717v-1.258h.001ZM74.205,56.556c1.93-.54,1.93,2.63,0,2.09-.843-.237-.843-1.853,0-2.09M74.205,68.721c1.93-.541,1.93,2.63,0,2.088-.843-.237-.843-1.852,0-2.088"/>
  <path class="st1" d="M108.407,136.668c-.706,2.676-1.705,7.9-4.61,9.026-2.29.885-9.927,1.077-11.979-.207-2.443-1.527-3.261-6.305-3.976-8.82,6.661,1.83,13.936,2.095,20.565,0"/>
  <path class="st7" d="M100.013,55.293c5.234,1.59,7.33,8.45,4.616,13.005-1.58,2.654-1.523.636-2.098,0,2.598-3.037,2.358-6.873-.42-9.65-5.184-5.179-13.485-.32-11.985,6.736.296,1.384,1.36,2.184,1.494,3.534-.741,1.302-1.76-.555-2.11-1.24-3.628-7.075,2.981-14.666,10.502-12.385"/>
  <path class="st9" d="M102.531,68.297c-.126-.14-1.051.268-1.149-1.563-.135-2.585,1.101-3.389.309-6.825-.081-.354.056-.864,0-1.26h.42c2.778,2.776,3.018,6.612.42,9.648"/>
  <path class="st10" d="M101.691,59.909c-1.106,1.334-1.743,2.063-2.318,3.136-.109,1.2-.694,1.972-1.312,2.273-1.266.766-2.7.132-2.706-1.422-.009-2.06,1.665-1.562,2.784-2.295,1.17-.768,1.98-2.783,3.552-2.952,0,0,.843.244,0,1.26Z"/>
  <path class="st2" d="M86.583,131.216c.123.76.278,1.375.42,2.097.29,1.467.459,2.02.839,3.355.715,2.514,1.532,7.29,3.974,8.82,2.054,1.283,9.69,1.092,11.981.206,2.906-1.125,3.905-6.35,4.61-9.026.259-.982.637-1.923.84-2.937.16-.8.287-1.702.42-2.515.265-1.655.52-3.345.42-5.037h1.256c.124,5.028-1.684,16.515-5.435,19.945-2.473,2.262-10.88,2.415-13.877,1.248-5.169-2.014-7.659-16.171-7.125-21.189,2.034.042,1.034,2.663,1.239,4.017.081.533.419.897.438,1.016"/>
</svg>