<?xml version="1.0" encoding="UTF-8"?>
<svg xmlns="http://www.w3.org/2000/svg" viewBox="0 0 196 196">
 <path fill="#f3f4ef" d="M92.9047,38.1554l17.7624,37.9636,6.3,1.071,15.7296-8.5983s12.9886-11.5364,13.0704-12.1909-.7769-6.2731-.7769-6.2731l-28.7594-29.3178-11.8369,9.6073s-11.4892,7.7382-11.4892,7.7382Z"/>
 <polygon fill="#fff" points="113.3672 19.0592 103.3165 21.3829 96.1268 26.6456 90.8672 34.6372 93.2399 37.1736 99.8672 34.1463 115.1672 21.5424 115.1672 19.1722 113.3672 19.0592"/>
 <path fill="#fff" d="M125.3944,13.975l-5.2967,5.6351-.7685,3.7846,8.6015,8.8698s.9818-2.3795.6545-2.7443-4.2075-5.2209-4.2075-5.2209l-.2495-2.9164,3.3115-3.0873,5.2569.3871.9613-2.9594-3.5182-1.153-4.7455-.5952h.0002Z"/>
 <path fill="#fff" d="M71.2168,53.0647c-.3951.2271-2.7564,1.7816-2.7564,1.7816l.5948,2.5364,8.3001-.3355s7.7845,5.2931,7.7845,5.5961,7.1895,9.0538,7.1895,9.0538l7.9468,3.0892,8.0182-1.0727-.8675-3.6491s-2.978.9211-3.3871,1.0333-4.1727-.394-4.1727-.394l-6.9624-4.2553-9.7285-9.9657-8.1571-3.7428-3.8023.3249v-.0002Z"/>
 <path fill="#b09170" d="M57.2335,84.5463l-6.0754.7636-4.9636,2.4545.8455,1.4182,14.1838,1.2818,15.6631-.9818c2.3178-.1029,8.2553-3.1816,2.7985-2.9727-.139.0053-15.3689-2.4-15.3689-2.4l-7.0829.4364h0Z"/>
 <path fill="#fff" d="M60.7853,79.9645l.6085,4.0464,8.8552.9104,9.5778,1.5886s3.8676,1.4727,4.1404,1.4727,4.5616-1.7476,4.5616-1.7476l.004-2.2241-8.0862-3.0448-19.6612-1.0017h0Z"/>
 <polygon fill="#fff" points="39.8571 92.1554 48.5144 94.6086 64.6207 95.6332 61.9853 105.2463 60.5944 112.6099 61.3938 122.7281 54.0688 120.5654 46.556 106.7462 38.7677 92.5645 39.8571 92.1554"/>
 <path fill="#dededc" d="M42.7308,124.7463l-1.1583,2.3455,3.8383,1.5545,1.4654,2.3788,16.9077,2.3939,16.5832-2.3939,3.6-7.097-7.0804,2.481-3.1196,3.519s-8.14,1.1031-8.27,1.097-10.6573-1.2061-10.6573-1.2061l-3.8182-2.1818-1.2545-1.6909-7.0364-1.2h0Z"/>
 <path fill="#dededc" d="M82.7588,130.4736v3.4909l5.2166.466,2.5384,5.4795,3.5442,12.083-.7822,4.0625-4.7431,3.3818.937,3.7636,5.1337-3.4909,3.2182-5.1818v-5.7273s-6.3273-15.6-6.3273-15.8182-4.702-2.7895-4.702-2.7895l-4.0336.2804h.0001Z"/>
 <path fill="#eae9e5" d="M64.6207,95.6332l-2.2124,8.2222-1.623,7.9644v6.6538l.9818,4.2545,9.4497-.6801,3.0958-2.2108s14.3122-28.2,14.2197-28.3091-14.1106,3.4791-14.1106,3.4791l-9.801.626h0Z"/>
 <path fill="#dededc" d="M50.6944,126.6554s1.247,1.372,1.4417,1.7769c.1947.4049,11.6479,2.2049,11.6479,2.2049l11.0078-1.7226,1.2663-2.2592s-25.3637,0-25.3637,0Z"/>
 <path fill="#dededc" d="M88.28,92.9132l-2.0765,3.1967h5.1818l2.5636,2.2364-2.3455,4.4289-10.9736,5.3893s-2.2264,3.6-2.0628,3.6545,9.0545-2.9744,9.0545-2.9744c0,0,7.6934-5.2074,7.8285-5.5347s2.2078-5.4545,2.0442-5.7273-2.3455-3.936-2.5636-4.0407-6.6508-.6288-6.6508-.6288h.0002Z"/>
 <path fill="#f0efeb" d="M49.8217,116.619l-7.8545,2.2909-1.9944,3.1421,3.7833,2.9295,12.7202,2.1102,18.3155-.2182,10.2117-3.0545,1.9563-2.6727s-2.829-3.2727-3.1563-3.4364-7.3317-1.3703-7.3317-1.3703l-2.8137,4.043-4.8545,2.1273-8.6727.1636-5.4-1.1643-3.024-4.3116-1.8851-.5786h0Z"/>
 <polygon fill="#f0efeb" points="45.7308 130.4736 45.4108 135.4917 46.556 138.7099 56.8035 140.7281 68.149 141.219 79.4944 139.0532 81.9248 137.0478 82.3853 129.553 73.4399 133.0372 57.5672 133.1463 45.7308 130.4736"/>
 <path fill="#eae9e5" d="M46.1355,137.8372l-8.4229,28.2545,1.055,4.1455,7.0177,4.9636,14.9455,2.5091h11.4l11.5636-3.2942s5.0727-2.4331,5.0727-2.6512,1.8-4.0364,1.7455-4.3091-8.5636-29.6182-8.5636-29.6182l-10.4727,3.1636-13.2.3497-9.3818-2.2974-2.7589-1.216h-.0001Z"/>
 <polygon fill="#9e7646" points="61.8426 153.0554 70.6035 153.0554 82.0035 155.3954 85.4399 157.419 84.6071 160.3645 72.7853 164.2372 56.2581 164.2372 43.756 160.419 43.2763 157.419 49.0035 154.5281 61.8426 153.0554"/>
 <path fill="#5f4028" d="M42.949,159.7099l-2.2364,6.2182.8599,3.8182,11.7947,4.6694,14.6182.7851,12.6545-2.1818s6.8727-3.6,6.8182-4.0364-.5132-5.6182-.6657-5.8909-1.5161-3.3818-1.5161-3.3818l-7.9091,3.828-14.1199.8629-13.6983-1.3636-6.6-3.3273Z"/>
 <path fill="#3a3835" d="M50.0228,42.5802c-.304,1.48-1.216,2.56-1.068,4.212.213,2.385,2.67,4.235,2.672,6.9.001,1.23-.81,4.008-2.438,3.984-.033-.904.666-1.393.815-2.325.663-4.155-2.775-5.57-2.522-9.202.083-1.2,1.086-3.563,2.541-3.57"/>
 <path fill="#2c2a29" d="M74.3668,61.8752l-1.674,1.68c.303.924,2.082.159,1.672,1.88l-1.674.215c2.955,5.94-4.798-1.27-4.197-2.095,2.094-.25,3.686-2.025,5.873-1.68M48.7688,76.1412c.062-.09,1.29-.17,1.257-.837l-1.257-1.051,1.676-.64c.112-.109-2.316-2.174-.62-2.513.494-.1,5.429,2.88,3.978,4.405-.93.983-6.537,2.874-5.034.636"/>
 <path fill="#3a3835" d="M55.4788,46.7742c-1.956,4.278,3.066,6.804.507,10.778-2.313,3.594-.5-2.303-.587-2.928-.298-2.156-4.564-6.222.081-7.85"/>
 <path fill="#403e3c" d="M44.5678,47.1942c.14.804-.615,1.266-.756,1.976-.59,2.932,5.15,7.573-.08,9.765.276-1.39,1.017-1.938.825-3.525-.277-2.31-4.9-6.222.01-8.216"/>
 <path fill="#2c2a29" d="M47.9278,73.2012c.135.17.004.97-.198,1.268-.69,1.015-5.19-.64-4.416-1.688.315-.427,4.467.24,4.614.42M56.3178,62.2952c.098.097.047.966-.182,1.28-.5.68-4.24.652-4.428-.24-.302-1.435,4.435-1.22,4.612-1.04"/>
 <path fill="#33312f" d="M77.3038,72.3612c.417,1.695-1.793,2.063-3.02,2.235-.48.07-1.416.516-1.591-.355-.236-1.161,3.81-1.973,4.612-1.88M80.2438,67.7432c-.48.459-5.38-1.323-4.196-2.513.719-.723,5.427,1.33,4.194,2.513"/>
 <path fill="#2c2a29" d="M71.0098,75.2892c-.206.312-2.874.558-3.501.36-.735-.234-.93-1.384-.693-1.61.192-.18,5.502-.736,4.194,1.25M50.4428,63.9672c-.285.38-4.45.597-4.617.421-.71-1.585,2.325-1.905,3.56-1.681.625.11,1.455.732,1.057,1.26M78.9878,72.3572c-.682-.66,2.864-5.14,3.356-2.714.25,1.227-2.685,3.364-3.356,2.715M42.0508,71.9472c1.422,1.897-4.908,1.027-4.193-1.05.267-.771.626-.465,1.113-.291.404.142,2.98,1.206,3.08,1.34M39.9548,66.0662c-.835-1.817,3.951-3.09,4.193-1.879.25,1.245-3.377,1.86-4.193,1.88"/>
 <path fill="#b8b6b2" d="M87.3748,87.8802c.127.158-.85,2.604-1.065,2.915-.953,1.377-7.43,2.54-9.329,2.84-9.367,1.478-21.942,1.366-31.155-.93-2.848-.707-4.531-.824-5.034-4.2-.13-.87-.11-.593.42-.424,2.996.957,5.943,1.844,9.078,2.26,5.29.706,22.746,1.474,27.038-.554.954-.452,2.947-2.306,3.537-2.324.931-.03,1.665,1.214,2.943,1.29,1.8811-.8606,3.0504-1.1486,3.567-.874"/>
 <path fill="#62a2cf" d="M67.6538,58.5172c-4.33,5.194-5.503,14.765-5.761,19.23-.3,5.176-.123,4.74-.534,8.873-.14-.05-2.487.326-2.94.42.214-10.25.987-22.536,8.815-29.994l.42,1.471Z"/>
 <path fill="#eae9e5" d="M57.1628,81.1652c.207,3.526.077,2.124-2.263,2.565-2.1813.42-4.3453.914-6.492,1.482-1.46.4-3.5,1.728-4.51,1.827-1.465.142-2.299-.855-3.505-1.082-.742-.138-3.133.803-1.273-1.218,1.57-1.705,17.09-4.542,18.043-3.574"/>
 <path fill="#f3f4ef" d="M131.0258,26.2212c2.474.308,5.265-2.076,6.944-3.762,1.266-1.27,1.417-3.408,3.77-3.4,3.05.009.695,3.846-.292,5.2-2.196,3.017-9.92,9.06-10.422,1.962"/>
 <path fill="#f3f4ef" d="M137.2838,18.7072c1.33,1.954-6.39,7.478-9.126,5.765-.29-.181-1.444-3.274-1.347-3.903.365-2.374,2.862-.09,3.99-.207.867-.088,2.085-1.762,3.479-2.025.66-.126,2.718-.052,3.004.37M146.9788,22.0232c.495,3.276-1.74,5.925-3.978,7.981-1.373,1.26-4.89,4.311-6.555,2.336-1.332-1.584.24-1.454,1.01-1.99,2.91-2.024,4.427-3.092,6.51-6.09,1.07-1.544.322-2.734,3.013-2.236"/>
 <path fill="#f3f4ef" d="M148.4458,26.6472c2.494-.126-1.878,7.506-4.095,8.484-1.25.55-3.264-.258-3.242-1.152.006-.27,3.368-2.48,4.2-3.345.59-.613,2.883-3.975,3.137-3.987"/>
 <path fill="#eae9e5" d="M100.469,16.8037c1.3689-.1335,2.8445,5.511,2.6309,6.3474-.2076.8112-3.0743,2.8771-3.8648,2.8119-.8587-.0742-5.6282-3.6038-5.3894-4.5529.0979-.39,6.0464-4.5485,6.6248-4.6034"/>
 <path fill="#33312f" d="M73.1098,95.8482l-1.7.7c-.65,1.17-3.892,9.218-4.384,9.376-.198.063-1.055.135-1.056-.222.195-3.58,2.92-6.267,4.201-9.435.636-.04,1.898-.338,2.939-.419"/>
 <path fill="#201f1e" d="M85.1588,156.3672c.96,1.133,3.437,10.64,2.973,12.171-.835,2.756-8.21,5.331-10.824,5.96-9.435,2.27-21.77,2.092-30.86-1.46-3.36-1.314-7.069-3.04-6.395-7.25.195-1.222,2.134-7.685,2.66-8.67,1.89-3.54,13.35-4.83,17.18-5.059,5.099-.303,21.885.317,25.266,4.308M84.3538,159.5232c.808-1.389-.479-2.52-1.59-3.064-7.647-3.747-28.593-3.723-36.39-.294-5.895,2.593-.46,4.746,2.904,5.655,8.31,2.25,22.446,2.409,30.637-.236.743-.24,4.2-1.65,4.439-2.06M85.2778,160.8632c-1.45.47-2.61,1.437-4.085,1.998-7.902,3-22.992,2.847-31.17.73-2.614-.676-4.67-1.77-7.128-2.728-1.68,6.078-2.83,7.809,3.488,10.563,9.129,3.978,26.002,3.912,35.23.243,6.846-2.723,5.574-4.478,3.665-10.806"/>
 <path fill="#262524" d="M63.5126,143.5099c3.0237.9546,4.8312,7.3813.1412,7.3193-3.99-.054-3.0382-6.0328-.1412-7.3193Z"/>
 <path fill="#33312f" d="M46.6678,95.0102c-.132,2.589.613,5.115.982,7.632.315,2.142-.892,2.175-1.542.27-.795-2.331-.5099-5.7437-.5269-8.1887l1.0869.2867Z"/>
 <path fill="none" d="M61.3648,119.1172c.2,2.567.687,3.952,3.286,2.04,2.473-9.1882,6.6212-17.8409,12.236-25.523-1.235.076-2.535.115-3.776.211-1.04.081-2.302.38-2.938.42-1.802.113-3.651-.085-5.457.002v.001c.157.438.348.747.234,1.248-1.922,8.367-4.338,11.973-3.585,21.602M81.9248,106.7472c2.639-.463,13.274-6.045,10.532-9.475-.82-1.026-4.455-.714-5.474.064-1.443,1.101-3.39,7.71-5.058,9.411M80.8658,87.4602c-.59.018-2.583,1.872-3.537,2.324-4.291,2.028-21.747,1.26-27.037.555-3.135-.417-6.083-1.304-9.078-2.26-.53-.17-.55-.448-.42.422.502,3.377,2.185,3.494,5.034,4.202,9.213,2.295,21.787,2.407,31.155.93,1.899-.3,8.376-1.464,9.328-2.841.215-.31,1.193-2.757,1.065-2.916-1.05.369-1.3664-.1285-2.4814-.1935-1.278-.076-3.0966-.2525-4.0286-.2225"/>
 <path fill="none" d="M55.2788,120.5912c.224.1.711.08.621-.203-3.937-7.13-5.518-16.059-4.612-24.124l1.258.003v9.018c0,2.68,2.636,11.12,3.977,13.642,1.075,2.027,1.254,2.886,3.997,2.502-.966-7.254-.525-17.763,2.958-24.432.258-.492.968-.082.818-.727l-5.436.015c-.507,3.157-1.694,6.138-1.275,9.417-.063.502-1.59.394-1.662-.795-.027-.43.34-3.543.444-4.193.24-1.533.904-2.94,1.215-4.446-3.575-.543-7.374-.541-10.913-1.26-2.038-.414-4.552-1.744-6.712-1.89,2.62,3.392,13.125,26.483,15.322,27.473M73.4528,128.6972c.537-.164,1.226-.317,1.338-.966-7.672.53-15.475.865-23.085-.42.179.727.97.93,1.583,1.14,3.999,1.375,16.135,1.47,20.164.246M81.5008,139.0532c-11.024,4.293-23.603,3.613-34.829.417-2.202,9.13-5.338,18.102-7.891,27.177-.321,4.185,5.304,6.813,8.619,7.957,9.402,3.243,25.347,3.183,34.635-.417,3.36-1.302,8.109-3.694,7.354-7.972,0,0-7.888-27.162-7.888-27.162Z"/>
 <path fill="none" d="M47.9208,130.0392c6.167,2.735,25.568,2.939,31.72.228,1.755-.772,2.646-2.877,3.12-4.64-1.395.99-4.62.877-5.756,1.8-.331.268-.547,1.073-1.155,1.564-3.466,2.803-20.94,2.791-24.366.004-.721-.586-1.02-1.72-1.755-2.02-1.66-.678-5.562-1.526-7.252-.923l2.9,1.497c1.108.76,1.205,1.896,2.545,2.49"/>
 <path fill="none" d="M49.3908,138.2202c7.862,2.538,21.523,2.606,29.36-.033,4.184-1.407,2.474-2.802,2.753-6.684-11.324,3.681-23.88,3.278-35.25,0,.213,4.464-1.43,5.243,3.138,6.717M40.3948,85.9562c1.206.226,2.04,1.224,3.505,1.081,1.01-.099,3.05-1.426,4.508-1.827,1.788-.49,4.633-1.13,6.493-1.482,2.34-.44,2.47.962,2.264-2.565-.954-.967-16.473,1.87-18.044,3.576v-.001c-1.86,2.02.531,1.08,1.274,1.218M162.1308,3.9422c-1.725.577-3.487.937-5.305.91,1.818.027,3.58-.333,5.305-.91M153.4828,17.1702h.001c.535-.001,2.567-.47,4.036-.497-1.468.026-3.501.495-4.037.497M129.6698,13.9652c3.697-.162,7.773-2.284,11.15-2.105-3.377-.18-7.453,1.943-11.15,2.105M93.1468,150.2762c-.31-2.303-3.67-12.675-4.983-14.315-1.002-1.252-3.054-1.58-4.56-1.525l-.324,5.142,5.365,18.348c3.741-1.78,5.08-3.37,4.502-7.65M152.4578,29.5212c1.22-.138,6.266-2.412,7.24-2.965.895-.508,1.686-1.113,2.433-1.749v-.001c-.748.636-1.539,1.241-2.435,1.75-.973.553-6.014,2.825-7.238,2.965M146.2718,17.4872c1.498.71,5.525,1.687,8.68,1.685-3.154.002-7.18-.975-8.678-1.685-1.268-.602-4.733-3.713-5.043-3.785h-.002c.31.072,3.776,3.183,5.043,3.785M139.2478,17.7992c.617-.072,1.295-.633,2.375-.718-1.08.085-1.758.645-2.375.718M155.7308,19.1452c.044-.003.092-.002.136-.005l-.137.005M144.0428,4.2422c.1233-.02.2477-.0393.373-.058-.126.018-.2503.0373-.373.058M77.1068,117.2202c-1.37.207-1.77,2.92-2.73,4.013-2.914,3.318-17.457,2.878-20.97.39-1.89-1.337-.684-4.712-4.31-4.29-1.52.178-6.995,1.98-7.694,3.26-.822,1.505,1.503,2.368,2.6,2.88,8.156,3.799,32.083,4.08,40.018-.154,6.156-3.286-4.78-6.42-6.914-6.099M116.0738,22.0562c-1.812,1.402-3.537,3.41-5.412,4.992-4.794,4.044-11.005,8.7-16.989,10.5-.055,1.015.41,1.893.77,2.797,3.11,7.845,7.693,16.95,11.463,24.615,1.113,2.262,4.218,9.28,5.79,10.572,3.685,3.032,10.273-1.515,13.675-3.582,3.87-2.352,18.185-12.576,19.316-16.35.772-2.58-.002-4.135-1.497-6.09-2.346-3.066-5.762-5.626-8.397-8.385-6.143-6.427-12.204-12.98-18.719-19.07,0,0,0,.001,0,.001ZM107.1028,71.0972c-.216-.164-4.134,1.206-5.29,1.213-12.082.075-15.374-19.647-28.867-18.361-1.624.154-3.855.519-3.192,2.469,2.096-.117,3.875-.617,6.04-.37,11.462,1.31,13.32,19.853,28.057,17.88.643-.086,3.232-.743,3.505-1.136h-.001c.23-.332-.185-1.643-.252-1.695M114.2408,19.9302c-2.319-1.04-8.42.657-10.059,2.318-.86.873-.726,1.9-2.39,3.06-1.816,1.264-2.97.68-3.892,1.11-1.899.882-6.25,7.014-5.48,9.447,1.478,1.591,17.554-10.646,19.309-12.368.468-.459,2.976-3.05,2.512-3.567M148.4458,26.6492c-.254.012-2.547,3.373-3.137,3.987-.832.864-4.194,3.075-4.2,3.345-.022.894,1.992,1.702,3.242,1.152,2.217-.978,6.59-8.61,4.095-8.484M101.5958,22.5752c.144-.564-.85-4.37-1.773-4.278-.39.037-4.4,2.84-4.467,3.105-.16.639,3.056,3.02,3.635,3.069.532.045,2.466-1.349,2.605-1.896M146.9788,22.0242v.002c-2.691-.498-1.943.691-3.014,2.235-2.082,2.998-3.598,4.066-6.51,6.091-.77.536-2.341.405-1.01,1.99,1.666,1.975,5.183-1.076,6.556-2.336,2.238-2.057,4.473-4.706,3.978-7.982M137.2858,18.7092h-.002c-.286-.421-2.344-.495-3.004-.369-1.395.263-2.612,1.937-3.479,2.025-1.128.117-3.625-2.167-3.99.207-.097.629,1.056,3.722,1.347,3.903,2.738,1.713,10.457-3.811,9.128-5.766"/>
 <path fill="none" d="M141.4478,24.2622c.987-1.354,3.342-5.191.293-5.2-2.354-.008-2.505,2.13-3.771,3.4-1.679,1.686-4.47,4.07-6.944,3.762.503,7.098,8.226,1.055,10.422-1.962M127.6648,30.4172c-1.259-3.045-5.594-4.47-4.758-8.295.513-2.35,2.793-4.875,5.385-4.743,1.768.09,2.638,1.843,4.405-.594-.3971-.4821-.943-.8187-1.552-.957-.479-.104-5.406-.485-5.685-.43-1.808.367-5.534,5.509-5.358,7.243.12,1.188,6.309,6.528,7.563,7.776"/>
 <path fill="none" d="M126.4108,25.3812c.607,1.256.588.894,1.26,1.679.489.57.874,1.419,1.674,1.677.306-1.91-.795-1.718-1.254-2.096-.554-.457-1.148-.825-1.679-1.26-.481-.996-.53-2.758-1.675-3.355-.323,2.02.394,2.308,1.674,3.355M83.6848,94.2552c-.21.299-.132,1.39-.561,2.16-1.68,3.008-4.208,6.093-6.03,9.078-1.094.537-.483-1.534-.297-1.977.463-1.104,5.937-8.574,5.547-8.923l-4.095.94c-5.01,8.097-9.575,16.493-12.267,25.698.62.28,2.877.39,3.285.135.54-.336,4.444-10.005,6.574-10.834.49.44.19,1.533-.02,2.077-.377.968-5.225,7.956-4.804,8.406l2.05-1.092,13.89-27.01c-.583.586-3.04,1.012-3.272,1.342M83.1818,132.7592c2.445-.15,4.907.08,6.482,2.124,1.473,1.91,5.63,14.986,5.61,17.385-.012,1.504-.977,3.52-1.997,4.63-.903.981-3.69,2.33-3.813,3.33-.06.49.213,1.47.645,1.467.224-.003,3.158-2.34,3.572-2.715,3.213-2.898,3.816-4.623,3.165-9.045-.434-2.935-3.963-13.965-5.688-16.125-1.89-2.365-5.09-3.001-7.976-2.725v1.674h0ZM62.6208,83.6852c3.008-.61,5.833.406,8.644.796,3.282.453,7.126.7,10.239,1.473,2.425.605,1.7,2.339,5.46.46,4-2.002-4.263-3.76-5.948-4.129-5.922-1.296-12.36-1.525-18.4-1.54,0,0,.005,2.94.005,2.94ZM93.9108,100.9072c-1.232,2.543-5.828,5.089-8.347,6.338-2.065,1.025-4.896,1.025-5.737,3.28,4.413-1.034,10.509-3.587,13.7-6.854,2.155-2.204,3.48-4.724,1.91-7.695-1.41-2.669-6.571-3.55-7.636-.55,4.257-1.525,8.42.707,6.11,5.48v.001Z"/>
 <path fill="none" d="M58.4208,87.0402c-.2.042-.602.695-1.256.417-.09-.462.126-1.97,0-2.097-.824-.826-8.412,1.9-9.963,2l-.53.936c7.052.804,14.075,1.65,21.21,1.278,1.521-.08,3.91-.28,5.387-.49,1.734-.245,4.027-.3,4.878-2.04-1.637.116-3.615-.964-4.94-1.184-.873-.146-1.599.2-2.259.105-1.56-.224-7.294-1.782-8.13-.614-.262.368-.22,2.08-.832,2.1-.237.01-.516-.79-.627-.83-.014-4.53.2-8.569.84-13.004.336-2.325,2.626-14.98,5.457-15.1l-.42-1.47c-7.829,7.457-8.601,19.742-8.814,29.993h-.001Z"/>
 <path fill="#f3f4ef" d="M156.8258,4.8522c-.79-.012-1.636-.12-2.496-.255-.2876-.0459-.575-.0936-.862-.143-.576-.098-1.151-.2-1.713-.283-.5417-.0842-1.0869-.1436-1.634-.178-.5552-.0312-1.111-.0502-1.667-.057-.5368-.0061-1.0737.0023-1.61.025-.873.037-1.675.114-2.427.222l-.373.059c-4.797.781-7.566,2.936-13.451,4.974l.001-.002c-1.833.636-9.34,1.39-4.755,3.945,1.193.665,2.487.865,3.83.806,3.698-.162,7.774-2.285,11.15-2.105.308.016.6097.0527.905.11,1.064.207,3.596,2.695,4.968,3.42,2.011,1.06,4.514,1.787,6.791,1.78.536-.002,2.568-.47,4.037-.497,1.142-.021,1.944.225,1.432,1.168-.442.813-1.612,1.194-3.085,1.3l-.137.004c-.2513.016-.511.025-.779.027-3.154.002-7.18-.974-8.679-1.685-1.267-.602-4.732-3.713-5.043-3.785-.079-.0169-.1593-.0269-.24-.03-1.398-.065-5.595,1.047-6.6,1.854,1.52-.054,3.815,2.07,4.494,2.25.1192.03.243.0378.365.023.617-.073,1.295-.633,2.375-.718.5107-.0345,1.0233.0293,1.51.188,2.242.693,1.85,2.274,2.232,2.59.468.385,2.697-.41,3.525,2.143.67,2.073,1.19,3.871,2.109,5.862.195.421.886,1.563,1.269,1.656.0453.01.1087.0103.19.001,1.224-.14,6.265-2.413,7.238-2.965.896-.509,1.687-1.114,2.435-1.75V3.9422c-1.725.577-3.487.937-5.305.91"/>
 <path fill="#262524" d="M159.6968,26.5562c-.973.553-6.018,2.827-7.24,2.965-.063.0098-.1271.0094-.19-.001-.383-.093-1.075-1.235-1.27-1.656-.92-1.99-1.438-3.79-2.109-5.862-.828-2.553-3.057-1.758-3.525-2.144-.382-.315.01-1.896-2.232-2.589-.486-.1585-.9979-.2223-1.508-.188-1.08.085-1.758.646-2.375.718-.1224.015-.2465.0072-.366-.023-.68-.18-2.975-2.304-4.494-2.25,1.005-.807,5.204-1.92,6.6-1.853.0947.004.1757.014.243.03.31.071,3.775,3.182,5.043,3.784,1.498.71,5.523,1.687,8.677,1.685.268,0,.526-.012.779-.027.045-.003.093-.001.137-.005,1.473-.105,2.642-.486,3.083-1.299.512-.942-.288-1.19-1.43-1.168-1.469.027-3.501.496-4.036.498h-.001c-2.277.007-4.781-.72-6.792-1.781-1.373-.724-3.905-3.213-4.968-3.42-.2981-.0577-.5998-.0945-.903-.11-3.377-.179-7.453,1.943-11.15,2.105-1.345.06-2.64-.14-3.832-.805-4.586-2.556,2.922-3.31,4.755-3.945,5.885-2.037,8.654-4.192,13.45-4.973.1233-.02.2477-.0393.373-.058.8047-.1151,1.6148-.1892,2.427-.222.5363-.0231,1.0732-.0317,1.61-.026.5307.006,1.0867.025,1.668.057.523.029,1.072.095,1.633.179.562.083,1.138.184,1.713.282.288.05.5757.0977.863.143.86.136,1.706.244,2.496.256,1.818.027,3.58-.333,5.305-.911V1.7752c-6.553,2.242-12.266-.75-19.032.226-3.42.492-8.733,3.61-12.274,4.93-3.854,1.436-12.029,1.665-6.932,7.536-2.7,1.058-4.1,4.005-5.665,6.291-3.576-4.762-10.296-3.222-14.694-.42-1.233-.08-.098-5.643-4.707-3.858-.615.239-4.527,2.985-4.917,3.471-2.535,3.153,2.275,4.538,2.275,5.22-2.722,2.928-6.666,6.86-5.772,11.23l15.432,33.016c-13.51,4.485-16.324-14.2-28.1-17.003-2.288-.544-7.768-.68-9.494,1.046-.5.5-.473,1.302-.735,1.563-1.194,1.188-2.678,2.038-3.813,3.53-3.972,5.218-5.856,14.057-6.12,20.52-3.56-.02-18.996,1.903-20.358,5.026-1.392,3.195,1.35,3.847.735,5.565-.615,1.717-.195,2.143.157,2.979,3.329,7.89,7.818,14.88,11.495,22.705-2.74.75-10.062,2.057-10.506,5.495-.308,2.38,2.365,3.088,2.517,3.775.168.767-1.94,1.355-1.05,3.108.735,1.45,2.18.362,3.045.72,2.48,1.02-.3,7.86,1.61,9.984-1.723,8.622-6.679,18.543-8.024,27.024-.462,2.925.207,4.851,2.36,6.914,8.824,8.44,42.85,8.96,50.33-1.23,2.553-3.477.31-5.682.885-7.473.177-.555,2.643-1.956,3.32-2.586,6.886-6.416,5.1-9.9,2.625-18.153-2.258-7.535-3.987-14.24-13.542-13.944.834-.92,1.242-3.33,1.806-4.065.447-.585,1.68-.7,2.482-1.92,3.095-4.704-6.09-6.752-9.11-7.445-.406-.093-.872.258-.623-.605.105-.355.978-1.876,1.266-2.092.858-.642,6.36-2.001,8.106-2.805,5.337-2.457,13.912-8.295,9.86-15.188-2.027-3.447-6.446-2.68-7.07-3.211-.144-.123.447-1.326.414-1.862-.045-.768-.812-1.398-.813-2.12-.003-1.421,2.032-2.336-.291-4.346-4.695-4.062-20.042-4.221-26.175-4.251-.245-1.875.213-3.635.423-5.456.474-4.125,1.728-12.79,5.875-14.68,12.471-5.684,16.754,11.694,26.027,15.724,4.692,2.04,8.78,1.832,13.419-.204.49,2.96,4.215,4.376,6.877,4.16,5.759-.47,18.474-9.897,23.127-13.818,5.153-4.343,12.054-9.626,6.086-16.548l-15.32-15.75.225-2.924c.635.075.413.683,1.17,1.125.926.537,2.423.738,2.904,1.092.546.4.7,1.716,1.914,2.49,1.374.875,2.556.478,3.654.962,1.242.547,1.5,2.499,4.229,2.115,1.812-.255,3.129-1.043,4.06-2.267.932-1.224,1.26-1.968,2.454-2.8,1.194-.833,2.018-.768,3.206-.951s4.67-1.616,5.65-2.112c1.0995-.5584,2.1432-1.2204,3.117-1.977v-2.446c-.748.635-1.539,1.24-2.434,1.748,0,0,0,.001,0,.001ZM39.1208,84.7372v.001c1.57-1.707,17.09-4.543,18.044-3.576.0668,2.4432.076,2.124-2.264,2.565-1.86.353-4.705.992-6.493,1.482-1.458.4-3.498,1.728-4.508,1.827-1.465.143-2.3-.855-3.505-1.081-.743-.138-3.134.802-1.274-1.218M86.3108,90.7912c-.952,1.377-7.43,2.54-9.328,2.84-9.368,1.478-21.942,1.366-31.155-.93-2.849-.707-4.532-.824-5.034-4.2-.13-.87-.11-.593.42-.424,2.995.957,5.943,1.844,9.078,2.26,5.29.706,21.4572,1.6,27.037-.554,1.918-.4763,5.2231-.7652,6.48-1.034s3.567-.874,3.567-.874c.128.159-.85,2.605-1.065,2.916M92.4568,97.2712c2.742,3.43-7.893,9.012-10.532,9.475,1.668-1.7,3.615-8.31,5.058-9.41,1.019-.78,4.653-1.091,5.474-.065M64.7158,96.2672v-.001c1.806-.087,3.655.11,5.457-.002.636-.04,1.897-.339,2.938-.42,1.24-.096,2.541-.135,3.776-.211-5.6147,7.6818-9.7629,16.3341-12.236,25.522-2.6,1.913-3.085.528-3.286-2.038-.753-9.629,1.663-13.235,3.585-21.602.114-.5-.077-.81-.234-1.248M39.9558,93.1172c2.16.146,4.675,1.476,6.713,1.89,3.539.719,7.338.717,10.913,1.26-.31,1.506-.975,2.913-1.215,4.446-.104.65-.471,3.764-.444,4.193.072,1.19,1.599,1.297,1.662.795-.419-3.28.768-6.26,1.275-9.417l5.436-.015c.15.645-.56.235-.818.727-3.483,6.67-3.924,17.178-2.958,24.432-2.743.384-2.922-.475-3.997-2.502-1.341-2.523-3.977-10.962-3.977-13.642v-9.017l-1.258-.003c-.906,8.065.675,16.995,4.612,24.124.09.284-.397.303-.62.203-2.198-.99-12.703-24.081-15.323-27.473M42.4768,126.0522c1.691-.603,5.593.245,7.253.923.735.3,1.034,1.434,1.755,2.02,3.426,2.787,20.9,2.8,24.366-.004.608-.49.824-1.296,1.155-1.565,1.136-.922,4.36-.808,5.756-1.798-.474,1.762-1.365,3.867-3.12,4.64-6.152,2.71-25.553,2.506-31.72-.229-1.339-.594-1.436-1.73-2.545-2.49l-2.9-1.497h0ZM51.7068,127.3112c7.61,1.285,15.413.95,23.085.42-.112.65-.8.802-1.338.966-4.029,1.224-16.165,1.13-20.164-.246-.614-.21-1.404-.413-1.583-1.14M46.2548,131.5032c11.37,3.278,23.926,3.681,35.25,0-.28,3.882,1.43,5.277-2.753,6.684-7.837,2.639-21.498,2.571-29.36.033-4.567-1.474-2.924-2.253-3.137-6.717M82.0348,174.1872c-9.287,3.6-25.232,3.66-34.634.417-3.315-1.144-8.94-3.772-8.62-7.957,2.554-9.075,5.69-18.047,7.892-27.177,11.226,3.196,23.805,3.876,34.829-.417l7.888,27.162c.755,4.278-3.994,6.67-7.354,7.972M83.2818,139.5772l.324-5.141c1.506-.056,3.558.273,4.56,1.525,1.314,1.64,4.672,12.012,4.983,14.315.579,4.28-.76,5.87-4.502,7.65l-5.365-18.349h0ZM91.1598,133.8102c1.725,2.16,5.254,13.19,5.688,16.125.65,4.422.048,6.147-3.165,9.045-.414.375-3.348,2.712-3.572,2.715-.432.003-.705-.976-.645-1.467.123-1,2.91-2.349,3.813-3.33,1.02-1.11,1.985-3.126,1.997-4.63.02-2.399-4.137-15.474-5.61-17.385-1.575-2.043-4.037-2.274-6.482-2.124v-1.674c2.886-.276,6.086.36,7.976,2.725M84.0228,123.3202c-7.935,4.234-31.862,3.952-40.019.152-1.096-.511-3.421-1.374-2.6-2.88.7-1.28,6.175-3.08,7.696-3.26,3.625-.42,2.42,2.954,4.31,4.29,3.512,2.49,18.055,2.929,20.97-.39.96-1.091,1.358-3.805,2.73-4.012,2.132-.32,13.069,2.813,6.913,6.1M73.0698,119.9232l-2.05,1.092c-.422-.45,4.426-7.438,4.804-8.406.21-.544.51-1.638.02-2.077-2.13.83-6.035,10.498-6.575,10.834-.408.255-2.666.144-3.285-.135,2.692-9.205,7.257-17.6,12.267-25.698l4.095-.94c.39.35-5.084,7.82-5.547,8.923-.186.443-.797,2.514.297,1.977,1.822-2.985,4.35-6.07,6.03-9.078.429-.77.35-1.861.56-2.16.233-.33,2.69-.756,3.274-1.342l-13.89,27.01h0ZM95.4398,95.9762c1.57,2.971.244,5.491-1.91,7.695-3.192,3.267-9.288,5.82-13.701,6.855.841-2.256,3.672-2.256,5.737-3.28,2.519-1.25,7.115-3.796,8.346-6.34,2.31-4.773-1.852-7.005-6.11-5.48,1.066-3,6.227-2.119,7.637.55h.001ZM81.0178,82.2862c1.685.368,9.948,2.126,5.948,4.127-2.6986,1.1604-3.035.146-5.46-.459-3.113-.774-5.9284-1.4963-9.2114-1.9494-2.81-.39-9.2581-.7676-9.2581-.7676v-2.4c6.04.015,12.0595.152,17.9815,1.448M62.2008,73.6152c-.64,4.436-.854,8.476-.84,13.006.11.039,1.018-.1945,1.255-.2025.612-.022.1585-1.1235.4205-1.4905,1.6729.0012,6.7401.4175,8.4068.5926s7.0804,1.5495,8.3857,2.0813c-2.0826,1.2273-4.824,1.2362-6.558,1.4822-1.476.21-3.866.41-5.387.489-7.135.372-14.158-.474-21.21-1.278l1.0275-.6671c2.1204-.9,6.7753-2.5447,9.2113-2.3864.126.126.0742,1.2904.1642,1.7524.654.278,1.146.087,1.347.045.213-10.25.985-22.536,8.814-29.994l.42,1.47c-2.83.12-5.121,12.776-5.457,15.1M125.4608,15.3982c.28-.056,5.207.325,5.686.429.609.1383,1.1549.4749,1.552.957-1.767,2.437-2.637.684-4.405.594-2.592-.132-4.872,2.392-5.385,4.743-.836,3.825,3.5,5.25,4.758,8.295-1.254-1.248-7.443-6.588-7.563-7.776-.176-1.734,3.55-6.876,5.358-7.242M126.4148,25.3802c.531.435,1.125.803,1.679,1.26.459.378,1.56.186,1.254,2.096-.8-.258-1.185-1.107-1.674-1.677-.672-.785-.653-.423-1.26-1.679-1.28-1.047-1.997-1.335-1.674-3.355,1.144.597,1.194,2.36,1.675,3.355M95.3588,21.4002c.066-.263,4.077-3.067,4.467-3.104.923-.092,1.917,3.714,1.773,4.278-.14.547-2.073,1.94-2.605,1.896-.58-.05-3.795-2.43-3.635-3.07M92.4218,35.8642c-.77-2.433,3.582-8.565,5.481-9.447.923-.43,2.076.154,3.891-1.11,1.665-1.16,1.53-2.187,2.391-3.06,1.64-1.66,7.74-3.359,10.06-2.318.463.516-2.045,3.108-2.513,3.567-1.755,1.722-17.83,13.96-19.31,12.368M107.3588,72.7912c-.273.393-2.862,1.05-3.505,1.137-14.736,1.972-16.595-16.57-28.056-17.88-2.166-.248-3.945.252-6.04.369-.664-1.95,1.567-2.315,3.191-2.47,13.493-1.285,16.785,18.437,28.868,18.362,1.155-.007,5.073-1.377,5.289-1.213.067.052.483,1.363.252,1.695h.001ZM134.7958,41.1242c2.635,2.759,6.05,5.32,8.397,8.385,1.495,1.955,2.27,3.51,1.497,6.09-1.131,3.774-15.446,13.998-19.316,16.35-3.402,2.067-9.99,6.614-13.675,3.582-1.572-1.293-4.677-8.31-5.79-10.572-3.77-7.665-8.352-16.77-11.463-24.615-.36-.904-.825-1.782-.77-2.797,5.984-1.8,12.195-6.456,16.99-10.5,1.874-1.581,3.6-3.59,5.411-4.992,6.515,6.09,12.576,12.642,18.719,19.07M128.1608,24.4752c-.29-.181-1.444-3.274-1.347-3.903.365-2.374,2.862-.09,3.99-.207.867-.088,2.084-1.762,3.479-2.025.66-.126,2.718-.052,3.004.37h.002c1.329,1.954-6.39,7.478-9.128,5.765M131.0288,26.2252c2.474.307,5.265-2.077,6.944-3.763,1.266-1.27,1.417-3.408,3.77-3.4,3.05.009.695,3.846-.292,5.2-2.196,3.017-9.92,9.06-10.422,1.962M136.4488,32.3402c-1.332-1.584.24-1.453,1.01-1.989,2.91-2.025,4.427-3.093,6.51-6.091,1.07-1.544.322-2.733,3.013-2.235v-.002c.495,3.276-1.74,5.925-3.978,7.982-1.373,1.26-4.89,4.31-6.555,2.335M144.3538,35.1322c-1.25.55-3.264-.258-3.242-1.152.006-.27,3.368-2.481,4.2-3.345.59-.614,2.883-3.975,3.137-3.987,2.494-.126-1.878,7.506-4.095,8.484"/>
 <path fill="#262524" d="M151.7548,4.1712c.562.084,1.137.185,1.713.283-.576-.098-1.151-.199-1.713-.283M141.7238,11.9702h-.001c1.063.207,3.595,2.695,4.968,3.42,2.011,1.06,4.515,1.788,6.792,1.78-2.277.008-4.78-.72-6.79-1.78-1.373-.725-3.905-3.213-4.969-3.42M134.3888,15.5272c1.005-.808,5.202-1.92,6.6-1.854-1.397-.067-5.596,1.046-6.601,1.853,1.52-.054,3.814,2.07,4.494,2.25h.001c-.68-.18-2.974-2.304-4.494-2.25M150.9988,27.8642c-.92-1.99-1.439-3.79-2.11-5.862-.827-2.553-3.056-1.758-3.524-2.144-.383-.315.01-1.896-2.232-2.589h-.001c2.242.693,1.849,2.274,2.231,2.59.468.385,2.697-.41,3.525,2.143.67,2.073,1.19,3.871,2.11,5.862.194.421.886,1.563,1.268,1.656h.002c-.383-.093-1.074-1.235-1.27-1.656,0,0,.001,0,.001,0ZM130.5938,9.2142l-.001.002c5.885-2.038,8.654-4.193,13.45-4.974-4.796.781-7.565,2.936-13.45,4.972-1.833.636-9.34,1.39-4.755,3.945,1.193.665,2.487.865,3.832.806-1.344.059-2.638-.141-3.83-.806-4.586-2.556,2.921-3.309,4.754-3.945M156.8258,4.8522c-.79-.012-1.636-.12-2.496-.255.86.136,1.706.243,2.496.255M158.9508,17.8412c.513-.943-.289-1.19-1.431-1.168,1.142-.021,1.942.226,1.43,1.168-.44.813-1.61,1.194-3.083,1.3,1.474-.106,2.644-.487,3.085-1.3h-.001Z"/>
 <ellipse fill="#b09170" cx="63.7297" cy="155.619" rx="1.4402" ry="1.4181"/>
 <ellipse fill="#b09170" cx="63.7562" cy="156.9833" rx="4.3928" ry="1.0258"/>
 <path fill="#9e7646" d="M63.7297,144.9554c.1684,0,1.4402,1.356,1.4402,2.6727s-.6448,1.9184-1.4402,1.9184-1.4402-.6016-1.4402-1.9184,1.2718-2.6727,1.4402-2.6727Z"/>
</svg>