<?xml version="1.0" encoding="UTF-8"?>
<svg id="Layer_1" xmlns="http://www.w3.org/2000/svg" version="1.1" viewBox="0 0 48 48">
  <!-- Generator: Adobe Illustrator 29.0.0, SVG Export Plug-In . SVG Version: 2.1.0 Build 186)  -->
  <defs>
    <style>
      .st0 {
        fill: none;
        stroke: #000;
        stroke-linecap: round;
        stroke-linejoin: round;
        stroke-width: 2px;
      }
    </style>
  </defs>
  <rect class="st0" x="19" y="7" width="10" height="4"/>
  <path class="st0" d="M18,11h12c.55,0,1,.45,1,1v13h-14v-13c0-.55.45-1,1-1Z"/>
  <path class="st0" d="M16.98,3h14c1.1,0,2,.9,2,2v2H14.98v-2c0-1.1.9-2,2-2Z"/>
  <path class="st0" d="M16.98,25h14c1.1,0,2,.9,2,2v2H14.98v-2c0-1.1.9-2,2-2Z"/>
  <path class="st0" d="M14,29h20c1.1,0,2,.9,2,2v2H12v-2c0-1.1.9-2,2-2Z"/>
  <path class="st0" d="M15,33h18v8c0,2.21-1.79,4-4,4h-10c-2.21,0-4-1.79-4-4v-8h0Z"/>
  <path class="st0" d="M33,36h2c1.1,0,2,.9,2,2h0c0,1.1-.9,2-2,2h-2v-4h0Z"/>
  <line class="st0" x1="17" y1="16" x2="23.16" y2="16"/>
  <line class="st0" x1="17" y1="20" x2="23.16" y2="20"/>
</svg>