<?xml version="1.0" encoding="UTF-8"?>
<svg id="Layer_1" xmlns="http://www.w3.org/2000/svg" version="1.1" viewBox="0 0 128 128">
  <!-- Generator: Adobe Illustrator 29.0.0, SVG Export Plug-In . SVG Version: 2.1.0 Build 186)  -->
  <defs>
    <style>
      .st0 {
        fill: #3a3835;
      }

      .st1 {
        fill: #dededc;
      }

      .st2 {
        fill: #5f4028;
      }

      .st3 {
        fill: #262524;
      }

      .st4 {
        fill: #201f1e;
      }

      .st5 {
        fill: #403e3c;
      }

      .st6 {
        fill: #b09170;
      }

      .st7 {
        fill: #62a2cf;
      }

      .st8 {
        fill: #eae9e5;
      }

      .st9 {
        fill: #2c2a29;
      }

      .st10 {
        fill: #f3f4ef;
      }

      .st11 {
        fill: #33312f;
      }

      .st12 {
        fill: #b8b6b2;
      }

      .st13 {
        fill: #f0efeb;
      }
    </style>
  </defs>
  <path class="st10" d="M116.1552067,3.5976666v13.4225228c-1.7191246.4136311-3.9614473,1.0874027-5.5043705,1.9092314-1.9416164,1.0341901-3.2212149,2.9942359-5.3230593,4.1877047-.6916432.3927287-4.4700716,2.0913308-4.9522918,1.9755138-.2553253-.0613226-.7167653-.8224551-.8466757-1.1037954-.6127509-1.3270037-.9587484-2.5259803-1.4060764-3.9073469-.5514546-1.7029138-2.0376961-1.1725128-2.3492995-1.4292509-.255865-.2108137.0061157-1.2640221-1.4888591-1.7260881-1.5518854-.4796559-2.1853443.5093858-2.8321261.3375231-.4534789-.1204983-1.9831836-1.5352385-2.9962-1.5004981.7149536-.5726901,3.8518551-1.3791569,4.5609518-1.2150332.2063803.0477677,2.5171691,2.121987,3.3613591,2.5226771,1.5982093.7585813,7.5116129,1.9694504,8.4524939.2361833.7794929-1.4359621-3.0110127-.4489766-3.6453212-.4470038-1.5175538.0047197-3.1866613-.4798176-4.5273576-1.1873726-.9153291-.4830667-2.6030304-2.1417077-3.3120736-2.2803624-3.1429672-.6146128-7.4102473,2.5655853-10.5893555.7937168-3.0575982-1.7041451,1.9472431-2.2064274,3.1691576-2.6292737,5.312222-1.8383063,6.8078742-3.8265068,13.0186692-3.4821934,1.3938518.0772722,3.0652367.5524971,4.4695691.573343,4.580385.0679912,8.646294-3.4869093,12.7408657-5.0501975Z"/>
  <path class="st0" d="M32.2134465,33.7997769c-.2031643.9873028-.8118696,1.7076059-.7128976,2.8087068.1428361,1.589106,1.7797567,2.8223979,1.7817539,4.6002018.0009206.81948-.5396726,2.6709478-1.6256195,2.6551157-.0220982-.6032251.4443451-.9288094.5433823-1.5497482.4417492-2.7696599-1.849837-3.7130392-1.6813986-6.1346744.0556847-.8005778.7246123-2.3750284,1.6947796-2.3796018Z"/>
  <path class="st9" d="M48.4419844,46.663118l-1.1156992,1.1206167c.2016221.6150771,1.3872515.1051535,1.1142906,1.2518887l-1.1157889.1447808c1.970393,3.9604061-3.1988346-.8469374-2.7978942-1.3970008,1.3964612-.1669243,2.4566644-1.3498252,3.9150918-1.1202854Z"/>
  <path class="st9" d="M31.3771235,56.174404c.041121-.0611934.8591167-.114894.8377641-.5586073l-.8379805-.7008755,1.1174885-.4265213c.0746119-.0721157-1.5444484-1.4490481-.4135846-1.6756259.3291432-.0659465,3.6192079,1.9196673,2.6525755,2.9376969-.6211012.654126-4.3583221,1.9151267-3.3562631.423933Z"/>
  <path class="st3" d="M85.9261116,11.5567148c5.312207-1.8383032,6.807876-3.82651,13.018667-3.4821924,1.3938477.0772717,3.0652344.5524976,4.4695581.5733386,4.5803857.0679919,8.6462988-3.4869092,12.7408716-5.0501941v-1.3981799c-3.023877,1.0192896-5.8359766,3.0915784-8.763125,4.2451172-4.5564941,1.7956299-8.4663086-.3697729-13.1283667.3019177-2.2802466.3285266-5.821604,2.4078479-8.1826514,3.2872485-2.5689282.9568262-8.0187854,1.1102588-4.6210767,5.0238928-1.8008508.7053662-2.7343921,2.6701001-3.7773853,4.1942664-2.3834863-3.1748999-6.8637085-2.1477576-9.7951465-.2807263-.8222009-.0534998-.0657446-3.7607397-3.1388232-2.5709705-.4088232.1582776-3.0171948,1.9900012-3.2775244,2.313717-1.6908179,2.1025037,1.5172705,3.0245605,1.5169885,3.4795691-1.8149158,1.9520105-4.4444788,4.5737805-3.8484448,7.4874536l10.2880261,22.0107361c-9.0069629,2.9897314-10.882334-9.4676709-18.7326477-11.3352917-1.5263452-.3631165-5.178573-.4538037-6.3296509.6969666-.3331494.333064-.315658.8673523-.490675,1.0414551-.7958911.7917383-1.7847522,1.3589844-2.5420117,2.3539551-2.6473108,3.4783301-3.9034229,9.3714551-4.0797815,13.6792834-2.372959-.0126208-12.6641582,1.268626-13.5722327,3.3518225-.9277704,2.1283806.8995023,2.5637814.4904114,3.7092359s-.1303243,1.4288356.1046904,1.9859201c2.2188886,5.2597062,5.2121752,9.9204418,7.6630012,15.1365262-1.8271436.4998694-6.708208,1.371571-7.0040076,3.6638489-.2047021,1.5864075,1.5770593,2.0581897,1.677821,2.516095.1126392.5119263-1.2929492.9031042-.7000854,2.0721863.49047.9671484,1.4529956.2416248,2.0308374.4796948,1.6527588.6809277-.1996521,5.2413013,1.0740027,6.6569128-1.1488989,5.7473486-4.4536389,12.3612634-5.3494202,18.0158826-.30901,1.950592.1367444,3.2342358,1.573009,4.6083618,5.8819397,5.6274292,28.5660583,5.9744641,33.5534729-.8193811,1.7016357-2.3179724.2054456-3.7886816.5889502-4.9823987.1186462-.3692944,1.7621423-1.3033142,2.2138611-1.7240662,4.5912122-4.2764429,3.3992896-6.5991064,1.7501196-12.1020874-1.505282-5.0228589-2.6586926-9.4922034-9.0281714-9.2960461.556283-.6128589.828208-2.2202783,1.2033899-2.7100391.2988416-.3900928,1.120658-.4659888,1.6555444-1.2789954,2.063291-3.1360803-4.0597693-4.5015417-6.074115-4.9636597-.2708569-.0621472-.5812769.1725134-.4146765-.4027051.0687781-.2374634.6516016-1.2511731.8441785-1.3954883.5711853-.4280493,4.2386914-1.3338538,5.4037146-1.8700134,3.5578406-1.6373865,9.2746069-5.5303503,6.5729932-10.1243311-1.3514905-2.2981396-4.2974805-1.7872388-4.7134302-2.14146-.0956091-.0814246.29797-.8838611.2764368-1.2412695-.0308215-.5116699-.5414233-.9313794-.5425-1.4134583-.0021362-.9471362,1.3550024-1.5575769-.1936023-2.8972327-3.1304749-2.7080908-13.3615747-2.8137659-17.4498157-2.8338379-.1633447-1.2508057.1418457-2.4234424.2812134-3.6367017.3159998-2.7509265,1.1528723-8.527439,3.9172144-9.787251,8.3139697-3.7889722,11.1689563,7.7946008,17.3516174,10.4823975,3.1273474,1.3595483,5.8530322,1.2216077,8.9459265-.1359753.3267065,1.9737402,2.8098779,2.9178259,4.5844019,2.7731262,3.8392676-.3130688,12.3164368-6.5979956,15.4180383-9.2117505,3.4352637-2.8949512,8.0358838-6.4173987,4.0575391-11.0318445l-10.2143433-10.5000256.1509546-1.9490967c.4223413.0491418.2743945.4552734.779502.7492358.6165503.3588013,1.6142725.4930762,1.9358008.7285828.3638086.2664819.465647,1.1442419,1.275979,1.6599792.915896.5829089,1.7041479.3186145,2.4360376.6412537.8275586.3647998,1.0005591,1.6659521,2.8187646,1.4104504,1.2075684-.1696936,2.0865376-.6954136,2.706792-1.5115881s.8408948-1.3118539,1.6361278-1.8665955,1.3450481-.5124082,2.1371388-.6342041,3.1139063-1.0766772,3.7673877-1.407998c2.5898462-1.313064,3.5723926-2.8278223,5.5920361-4.1985388,1.6474268-1.1181201,3.9410305-1.8690772,5.68979-2.3959863v-1.2853711c-1.7191357.4136255-3.96146,1.0874011-5.5043652,1.9092261-1.9416113,1.0341919-3.2212305,2.9942346-5.3230762,4.1877039-.691626.3927332-4.4700537,2.0913354-4.9522778,1.9755176-.2553394-.0613269-.7167651-.8224573-.8466821-1.1037988-.6127393-1.3270007-.9587402-2.5259814-1.406084-3.907345-.5514551-1.7029089-2.0376904-1.1725085-2.3492896-1.4292493-.2558691-.2108118.0061182-1.2640247-1.4888501-1.7260913-1.5518945-.4796521-2.1853467.5093884-2.8321289.3375244-.4534961-.1205005-1.9831909-1.5352405-2.9962085-1.5004968.7149536-.5726892,3.8518628-1.3791589,4.5609546-1.2150366.206377.0477747,2.5171631,2.1219861,3.3613672,2.5226831,1.598208.7585754,7.5116016,1.9694507,8.4524829.2361816.7794849-1.4359656-3.0110083-.4489758-3.6453149-.447002-1.517561.0047168-3.1866748-.479823-4.527373-1.1873767-.9153149-.4830615-2.6030225-2.1417078-3.312063-2.2803577-3.1429761-.6146191-7.4102417,2.5655786-10.5893628.7937122-3.0575867-1.7041479,1.947251-2.206427,3.1691748-2.6292725ZM24.9443965,61.9060519c1.0466077-1.1371667,11.392406-3.0278333,12.0285327-2.3827173.1384875,2.3509302.0511499,1.4158679-1.5085034,1.7100867-1.2412439.2341565-3.1371228.6608472-4.3289258.9877844-.9722412.2667041-2.3323535,1.1517871-3.0057959,1.2175488-.9766675.0953784-1.5326514-.5705701-2.3368823-.7207642-.4952637-.0924902-2.0884216.535365-.8484253-.8119385ZM56.4042098,65.9430148c-.6347424.9182886-4.9528845,1.6941589-6.2191736,1.8939478-6.24521.9853235-14.6278552.910188-20.7709363-.6193787-1.8978442-.4725513-3.0203992-.5503613-3.3555823-2.8016406-.0863379-.5798926-.0727002-.3944507.2813159-.2814697,1.9966235.6371777,3.9611353,1.2282214,6.0507104,1.5065979,3.5273694.4699194,15.1641431.9822473,18.0250085-.37073.6361011-.300824,1.9657764-1.5362915,2.3581592-1.5483826.6216516-.0191406,1.1097034.808905,1.9620593.859397.7433911.044032,1.6778125-.3366614,2.3786499-.5822253.0849536.1058716-.567041,1.7367639-.7102112,1.9438843ZM60.5008675,70.2630795c1.8281689,2.2870654-5.2620398,6.0079089-7.0210034,6.3168079,1.111925-1.1334924,2.4107275-5.5392969,3.3724756-6.274126.6786462-.5185229,3.1019263-.7264893,3.6485278-.0426819ZM42.0067769,69.5938241c1.2038-.0584473,2.4374731.0733154,3.6385474-.0020935.4236401-.0265918,1.264939-.2257227,1.9586072-.2796326.8274048-.0643005,1.6945264-.0897388,2.5167786-.1412305-3.7265515,5.0884412-6.5224585,10.9116003-8.1566919,17.0154175-1.7330212,1.2749365-2.057395.3513159-2.1912085-1.3588989-.5022449-6.419364,1.109071-8.8236145,2.3893311-14.4016541.076665-.3340295-.050304-.5395691-.1553638-.831908ZM25.5014571,67.4926706c1.4388367.0969507,3.1156836.9840674,4.4750012,1.2601538,2.3581848.4789771,4.8913696.4782764,7.2743347.8404785-.2066248,1.0032678-.6492603,1.9414746-.8103577,2.9632336-.0684106.4339282-.3129919,2.509447-.2955432,2.7954626.0483557.7925415,1.0662439.8645667,1.1078577.5303577-.2785815-2.1861414.5123108-4.1736987.8494592-6.2785095l3.624491-.0092712c.1012231.4288696-.3727039.1559448-.5445081.484856-2.32198,4.4454443-2.6160449,11.4514856-1.9724329,16.2876978-1.8286987.2560571-1.9476697-.3175464-2.6650073-1.6680286-.8935852-1.6822729-2.6510791-7.3079675-2.6510791-9.0951978v-6.0121729l-.8384875-.0021448c-.6041516,5.3778833.4494629,11.3300708,3.0750781,16.0830127.0599683.1891504-.2654993.2026001-.4141467.1357104-1.4654712-.6593774-8.4676501-16.0542078-10.2146594-18.3156384ZM27.1805428,89.4494455c1.1269727-.4028931,3.7289441.1630457,4.8351868.6149097.489325.1998657.6893188.9558948,1.1702954,1.3471155,2.2839893,1.8577856,13.9327771,1.8655786,16.2437341-.0031104.4054651-.3278601.5492419-.8642419.7695129-1.042959.7580884-.6150806,2.9080249-.5389282,3.8373364-1.1990405-.315957,1.1742261-.9090857,2.5774475-2.0789453,3.0926807-4.1018274,1.8065417-17.0355493,1.6712842-21.1463745-.1520483-.8929785-.3960828-.9585266-1.1540942-1.6971155-1.6594836l-1.9336304-.998064ZM33.3341426,90.2875741c5.0729492.8576709,10.2751318.6344006,15.3889087.2796411-.0739307.4342615-.5332544.5354932-.8913379.6443298-2.6853442.8162109-10.776676.7533032-13.4425208-.1636096-.4091309-.1407263-.9365234-.2750269-1.05505-.7603613ZM29.6985091,93.0821908c7.5796277,2.1848767,15.9515576,2.453999,23.4999194.0003162-.1857153,2.5871118.954519,3.5171069-1.8342786,4.455741-5.2255359,1.7587756-14.3320215,1.7133936-19.57328.0213708-3.0452563-.9830933-1.9491223-1.5011206-2.0923608-4.477428ZM53.5533675,121.5377634c-6.1926501,2.399679-16.8226953,2.4409937-23.0897461.2784619-2.2110754-.762959-5.9610571-2.5147534-5.7461353-5.3053369,1.701217-6.049198,3.7922107-12.0309937,5.2606299-18.1181226,7.4843774,2.1315735,15.8703809,2.5842065,23.2188086-.2782141l5.258938,18.1086292c.5028088,2.8519531-2.6624097,4.4465381-4.9024951,5.3145825ZM54.3837544,98.4651669l.215144-3.428385c1.0038916-.036991,2.3721643.1824255,3.0409412,1.0174524.8748291,1.0922974,3.1140002,8.0080188,3.3212573,9.5423535.3854614,2.8535083-.507312,3.9137537-3.0015833,5.1004895l-3.5757593-12.2319104ZM59.6348738,94.619653c1.1495996,1.4398364,3.5034265,8.7934253,3.7920825,10.7512463.4345093,2.9471094.0325391,4.0967944-2.1093994,6.0297668-.2764709.2494946-2.2324634,1.8072339-2.3820337,1.8087463-.2875366.0028967-.4694495-.6507813-.4294421-.9775049.0816895-.6670679,1.9401501-1.5656262,2.5414478-2.2196375.6811328-.7408447,1.3231982-2.0845764,1.3314697-3.0868445.0131934-1.5994299-2.7579675-10.3166003-3.7396765-11.5904517-1.0497778-1.3621887-2.6916248-1.5164331-4.3214404-1.4161414l.0002393-1.1155908c1.9239404-.1842883,4.0572656.2389587,5.3167529,1.8164111ZM54.876523,87.6259335c-5.2885803,2.82302-21.2408643,2.6353394-26.6784082.1018042-.7314111-.3407886-2.2815369-.9152637-1.7331067-1.9194885.4658435-.8530054,4.1156787-2.0547375,5.1292603-2.172854,2.4173584-.2816919,1.6132642,1.9681433,2.8733411,2.8599854,2.342804,1.6581506,12.0375305,1.9512158,13.9806372-.2603979.6397925-.7281897.9058643-2.5370044,1.8205042-2.6749622,1.4208325-.2143152,8.7124109,1.8748755,4.6077722,4.0659131ZM47.5746224,85.361871l-1.3669397.7282922c-.2809143-.2997815,2.951604-4.9591309,3.2028674-5.6044946.1412732-.3628516.3403101-1.0921606.0134753-1.3849097-1.4192944.5536853-4.0231714,6.9988208-4.3828271,7.2233813-.271814.1697107-1.7769934.0958142-2.1896021-.0895679,1.7946899-6.1377405,4.8370923-11.734519,8.1771313-17.133064l2.7294617-.6268127c.2615259.2330371-3.387771,5.212821-3.6973022,5.9491711-.124115.2952527-.5310327,1.6763599.1977466,1.3178918,1.2150195-1.9903943,2.9001807-4.046875,4.0199414-6.0515991.286571-.5130457.2339941-1.2411243.3745239-1.440144.1553467-.219989,1.7931091-.504082,2.1815186-.89526l-9.2599951,18.0071155ZM62.4882283,69.3968039c1.0470947,1.9814563.1625757,3.6612939-1.2727747,5.1297131-2.1289417,2.1779895-6.1926331,3.8795654-9.1345813,4.5701147.561427-1.5033252,2.4478638-1.503385,3.8250745-2.1865173,1.6787524-.8327112,4.7425854-2.5298523,5.5641028-4.2262585,1.540863-3.1818469-1.2348438-4.6701587-4.0727917-3.6539624.7101257-1.9993921,4.1507642-1.4122791,5.0909705.3669104ZM52.8739009,60.2701523c1.1232043.2459314,6.632406,1.4181836,3.9650745,2.7517126-2.5056274,1.2526941-2.0229333.0967285-3.6404102-.3055408-2.0743311-.5158997-4.6376196-.6796118-6.8256921-.9824353-1.8742944-.2593982-3.7570398-.9380103-5.7630371-.5309045l-.002384-1.959231c4.0264526.00875,8.3185925.1620117,12.266449,1.0263989ZM40.3291011,54.4913925c-.4264514,2.9570386-.5686389,5.6489709-.5596069,8.6687207.0738965.0269763.2590735.5597864.4180005.5541809.4079773-.0143896.3788904-1.1554187.5541125-1.4001367.5577954-.7790491,4.3799048.2600391,5.4207104.4088574.4400464.0629248.9238513-.1671643,1.5054785-.0701282.8831177.147323,2.2018384.8673608,3.2934521.7898669-.5667761,1.159281-2.0960864,1.1965198-3.2524023,1.3602063-.9834607.1392224-2.5771399.2733691-3.5909009.3261255-4.7570691.2475464-9.4389001-.3162219-14.1400684-.8518689l.3532642-.6243604c1.0343201-.0669495,6.0925378-1.8838818,6.641626-1.3330249.0842615.0845264-.0601477,1.089375.0001196,1.3981799.4360559.1849976.7045032-.2506311.8380005-.2782654.1425549-6.8335449.6575232-15.0238696,5.8758643-19.9953479l.2797607.9801111c-1.8867017.0792798-3.4138074,8.5163904-3.6374109,10.0668835ZM62.433763,19.6805514c.0441943-.1758374,2.7178918-2.0445691,2.9785376-2.0702637.6147131-.0606091,1.2776196,2.4762842,1.1818738,2.8527222-.0927295.3645435-1.3818591,1.2939661-1.7371143,1.2637427-.3860596-.0328467-2.5306299-1.6192029-2.4232971-2.0462012ZM60.476241,29.3227438c-.5135669-1.6216809,2.3877588-5.7104346,3.653501-6.298009.6148926-.2854346,1.3843286.102821,2.5938623-.739751,1.109823-.7731189,1.0205029-1.4577124,1.5948584-2.0397412,1.092229-1.1068408,5.1593896-2.2389832,6.7053369-1.5452551.3088049.3436084-1.3625049,2.0720667-1.6748132,2.3782739-1.1704663,1.1475659-11.8868066,9.3053772-12.8727454,8.2444824ZM70.4342024,53.9414841c-.1821692.2617822-1.9078076.7000513-2.3369336.7575159-9.8238489,1.3153967-11.0630933-11.0470886-18.7046887-11.9201404-1.4432117-.1648914-2.6304687.1679248-4.026897.2459998-.4419861-1.2995374,1.0456421-1.5430334,2.1287622-1.6461365,8.9952734-.8562524,11.1908997,12.2920837,19.2456848,12.2423523.7697778-.004751,3.3816272-.9181091,3.5255664-.8086743.045459.0345642.3222546.9081287.1685059,1.1290833ZM88.7255648,32.8287509c1.757605,1.8389868,4.0346045,3.5457666,5.5985132,5.5902246.9965942,1.3028271,1.5131519,2.3401038.9975513,4.0608716-.7536963,2.5154968-10.2964771,9.3313623-12.8765479,10.8989197-2.2684033,1.3782104-6.6606897,4.4087524-9.1168677,2.3883911-1.0478552-.8619263-3.1182727-5.5393823-3.8602368-7.0478259-2.5132837-5.1096069-5.5676831-11.1800903-7.6424329-16.410625-.2390186-.6025793-.5494385-1.1878296-.5121057-1.8645105,3.9881799-1.2007581,8.1297241-4.304137,11.3253027-6.9997693,1.2503613-1.054751,2.4004565-2.3932617,3.6080762-3.3288196,4.3432812,4.0607605,8.3837817,8.4285571,12.4787476,12.7131433ZM83.9780745,23.4518185c-.4478564-.5229663-.4353125-.2817859-.8394019-1.1185474-.8537061-.6980945-1.3317944-.8910388-1.116394-2.2370435.7623779.397467.7954639,1.5724622,1.116394,2.2370435.3544946.2898694.7512695.5349634,1.1191968.8389063.3065405.2532202,1.0410791.1249353.836582,1.3981458-.5337158-.1719751-.7912256-.7388196-1.116377-1.1185046ZM97.828094,23.1776718c1.6629443-.0839539-1.2522241,5.0046753-2.7305811,5.6562512-.8327368.3670215-2.1755542-.1723596-2.1608228-.7683765.0044263-.1788538,2.244939-1.65375,2.7998462-2.2300195.3931519-.4082764,1.9226074-2.6493188,2.0915576-2.6578552ZM96.8495125,20.0954074c.3307739,2.1837488-1.1592554,3.9493262-2.651626,5.3209229-.9146313.8406152-3.2602466,2.8732642-4.3694458,1.5561755-.8889111-1.0555371.1589014-.9684302.672417-1.3256506,1.9412866-1.3504309,2.9523218-2.0614197,4.34-4.0609656.7139966-1.0287915.2151953-1.8219824,2.0086548-1.4904822ZM93.3579891,18.1189841c2.0325806.0062378.463186,2.5638184-.1944995,3.4672217-1.4640698,2.0110474-6.6138721,6.0406787-6.9489185,1.3073132,1.6492212.2050183,3.5095874-1.3832434,4.6292114-2.5071399.8440674-.8473145.9454102-2.2722058,2.5142065-2.267395ZM90.3874324,17.883956c.886604,1.3030066-4.2597632,4.986073-6.0848901,3.8438989-.1937988-.1212781-.9620898-2.183313-.8977979-2.6015442.2433252-1.5830493,1.9081152-.0607117,2.6606152-.1379407.5775-.0592676,1.3886865-1.17573,2.3182031-1.3511145.4396021-.0829456,1.812583-.034436,2.0038696.2467004ZM82.5045198,15.6774093c.1862451-.0377002,3.4717334.2161523,3.7900488.2860156.4125488.0905334.7638477.3169568,1.035542.6372461-1.1780371,1.6251416-1.7583569.4566748-2.9372998.3963989-1.7275098-.0883203-3.2473267,1.5948071-3.5896191,3.1617664-.5570435,2.5500781,2.3330029,3.4996838,3.1721313,5.5299658-.8362231-.8316516-4.9623181-4.3922949-5.0423584-5.183811-.1168689-1.1556409,2.3667554-4.5837097,3.5715552-4.8275818Z"/>
  <path class="st0" d="M35.8508632,36.596155c-1.3048979,2.851671,2.0433223,4.5356052.3374714,7.185242-1.5419807,2.3951032-.3336913-1.5349869-.391451-1.9526083-.1986597-1.4363743-3.0430742-4.1475795.0539796-5.2326337Z"/>
  <path class="st5" d="M28.5760313,36.8757712c.0940287.5366772-.4095224.8440902-.5044514,1.3172858-.3922464,1.9552418,3.4348162,5.0489222-.0523114,6.5096519.1840616-.9253927.6776989-1.2913888.5504306-2.3491319-.185462-1.5413977-3.2680285-4.1487784.0063323-5.4778058Z"/>
  <path class="st9" d="M30.8161807,54.2144996c.0907118.1121562.0033152.6458335-.1318345.8447892-.4597087.6767434-3.459503-.4272603-2.9443983-1.1250954.2103828-.2850149,2.9780256.1588827,3.0762328.2803062Z"/>
  <path class="st9" d="M36.4107882,46.942637c.0645888.0655578.0302127.6444751-.1229477.8534785-.3325329.453776-2.8272055.4349572-2.9522929-.1599968-.2009687-.9558685,2.9573376-.8131536,3.0752406-.6934818Z"/>
  <path class="st11" d="M50.4005379,53.6539613c.2773849,1.1296113-1.1957452,1.3754593-2.013436,1.4908929-.3205634.045254-.9436244.3433159-1.0615012-.2381464-.1568817-.7738659,2.5404797-1.3148477,3.0749372-1.2527465Z"/>
  <path class="st11" d="M52.3591502,50.5750227c-.3186337.3059493-3.5849522-.8815486-2.7964259-1.6748706.4788601-.4817725,3.6181362.8858717,2.7964259,1.6748706Z"/>
  <path class="st9" d="M46.203898,55.6064621c-.1368749.2077512-1.916305.3720289-2.3336564.239489-.4900316-.1556213-.6206296-.9232079-.4620781-1.0735062.12783-.121176,3.6679396-.4898317,2.7957345.8340172Z"/>
  <path class="st9" d="M32.4934375,48.0567771c-.1911421.2546395-2.9670609.3984615-3.0781563.2814525-.4740523-1.0573974,1.5487814-1.2696589,2.373191-1.1216889.4161601.0746949.9691665.4882676.7049654.8402364Z"/>
  <path class="st9" d="M51.5225854,53.6510667c-.4549495-.4394847,1.9094601-3.4267614,2.2378542-1.8101629.1662513.8184116-1.7896856,2.2430972-2.2378542,1.8101629Z"/>
  <path class="st9" d="M26.8979246,53.3767735c.9476707,1.2650161-3.2719732.6852944-2.7944353-.6998272.1773343-.5143665.4164451-.3094215.7410338-.1943255.2692434.0954711,1.9862811.8045556,2.0534015.8941526Z"/>
  <path class="st9" d="M25.5011748,49.4566168c-.557052-1.2118295,2.6335495-2.0590832,2.7949961-1.252884.1663931.8309001-2.2514264,1.239469-2.7949961,1.252884Z"/>
  <path class="st10" d="M61.3134378,30.4441935c3.9881781-1.2007529,8.129723-4.3041333,11.3252992-6.9997673,1.2503685-1.0547506,2.4004603-2.3932589,3.6080844-3.3288228,4.3432769,4.0607645,8.3837686,8.4285611,12.4787389,12.7131433,1.7576098,1.8389935,4.0346094,3.5457687,5.5985136,5.5902307.9965923,1.302826,1.5131478,2.3401043.9975655,4.0608695-.7537039,2.5155-10.2964872,9.3313605-12.8765507,10.8989237-2.2684032,1.3782084-6.6607007,4.4087497-9.1168732,2.3883935-1.0478588-.8619297-3.1182754-5.5393857-3.8602421-7.0478344-2.5132802-5.1096015-5.5676756-11.1800905-7.6424285-16.4106188-.2390231-.602586-.5494434-1.1878314-.5121071-1.8645174Z"/>
  <path class="st8" d="M29.9781132,98.3927711c7.4843761,2.1315745,15.8703869,2.5842075,23.2188117-.2782168l5.258934,18.1086264c.5028117,2.8519559-2.6624032,4.4465391-4.9024934,5.3145837-6.1926506,2.3996789-16.8226961,2.4409944-23.0897462.2784627-2.2110753-.7629619-5.9610559-2.5147507-5.746137-5.3053386,1.701219-6.049197,3.7922124-12.0309895,5.2606308-18.1181174ZM41.0628456,101.2073822c-.9403482.2806283-2.4234971,4.7225173.2371964,4.7583606,3.1270192.0421254,1.1962437-5.1861424-.2371964-4.7583606ZM55.6372262,109.6580042c-2.2536274-2.6606155-13.4454218-3.0739078-16.8443202-2.8719819-2.5537261.1517149-10.1943285,1.0137223-11.4540668,3.3733998-.3502535.6560769-1.6428018,4.9648063-1.7732052,5.7800738-.4487787,2.805714,2.0245402,3.9564406,4.2644168,4.8321104,6.0591095,2.3687818,14.2825373,2.4868869,20.5727627.9730974,1.7417573-.4191669,6.6593149-2.1355271,7.2158541-3.9725165.3093813-1.0211862-1.3417985-7.3590255-1.9814414-8.114183Z"/>
  <path class="st8" d="M29.9764567,68.7528291l-.8382023-.0015127c.0105015,1.6301699-.0657492,3.7152536.4642791,5.2688379.433595,1.2709255,1.2380849,1.2486114,1.028577-.1787032-.2463602-1.6783783-.7430345-3.3625208-.6546538-5.088622,2.3581856.4789716,4.8913671.4782759,7.2743367.8404771-.206627,1.0032649-.6492594,1.9414708-.8103551,2.9632294-.0684155.4339292-.3129974,2.5094526-.2955473,2.795465.0483547.7925455,1.066247.864565,1.1078594.5303615-.2785801-2.1861439.5123135-4.1737059.8494577-6.2785117l3.6244933-.0092688c.1012194.4288686-.3727074.1559406-.5445054.4848491-2.3219828,4.4454502-2.616052,11.4514912-1.9724387,16.2877052-1.8286993.256057-1.9476687-.3175486-2.6650096-1.6680294-.8935822-1.6822764-2.6510751-7.3079673-2.6510751-9.095198v-6.0121717l-.8384873-.0021445c-.6041531,5.3778808.4494628,11.3300625,3.0750796,16.0830062.0599639.1891514-.2654966.2025996-.4141492.1357146-1.4654716-.6593771-8.4676497-16.0542076-10.2146616-18.3156422,1.4388355.0969556,3.1156905.9840681,4.4750025,1.2601583Z"/>
  <path class="st13" d="M53.1984281,93.0825065c-.1857149,2.5871116.9545221,3.5171062-1.8342746,4.4557394-5.2255431,1.7587759-14.3320241,1.7133937-19.5732833.0213712-3.0452577-.9830928-1.9491255-1.5011165-2.0923646-4.4774237,7.5796331,2.1848778,15.9515616,2.4539983,23.4999225.0003131Z"/>
  <path class="st13" d="M31.5942694,83.6354003c2.4173613-.2816935,1.6132589,1.9681441,2.8733403,2.8599815,2.3428057,1.6581483,12.0375323,1.9512195,13.9806411-.2603937.6397844-.7281916.9058623-2.5370058,1.8205022-2.6749685,1.4208314-.2143158,8.7124127,1.8748814,4.6077702,4.0659196-5.2885765,2.8230165-21.2408646,2.6353364-26.6784087.1018025-.7314091-.340788-2.2815371-.9152682-1.7331071-1.9194946.4658409-.8529983,4.1156798-2.0547348,5.1292621-2.1728468Z"/>
  <path class="st8" d="M46.2076845,86.0901621c-.2809183-.299776,2.9516055-4.9591305,3.2028665-5.6044935.141269-.3628489.3403125-1.0921594.0134704-1.3849091-1.4192889.5536902-4.0231686,6.9988183-4.3828268,7.2233793-.2718119.1697121-1.7769909.0958204-2.1895991-.0895629,1.7946903-6.1377413,4.8370963-11.7345231,8.1771347-17.1330692l2.7294607-.6268053c.2615231.2330294-3.3877768,5.2128203-3.697305,5.9491671-.1241109.2952516-.531031,1.6763635.1977515,1.3178942,1.2150177-1.9904001,2.9001728-4.0468764,4.0199378-6.0516005.2865702-.5130489.2339901-1.2411232.3745235-1.4401423.1553442-.2199939,1.7931079-.5040827,2.1815203-.8952627l-9.259996,18.0071143-1.3669385.7282907Z"/>
  <path class="st8" d="M47.6039283,69.3121009c.8274096-.0642994,1.6945296-.0897372,2.516781-.1412284-3.7265474,5.0884365-6.5224545,10.9116-8.1566939,17.0154137-1.7330216,1.2749343-2.0573955.3513183-2.1912016-1.3589004-.5022456-6.4193601,1.1090685-8.8236127,2.3893293-14.4016539.0766655-.3340282-.0503099-.5395642-.1553637-.8319051,1.2037972-.058452,2.4374725.0733152,3.638541-.00209-.8539132,2.1107987-2.6720163,3.9021188-2.8009315,6.2891924.0008414.2386314.5714078.1904741.7031595.1483811.328776-.1050399,2.4901369-5.4698107,2.9234152-6.2500787l1.1329647-.4671307Z"/>
  <path class="st12" d="M57.1144196,63.9991351c.0849578.1058716-.5670396,1.7367622-.7102079,1.9438846-.6347418.9182842-4.9528876,1.6941588-6.219175,1.8939448-6.2452088.9853255-14.6278588.9101849-20.7709345-.6193822-1.8978481-.472546-3.0204023-.550359-3.3555831-2.8016408-.0863369-.5798919-.0727052-.3944481.2813159-.2814699,1.9966234.6371793,3.9611378,1.2282261,6.0507123,1.5066028,3.5273668.4699219,15.1641405.982247,18.0250024-.3707266.6361017-.3008285,1.9657762-1.5362978,2.3581643-1.5483831.6216458-.0191462,1.1096973.8089045,1.9620602.8593932.7433841.0440334,1.6778091-.3366584,2.3786454-.5822228Z"/>
  <path class="st8" d="M57.9595149,110.6970756l-3.5757592-12.2319088.2151401-3.4283814c1.0038948-.0369949,2.3721701.1824279,3.0409446,1.0174517.8748259,1.092297,3.1140006,8.0080223,3.3212603,9.5423543.3854552,2.8535034-.507317,3.9137515-3.0015859,5.1004841Z"/>
  <path class="st8" d="M75.0237959,18.6999847c.308806.3436124-1.3624983,2.0720724-1.6748112,2.3782753-1.1704654,1.147567-11.8868015,9.3053768-12.8727399,8.2444867-.5135719-1.6216835,2.387755-5.7104383,3.6535011-6.2980079.6148884-.2854362,1.3843241.1028181,2.5938575-.7397557,1.1098242-.7731153,1.0205058-1.4577075,1.5948556-2.0397399,1.0922307-1.1068405,5.1593944-2.2389871,6.7053368-1.5452585Z"/>
  <path class="st6" d="M39.7694964,63.1601113c.073894.0269838.2590695.5597868.4179987.5541815.4079735-.0143889.3788939-1.1554177.5541129-1.4001374.5577977-.7790486,4.3799054.2600445,5.4207084.4088648.4400475.0629207.9238505-.1671646,1.5054831-.0701348.8831148.1473241,2.201835.8673655,3.2934477.789874-.5667749,1.1592794-2.0960835,1.1965142-3.2524018,1.3602045-.9834594.1392201-2.5771364.2733666-3.5909022.3261211-4.7570653.2475488-9.4388984-.3162227-14.1400653-.8518649l.3532661-.6243643c1.0343184-.0669502,6.0925322-1.8838821,6.6416244-1.3330245.0842618.0845327-.0601521,1.089373.0001139,1.39818.4360611.1850004.7045076-.2506302.8380061-.2782641.3010289-.0623123,1.8656915-.3135661,1.958608-.2796359Z"/>
  <path class="st1" d="M40.6098372,61.2029857l-.0023821-1.9592297c4.0264478.00875,8.3185885.1620151,12.2664461,1.0263997,1.1232043.2459259,6.6324022,1.4181798,3.9650716,2.7517138-2.5056284,1.2526909-2.0229333.0967241-3.6404092-.3055468-2.0743311-.515892-4.6376139-.6796066-6.8256881-.9824299-1.8742931-.2593969-3.7570386-.9380085-5.7630383-.5309072Z"/>
  <path class="st1" d="M70.265699,52.8124064c.0454543.0345586.3222545.9081254.1685022,1.1290801-.1821641.2617848-1.9078089.7000529-2.3369352.7575125-9.8238418,1.3154039-11.0630899-11.0470852-18.7046866-11.9201397-1.4432116-.1648873-2.6304642.1679215-4.026892.2460038-.4419945-1.2995381,1.045635-1.5430411,2.1287556-1.6461421,8.9952797-.8562506,11.1908984,12.2920846,19.2456883,12.2423594.769776-.0047521,3.3816241-.9181132,3.5255677-.808674Z"/>
  <path class="st1" d="M50.1992712,90.3653998c.7580881-.6150806,2.9080237-.5389246,3.8373413-1.199036-.3159637,1.1742289-.9090909,2.5774486-2.0789536,3.0926833-4.1018231,1.806538-17.0355482,1.6712846-21.146368-.1520546-.8929771-.3960768-.9585254-1.1540947-1.6971172-1.6594836l-1.9336274-.9980615c1.126969-.4028942,3.7289429.1630468,4.8351845.6149065.4893266.1998722.6893192.9558954,1.1702965,1.34712,2.2839888,1.8577855,13.9327759,1.8655793,16.2437295-.0031073.4054631-.3278662.549241-.8642462.7695144-1.0429668Z"/>
  <path class="st7" d="M43.9665227,44.4245068c-2.8863409,3.4624152-3.6681565,9.8431607-3.8408863,12.8214023-.20006,3.4494726-.0819652,3.1583646-.3561351,5.9141934-.092926-.0339355-1.6575839.2173324-1.9586127.2796446.14255-6.8335448.6575244-15.0238751,5.8758651-19.9953513l.2797692.9801109Z"/>
  <path class="st1" d="M54.3178851,93.9188331l.0002387-1.1155881c1.9239335-.1842908,4.0572655.238962,5.3167465,1.8164105,1.1496049,1.4398332,3.5034319,8.7934272,3.7920849,10.7512484.4345094,2.947109.0325406,4.0967925-2.1094009,6.0297651-.2764686.2494962-2.2324619,1.8072317-2.3820328,1.8087415-.2875366.0029025-.4694511-.6507738-.4294397-.9775036.0816888-.6670651,1.940146-1.5656227,2.5414498-2.2196384.681128-.7408375,1.3231954-2.0845732,1.3314652-3.0868443.0131969-1.5994251-2.7579685-10.3165977-3.7396722-11.5904468-1.0497835-1.3621889-2.691623-1.5164307-4.3214395-1.4161444Z"/>
  <path class="st8" d="M36.9729282,59.5233399c.1384882,2.3509235.0511542,1.4158685-1.508503,1.7100851-1.2412454.2341508-3.1371211.6608455-4.3289213.9877822-.9722438.2667076-2.3323589,1.1517883-3.0058029,1.2175537-.9766603.0953761-1.5326472-.5705733-2.3368795-.720766-.4952646-.0924921-2.0884235.5353584-.8484228-.811937,1.0466079-1.1371687,11.3924024-3.0278359,12.0285295-2.3827181Z"/>
  <path class="st10" d="M86.2145747,22.8935165c1.649225.2050234,3.509587-1.3832374,4.6291953-2.5071366.844083-.8473179.945416-2.2722062,2.5142223-2.2673919,2.0325875.0062375.4631896,2.5638172-.1944995,3.4672158-1.4640765,2.0110483-6.6138805,6.040682-6.9489181,1.3073127Z"/>
  <path class="st8" d="M53.4798619,76.5798912c1.1119263-1.1334976,2.4107326-5.5392945,3.3724812-6.2741243.6786458-.5185234,3.101926-.7264904,3.6485263-.0426861,1.8281695,2.2870645-5.2620422,6.0079097-7.0210075,6.3168104Z"/>
  <path class="st10" d="M90.3874352,17.8839555c.8866024,1.3030109-4.2597564,4.9860772-6.0848953,3.8438979-.1937955-.121278-.9620978-2.1833117-.8978071-2.6015402.2433493-1.5830536,1.9081152-.0607125,2.6606181-.1379391.5775123-.0592679,1.3887072-1.1757351,2.3182136-1.3511196.4396046-.0829471,1.8125809-.0344318,2.0038708.2467009Z"/>
  <path class="st10" d="M96.8495162,20.095405c.3307685,2.1837473-1.1592594,3.9493261-2.6516261,5.3209292-.9146224.8406103-3.2602408,2.8732591-4.369441,1.5561699-.8889282-1.0555333.1588945-.9684263.6724118-1.3256497,1.9412808-1.3504334,2.9523193-2.0614204,4.340005-4.0609622.7139843-1.0287931.2151965-1.8219823,2.0086503-1.4904872Z"/>
  <path class="st1" d="M83.9753198,25.6888039c-.8362226-.8316576-4.9623141-4.3922927-5.0423571-5.1838148-.116864-1.1556347,2.3667617-4.5837057,3.5715451-4.8275803.1862602-.0377031,3.4717348.2161522,3.7900564.2860125.4125458.0905391.763858.3169562,1.0355345.6372464-1.1780229,1.6251459-1.7583492.4566756-2.9372961.3964021-1.7275132-.0883189-3.2473171,1.5948111-3.5896083,3.1617688-.557047,2.5500771,2.3330132,3.4996848,3.1721255,5.5299654Z"/>
  <path class="st1" d="M61.2154507,74.5265196c-2.1289418,2.1779897-6.1926343,3.8795623-9.1345806,4.5701113.5614259-1.5033224,2.4478691-1.5033859,3.825074-2.1865175,1.678752-.8327073,4.7425874-2.5298467,5.5641028-4.2262537,1.5408663-3.1818472-1.2348404-4.6701562-4.072785-3.6539644.7101249-1.9993877,4.150759-1.412276,5.0909681.366911,1.0470965,1.9814535.1625749,3.6612907-1.2727792,5.1297134Z"/>
  <path class="st1" d="M48.7230523,90.5672206c-.0739333.4342606-.5332542.5354914-.8913357.6443293-2.6853488.8162044-10.7766813.7533015-13.442524-.1636146-.4091327-.1407211-.9365274-.2750218-1.0550467-.7603573,5.07295.8576673,10.275127.634403,15.3889063.2796427Z"/>
  <path class="st10" d="M97.828101,23.1776751c1.6629477-.0839532-1.2522302,5.0046722-2.7305863,5.6562481-.8327415.3670254-2.1755571-.1723631-2.1608271-.7683769.0044202-.178851,2.2449443-1.6537536,2.7998508-2.2300158.3931496-.40828,1.9226096-2.6493259,2.0915626-2.6578554Z"/>
  <path class="st8" d="M65.4123002,17.6102844c.614714-.0606033,1.2776217,2.4762866,1.1818713,2.8527266-.0927234.3645395-1.3818529,1.2939614-1.7371098,1.2637388-.3860628-.0328433-2.5306305-1.6191964-2.423301-2.0462002.0441964-.1758324,2.7178935-2.0445687,2.9785395-2.0702652Z"/>
  <path class="st11" d="M47.6039283,69.3121009l-1.1329647.4671307c-.4332783.780268-2.5946392,6.1450388-2.9234152,6.2500787-.1317517.0420931-.7023181.0902503-.7031595-.1483811.1289151-2.3870736,1.9470183-4.1783937,2.8009315-6.2891924.4236407-.0265969,1.2649415-.2257299,1.958608-.2796359Z"/>
  <path class="st4" d="M55.6372262,109.6580042c.6396428.7551575,2.2908227,7.0929968,1.9814414,8.114183-.5565392,1.8369894-5.4740968,3.5533496-7.2158541,3.9725165-6.2902254,1.5137896-14.5136532,1.3956845-20.5727627-.9730974-2.2398766-.8756698-4.7131955-2.0263964-4.2644168-4.8321104.1304034-.8152675,1.4229518-5.1239969,1.7732052-5.7800738,1.2597383-2.3596776,8.9003408-3.221685,11.4540668-3.3733998,3.3988984-.2019259,14.5906928.2113664,16.8443202,2.8719819ZM55.0997871,111.7624594c.5392227-.9267734-.31858-1.6808607-1.059522-2.0438533-5.0984466-2.4977644-19.0625247-2.4817044-24.2602431-.1954526-3.9295085,1.728421-.3063117,3.1636423,1.93616,3.7707177,5.5397182,1.4996964,14.9641127,1.6054165,20.4251027-.158238.4943177-.1596424,2.7990941-1.0991955,2.9585023-1.3731738ZM55.7158796,112.6554938c-.966077.3124428-1.73907.957443-2.7231087,1.3311102-5.2681999,2.0004837-15.3273898,1.8984197-20.7789002.4876877-1.7438174-.4512619-3.114766-1.1797924-4.7530958-1.819106-1.1189037,4.0521068-1.8872727,5.2062786,2.3252617,7.0418651,6.0857302,2.6518204,17.3354373,2.6078978,23.486706.162077,4.5647291-1.8149929,3.7160421-2.9853687,2.4431369-7.203634Z"/>
  <path class="st3" d="M41.0628456,101.2073822c1.4334401-.4277818,3.3642156,4.800486.2371964,4.7583606-2.6606935-.0358433-1.1775446-4.4777323-.2371964-4.7583606ZM40.8901898,104.8244748c.7195029.7420793,1.7314511-1.2561443.4168947-1.9547534-.3431746.2461483-.5552725,1.8120337-.4168947,1.9547534Z"/>
  <path class="st11" d="M29.9764567,68.7528291c-.0883807,1.7261013.4082935,3.4102437.6546538,5.088622.2095079,1.4273146-.594982,1.4496286-1.028577.1787032-.5300283-1.5535844-.4537776-3.638668-.4642791-5.2688379l.8382023.0015127Z"/>
  <path class="st2" d="M55.7158796,112.6554938c1.2729052,4.2182654,2.1215922,5.3886411-2.4431369,7.203634-6.1512687,2.4458208-17.4009758,2.4897434-23.486706-.162077-4.2125343-1.8355865-3.4441653-2.9897583-2.3252617-7.0418651,1.6383298.6393136,3.0092783,1.367844,4.7530958,1.819106,5.4515104,1.410732,15.5107003,1.512796,20.7789002-.4876877.9840386-.3736672,1.7570316-1.0186674,2.7231087-1.3311102Z"/>
  <path class="st2" d="M55.0997871,111.7624594c-.1594082.2739783-2.4641845,1.2135313-2.9585023,1.3731738-5.4609901,1.7636545-14.8853845,1.6579344-20.4251027.158238-2.2424717-.6070754-5.8656686-2.0422966-1.93616-3.7707177,5.1977184-2.2862518,19.1617965-2.3023118,24.2602431.1954526.740942.3629926,1.5987446,1.1170799,1.059522,2.0438533ZM41.0909087,109.0610635c-1.0893496.2961253-1.5334629,1.9482837-.047325,2.1972535,2.7276647.4569604,1.830891-2.6820924.047325-2.1972535Z"/>
  <path class="st2" d="M40.8901898,104.8244748c-.1383778-.1427198.07372-1.7086052.4168947-1.9547534,1.3145564.6986092.3026082,2.6968327-.4168947,1.9547534Z"/>
  <path class="st4" d="M41.0909087,109.0610635c1.783566-.4848389,2.6803397,2.6542139-.047325,2.1972535-1.4861379-.2489698-1.0420246-1.9011282.047325-2.1972535Z"/>
</svg>