<?xml version="1.0" encoding="UTF-8"?>
<svg xmlns="http://www.w3.org/2000/svg" viewBox="0 0 196 196">
 <polygon fill="#fff" points="78.338 105.546 79.145 114.726 93.535 118.054 114.236 116.304 117.967 113.035 117.967 105.835 96.509 108.644 78.338 105.546"/>
 <polygon fill="#f0efeb" points="107.413 118.161 117.413 115.272 117.967 105.835 107.8 107.963 107.413 118.161"/>
 <path fill="#eae9e5" d="M125.753,74.349l11.492-4.853,3.936,3.258-6.545,25.246s-1.716,3.426-2.29,3.122-4.983,0-4.983,0l1.464,5.676,8.419-1.644,3.036-2.921s9.491-28.988,9.409-29.316-2.373-6.361-2.373-6.361c0,0-7.527-6.403-7.773-6.485s-7.773,0-7.773,0l-6.037.761.017,13.516h0s0,0,0,0Z"/>
 <path fill="#eae9e5" d="M116.064,157.006l10.636,2.68s3.498,5.678,3.579,5.835,2.741,10.835,2.741,10.835l-70.282.204,4.377-15.24s6.873-3.661,6.975-3.722,6.513-.061,6.513-.061l-.745,3.171-1.337,4.813.928,1.978,4.582,2.373s7.63,1.616,7.711,1.636l11.373.061,8.714-1.596,5.911-3.457-1.677-9.511h0s0,0,0,0Z"/>
 <path fill="#fff" d="M116.546,156.692l8.328,1.473,3.811,3.988,4.268,13.85s-5.462.48-5.789.556-3.764-12.118-3.764-12.118l-7.62-4.542.766-3.208h0Z"/>
 <path fill="#dededc" d="M112.253,158.693s7.07,4.491,6.978,3.991c-.441-2.41,3.936-5.402,5.659-4.518s-7.527-1.748-8.755-2.234-3.47.127-3.883.127-2.847.724,0,2.634h.001Z"/>
 <path fill="#fff" d="M79.145,156.692l-8.328,1.473-3.811,3.988-4.269,13.85s5.462.48,5.789.556,3.764-12.118,3.764-12.118l7.62-4.542-.766-3.208h0Z"/>
 <path fill="#fff" d="M77.418,119.363l-2.073,7.022-3.054,23.742,4.146,3.818,9.846,2.018s2.7-33.6,2.536-33.709-7.548-3.491-7.548-3.491l-3.852.6h-.001Z"/>
 <polygon fill="#f3f4ef" points="107.271 122.743 114.597 119.308 118.934 119.812 123.618 150.563 118.934 154.654 109.818 155.963 107.271 122.743"/>
 <path fill="#dededc" d="M79.532,115.544l-2.55,2.946,8.931,2.345,3.463,1.418,8.442-1.418,9.541,1.418,8.787-3.354s2.946.027,2.782-.3-2.291-3.327-2.509-3.327-17.454,2.564-17.454,2.564l-13.947-1.309-5.485-.982h0s0,0,0,0Z"/>
 <polygon fill="#f3f4ef" points="93.413 55.735 77.282 60.833 74.255 64.016 77.883 66.173 89.722 67.19 113.364 66.558 125.227 64.021 101.964 55.735 93.413 55.735"/>
 <polygon fill="#fff" points="96.122 55.735 84.397 66.124 112.301 66.124 100.601 55.735 96.122 55.735"/>
 <polygon fill="#fff" points="83.298 66.638 95.691 56.063 88.825 56.799 76.545 60.833 73.396 64.735 83.298 66.638"/>
 <polygon fill="#fff" points="74.255 65.104 82.702 66.557 86.2 107.638 76.054 103.926 72.864 84.088 74.255 65.104"/>
 <path fill="#f3f4ef" d="M113.364,66.558l-3.546,40.941,9.027-2.591,2.373-5.672s4.863-35.17,4.518-34.917-12.372,2.239-12.372,2.239Z"/>
 <polygon fill="#fff" points="83.298 67.19 84.875 91.326 111.045 91.326 113.002 67.19 83.298 67.19"/>
 <polygon fill="#f0efeb" points="61.966 66.124 71.904 65.104 73.396 66.944 72.503 83.594 63.945 70.463 60.796 67.394 61.966 66.124"/>
 <polygon fill="#5f4028" points="85.6 94.326 91.464 94.408 98.075 97.681 107.664 94.844 110.936 94.632 109.818 107.499 97.655 108.644 86.636 106.626 85.6 94.326"/>
 <path fill="#9e7646" d="M96.483,69.496l2.799.405,1.689,5.842,1.483,14.438,6.764,1.173,1.554.982-1.773,2.046-6.409,1.964-3.136.982-5.618-1.336-3.954-2.611s-4.118.566-4.255.429.284-2.716.284-2.716l7.623-.649.956-10.053,1.992-10.894h0s0-.002,0-.002Z"/>
 <path fill="#eae9e5" d="M79.063,163.633l6.114,3.984,12.354,1.967,12.253-1.657,6.811-4.091.818,2.772s-6.359,3.937-6.759,3.958-16.191,1.698-16.212,1.636-13.234-3.171-13.316-3.211-2.761-2.925-2.761-2.925l.697-2.434h0s0,.001,0,.001Z"/>
 <path fill="#cbcecb" d="M113.041,164.919c0,2.45-6.625,4.436-14.797,4.436s-16.973-2.311-16.973-4.761,8.801-4.112,16.973-4.112,14.797,1.986,14.797,4.436h0s0,0,0,0Z"/>
 <path fill="#eae9e5" d="M81.271,156.229l4.643,6.402,3.109-3.846s2.066,3.301,2.107,3.368,1.78,1.193,1.78,1.193h2.495l2.595-4.623,3.173,5.114,2.311-.368,3.787-4.245,2.514,3.099s2.863-2.148,2.904-2.291,2.291-3.805,2.291-3.805l-16.979,1.163-16.729-1.163h0v.002Z"/>
 <path fill="#262524" d="M74.95,154.615c-1.634-.777-4.214-2.778-3.81-4.824l4.69-31.42c.012-1.15,1.818-2.317,1.989-3.06.106-.466-.63-8.872-.836-9.497-4.473-2.675-2.962-15.675-5.311-21.119-2.648-4.36-7.557-15.616-13.401-16.377-2.342-6.255,29.33-11.199,34.672-14.005.765-1.175-1.85-8.04-1.53-9.76.453-2.432,11.562-2.446,12.722-.692,1.209,1.827-2.153,9.642-.82,10.552,12.698,4.6,24.406,5.548,37.127,4.755,3.698,3.054,11.366,8.64,9.864,14.513-4.303,7.978-6.183,28.477-13.152,32.575-1.179.356-7.359,1.554-8.182,1.317-1.725-.498-3.22-7.035-1.919-7.846,1.43-.893,5.1,1.687,6.345-1,.501-3.526,1-9.352,3.04-12.902.707-2.486.557-4.953,1.447-7.362.793-2.147,2.803-3.486,1.935-6.087-2.574-4.591-11.132,2.925-13.937,4.302-1.606,9.463-2.53,29.697-6.871,29.155-.162,2.516.2,6.69-.806,9.17,5.52,10.212,3.653,23.854,6.7,35.218-.521,3.78-5.168,5.091-8.404,5.655,1.845,1.191,9.975.34,13.185,5.064-.16.648,6.276,16.93,4.232,16.745-.57-.888-73.071,1.732-72.327-.953,5.06-14.563.568-18.61,17.973-20.854-1.346-.31-3.416-.693-4.616-1.263h0,0ZM93.417,56.467c-2.72.274-18.001,4.833-18.039,7.335,1.217.723,6.113,2.133,7.245,1.83,2.555-1.83,8.415-6.477,10.794-9.165M109.682,65.674c-1.364-1.873-6.765-8.63-11.682-9.191-5.391,1.925-10.299,7.679-11.8,9.143.116-.064,11.264-.154,11.264-.154M123.215,63.18l-20.565-6.713,10.795,9.157c.195.06,11.26-1.14,9.77-2.445M129.56,105.489c.525.34,7.809-.907,8.533-2.068l10.65-31.344c.34-3.21-6.246-8.64-8.1-10.591-2.242-1.38-4.488-.093-6.934-.407,1.968,5.523-2.726,9.8-7.133,5.031l-.84,7.13c3.981-1.17,9.836-6.453,13.827-3.965,6.266,3.7-.109,12.999-.916,16.24s-1.401,17.741-9.977,16.25c-.258.258.672,3.58.89,3.723M124.89,65.272c-3.15,1.39-8.376.657-10.855,2.78l-2.99,38.324c2.303-.43,7.365-1.353,8.2-3.757l5.645-37.347ZM72.454,66.173s-12.15-.483-10.297,1.589c4.165,2.643,7.094,9.825,9.928,13.919-.182-5.003.368-15.508.368-15.508,0,0,0,0,.001,0ZM82.064,67.385c-1.434.207-6.57-2.034-7.35-.879-.8,1.188-.871,16.84-.871,18.201l3.016,18.293c1.996,2.46,5.304,2.65,8.158,3.375,0,0-2.953-38.99-2.953-38.99ZM112.301,67.785h-28.538c.554,1.927,1.167,22.612,2.304,22.64,1.628-1.018,4.886-1.077,6.929-.826l.846-14.048c2.64-2.833-.801-6.982,4.816-6.423,2.724.27,1.476,2.486,1.98,4.235,2.37,1.068,2.028,14.175,2.43,16.237,2.55-.088,4.937-.11,7.341.843l1.892-22.658h0ZM94.256,91.278c-.075.057.195,1.298-1.259.84.134-2.707-8.358-.78-6.92,1.262,10.498-2.946,6.616,7.704,17.833,1.254,1.206-.372,2.688-.39,4.008-.816.45-.146,2.628-.815,2.283-1.485-2.387-1.244-7.27-2.547-6.711,1.462-2.895.384-1.191-.916-1.39-2.253-1.421-5.326.613-12.369-2.807-16.623-.15-1.155-.259-2.239-.417-3.777s-1.763-1.653-2.106,0,.213,3.67-1.16,4.923c-1.283,4.176-.254,10.713-1.357,15.213M98.87,107.638c5.824-.002,10.185-.84,10.185-.84,0,0,.731-5.219,1.145-11.743-4.709.476-7.646,2.673-12.378,3.39-7.36-1.387-2.858-5.118-11.544-3.393.045,3.735.3,7.542.928,11.235,3.293,1.14,10.859,1.266,11.666,1.35h-.002s0,0,0,0ZM116.918,106.798c-12.184,3.586-25.58,3.404-37.773,0l.762,7.328c0,.202,2.439.894,2.795,1.061,4.753,1.567,27.806,3.429,34.216-1.888v-6.502h0ZM117.755,118.122c-.742-3.38-3.297-1.102-5.45-.624-9,1.998-17.814,1.647-26.392.174-2.775-.549-6.706-2.905-8.032.657,6.66-.73,11.265,3.15,11.265,3.15,0,0,3.327-1.08,6.559-1.278,3.457-.58,8.314.57,11.33,1.278,2.707-1.46,7.16-3.7,10.721-3.358M85.442,155.036l2.517-31.673c-.348-1.843-7.086-3.702-8.98-3.541-3.69.879-4.988,24.595-5.706,28.716-.531,5.767,7.978,5.974,12.17,6.498M118.535,120.281c-3.454-1.115-7.657.585-10.365,2.731l2.456,32.44c2.611-.458,11.535-2.065,12.097-4.925,0,0-4.188-30.246-4.188-30.246ZM106.352,123.225c-5.043-2.08-11.535-1.815-16.656-.01l-2.535,32.2c7.146,1.705,14.592,1.703,21.737-.004,0,0-2.546-32.186-2.546-32.186ZM97.19,158.391c-5.112.314-10.04-1.294-15.105-1.677.54,2.22,2.91,3.128,3.99,5.028l2.933-3.765c1.993,1.857,2.559,5.939,6.025,4.96l2.157-4.546ZM68.648,176.004c2.004-9.382.242-13.503,10.485-16.578.525-.49.693-.825.026-1.26-14.357.488-11.571,7.376-15.543,17.835l5.032.003h0ZM106.426,157.974l-7.973.623c.735.483,2.367,4.201,2.58,4.335,2.37,1.482,4.919-3.126,5.393-4.958M132.446,176.003c-4.4-11.2-1.1-17.025-15.946-18.03-1.425,1.392,4.702,3.126,5.472,3.544,4.492.837,4.368,12.779,5.457,14.47.241.233,4.19-.127,5.017.016M82.502,160.9l-1.253-1.671-.423,2.094,1.676-.423h0ZM115.659,161.32l-1.047-2.091-1.05,1.672,2.097.419ZM87.54,166.358c-1.09-.228-1.098-.795-1.26-.84l-2.31-3.772c-.588,1.617-1.624,1.31-3.144,1.26,2.142,7.042,32.547,7.33,33.771-.01-1.635.69-1.956-.842-2.085-.844-1.194-.012-2.298,2.415-2.728,3.368-.096.009-1.085.316-1.68.42.61-1.466.796-5.385-1.25-5.451-.898,1.275-2.784,4.1-2.946,5.87-2.145.409.66-2.272-2.305-1.693-.741.113.718,2.38-1.892,2.53,0,0-3.613-2.294-3.777.421-1.965-.774-2.106-6.542-3.358-1.26h-5.036M70.332,176.005h55.401c-2.24-7.265.053-12.642-9.02-14.685,13.736,15.093-50.275,15.9-37.774.007-1.416,1.01-4.993,1.6-5.859,2.955-.36.563-3.187,11.312-2.748,11.723M79.151,164.261c-2.294,9.599,39.784,9.756,37.345.203-6.483,7.857-30.652,7.65-37.345-.203"/>
 <path fill="#3a3835" d="M75.373,31.926c.088,1.625-1.287,2.52-1.577,4.08-.993,5.835,7.692,11.95.323,15.63-.227-1.275.936-2.15,1.165-3.24.912-4.813-8.106-12.724.089-16.47"/>
 <path fill="#33312f" d="M54.334,42.789c-2.065-2.114,2.858-.794,4.365.645,4.736,5.01-3.369,9.485,2.749,14.211,1.381,1.926-2.076,1.144-3.238-1.022-3.213-6.429,5.326-11.963-3.876-13.834M69.077,39.897c-3.331,5.333,1.808,7.236,1.69,13.221-.098.867-1.364,4.238-2.525,3.132,3.81-5.518-6.243-13.02.835-16.354M58.048,60.92c-.87,1.186-4.985-2.495-5.478-3.812-.571-1.532-.382-7.358,1.155-7.702,1.977.105-1.547,5.995,1.212,8.42.402.557,3.439,2.645,3.111,3.094"/>
 <path fill="#fff" d="M106.356,123.226l2.544,32.185c-7.145,1.71-14.592,1.712-21.738.005l2.535-32.2c5.121-1.805,11.615-2.07,16.658.01"/>
 <path fill="#f0efeb" d="M102.651,44.8c-1.083,1.82-.96,7.944-1.874,9.24-7.936,2.701-5.568-3.846-7.365-9.24,3.113-.73,6.12-.695,9.24,0"/>
 <path fill="#cbcecb" d="M132.374,61.373c.675,1.379.317,4.9-1.492,5.055-1.605.137-2.216-1.873-3.167-2.707-1.375-1.205-3.29-1.778-4.992-2.354,1.442-.05,8.135.04,9.65.006,0,0,.001,0,.001,0Z"/>
 <path fill="#62a2cf" d="M99.711,167.198c-1.264.075-2.584-.258-3.775.42-.188-.242-.543-2.241,1.888-6.705,1.926,1.63,2.928,3.795,1.889,6.285h-.002ZM87.541,166.36c.157-1.788-.638-5.067,1.465-5.876l3.571,5.876c-.753.865-3.865.244-5.035,0M103.91,166.36c.27-2.935,1.865-4.813,2.946-5.87,2.049.07,1.857,3.98,1.25,5.45-1.916.328-2.904-.419-4.196.42"/>
 <path fill="#dededc" d="M113.98,156.715c.6.552-3.61,4.33-3.985,5.022l-2.724-3.563c.15-1.456,5.208-.778,6.71-1.46"/>
 <path fill="#62a2cf" d="M109.785,165.521c.43-.952,1.535-3.38,2.73-3.367.128,0,.45,1.534,2.085.844.869,2.37-3.23,3.335-4.815,2.522M86.282,165.521c-1.54-.41-5.303-.066-5.454-2.515,1.52.05,2.556.36,3.144-1.26,0,0,2.31,3.775,2.31,3.775Z"/>
 <path fill="#b8b6b2" d="M75.008,61.6c-3.104,3.463-6.741,2.668-8.528,2.577,2.445-1.164,4.28-1.587,8.528-2.577"/>
 <path fill="#b8b6b2" d="M115.66,161.321l-2.095-.42,1.05-1.67,1.045,2.09Z"/>
 <path fill="#cbcecb" d="M82.503,160.901l-1.675.423.423-2.094,1.252,1.671h0Z"/>
 <path fill="#b09170" d="M90.693,84.15c1.93-.54,1.93,2.63,0,2.09-.844-.237-.844-1.852,0-2.09M89.637,82.052c.743,3.36-3.69,1.553-1.686.198.501-.339,1.339-.763,1.686-.2v.002ZM107.901,79.957c1.427-.384,1.928,1.374.831,1.67-1.428.383-1.927-1.376-.83-1.67M89.217,85.827c.692.69-1.07,2.659-1.672,1.042-.537-1.446,1.492-1.223,1.672-1.043M92.532,80.414c.074.045.608,1.5.005,2.102,0,0-1.278.837-1.674,0s.459-2.847,1.67-2.102M107.265,77.432c-.81.81-2.593-1.332-1.04-1.672.883-.195,1.345,1.368,1.04,1.674M104.747,77.852c-.81.81-2.592-1.332-1.041-1.674.885-.193,1.347,1.37,1.04,1.674"/>
 <path fill="#2c2a29" d="M81.135,122.801c4.35-.786,5.306,6.738.717,7.053-4.635.32-4.486-6.373-.717-7.054"/>
 <path fill="#201f1e" d="M98.732,101.414c4.282-1.473,4.065,4.463.786,4.134-2.07-.208-2.535-3.532-.786-4.134M94.535,99.307c3.033-1.019,3.232,3.753.02,2.799-1.525-.453-1.18-2.41-.02-2.8M95.933,100.086c-.666-.664-1.92.59-1.254,1.256s1.92-.59,1.254-1.254M106.008,97.567c2.18,3.612-4.406,3.583-2.338.39.42-.585,1.549-.802,2.338-.39"/>
 <path fill="#eae9e5" d="M82.822,124.95c1.17,1.169.084,4.095-1.995,3.048-2.19-1.104-.022-5.06,1.995-3.048"/>
 <path fill="#9e7646" d="M95.933,100.088c.666.665-.59,1.92-1.254,1.254s.588-1.92,1.254-1.254"/>
 <path fill="#33312f" d="M82.437,125.592c1.146,1.565-3.12,2.802-1.479-.015.282-.483,1.428-.054,1.48.015"/>
 <circle fill="#9e7646" cx="104.864" cy="98.695" r=".541"/>
 <ellipse fill="#9e7646" cx="99.956" cy="103.311" rx="1.078" ry=".972" transform="translate(-39.492 138.22) rotate(-60)"/>
 <path fill="#b09170" d="M100.464,84.564c.136,3.816.141,4.198.136,5.862-.008,2.952-2.164,2.34-2.318.054-.066-.982.464-4.2.464-5.384,0-3.937-.158-8.389.354-8.389s1.223,3.922,1.364,7.856h0s0,0,0,0Z"/>
</svg>