<?xml version="1.0" encoding="UTF-8"?>
<svg id="Layer_1" xmlns="http://www.w3.org/2000/svg" version="1.1" viewBox="0 0 96 96">
  <!-- Generator: Adobe Illustrator 29.0.0, SVG Export Plug-In . SVG Version: 2.1.0 Build 186)  -->
  <path d="M88.2,26.1c-.3-.4-.7-.6-1.2-.6H20.3l-3.9-13.9c-.2-.6-.8-1.1-1.4-1.1H6c-.8,0-1.5.7-1.5,1.5s.7,1.5,1.5,1.5h7.9l13.5,48.5c.9,3.2,3.9,5.5,7.2,5.5h37.1c3.4,0,6.3-2.3,7.2-5.5l9.6-34.6c.1-.5,0-.9-.3-1.3ZM75.9,61.2c-.5,1.9-2.3,3.3-4.3,3.3h-37.1c-2,0-3.8-1.3-4.3-3.3l-9.1-32.7h63.9l-9.1,32.7ZM37.5,81c0,2.5-2,4.5-4.5,4.5s-4.5-2-4.5-4.5,2-4.5,4.5-4.5,4.5,2,4.5,4.5ZM76.5,81c0,2.5-2,4.5-4.5,4.5s-4.5-2-4.5-4.5,2-4.5,4.5-4.5,4.5,2,4.5,4.5Z"/>
</svg>