<?xml version="1.0" encoding="UTF-8"?>
<svg id="Layer_1" xmlns="http://www.w3.org/2000/svg" version="1.1" viewBox="0 0 24 24">
  <!-- Generator: Adobe Illustrator 29.0.0, SVG Export Plug-In . SVG Version: 2.1.0 Build 186)  -->
  <defs>
    <style>
      .st0 {
        fill: none;
        stroke: #000;
        stroke-linecap: round;
        stroke-linejoin: round;
        stroke-width: 2px;
      }
    </style>
  </defs>
  <path class="st0" d="M12,3h-6c-1.1,0-2,.9-2,2v14c0,1.1.9,2,2,2h12c1.1,0,2-.9,2-2v-6"/>
  <path class="st0" d="M18.4,2.6c.8-.8,2.2-.8,3,0s.8,2.2,0,3l-9,9c-.2.2-.5.4-.9.5l-2.9.8c-.3,0-.5,0-.6-.3v-.3l.8-2.9c0-.3.3-.6.5-.9L18.4,2.6Z"/>
</svg>