<?xml version="1.0" encoding="UTF-8"?>
<svg id="Layer_1" xmlns="http://www.w3.org/2000/svg" version="1.1" viewBox="0 0 24 24">
  <!-- Generator: Adobe Illustrator 29.0.0, SVG Export Plug-In . SVG Version: 2.1.0 Build 186)  -->
  <path d="M12,0C5.37,0,0,5.37,0,12s5.37,12,12,12,12-5.37,12-12S18.63,0,12,0ZM11.39,2.03c.2-.01.41-.03.61-.03s.41.02.61.03c3.02.31,5.39,2.87,5.39,5.97,0,3.31-2.69,6-6,6s-6-2.69-6-6c0-3.1,2.37-5.66,5.39-5.97ZM12,22c-2.93,0-5.57-1.28-7.4-3.3.9-1.49,2.98-2.7,7.4-2.7s6.5,1.22,7.4,2.7c-1.83,2.02-4.46,3.3-7.4,3.3Z"/>
</svg>