<?xml version="1.0" encoding="UTF-8"?>
<svg id="Layer_1" xmlns="http://www.w3.org/2000/svg" version="1.1" viewBox="0 0 640 128" width="150" height="30">
  <!-- Generator: Adobe Illustrator 29.0.0, SVG Export Plug-In . SVG Version: 2.1.0 Build 186)  -->
  <defs>
    <style>
      .st0 {
        fill: #010101;
      }
    </style>
  </defs>
  <polygon class="st0" points="336.6 20.7 318.6 20.7 318.6 37.4 307.9 37.4 307.9 52.3 318.6 52.3 318.6 93.8 336.6 93.8 336.6 52.3 347.3 52.3 347.3 37.4 336.6 37.4 336.6 20.7"/>
  <path class="st0" d="M248.6,40.9c-4.6-3.3-10.1-5.3-16.1-5.3-15.5,0-28.1,13.2-28.1,29.6s12.6,29.6,28.1,29.6,11.5-2,16.1-5.3v4.4h18V12.7h-18v28.1ZM235.8,79.6c-7.4,0-13.3-6.4-13.3-14.4s6-14.4,13.3-14.4,11.2,4.4,12.8,10.4v8c-1.6,6-6.7,10.4-12.8,10.4Z"/>
  <rect class="st0" x="420.8" y="37.4" width="18" height="56.4"/>
  <ellipse class="st0" cx="430" cy="20.9" rx="11" ry="10.9"/>
  <path class="st0" d="M557.1,36.8v4.4c-3.1-2.7-8.2-5.6-15.5-5.6-11.6,0-27.6,6.5-27.6,28s1.3,29.3,26.8,29.3,13.9-2.7,16.8-5.3v5.8c0,0-.9,9.2-11.8,9.2s-11-5.5-11-5.5h-17s4.1,21,28.1,21,29.6-20.2,29.6-24.7l-.6-56.5h-18ZM544.4,78.7c-7.4,0-13.3-6.4-13.3-14.4s6-14.4,13.3-14.4,13.3,6.4,13.3,14.4-6,14.4-13.3,14.4Z"/>
  <path class="st0" d="M45.1,36.7v4.4c-3.1-2.7-8.2-5.6-15.5-5.6-11.6,0-27.6,6.5-27.6,28s1.3,29.3,26.8,29.3,13.9-2.7,16.8-5.3v5.8c0,0-.9,9.2-11.8,9.2s-11-5.5-11-5.5H5.9s4.1,21,28.1,21,29.6-20.2,29.6-24.7l-.6-56.5h-18ZM32.5,78.7c-7.4,0-13.3-6.4-13.3-14.4s6-14.4,13.3-14.4,13.3,6.4,13.3,14.4-6,14.4-13.3,14.4Z"/>
  <path class="st0" d="M484,36.1c-8,0-12.8,3.2-15,5.2v-3.9h-18v56.4h18v-33c0-4,2.6-10.3,10.6-10.3s9.2,9.2,9.2,9.2v34.1h18v-34.1c0-17.5-12.6-23.6-22.8-23.6Z"/>
  <path class="st0" d="M387.9,36.1c-7.8,0-12.5,3-14.8,5.1V12.8h-18v81h18v-34.8c.7-3.9,3.5-8.5,10.4-8.5s9.2,9.2,9.2,9.2v34.1h18v-34.1c0-17.5-12.6-23.6-22.8-23.6Z"/>
  <path class="st0" d="M633.6,65.2c-3.3-3-8.4-4.4-15.6-6.2-9.1-2.3-16.2-2.7-16.2-6.4s4.8-4.2,9.1-4.2c9.2,0,9,5.1,9,5.1h17.2c0-9.1-9.2-18.5-25.2-18.5s-27.1,7.6-27.1,19.1,1.6,8.1,4.4,11c3.3,3,8.4,4.4,15.6,6.2,9.1,2.3,16.2,2.7,16.2,6.4s-4.8,4.2-9.1,4.2c-9.2,0-10.2-5.6-10.2-5.6h-17.2c0,9.1,10.5,19,26.4,19s27.1-7.6,27.1-19.1-1.6-8.1-4.4-11Z"/>
  <path class="st0" d="M102.1,35.6c-16.9,0-30.6,13.2-30.6,29.6s13.7,29.6,30.6,29.6,30.6-13.2,30.6-29.6-13.7-29.6-30.6-29.6ZM102.1,79.6c-7.4,0-13.3-6.4-13.3-14.4s6-14.4,13.3-14.4,13.3,6.4,13.3,14.4-6,14.4-13.3,14.4Z"/>
  <path class="st0" d="M168.8,35.6c-16.9,0-30.6,13.2-30.6,29.6s13.7,29.6,30.6,29.6,30.6-13.2,30.6-29.6-13.7-29.6-30.6-29.6ZM168.8,79.6c-7.4,0-13.3-6.4-13.3-14.4s6-14.4,13.3-14.4,13.3,6.4,13.3,14.4-6,14.4-13.3,14.4Z"/>
</svg>