<?xml version="1.0" encoding="UTF-8"?>
<svg id="Layer_1" xmlns="http://www.w3.org/2000/svg" version="1.1" viewBox="0 0 48 48">
  <!-- Generator: Adobe Illustrator 29.0.0, SVG Export Plug-In . SVG Version: 2.1.0 Build 186)  -->
  <defs>
    <style>
      .st0 {
        fill: none;
        stroke: #000;
        stroke-linecap: round;
        stroke-linejoin: round;
        stroke-width: 2px;
      }
    </style>
  </defs>
  <line class="st0" x1="8" y1="3" x2="40" y2="3"/>
  <line class="st0" x1="11" y1="7" x2="37" y2="7"/>
  <path class="st0" d="M13,7l11,15,11-15"/>
  <path class="st0" d="M20,21h8"/>
  <line class="st0" x1="24" y1="22" x2="24" y2="25"/>
  <path class="st0" d="M17,28c-2.67,5.33-3,7-3,11v2h20v-2c0-4-.33-5.67-3-11"/>
  <path class="st0" d="M19,15h10"/>
  <path class="st0" d="M32,26h4c1.66,0,3,1.34,3,3v2c0,1.66-1.34,3-3,3h-2"/>
  <polyline class="st0" points="31 28 33 21 15 21 17 28"/>
  <path class="st0" d="M7,41h34c1.1,0,2,.9,2,2v2H5v-2c0-1.1.9-2,2-2Z"/>
</svg>