<?xml version="1.0" encoding="UTF-8"?>
<svg id="Layer_1" xmlns="http://www.w3.org/2000/svg" version="1.1" viewBox="0 0 48 48">
  <!-- Generator: Adobe Illustrator 29.0.0, SVG Export Plug-In . SVG Version: 2.1.0 Build 186)  -->
  <defs>
    <style>
      .st0 {
        fill: none;
        stroke: #000;
        stroke-linecap: round;
        stroke-linejoin: round;
        stroke-width: 2px;
      }
    </style>
  </defs>
  <rect class="st0" x="8" y="12" width="32" height="27"/>
  <g>
    <rect class="st0" x="20" y="12" width="8" height="5" rx=".5" ry=".5"/>
    <line class="st0" x1="22" y1="17" x2="22" y2="21"/>
    <line class="st0" x1="26" y1="17" x2="26" y2="21"/>
  </g>
  <rect class="st0" x="5.3" y="5" width="37.3" height="7" rx="2" ry="2"/>
  <path class="st0" d="M7,39h34c1.1,0,2,.9,2,2v2H5v-2c0-1.1.9-2,2-2Z"/>
  <path class="st0" d="M18,31h12v4c0,2.2-1.8,4-4,4h-4c-2.2,0-4-1.8-4-4v-4h0Z"/>
  <path class="st0" d="M30,35v-4h2c1.1,0,2,.9,2,2h0"/>
  <line class="st0" x1="10.3" y1="8.5" x2="11.5" y2="8.5"/>
  <line class="st0" x1="15.3" y1="8.5" x2="16.5" y2="8.5"/>
</svg>