<?xml version="1.0" encoding="UTF-8"?>
<svg id="Layer_1" xmlns="http://www.w3.org/2000/svg" version="1.1" viewBox="0 0 128 128">
  <!-- Generator: Adobe Illustrator 29.0.0, SVG Export Plug-In . SVG Version: 2.1.0 Build 186)  -->
  <defs>
    <style>
      .st0 {
        fill: #fff;
      }

      .st1 {
        fill: #ac9927;
      }
    </style>
  </defs>
  <g>
    <g>
      <path class="st1" d="M25.8785,32.5289c0-.6358.0712-1.1969.2146-1.6839.1428-.487.3375-.8985.5842-1.2318.247-.3332.5379-.5881.8743-.7625.336-.1751.7006-.2627,1.0936-.2627.3863,0,.7458.0876,1.0779.2627.3328.1745.6205.4294.8633.7625.2431.3333.4343.7447.5739,1.2318.1395.4869.2125,1.048.2197,1.6839,0,.6037-.0677,1.1519-.2033,1.6446-.136.4927-.3272.9106-.5739,1.2545-.247.3446-.5382.6095-.8739.7946-.3364.1858-.6974.2784-1.0836.2784-.3788,0-.7362-.0876-1.0723-.262-.3361-.1751-.6294-.4293-.8793-.7625-.2506-.3339-.4493-.7476-.5952-1.2396-.1466-.4927-.22-1.0615-.22-1.708ZM27.0475,32.5132c0,.4236.0463.7917.1392,1.1035.0929.3133.2146.5725.3649.7789.1502.2065.3214.3631.5147.4685.193.1061.3863.1594.5789.1594.2364,0,.4503-.0612.6436-.183.1933-.1217.3574-.294.4937-.5162.1357-.2228.241-.4869.3161-.7945.0748-.3069.1125-.6457.1125-1.0167s-.0409-.7071-.1231-1.0089c-.0826-.3019-.193-.5618-.3325-.7789-.1395-.2165-.304-.3837-.4934-.5005-.1898-.1161-.3952-.1745-.6169-.1745-.2286,0-.4393.0634-.6326.1909-.1925.1267-.3613.3018-.5041.524-.1428.2221-.256.4842-.3379.786-.0822.3019-.1231.623-.1231.9619ZM28.5598,43.2378c-.2649,0-.4813-.1167-.6486-.3496-.1688-.2328-.2521-.5347-.2521-.9057v-3.6702h1.1901v3.1612c0,.2015.0466.3026.1392.3026h5.1804v.8103c0,.4343-.1609.6514-.4828.6514h-5.1263ZM32.7423,39.0906v-10.9468h1.1581v3.8604h1.4585v1.446h-1.4585v4.7511c0,.3389-.0317.5717-.0961.6992-.0648.1267-.2004.1901-.408.1901h-.654Z"/>
      <path class="st1" d="M33.6854,43.4806h-5.126v-.4863h5.126c.178-.0235.205-.0149.2399-.4079h0v-.5674h-4.9373c-.1431.0078-.2873-.1111-.325-.2165h0c-.047-.1068-.0556-.2093-.0569-.329h0v-2.9184h-.7041v3.4268c0,.336.0747.5824.2057.7646h0c.1374.1808.2606.2435.4517.2477h0v.4863c-.3382.0036-.6476-.1659-.8455-.4506h0c-.2061-.2834-.2986-.6422-.2976-1.048h0v-3.9131h1.6764l-.0011,3.4047c-.0004.0228.0007.042.0017.0591h5.3182v1.0537c-.0007.2456-.0417.4592-.1688.6329h0c-.1228.173-.335.2613-.5436.2613h-.0139ZM33.3959,39.3333h-.654v-.2428h.2428-.2428v.2428h-.2424v-11.4331h1.6436v3.8604h1.4585v1.9323h-1.4585v4.5083c-.0028.3567-.0249.6052-.1225.8096h0c-.1129.2264-.3617.3232-.603.3225h-.0217ZM33.3959,38.8484c.167-.0071.1791-.0384.1912-.0584h0c.0306-.0505.0733-.2676.0705-.5888h0v-4.9939h1.4585v-.9597h-1.4585v-3.8618h-.6729v10.4626h.4112ZM28.6452,36.7438c-.4162.0007-.8153-.0975-1.1851-.2898h0c-.3702-.1929-.6924-.4727-.9612-.8316h0c-.2716-.3624-.4816-.8024-.634-1.3164h0c-.1552-.5205-.2296-1.1136-.2296-1.7771h0c0-.653.0726-1.2375.2246-1.7529h0c.1495-.5084.3545-.9463.6219-1.308h0c.2659-.3588.5863-.6408.9573-.833h0c.3702-.1936.7771-.2905,1.2061-.2897h0c.4226-.0007.8244.0961,1.1908.2905h0c.3681.193.6846.4749.9469.8338h0c.2628.3623.4649.8002.6113,1.3086h0c.146.5133.2218,1.095.2286,1.7508h0c0,.6215-.0698,1.1911-.2119,1.7087h0c-.1424.5155-.3442.9605-.6108,1.3314h0c-.2645.3702-.5838.6629-.9541.8658h0c-.3685.2043-.7725.309-1.1951.309h-.0057ZM26.1209,32.5289c0,.628.0715,1.174.2097,1.639h0c.1403.4699.3275.8565.5575,1.1619h0c.2307.309.4956.5369.7967.6935h0c.3037.1573.6191.2335.9605.235h0c.3471-.0015.6632-.0826.9658-.2478h0c.3015-.1673.5653-.4051.7939-.7233h0c.2271-.3176.4073-.7084.5375-1.1791h0c.1281-.4678.195-.9939.195-1.5771h0c-.0071-.6188-.0787-1.1584-.2111-1.6198h0c-.1335-.4657-.3133-.8494-.5365-1.1556h0c-.2247-.3075-.4824-.534-.7797-.6898h0c-.2987-.1574-.6162-.2343-.9651-.235h0c-.3574.0007-.6799.0783-.9822.2356h0c-.3015.1559-.5621.3845-.79.6907h0c-.2271.3061-.4108.6907-.5475,1.1562h0c-.1352.4592-.2047.9982-.2047,1.6156h0ZM28.6452,35.2664c-.2378,0-.4738-.0669-.6956-.1893h0c-.2289-.1253-.4279-.3083-.5942-.5383h0c-.1712-.235-.3033-.5198-.4019-.8529h0c-.1015-.3411-.1492-.7319-.1492-1.1726h0c0-.3596.0437-.7013.1314-1.026h0c.0876-.3218.21-.6066.368-.8537h0c.1581-.2463.351-.4478.5753-.5959h0c.2286-.1524.4923-.2321.7661-.2307h0c.2645,0,.5179.0712.744.2107h0c.2246.1382.4147.3346.5699.5767h0c.1563.2407.2756.5248.3632.8459h0c.0887.3254.1317.6842.1317,1.073h0c0,.3866-.0392.7454-.1196,1.0736h0c-.0798.3268-.193.6152-.3454.8644h0c-.1523.2485-.3421.4506-.571.5952h0c-.2292.1452-.492.22-.7675.22h-.0053ZM27.4191,33.5477c.0876.2926.199.5262.3293.7041h0c.1324.1837.2766.3133.435.3995h0c.163.089.3143.1282.4617.1288h0c.1951-.0007.3578-.047.5141-.1452h0c.1573-.1004.2958-.2421.4151-.4371h0c.1203-.1972.2178-.4379.2883-.7255h0c.0687-.2855.1057-.6052.1057-.959h0c0-.3532-.0399-.6686-.1146-.9448h0c-.0776-.2834-.1802-.5197-.3033-.712h0c-.1235-.1908-.262-.329-.4151-.4243h0c-.1552-.094-.3115-.1389-.4902-.1389h0c-.1834,0-.3424.0478-.4988.1503h0c-.162.1068-.3065.2549-.4339.4528h0c-.1271.1979-.2307.4372-.3072.7184h0c-.0766.2798-.1142.5789-.1153.8986h0c0,.4058.0445.7511.1292,1.0345h0Z"/>
    </g>
    <g>
      <path class="st1" d="M35.8203,28.6201h5.2659v.6515c0,.2755-.0538.4713-.161.5881-.1075.1168-.2321.1752-.3755.1752h-1.5226v2.1445c0,.4243.0858.8209.2574,1.1911.1716.3717.3862.7127.6436,1.0253.257.3126.5343.5909.8309.8344.2966.2435.57.4443.8206.6038l-.7397,1.1434c-.2079-.1374-.4219-.3018-.6437-.4927-.2218-.1901-.4382-.3965-.6489-.6194-.2111-.2221-.4115-.4578-.6009-.707-.1894-.2485-.3521-.5005-.4878-.7547-.143.2756-.3147.5618-.5147.858-.2001.2969-.4165.5774-.6487.8423-.2324.2649-.4684.5062-.708.7227-.2399.2178-.47.3895-.6917.5169l-.7401-1.1121c.3859-.2435.7433-.5269,1.0723-.8501.329-.3233.6116-.6621.8473-1.0174.2364-.3546.4218-.7199.5578-1.0958.1357-.3759.204-.739.204-1.0886v-2.1445h-2.0163v-1.4148ZM38.5657,43.2535c-.2716,0-.4916-.1167-.6593-.3496-.1683-.2328-.252-.5347-.252-.9057v-3.7016h1.1904v3.1933c0,.2014.0467.3018.1393.3018h5.3947v.8103c0,.2114-.0357.3738-.1075.4848-.0712.111-.1926.1666-.3645.1666h-5.341ZM42.9309,39.0906v-6.0369h-2.2092v-1.4781h2.2092v-3.4317h1.1794v9.9941c0,.3389-.0335.5824-.1015.7305-.0683.1481-.2061.2221-.4129.2221h-.665Z"/>
      <path class="st1" d="M43.9059,43.4963h-5.3406v-.4856h5.3406c.1257-.0057.1374-.0263.1603-.0562h0c.0348-.0491.0698-.1681.069-.3532h0v-.5668h-5.1512c-.1431.0079-.2873-.1103-.3254-.2164h0c-.0467-.1068-.0556-.2093-.0566-.329h0l-.001-2.9498h-.7042v3.4581c.0007.3353.0755.5809.2068.7647h0c.1353.1802.2617.2435.4617.2485h0v.4856c-.3424.005-.6568-.1651-.8558-.4506h0c-.2057-.2834-.2983-.6415-.2983-1.048h0v-3.9437h1.6764v3.4353c-.0003.0227.0004.0427.0018.0591h5.5321v1.0531c-.0007.2385-.0367.4443-.1452.6151h0c-.1168.1894-.3371.2805-.5497.2805h0c-.0071,0-.0135,0-.0206-.0007h0ZM43.5955,39.3333h-.6643v-.2428h.2428-.2428v.2428h-.2439v-6.0377h-2.2089v-1.9637h2.2089v-3.4317h1.6657v10.2376c-.0021.356-.0299.6194-.1235.833h0c-.1015.235-.3567.3631-.6059.3631h0c-.0093,0-.0185,0-.0281-.0007h0ZM43.5955,38.8484c.1552-.0106.1616-.0313.1923-.0812h0c.042-.0854.0815-.3083.0798-.6294h0v-9.7521h-.6935v3.4332h-2.21v.9911h2.21v6.0383h.4215ZM34.8142,36.1579l.2108-.1331c.3713-.2335.7155-.5055,1.032-.8174h0c.3182-.3126.5892-.6387.8149-.9797h0c.2267-.3389.4026-.6864.5322-1.0416h0c.1274-.3545.189-.6892.189-1.0067h0v-1.9024h-2.0156v-1.9003h5.7507v.895c-.0007.304-.0527.5603-.2239.7518h0c-.1414.1573-.3443.2563-.555.2535h-1.2797v1.9024c0,.3901.079.7504.2349,1.0893h0c.1631.3524.3664.6757.6109.9726h0c.2478.3005.5133.5674.7978.801h0c.2909.2386.5564.4343.796.586h0l.2072.1317-1.0061,1.5564-.205-.136c-.2175-.1445-.4396-.3154-.6675-.5112h0c-.2286-.1958-.4507-.408-.6664-.6373h0c-.2178-.2285-.424-.4699-.618-.7269h0c-.1039-.136-.2004-.2741-.289-.4123h0c-.0976.1652-.2036.3333-.319.5048h0c-.2058.3055-.4286.5938-.6675.8665h0c-.2385.2706-.4805.5183-.7283.7426h0c-.2496.2271-.4923.4087-.7333.5468h0l-.1979.1139-1.0039-1.5094h0ZM35.9666,37.0115c.146-.0997.2983-.2214.4567-.366h0c.2329-.2093.4614-.4442.6885-.702h0c.2257-.2577.4353-.5297.6304-.8173h0c.1951-.2905.3624-.5689.4999-.8359h0l.2118-.4094.2189.408c.1292.2421.2844.4827.4663.7219h0c.1845.2421.3795.4713.5842.6871h0c.2051.2172.4162.418.6308.6031h0c.1435.1224.2827.2335.418.3332h0l.4727-.7312c-.2022-.1388-.4151-.3005-.6401-.4856h0c-.3093-.2542-.5977-.5433-.8647-.868h0c-.2706-.3282-.4963-.6877-.6764-1.0772h0c-.1858-.4023-.2798-.8359-.2798-1.2929h0v-2.3873h1.7654c.0755-.0035.1225-.0206.1969-.0975h0c.0427-.0399.0986-.1766.0965-.4229h0v-.408h-4.7796v.9284h2.0167v2.3873c0,.3816-.0747.7725-.2189,1.1705h0c-.1424.3952-.3371.7789-.5841,1.1477h0c-.2457.3703-.539.7227-.8793,1.0559h0c-.2809.277-.5824.5254-.9046.7461h0l.4738.712h0Z"/>
    </g>
    <g>
      <path class="st1" d="M44.7005,35.6275h1.6297v-3.3371h1.1477v3.3371h.9331c.4792,0,.9495-.0321,1.4101-.0954.4614-.0641.9747-.1965,1.5393-.3973v.8259c0,.2435-.0373.4158-.1125.5169-.0755.1004-.184.1823-.3275.2464-.2997.1374-.7504.2328-1.3513.2855-.6002.0534-1.2762.079-2.0267.079h-2.8419v-1.461ZM45.3544,30.2883v-1.4453h4.5044c.2506,0,.4347.1054.5525.3175.1182.2122.1769.4664.1769.7625v.2229c0,.3069-.016.6593-.0485,1.0566-.0324.3973-.0801.7967-.1449,1.199-.0641.403-.1409.7897-.2307,1.1599-.089.371-.1912.6835-.3054.9377l-.89-.4129c.1428-.5717.2553-1.1598.3378-1.7636.0822-.6038.1236-1.2075.1236-1.8112,0-.0847-.0096-.1431-.027-.1745-.0182-.032-.0556-.0484-.1125-.0484h-3.9363ZM47.5424,43.2378c-.2649,0-.4813-.1167-.6486-.3496-.1681-.2328-.252-.5347-.252-.9057v-3.6859h1.158l.0111,3.1769c0,.2015.0459.3026.1388.3026h5.3303v.8103c0,.2114-.0356.3731-.1067.4848-.0716.1111-.1934.1666-.3649.1666h-5.2659ZM51.8215,39.2493v-11.1055h1.1691v4.7981h1.4585v1.446h-1.4585v3.9244c0,.6251-.193.9369-.5793.9369h-.5898Z"/>
      <path class="st1" d="M52.8079,43.4799h-5.2652v-.4856h5.2652c.1242-.0042.1385-.027.1602-.0548h0c.0338-.0505.0698-.168.0688-.3531h0v-.5674h-5.0872c-.1431.0085-.2883-.1111-.3254-.2179h0c-.047-.1061-.0555-.2079-.0569-.3275h0l-.0096-2.9341h-.6739v3.4431c.0011.3354.0758.581.2072.7633h0c.1363.1815.2595.2442.4517.2485h0v.4856c-.3392.005-.6479-.1667-.8469-.4493h0c-.204-.2848-.2972-.6422-.2972-1.048h0v-3.9287h1.6425l.0117,3.4196c0,.0228.0007.0427.0018.0591h5.4677v1.0537c0,.2385-.037.4428-.1452.6158h0c-.1175.188-.3382.2777-.5518.2777h-.0174ZM52.411,39.4921h-.5899v-.2428h.2435-.2435v.2428h-.2428v-3.2096c-.0225.126-.0634.2392-.1363.3403h0c-.1043.1403-.251.2471-.4197.3211h0c-.3454.1573-.816.252-1.4318.3076h0c-.6091.0541-1.2926.0798-2.0477.0798h-3.0854v-1.9473h1.6297v-3.3371h1.6336v3.3371h.6907c.4674,0,.927-.0314,1.377-.094h0c.4396-.0599.9384-.188,1.4902-.3845h0l.2998-.1075v-6.8978h1.6557v4.7988h1.4574v1.9317l-1.4589-.0015v3.6831c-.0007.3368-.0467.6109-.1798.8309h0c-.1271.2172-.3706.3496-.6226.3496h0c-.0064,0-.0128,0-.0192-.0007h0ZM52.411,39.0065c.2039-.0071.3083-.0883.336-.6942h0v-4.168h1.4589v-.9598h-1.4589v-4.7995h-.6824v10.6213h.3464ZM44.943,36.8456h2.5998c.7444,0,1.4137-.0263,2.0046-.0783h0c.5863-.0513,1.016-.146,1.2749-.2655h0c.1142-.0527.1851-.1083.2307-.1695h0c.022-.0213.0669-.1523.0647-.3709h0v-.4877c-.4521.1452-.8728.245-1.2638.2983h0c-.4713.0662-.953.0983-1.4425.0975h-1.1762l-.001-3.3357h-.6615v3.3357h-1.6297v.9761h0ZM48.6838,34.2206l.0491-.1937c.141-.5631.2517-1.142.3329-1.7372h0c.0798-.5867.1196-1.1719.1214-1.7579h-3.8323v-.2442h.2428-.2428v.2442h-.2438v-1.9323h4.7479c.3182-.0085.6169.1609.7643.4428h0c.142.2549.2079.5532.2079.8807h0v.2229c0,.3154-.0171.6735-.0488,1.0751h0c-.0328.4044-.0815.8102-.1474,1.2182h0c-.0647.4094-.1431.8017-.2349,1.1791h0c-.0911.3816-.1969.7077-.3204.9797h0l-.1004.225-1.2954-.6023h0ZM49.7296,34.1714c.0709-.1915.1371-.4144.1979-.6672h0c.0887-.3638.1641-.744.2267-1.1413h0c.0637-.3965.1115-.7896.1435-1.1804h0c.0317-.3916.0477-.7383.0477-1.0367h0v-.2229c-.001-.2648-.0526-.4748-.1463-.645h0c-.0887-.1417-.1581-.1845-.3403-.1923h-4.2613v.9598h3.6931c.0936-.0036.2449.032.3247.173h0c.0545.1082.0545.188.0577.2919h0c0,.6151-.042,1.2303-.1257,1.8448h0c-.074.544-.1726,1.0751-.2958,1.5948h0l.4781.2214h0Z"/>
    </g>
    <g>
      <path class="st1" d="M56.2294,37.4544c0,.1061.0174.1802.0537.2221.0356.0427.1182.0641.2467.0641.7361,0,1.4962-.0399,2.2787-.1196.7832-.0797,1.5211-.1986,2.2146-.3574v.9057c0,.1801-.041.3175-.1228.4129-.0826.0954-.1698.1538-.2631.1751-.3005.0634-.6312.1218-.9918.1752-.3613.0526-.7369.0975-1.1263.1345-.3898.0378-.7886.0633-1.1958.079-.4076.0164-.8045.0242-1.1904.0242-.3791,0-.6507-.0868-.8152-.262-.1645-.1752-.2464-.5326-.2464-1.0723v-4.719h3.2602c.0857,0,.1449-.0263.1769-.0798.0321-.0526.0481-.1431.0481-.2698v-2.5105h-3.4852v-1.4304h4.6329v4.576c0,.3396-.0737.6145-.2197.8266-.1467.2122-.3667.3175-.66.3175h-2.5951v2.9078ZM61.8705,43.2378v-15.0941h1.1691v14.1243c0,.3503-.0467.5988-.1392.7476-.093.1481-.2325.2221-.4187.2221h-.6112Z"/>
      <path class="st1" d="M62.481,43.4806h-.6109v-.2428h.2428-.2428v.2428h-.2428v-15.5804h1.6546v14.3678c-.0017.3717-.0416.653-.1759.8758h0c-.125.2108-.3624.3368-.6052.3368h-.0199ZM62.481,42.9943c.1235-.0063.1552-.027.2132-.1082h0c.0506-.0741.1043-.2891.1022-.618h0v-13.8823h-.6835v14.6085h.3681ZM55.1404,39.0749c-.2439-.2741-.3065-.6757-.3122-1.2389h0v-4.9618h3.4788c.0036-.0257.0064-.062.0064-.1075h0v-2.2662h-3.4852v-1.918h5.1188v4.8194c0,.3731-.0815.702-.2628.9648h0c-.188.2805-.5101.4279-.8597.4222h0l-2.3527-.0007v2.6656c0,.0164.0004.0292.0014.0421h0c.0153.0007.0342.0014.0563.0007h0c.7272.0007,1.4795-.0392,2.2545-.1175h0c.7739-.0783,1.5023-.1958,2.1847-.3517h0l.2977-.0691v1.2111c0,.2135-.0488.4158-.1823.5724h0c-.1054.1211-.2357.2165-.397.2528h0c-.3061.0655-.6415.1246-1.0067.1773h0c-.3653.0541-.7455.0997-1.1385.1367h0c-.3948.0377-.7978.0647-1.2086.0804h0c-.4108.0157-.8109.0242-1.2001.0242h0c-.4126,0-.759-.0925-.9929-.3381h0ZM55.3134,37.836c-.005.5169.0965.8302.1812.9057h0c.0954.104.2923.1858.6387.1858h0c.382,0,.7765-.0078,1.1802-.0242h0c.403-.0157.7981-.042,1.1829-.0783h0c.3852-.0363.7561-.0819,1.1136-.1331h0c.356-.0527.6824-.1104.974-.1724h0c.0289-.0057.0716-.0271.1325-.0954h0c.0305-.0363.0634-.1097.0634-.2549h0v-.6037c-.6166.1296-1.2656.2278-1.9469.2976h0c-.79.0804-1.5582.1203-2.3033.1203h0c-.1524-.0078-.2898-.0028-.4322-.1495h0c-.0993-.1246-.1082-.2485-.111-.3802h0v-3.1498h2.8383c.2371-.0064.3546-.0698.46-.2129h0c.1114-.1609.1759-.3831.1759-.6892h0v-4.3324h-4.147v.9441h3.4863l-.0007,2.7532c-.0022.1488-.01.2684-.0826.3966h0c-.0847.1438-.2556.2014-.3852.1957h-3.0178v4.477h0Z"/>
    </g>
    <g>
      <path class="st1" d="M69.3566,34.5309v1.2076h4.2256v.6514c0,.5084-.1648.7625-.4937.7625h-9.1804v-1.414h4.2684v-1.2076h-1.8768c-.3147,0-.5668-.1352-.7561-.4058-.1894-.2698-.2841-.6593-.2841-1.167v-3.0509c0-.5297.1072-.9377.3218-1.2239.2143-.2855.4614-.4286.7398-.4286h5.8884v.6992c0,.2756-.0395.4607-.1182.5561-.0787.0954-.2036.1431-.3755.1431h-4.8796c-.2431,0-.3645.1908-.3645.5717v.5247h5.5873v.6672c0,.2648-.0427.4478-.1285.5482-.0858.1004-.2076.1509-.3645.1509h-5.0943v.5084c0,.1908.0227.3204.0698.3895.0459.069.1157.1032.2086.1032h5.5773v.7461c0,.2122-.0413.376-.1235.4927-.0822.1168-.2054.1751-.3699.1751h-2.4774ZM65.1954,40.7274c0-.5084.1054-.9455.3161-1.3115.2111-.3645.4845-.6614.8206-.8892s.7184-.3944,1.1477-.5005c.429-.1054.8615-.1588,1.2976-.1588.429,0,.8544.0534,1.2762.1588.4215.1061.7988.2755,1.1317.509.3322.2329.6024.5297.8096.8893.2072.3602.3111.7945.3111,1.3029,0,.4656-.0965.8715-.2897,1.2154-.193.3438-.4543.6329-.7832.8658-.329.2328-.7056.4051-1.1314.5162-.4254.1118-.8669.1673-1.3243.1673-.4361,0-.8686-.0478-1.2976-.1431-.4294-.0954-.8117-.252-1.1477-.4685-.336-.2178-.6094-.5034-.8206-.8586-.2108-.3546-.3161-.7861-.3161-1.2944ZM66.4179,40.7274c0,.2114.0641.3994.1929.5639.1289.1637.3001.3019.5148.4129.2146.1111.4646.1965.7508.2542.2858.0584.5863.0876.901.0876.3005,0,.5899-.0264.8686-.0798.2791-.0527.5233-.1346.7348-.2464.2108-.111.3806-.2485.5091-.4129.1288-.1637.1933-.3574.1933-.5795,0-.2329-.0645-.44-.1933-.6194-.1285-.1809-.2998-.3261-.5144-.4372-.2146-.111-.4596-.1965-.7348-.2549-.2752-.0577-.5596-.0868-.8529-.0868-.3147,0-.6145.0292-.9007.0868-.2859.0584-.5379.1438-.7561.2549-.2179.1111-.3912.2563-.5201.4372-.1288.1794-.1929.3866-.1929.6194Z"/>
      <path class="st1" d="M67.4268,43.586c-.4539-.1004-.8648-.2684-1.2268-.502h0c-.3674-.2371-.6686-.5525-.8978-.9384h0c-.2378-.3995-.3503-.8779-.3503-1.4183h0c0-.5426.1136-1.0253.3486-1.4333h0c.2278-.3944.5283-.7205.8953-.9683h0c.3613-.2449.7714-.4229,1.226-.5354h0c.4479-.111.8996-.1666,1.3553-.1666h0c.4496,0,.8946.0556,1.336.1666h0c.4471.1125.853.2948,1.2111.5454h0c.3613.252.6568.5782.8817.9669h0c.2318.4037.3432.8836.3422,1.4247h0c.001.4984-.1032.9483-.3204,1.3342h0c-.21.3753-.4977.6928-.8547.9441h0c-.3543.252-.7593.4357-1.21.5539h0c-.4457.1168-.9081.1745-1.3859.1745h0c-.4538,0-.9046-.0491-1.3502-.1481h0ZM65.4378,40.7274c.0011.4748.0986.8601.2823,1.1705h0c.1934.324.439.581.7434.7775h0c.3104.2008.6646.3467,1.0687.4358h0c.4119.0926.827.1382,1.2449.1382h0c.4379,0,.8576-.0534,1.2627-.1595h0c.4008-.1047.7491-.2649,1.0527-.4799h0c.3015-.2136.5354-.4735.7116-.786h0c.1702-.3033.2585-.6636.2585-1.0965h0c0-.4764-.0965-.8658-.2784-1.1819h0c-.1912-.3304-.435-.5988-.7383-.8124h0c-.3075-.2143-.6557-.3716-1.0509-.4713h0c-.404-.1004-.8088-.1509-1.2178-.1509h0c-.4158,0-.8287.0505-1.2388.1509h0c-.4051.1004-.7593.2563-1.0698.4657h0c-.3054.2079-.5521.4749-.7472.8096h0c-.1847.3232-.2823.7148-.2834,1.1904h0ZM67.8277,42.1962c-.3044-.0619-.576-.153-.8138-.2755h0c-.241-.1246-.4418-.2848-.5949-.4799h0c-.1602-.2036-.246-.4528-.2438-.7134h0c-.0011-.2777.0787-.5404.2377-.7612h0c.1531-.2143.3592-.3866.6077-.5126h0c.241-.1225.5137-.2136.8181-.2749h0c.3026-.0619.6187-.0932.9491-.0932h0c.3097,0,.6112.0314.9035.0932h0c.2927.062.5593.1531.7949.2756h0c.245.1267.449.299.6013.5119h0c.1584.22.2396.4834.2388.7612h0c.0007.2691-.0826.5233-.2449.7291h0c-.1524.1944-.351.3531-.5871.4777h0c-.2367.1253-.5044.2143-.8031.2706h0c-.2944.0563-.5988.0833-.9142.0833h0c-.3293,0-.6468-.0299-.9494-.0919h0ZM66.801,41.1417c.1054.1325.2477.2492.4357.3467h0c.1912.099.4197.1773.6885.2321h0c.2687.0548.5521.0826.8519.0826h0c.2866,0,.5604-.0249.8231-.0762h0c.2606-.0491.4813-.1239.6675-.2221h0c.1851-.0975.3254-.2136.4308-.3475h0c.0946-.1225.1402-.2549.1413-.43h0c-.0011-.188-.0488-.3389-.1473-.4785h0c-.1054-.1473-.2446-.2663-.429-.3624h0c-.1919-.1003-.4154-.178-.6725-.2328h0c-.2585-.0548-.5262-.0811-.8031-.0826h0c-.2994.0015-.5828.0278-.8526.0826h0c-.2677.0548-.4984.1331-.6945.2328h0c-.1869.0969-.3275.2157-.4329.3624h0c-.0982.1388-.146.2891-.147.4785h0c.001.1623.0445.2891.1403.4143h0ZM73.0882,37.3953h-9.4235v-1.9011l4.2687.0015v-.7227h-1.634c-.3859.0057-.7345-.1837-.9552-.5084h0c-.23-.3311-.3275-.7703-.3282-1.3072h0v-3.0494c.0007-.5618.1125-1.0245.371-1.3706h0c.2388-.3253.5661-.5283.9345-.5261h6.1313v.942c-.005.2983-.0288.5226-.1741.7112h0c-.1374.1673-.3513.2329-.5631.2307h-4.88c-.0666.0107-.0925-.0284-.121.3297h0v.2819h5.587v.9106c-.0032.2883-.0349.5191-.1862.7049h0c-.1331.1609-.3432.2393-.5489.2364h-4.8518v.2648c0,.0862.005.1538.0136.1979h0c.0071.0456.0131.0541.0149.0577h0l.0071-.005h5.8201v.9889c0,.2421-.0459.4571-.168.6323h0c-.1246.1851-.3496.2834-.5685.2777h-2.2345v.7212h4.2256v.8964c-.001.2777-.0409.512-.1619.7035h0c-.1168.1887-.3371.3012-.5575.3012h-.0171ZM64.1502,36.909l8.9379.0007c.1566-.0121.2211-.0363.2509-.519h0v-.4094h-4.226v-1.6938h2.7205c.1097-.0043.1314-.0228.1713-.0712h0c.042-.0591.0797-.1716.0797-.3532h0v-.5041h-5.3346c-.1498.0057-.325-.0719-.4097-.2086h0c-.0997-.1581-.1075-.3154-.1114-.5269h0v-.7504h5.3374c.1072-.0029.141-.0249.1787-.0655h0c.021-.0157.0741-.1509.0709-.3902h0v-.4257h-5.587v-.7668c.0011-.2157.0299-.4008.1285-.5604h0c.0972-.1623.2944-.262.4781-.2549h0l4.88.0007c.132-.0036.1681-.032.188-.0548h0c.0128-.0021.0677-.1481.0626-.4022h0v-.4557h-5.6446c-.1901.0021-.3563.0861-.5464.3311h0c-.1702.2271-.2734.5795-.2727,1.0793h0v3.0494c-.0007.4799.0919.8188.2399,1.0281h0c.1581.2157.3144.2976.5572.3019h2.1196v1.6938h-4.2687v.9277h0ZM69.3562,34.7731v-.2421.2421h0Z"/>
    </g>
    <g>
      <path class="st1" d="M73.5068,30.9241v-1.382h2.1772v-1.7323h.622c.2289,0,.3809.0819.4557.2464.0751.1645.1125.3574.1125.5803v.9057h2.1882v1.382h-5.5556ZM73.7859,33.9906c0-.4022.0659-.7675.1983-1.0965.1321-.3275.3129-.6087.5415-.8416.2289-.2335.4952-.4129.7988-.5404.304-.1275.6312-.1908.9815-.1908s.6792.0633.9868.1908c.3072.1274.5752.3069.8042.5404.2289.2329.4094.5141.5415.8416.1324.329.1983.6942.1983,1.0965,0,.3923-.0659.7498-.1983,1.0722-.1321.3233-.3126.6016-.5415.8345-.2289.2328-.4969.4129-.8042.5404-.3076.1267-.6366.1908-.9868.1908s-.6775-.0612-.9815-.183c-.3037-.1218-.57-.294-.7988-.5162-.2286-.2229-.4094-.4984-.5415-.8266-.1324-.3282-.1983-.6992-.1983-1.1121ZM74.9336,33.9906c0,.1909.0357.3632.1072.5162.0712.1538.1677.2891.2894.4051.1218.1168.2663.2072.4343.2698.1681.0641.3485.0954.5415.0954.1933,0,.3738-.0285.5418-.0869.1681-.0583.3147-.143.4393-.2542.1253-.1118.2256-.2464.3005-.4051.0751-.1594.1125-.3389.1125-.5404s-.0374-.3837-.1125-.5482c-.0748-.1637-.1752-.3019-.3005-.4129-.1246-.1111-.2713-.1958-.4393-.2542-.168-.0577-.3485-.0876-.5418-.0876-.3863,0-.7113.1168-.9758.3496-.2649.2329-.3966.5511-.3966.9533ZM76.4562,37.4701v1.5735h3.9362v-1.5735h1.1691v3.6703c0,.2961-.0342.5746-.1022.8344-.0679.2592-.1648.487-.2894.6828-.1253.1958-.2756.3496-.4507.4607-.1751.111-.3734.1673-.5952.1673h-3.7856c-.3432,0-.6059-.1403-.7882-.4208-.1823-.2812-.2734-.6814-.2734-1.2004v-4.1943h1.1794ZM79.8236,41.8872c.1648,0,.3005-.0584.4079-.1745.1072-.1167.1609-.2919.1609-.5247v-.7625h-3.9362v.9533c0,.339.089.5084.2681.5084h3.0993ZM80.36,36.6918v-8.5481h1.1581v3.7813h1.4372v1.4617h-1.4372v2.3674c0,.3076-.0406.5404-.1228.6992-.0825.1587-.2275.2385-.4347.2385h-.6005Z"/>
      <path class="st1" d="M75.3459,42.9972c-.2193-.3403-.3119-.786-.3126-1.3328h0v-4.4371h1.4229v.2428-.2428h.2428v1.572h3.4503v-1.572h1.6546v3.9131c0,.3147-.0356.6137-.1097.8957h0c-.0733.2805-.1798.5326-.3201.7518h0c-.1413.2221-.3165.4044-.5254.5354h0c-.2139.1367-.4627.2058-.7244.2051h-3.8042c-.4023,0-.7618-.193-.9743-.5312h0ZM75.5196,41.6643c-.0007.492.0889.8459.2342,1.068h0c.1492.2164.3072.3033.5849.3104h3.7856c.1801-.0007.3286-.0434.4646-.1296h0c.1424-.0904.267-.2157.3752-.3866h0c.1104-.1723.1972-.3752.2599-.613h0c.0626-.2392.0947-.4956.0947-.7732h0v-3.4275h-.6839v1.5728h-4.4215v-1.5728h-.6938v3.9515h0ZM76.3077,41.8737c-.0747-.1452-.0936-.3047-.0943-.4948h0v-1.1968h4.4215v1.006c0,.2677-.0609.5098-.2246.6885h0c-.1474.1637-.3653.2571-.5863.2542h0v-.487c.1075-.0028.1613-.0278.2278-.0954h0c.0516-.0548.0976-.1616.0976-.3602h0v-.5205h-3.4503v.7113c-.0021.1431.0225.235.0363.2649h3.0887v.487h-3.1157c-.1651,0-.3349-.1161-.4005-.2571h0ZM80.9603,36.9346h-.5999v-.2428h.2428-.2428v.2428h-.2439v-9.0344h1.6447v3.7821h1.4368v1.9473h-1.4368v2.1246c-.0011.329-.0399.5938-.1503.8102h0c-.1135.2343-.3688.371-.6262.371h0c-.0082,0-.0163-.0007-.0245-.0007h0ZM80.9603,36.4491c.1484-.0093.1712-.032.2189-.1075h0c.0537-.101.0965-.3011.0954-.5873h0v-2.6102h1.4379v-.9762h-1.4379v-3.7821h-.6714v8.0633h.3571ZM75.2341,36.6712c-.3322-.1338-.6266-.3233-.8786-.5682h0c-.2545-.2477-.4547-.5539-.5967-.91h0c-.1467-.361-.2161-.7639-.2161-1.2025h0c0-.4293.0709-.8266.2161-1.1869h0c.142-.3553.3411-.665.5927-.9213h0c.2517-.257.5464-.4557.8786-.5945h0c.1175-.0484.2381-.089.3613-.121h-2.0847v-.2428h.2428-.2428v.2428h-.2435v-1.8682h2.178v-1.7315h.8648c.2805-.01.565.126.6764.388h0c.0926.2022.1342.4322.1342.6814h0v.6621h2.188v1.8682h-2.2812c.1235.0314.2442.0719.362.1203h0c.3365.1395.6337.3382.8847.5952h0c.2524.2563.4514.566.5938.9213h0c.1452.3602.2157.7576.2157,1.1869h0c0,.4187-.0705.8096-.2157,1.1641h0c-.1431.3503-.3425.6565-.5938.9121h0c-.2509.257-.5482.4557-.8847.5952h0c-.3375.1395-.6995.2086-1.0793.2086h0c-.3785,0-.7383-.0655-1.0719-.1993h0ZM74.0283,33.9906c0,.3866.0616.7262.1813,1.0217h0c.121.3005.2827.5453.4856.7419h0c.2057.2008.4436.3545.7202.4657h0c.2738.1096.5682.1651.8907.1659h0c.3211-.0007.6166-.0591.8932-.1737h0c.2787-.1146.5176-.2755.7244-.4848h0c.2057-.2101.3681-.46.4895-.7569h0c.1193-.2905.1802-.6145.1809-.9797h0c-.0007-.3759-.0616-.7091-.1809-1.006h0c-.1214-.3012-.2844-.5532-.4895-.7625h0c-.2068-.2094-.4457-.371-.7244-.4849h0c-.2766-.1161-.5721-.173-.8932-.173h0c-.3204,0-.6148.0569-.8875.1723h0c-.2759.1147-.5126.2749-.7195.4856h0c-.2051.2093-.3685.4614-.4895.7625h0c-.1196.2969-.1813.6301-.1813,1.006h0ZM78.8189,30.6806v-.8957h-2.1879v-1.1484c0-.1965-.0328-.3532-.0905-.4791h0c-.0388-.0669-.0577-.0947-.2345-.1047h-.3795v1.7323h-2.1769v.8957h5.0693ZM76.306,35.5199c-.22.0007-.4311-.0363-.6269-.1104h0c-.1961-.074-.3713-.1823-.5165-.3218h0c-.1441-.1374-.2588-.2983-.3421-.4784h0c-.0887-.188-.1303-.398-.1303-.6188h0c-.0032-.4535.1581-.8579.4795-1.1363h0c.3083-.2719.7013-.4115,1.1363-.4101h0c.2178,0,.4258.0342.6215.1011h0c.1951.0669.3713.1688.5205.3019h0c.1524.1345.2738.3026.3602.4934h0c.0915.1994.1353.4187.1342.65h0c.0011.2307-.0427.4486-.1352.6436h0c-.0876.1873-.209.3496-.3592.4835h0c-.1492.1339-.3254.235-.5205.3019h0c-.1929.0662-.3987.1004-.6123.1004h-.0093ZM75.2612,34.4042c.0587.1274.1363.2357.2378.3325h0c.0965.0925.2108.1651.3511.2178h0c.1392.0527.2894.079.456.079h0c.1687,0,.3211-.0242.4624-.0741h0c.1403-.0477.2567-.1167.3571-.205h0c.1008-.0898.1802-.1965.2421-.3275h0c.0577-.1232.0894-.2656.0894-.4365h0c0-.1716-.0317-.3175-.0904-.4478h0c-.0627-.1367-.1425-.2435-.2418-.3325h0c-.0997-.0883-.2161-.1566-.3564-.2057h0c-.1413-.0484-.2937-.0733-.4624-.0733h0c-.3386.0015-.5942.0961-.8149.2883h0c-.2093.1866-.3115.4201-.3147.7711h0c0,.1602.0292.2955.0847.4137h0Z"/>
    </g>
    <g>
      <path class="st1" d="M83.3632,32.5289c0-.6358.0712-1.1969.2139-1.6839.1435-.487.3379-.8985.5849-1.2318.2466-.3332.5375-.5881.8739-.7625.3357-.1751.7006-.2627,1.0936-.2627.3866,0,.7458.0876,1.0779.2627.3328.1745.6205.4294.8633.7625.2431.3333.4343.7447.5739,1.2318.1395.4869.2129,1.048.22,1.6839,0,.6037-.068,1.1519-.2036,1.6446-.136.4927-.3272.9106-.5739,1.2545-.247.3446-.5382.6095-.8739.7946-.3364.1858-.697.2784-1.0836.2784-.3788,0-.7362-.0876-1.0723-.262-.3364-.1751-.6294-.4293-.8793-.7625-.2506-.3339-.4489-.7476-.5952-1.2396-.1466-.4927-.2196-1.0615-.2196-1.708ZM84.5319,32.5132c0,.4236.0463.7917.1392,1.1035.0929.3133.2146.5725.3649.7789.1502.2065.3214.3631.5147.4685.193.1061.3863.1594.5789.1594.236,0,.4507-.0612.6436-.183.1933-.1217.3574-.294.4934-.5162.1356-.2228.2413-.4869.3164-.7945.0748-.3069.1125-.6457.1125-1.0167s-.0413-.7071-.1235-1.0089c-.0819-.3019-.1926-.5618-.3322-.7789-.1395-.2165-.3037-.3837-.493-.5005-.1901-.1161-.3955-.1745-.6173-.1745-.2286,0-.4393.0634-.6326.1909-.1933.1267-.3613.3018-.5041.524s-.256.4842-.3379.786c-.0822.3019-.1231.623-.1231.9619ZM86.1193,43.2378c-.2719,0-.4867-.1167-.6436-.3496-.1577-.2328-.236-.5347-.236-.9057v-3.5749h1.1691v3.0822c0,.2014.0427.3018.1289.3018h5.3836v.7946c0,.2114-.0356.3731-.1071.4848-.072.1111-.1894.1666-.3543.1666h-5.3406ZM90.5055,39.0435v-10.8998h1.1584v9.8347c0,.3389-.0431.6016-.1285.7868-.0857.1858-.236.2784-.4503.2784h-.5796Z"/>
      <path class="st1" d="M91.4595,43.4806h-5.3399v-.4869h5.3399c.1147-.005.1246-.0221.1503-.0542h0c.0338-.0513.0687-.1672.0687-.3531h0l-.001-.5518h-5.1398c-.1495.0079-.2887-.1224-.3204-.2235h0c-.0427-.104-.0509-.2036-.052-.3218h0v-2.8394h-.6824v3.3321c0,.3389.0709.5881.194.7703h0c.1253.1751.2421.2364.4428.2414h0v.4869c-.3432.005-.6568-.1673-.8458-.4563h0c-.1919-.2841-.2777-.6379-.2777-1.0424h0v-3.817h1.6557v3.3243c-.0004.0227.0004.042.0017.0591h5.5104v1.0381c-.001.2371-.0366.4436-.1463.6166h0c-.1147.1844-.3318.2776-.5418.2776h-.0164ZM91.0843,39.2856h-.5789v-.2428h.2429-.2429v.2428h-.2438v-11.3853h1.6457l-.0011,10.0782c0,.3588-.0427.6514-.1502.8885h0c-.1072.2549-.3702.4194-.6454.4194h0c-.0085,0-.0174,0-.0263-.0007h0ZM91.0843,38.8c.1452-.0106.1681-.0284.23-.1367h0c.0627-.1339.1075-.3667.1064-.6849h0v-9.5926h-.6724v10.4142h.336ZM86.1296,36.7438c-.4158.0007-.816-.0983-1.184-.2898h0c-.371-.1929-.6935-.4735-.9623-.8316h0c-.2712-.3624-.4813-.8024-.6336-1.3164h0c-.1552-.5205-.23-1.1121-.23-1.7771h0c0-.653.0726-1.2375.2239-1.7529h0c.1503-.5084.3553-.9463.623-1.308h0c.2656-.3588.586-.6408.9569-.833h0c.3702-.1936.7771-.2905,1.2061-.2897h0c.4229-.0007.8248.0961,1.1912.2905h0c.3677.193.6842.4749.9458.8338h0c.2639.3623.4657.8002.612,1.3086h0c.1463.5133.2211,1.095.2289,1.7508h0c0,.6215-.0698,1.1911-.2122,1.7087h0c-.142.5155-.3438.9605-.6108,1.3314h0c-.2645.3702-.5838.6629-.9537.8658h0c-.3696.2043-.7725.309-1.1951.309h-.0061ZM83.6053,32.5289c0,.628.0719,1.174.21,1.639h0c.1403.4699.3275.8565.5571,1.1619h0c.2307.309.4945.5369.7971.6935h0c.3033.1573.6187.2335.9601.235h0c.3475-.0015.6635-.0826.9662-.2478h0c.3015-.1673.565-.4051.7939-.7233h0c.2267-.3176.4069-.7084.5365-1.1791h0c.1292-.4678.1958-.9939.1958-1.5771h0c-.0071-.6188-.0787-1.1584-.2107-1.6198h0c-.1335-.4657-.3147-.8494-.5365-1.1556h0c-.2249-.3075-.4824-.534-.781-.6898h0c-.2976-.1574-.6148-.2343-.9641-.235h0c-.3574.0007-.6807.0783-.9822.2356h0c-.3015.1559-.5631.3838-.79.6907h0c-.2267.3061-.4108.6907-.5472,1.1562h0c-.1352.4592-.205.9975-.205,1.6156h0ZM86.1296,35.2664c-.2378,0-.4735-.0669-.6963-.1893h0c-.2278-.1253-.4272-.3083-.5941-.5383h0c-.1702-.235-.3026-.5198-.4012-.8529h0c-.1011-.3411-.1492-.7319-.1492-1.1726h0c0-.3596.0431-.7013.1314-1.026h0c.0876-.3218.21-.6066.368-.8537h0c.1584-.2463.3503-.4478.5753-.5959h0c.2286-.1524.4923-.2321.7661-.2307h0c.2649,0,.5183.0712.744.2107h0c.225.1382.4151.3346.5703.5767h0c.1563.2407.2745.5248.3621.8459h0c.0887.3254.1324.6842.1324,1.073h0c0,.3866-.0388.7454-.1196,1.0736h0c-.0794.3275-.1936.6152-.345.8629h0c-.1523.2492-.3424.4521-.571.5967h0c-.2292.1452-.492.22-.7679.22h-.0053ZM84.9035,33.5477c.0876.2926.1983.5262.3297.7056h0c.1324.1823.2763.3118.4336.398h0c.1645.089.3154.1282.4628.1288h0c.194-.0007.3581-.047.5133-.1452h0c.1581-.1004.2965-.2421.4158-.4371h0c.1203-.1972.2178-.4379.2876-.7255h0c.0698-.2855.1064-.6052.1064-.959h0c0-.3532-.0395-.6678-.1153-.9448h0c-.0766-.2834-.1791-.5197-.3022-.712h0c-.1236-.1908-.262-.329-.4151-.4243h0c-.1551-.094-.3115-.1389-.4905-.1389h0c-.1841,0-.3424.0478-.4995.1503h0c-.1613.1068-.3054.2549-.4329.4528h0c-.1274.1979-.231.4372-.3072.7184h0c-.0769.2798-.1146.5789-.1157.8986h0c0,.4058.0448.7511.1292,1.0345h0Z"/>
    </g>
    <g>
      <path class="st1" d="M102.217,35.0237v.6672c0,.5083-.1645.7625-.4934.7625h-9.1804v-1.4297h9.6737ZM98.1202,29.6688c.1858.6145.5685,1.2232,1.1477,1.827.5788.6037,1.3332,1.0865,2.263,1.446l-.6436,1.1918c-.3005-.1167-.6152-.2805-.9441-.4927-.329-.2122-.649-.4549-.9597-.7305-.3108-.2755-.6024-.5725-.874-.89-.2719-.3182-.5041-.6408-.697-.969-.1862.3489-.4169.6856-.692,1.0089-.2756.3232-.5682.6173-.879.8814-.3115.2655-.6315.5005-.9605.707-.329.2065-.6365.3681-.922.4848l-.654-1.1918c.9363-.3703,1.6853-.8423,2.2463-1.414.5615-.5717.9563-1.1912,1.1851-1.859h-2.8099v-1.3827h6.9714v.6202c0,.5084-.1644.7625-.4934.7625h-2.2844ZM93.8408,40.6633c0-.5184.1039-.9662.3111-1.3421.2072-.376.481-.6857.8202-.9299.34-.2435.7227-.4258,1.1477-.5483.4254-.121.8562-.1823,1.2926-.1823.429,0,.8522.0612,1.2706.1823.4186.1225.7942.3048,1.1263.5483.3325.2442.6002.5567.8045.9377.2036.3816.3054.8259.3054,1.3343,0,.477-.0968.8957-.2894,1.2559-.1934.3596-.4525.6593-.7778.8971-.325.2386-.6988.4186-1.1207.5404-.4219.1218-.8615.183-1.319.183-.4365,0-.8672-.0505-1.2926-.1509-.4251-.1011-.8077-.2677-1.1477-.5006-.3392-.2328-.613-.5297-.8202-.89-.2072-.3602-.3111-.8053-.3111-1.3349ZM95.0419,40.6633c0,.2435.0648.4557.1933.6358.1285.1802.3019.3282.5201.445.2179.1168.47.2065.7561.2706.2859.0633.5863.0947.9011.0947.3005,0,.5899-.0292.8686-.0876.2791-.0584.5254-.1481.7397-.2699.2147-.1218.3866-.2727.5152-.4528.1285-.1801.1929-.3922.1929-.6358,0-.2535-.0644-.4785-.1929-.675-.1285-.1958-.2987-.3574-.5095-.4842-.2111-.1274-.456-.225-.7348-.294-.2791-.069-.5685-.1032-.869-.1032-.3214,0-.6255.0342-.9113.1032-.2862.069-.5382.1666-.7561.294-.2182.1268-.3916.2883-.5201.4842-.1285.1965-.1933.4215-.1933.675Z"/>
      <path class="st1" d="M96.064,43.6252c-.4518-.1068-.864-.287-1.2289-.5369h0c-.3691-.252-.6696-.5781-.8939-.969h0c-.2335-.4051-.3438-.8949-.3438-1.456h0c0-.5511.111-1.0416.341-1.4589h0c.224-.4065.5233-.7461.8918-1.0103h0c.3642-.2613.7728-.4557,1.2228-.5846h0c.4468-.1282.9003-.1923,1.3592-.1923h0c.4517,0,.8985.0648,1.3381.1923h0c.4439.1296.847.3247,1.2022.5867h0c.3631.2649.6557.6073.8757,1.0174h0c.2246.4222.3343.9092.3343,1.4496h0c0,.5098-.1046.9704-.3186,1.3706h0c-.209.3901-.4945.7198-.8486.9775h0c-.3492.257-.7501.4493-1.1972.5781h0c-.4436.1289-.9071.1923-1.3859.1923h0c-.4546,0-.9057-.0526-1.3481-.1566h0ZM94.0836,40.6633c0,.4984.0975.8985.2787,1.2132h0c.1901.3304.4368.5981.7472.8109h0c.3147.2151.6678.3703,1.0655.4649h0c.408.0969.8191.1438,1.2371.1438h0c.4357,0,.8519-.0577,1.2517-.173h0c.3969-.1153.7433-.2827,1.0448-.5034h0c.2965-.2165.5294-.487.7066-.816h0c.172-.3203.2606-.6956.2613-1.1406h0c-.0007-.477-.0954-.8786-.2773-1.2204h0c-.1883-.3517-.4312-.6329-.7334-.8558h0c-.3094-.2256-.6578-.3958-1.0509-.5105h0c-.3969-.1153-.7967-.1723-1.2029-.173h0c-.414.0007-.822.0577-1.225.173h0c-.4008.1153-.7572.2855-1.0733.5127h0c-.3097.2228-.5585.5026-.7497.8494h0c-.1837.3339-.2805.7383-.2805,1.2246h0ZM96.4588,42.251c-.3044-.0669-.5771-.1637-.8177-.2933h0c-.2467-.131-.4517-.3055-.6041-.5169h0c-.1592-.2236-.2389-.492-.2378-.7775h0c-.0011-.2955.0766-.5717.2328-.8081h0c.1495-.2286.3532-.418.601-.5611h0c.241-.1409.5155-.2463.822-.3211h0c.3054-.0733.6287-.1097.9683-.1097h0c.3182,0,.628.037.9274.1104h0c.2987.0741.5661.1802.801.3211h0c.2396.1446.4386.3325.5871.5604h0c.1563.2364.2339.5126.2328.8081h0c.0011.2855-.0787.5539-.2378.7775h0c-.1513.2107-.3524.3852-.5931.5219h0c-.2388.1367-.5105.2343-.8099.2969h0c-.2955.062-.602.0926-.9185.0926h0c-.3303,0-.6489-.0327-.9533-.1011h0ZM95.4328,41.1581c.1058.146.2471.2698.4372.371h0c.195.1046.4257.188.6945.2477h0c.2663.0598.5489.089.8476.0897h0c.2844-.0007.5571-.0285.8191-.0826h0c.2585-.0541.4791-.1353.6693-.2435h0c.1883-.1068.3318-.2343.4379-.3823h0c.0968-.1382.1463-.294.1473-.4948h0c-.001-.2129-.0516-.3859-.153-.5426h0c-.1086-.1637-.2499-.299-.4322-.4086h0c-.1869-.1125-.4087-.2022-.6675-.2663h0c-.2588-.0641-.5283-.0954-.8099-.0969h0c-.3047.0015-.5902.0328-.8551.0969h0c-.2663.064-.4963.1538-.6914.2684h0c-.188.1097-.3314.2435-.4389.4065h0c-.1011.1567-.152.3297-.1531.5426h0c.0011.2008.0509.3567.1481.4948h0ZM101.7236,36.6961h-9.4239v-1.916h9.9172v.2435-.2435h.2428v.91c-.0007.2798-.0405.5141-.1623.7049h0c-.1161.1894-.3375.3018-.5568.3018h0c-.0057,0-.0114,0-.0171-.0007h0ZM92.7853,36.2099h8.9383c.1562-.0121.2207-.0356.2506-.5198h0v-.4237h-9.1889v.9434h0ZM92.9594,32.8165l.2559-.1011c.9121-.3602,1.6309-.8159,2.162-1.3578h0c.4471-.4557.7792-.9363,1.0031-1.4453h-2.697v-1.869h7.457v.8629c-.0011.2798-.041.5126-.162.7034h0c-.1196.1951-.3485.3083-.5742.3026h-1.938c.1965.4663.5194.9391.9768,1.4147h0c.55.5746,1.2717,1.0381,2.1751,1.387h0l.2567.0997-.8758,1.624-.2001-.0776c-.3182-.1239-.6476-.2955-.9879-.5155h0c-.3392-.2178-.6696-.4699-.9889-.7518h0c-.3197-.2841-.6191-.5888-.8979-.9149h0c-.1851-.2165-.3532-.4358-.5034-.6586h0c-.1513.2399-.3236.4727-.5162.6985h0c-.2827.3325-.5852.6358-.9057.9085h0c-.3204.2727-.6497.5147-.9893.7283h0c-.3382.2122-.6576.3809-.9601.5034h0l-.1998.0819-.8906-1.6233h0ZM97.6222,30.9283c.1847.314.4079.6258.6718.9342h0c.2645.3083.5482.5981.8508.8658h0c.3022.2677.6116.5034.9302.7077h0c.2442.1588.4789.2876.7028.388h0l.4101-.7597c-.8419-.3581-1.5432-.8238-2.0961-1.4005h0c-.5981-.6236-1.0039-1.2644-1.205-1.9252h0l-.0943-.3133h2.6119c.1562-.0106.2207-.0356.2506-.519h0v-.3766h-6.4855v.8957h2.9074l-.1103.3233c-.2418.7041-.6589,1.3556-1.2418,1.9487h0c-.5372.5475-1.2317,1.0017-2.0765,1.3663h0l.4162.7583c.2146-.0997.4439-.2264.6871-.3788h0c.3182-.2001.6287-.428.9323-.6871h0c.3005-.2556.5838-.5397.8516-.8537h0c.2648-.3104.4848-.633.6628-.9654h0l.203-.3824.2211.3738h0ZM98.1195,29.9123v-.2428.2428h0Z"/>
    </g>
  </g>
  <g>
    <path class="st1" d="M29.5822,48.8518v7.5051h7.273v-7.5051h4.404v19.5297h-4.404v-8.1707h-7.273v8.1707h-4.4331v-19.5297h4.4331Z"/>
    <path class="st1" d="M48.5015,63.3692l-1.3909,5.0124h-4.5777l5.9686-19.5297h5.7952l6.0558,19.5297h-4.7521l-1.5069-5.0124h-5.5919ZM53.4561,60.0656l-1.2164-4.143c-.3481-1.1592-.696-2.608-.9854-3.7671h-.058c-.2901,1.1591-.5795,2.6365-.8985,3.7671l-1.1591,4.143h4.3174Z"/>
    <path class="st1" d="M75.4181,67.8312c-.8113.4059-2.6368.8402-5.0128.8402-6.7511,0-10.228-4.2014-10.228-9.7642,0-6.6649,4.7518-10.3736,10.6627-10.3736,2.2894,0,4.0273.4635,4.8102.8693l-.8986,3.5058c-.8981-.3766-2.1441-.7241-3.7087-.7241-3.5058,0-6.2299,2.1146-6.2299,6.4613,0,3.9117,2.3182,6.3752,6.2587,6.3752,1.3328,0,2.8109-.2905,3.6799-.6379l.6664,3.4481Z"/>
    <path class="st1" d="M90.6283,67.8312c-.811.4059-2.6365.8402-5.0128.8402-6.7511,0-10.2277-4.2014-10.2277-9.7642,0-6.6649,4.7515-10.3736,10.6627-10.3736,2.289,0,4.0273.4635,4.8099.8693l-.8986,3.5058c-.8978-.3766-2.1438-.7241-3.7087-.7241-3.5058,0-6.2295,2.1146-6.2295,6.4613,0,3.9117,2.3179,6.3752,6.2584,6.3752,1.3328,0,2.8109-.2905,3.6799-.6379l.6665,3.4481Z"/>
    <path class="st1" d="M92.3655,49.1131c1.3617-.2321,3.2741-.4058,5.9689-.4058,2.7238,0,4.665.5219,5.9686,1.565,1.246.9847,2.0865,2.6072,2.0865,4.5197s-.6373,3.5357-1.7964,4.6365c-1.5069,1.4197-3.738,2.0569-6.3456,2.0569-.5795,0-1.1011-.0284-1.5069-.0868v6.9831h-4.3752v-19.2684ZM96.7407,57.9795c.377.0868.8405.116,1.4781.116,2.3467,0,3.7956-1.1882,3.7956-3.1875,0-1.7964-1.246-2.8679-3.4482-2.8679-.8981,0-1.5066.0868-1.8255.1737v5.7657Z"/>
  </g>
  <path class="st1" d="M106.9381,64.5682c.1036.4315.1691.8607.1691,1.3015,0,8.3259-19.3084,15.0756-43.124,15.0756s-43.1236-6.7497-43.1236-15.0756c0-.4407.0666-.87.1677-1.2986-3.048,2.2449-4.7614,4.7674-4.7614,7.4331,0,9.4188,21.3625,17.0527,47.7166,17.0527s47.7181-7.6339,47.7181-17.0527c0-2.6657-1.7116-5.1882-4.7625-7.436Z"/>
  <path class="st1" d="M63.9833,1.7227C29.742,1.7227,1.9835,29.4823,1.9835,63.7252s27.7586,61.9975,61.9998,61.9975,62.0002-27.7574,62.0002-61.9975S98.2256,1.7227,63.9833,1.7227ZM63.9833,6.0203c31.8692,0,57.7037,25.8358,57.7037,57.7049,0,11.3505-3.2787,21.9341-8.9383,30.8581H15.22c-5.66-8.924-8.9401-19.5076-8.9401-30.8581C6.2799,31.8561,32.1151,6.0203,63.9833,6.0203Z"/>
  <g>
    <path class="st0" d="M32.0435,103.1443c-.3481.6351-1.6137,1.7208-2.6155,2.0078l-.4852-.922c1.2022-.5938,2.5098-1.5564,2.5098-2.9904v-.9832h1.2972v.9732c0,1.382,1.1918,2.4065,2.4994,3.021l-.4746.9014c-1.0335-.3588-2.0562-1.1783-2.7312-2.0078ZM35.6501,106.6365h-5.7055v-.8807h7.0028v3.2367h-1.2972v-2.356ZM35.6501,100.0621h1.2972v5.2024h-1.2972v-5.2024Z"/>
    <path class="st0" d="M42.6109,105.8683h2.8579v3.1342h-7.0024v-3.1342h2.8579v-.7269h-3.2797v-.8808h7.8461v.8808h-3.2797v.7269ZM38.4664,102.7142h.9704v-1.5771h-.9704v-.8807h7.0024v.8807h-.9808v1.5771h.9808v.8807h-7.0024v-.8807ZM39.7636,106.7497v1.3727h4.4079v-1.3727h-4.4079ZM40.7337,101.1372v1.5771h2.4677v-1.5771h-2.4677Z"/>
    <path class="st0" d="M53.4106,107.8042c-.6856.2969-1.2128.3076-1.9511.3076h-4.6083v-.8708h4.9458c.5799,0,1.0124-.0918,1.561-.2763.0526-.0512.0526-6.9026.0526-6.9026h1.2866v8.9304h-1.2866v-1.1883ZM49.5929,100.1333c3.4802,0,3.5222,6.002,0,6.002-3.5119,0-3.4695-6.002,0-6.002ZM49.5929,105.2645c1.7611,0,1.7611-4.2299,0-4.2299-1.7507,0-1.7507,4.2299,0,4.2299Z"/>
    <path class="st0" d="M58.0616,100.1539c3.5542,0,3.5436,4.9156,0,4.9156-3.5115,0-3.5749-4.9156,0-4.9156ZM61.932,106.5447h-5.7052v-.8708h6.9918v3.3186h-1.2866v-2.4478ZM58.0616,104.0969c1.7612,0,1.7508-2.9697,0-2.9697-1.7927,0-1.8348,2.9697,0,2.9697ZM63.2186,105.162h-1.2866v-5.0999h1.2866v1.085h1.0231v.9726h-1.0231v.8914h1.0231v.9732h-1.0231v1.1777Z"/>
    <path class="st0" d="M69.1883,105.8683h2.8583v3.1342h-7.0028v-3.1342h2.8579v-.7269h-3.2797v-.8808h7.8461v.8808h-3.2797v.7269ZM65.0438,102.7142h.9705v-1.5771h-.9705v-.8807h7.0028v.8807h-.9811v1.5771h.9811v.8807h-7.0028v-.8807ZM66.341,106.7497v1.3727h4.4083v-1.3727h-4.4083ZM67.3111,101.1372v1.5771h2.4677v-1.5771h-2.4677Z"/>
    <path class="st0" d="M75.8749,100.1539c3.4378,0,3.4275,5.305.0103,5.305-3.4485,0-3.3958-5.305-.0103-5.305ZM74.2714,106.1659h1.287v1.9459h5.4841v.8807h-6.7711v-2.8266ZM75.8852,104.4856c1.7298,0,1.6874-3.3584-.0103-3.3584s-1.6981,3.3584.0103,3.3584ZM80.9371,106.5347h-1.2869v-6.4726h1.2869v2.2527h1.0228v.9832h-1.0228v3.2367Z"/>
    <path class="st0" d="M85.24,103.575c-.4428.5525-1.7081,1.6383-2.6678,1.9352l-.4852-.922c1.2022-.6444,2.5098-1.5052,2.5098-3.001v-.45h-2.0142v-.8807h5.2726v.8807h-1.9612v.44c0,1.3827,1.2972,2.4585,2.4888,3.0209l-.4638.9021c-.9915-.3381-2.0989-1.1477-2.6788-1.9252ZM83.3101,106.0527h1.1812v2.059h5.7055v.8807h-6.8867v-2.9398ZM88.7942,103.0011h-1.287v-.8814h1.287v-2.0576h1.2865v6.38h-1.2865v-3.441Z"/>
    <path class="st0" d="M93.9939,106.104c-.4428.7889-1.5717,1.7108-2.3941,2.0897l-.5062-.8807c1.4763-.9733,2.257-1.9558,2.257-3.7586v-2.0284h-1.7191v-.8801h1.7191v-.7889h1.2862v.7889h1.7298v.8801h-1.7298v2.0384c0,1.6589.8018,2.8985,2.2571,3.7486l-.5059.8807c-.9174-.3995-1.8244-1.2902-2.3941-2.0897ZM97.5477,103.8819h-1.5083v-.8807h1.5083v-2.9498h1.2866v8.9411h-1.2866v-5.1107Z"/>
  </g>
</svg>