<?xml version="1.0" encoding="UTF-8"?>
<svg id="Layer_1" xmlns="http://www.w3.org/2000/svg" version="1.1" viewBox="0 0 128 128">
  <!-- Generator: Adobe Illustrator 29.0.0, SVG Export Plug-In . SVG Version: 2.1.0 Build 186)  -->
  <defs>
    <style>
      .st0 {
        fill: #231916;
      }

      .st1 {
        fill: #734094;
      }
    </style>
  </defs>
  <g>
    <g>
      <path class="st1" d="M101.9781,87.229l8.3646-14.4929c1.3369-2.3135.5451-5.2692-1.7665-6.6029-2.3093-1.3327-5.2666-.5441-6.5981,1.7663l-5.5849,9.6647h-57.1001l20.259,17.5453c2.0194,1.7475,5.0713,1.5248,6.8197-.4931.7908-.9116,1.1751-2.0364,1.1751-3.1622,0-1.3515-.5575-2.6984-1.6676-3.654,0,0-.5796-.5051-.6585-.5714h36.7572Z"/>
      <path class="st1" d="M56.7259,18.4157l-25.3302,8.7805c-2.5162.8717-3.8541,3.6253-2.9761,6.1472.3948,1.1416,1.1783,2.0374,2.1487,2.5972,1.1699.6794,2.6212.8601,4.0022.3854,0,0,.7235-.251.8212-.2856l-18.3844,31.8276,8.3741,14.5003c1.3327,2.3099,4.2898,3.1037,6.6004,1.7717,2.3145-1.3411,3.1054-4.289,1.7747-6.602l-5.5828-9.67s28.5522-49.4521,28.5522-49.4522Z"/>
      <path class="st1" d="M76.2256,3.9617h-16.7429c-2.6728,0-4.8308,2.1627-4.8308,4.8281,0,2.6712,2.1581,4.8367,4.8308,4.8367h11.1623l28.5532,49.448,5.0587-26.3147c.5041-2.6233-1.2098-5.1558-3.8341-5.662-1.1836-.2269-2.3534,0-3.3238.5575-1.1763.6822-2.0584,1.8436-2.3356,3.2782,0,0-.1407.7551-.1618.8559,0,0-18.376-31.8277-18.376-31.8277Z"/>
    </g>
    <g>
      <rect class="st0" x="53.775" y="44.0773" width="2.5982" height="22.7448"/>
      <path class="st0" d="M48.9883,44.4301v4.7873h-3.1317v-4.7873h-2.5982v12.242c0,1.2003.3613,1.9918,1.8042,1.9918h6.5216v-14.2336h-2.596ZM45.8566,56.7404v-5.6011h3.1317v5.6011h-3.1317Z"/>
      <path class="st0" d="M60.8154,64.833c0,1.1971.359,1.989,1.8,1.989h9.0461v-1.9219h-8.2522v-2.4485h8.2522v-6.1514h-10.8461v1.9235h8.2481v2.3083h-8.2481s0,4.3009,0,4.3009Z"/>
      <path class="st0" d="M75.3203,53.0752c0,1.1972.3634,1.989,1.8042,1.989h9.5818v-1.9197h-8.7899v-2.4506h8.5211v-6.3687h-11.1172v1.9196h8.519v2.5294h-8.519v4.3009h0Z"/>
      <polygon class="st0" points="88.3006 57.0701 73.5897 57.0701 73.5897 58.9924 76.8809 58.9924 76.8809 66.8221 79.4748 66.8221 79.4748 58.9924 82.4174 58.9924 82.4174 66.8221 85.0135 66.8221 85.0135 58.9924 88.3006 58.9924 88.3006 57.0701"/>
      <path class="st0" d="M69.0635,44.0773v7.5146c-.4506.2268-1.2424.4789-2.2475.4789h-5.2718v-7.8842h-2.596v7.8159c0,1.1998.3613,1.9918,1.8021,1.9918h5.6447c1.1163,0,1.9533-.3371,2.6686-.7299v1.4544h2.5982v-10.6414h-2.5982Z"/>
    </g>
  </g>
  <g>
    <path class="st0" d="M39.8846,113.1028c0,6.9129-4.1907,10.8588-9.8811,10.8588-5.8112,0-9.4819-4.4353-9.4819-10.4922,0-6.3311,3.9764-10.7969,9.7886-10.7969,6.0265,0,9.5743,4.5572,9.5743,10.4304h.0001ZM24.498,113.4084c0,4.1907,2.111,7.5557,5.7197,7.5557,3.6403,0,5.6906-3.3956,5.6906-7.709,0-3.884-1.9272-7.5852-5.6906-7.5852-3.7306,0-5.7197,3.4869-5.7197,7.7385Z"/>
    <path class="st0" d="M46.2493,106.1594h-5.8731v-3.1508h15.5693v3.1508h-5.9341v17.4662h-3.7621s0-17.4662,0-17.4662Z"/>
    <path class="st0" d="M62.1254,103.0085v8.2594h8.7194v-8.2594h3.7622v20.617h-3.7622v-9.0849h-8.7194v9.0849h-3.7621v-20.6171s3.7621,0,3.7621,0Z"/>
    <path class="st0" d="M90.4537,114.4797h-7.7701v6.0559h8.688v3.0899h-12.4501v-20.617h11.9911v3.09h-8.229v5.3217h7.7701s0,3.0595,0,3.0595Z"/>
    <path class="st0" d="M94.6757,103.2838c1.4074-.2448,3.5185-.4286,5.6904-.4286,2.966,0,4.9857.4895,6.3627,1.6522,1.1322.9483,1.7739,2.3851,1.7739,4.1297,0,2.6603-1.8055,4.4658-3.7317,5.1695v.0913c1.4682.5503,2.3547,1.9893,2.8757,3.9764.6418,2.57,1.1931,4.9563,1.6205,5.7512h-3.885c-.3057-.6113-.7951-2.2938-1.3759-4.8638-.5818-2.692-1.5607-3.5489-3.7012-3.6099h-1.8968v8.4736h-3.7327v-20.3418h-.0001ZM98.4084,112.3992h2.2329c2.5386,0,4.1297-1.3454,4.1297-3.3956,0-2.2633-1.5912-3.3031-4.0384-3.3031-1.1921,0-1.9577.0915-2.3244.1838v6.515h.0001Z"/>
  </g>
</svg>