<?xml version="1.0" encoding="UTF-8"?>
<svg id="Layer_1" xmlns="http://www.w3.org/2000/svg" version="1.1" viewBox="0 0 48 48">
  <!-- Generator: Adobe Illustrator 29.0.0, SVG Export Plug-In . SVG Version: 2.1.0 Build 186)  -->
  <defs>
    <style>
      .st0 {
        fill: #1e1b16;
      }
    </style>
  </defs>
  <path class="st0" d="M30.3724,2.6471l.023,2.3342c-1.6239-1.4291-4.2604-2.9812-8.0601-2.9812-6.0225,0-14.3353,3.4509-14.3353,14.9255,0,3.3647.6786,15.6157,13.9112,15.6157,4.5622,0,7.2227-1.4513,8.7275-2.8421l.0306,3.1105s-.4772,4.9081-6.1285,4.9081c-4.3261,0-5.6833-2.9333-5.6833-2.9333h-8.8217s2.1206,11.2157,14.5898,11.2157,15.3744-10.7651,15.3744-13.1904l-.2969-30.1625h-9.3307ZM23.815,25.0353c-3.8181,0-6.9132-3.4378-6.9132-7.6785s3.0951-7.6785,6.9132-7.6785,6.9132,3.4378,6.9132,7.6785-3.0951,7.6785-6.9132,7.6785Z"/>
</svg>